  0
SECTION
  2
HEADER
  9
$ACADVER
  1
AC1024
  9
$ACADMAINTVER
 70
     6
  9
$DWGCODEPAGE
  3
UNDEFINED
  9
$INSBASE
 10
0.0
 20
0.0
 30
0.0
  9
$EXTMIN
 10
1.000000000000000E+20
 20
1.000000000000000E+20
 30
1.000000000000000E+20
  9
$EXTMAX
 10
-1.000000000000000E+20
 20
-1.000000000000000E+20
 30
-1.000000000000000E+20
  9
$LIMMIN
 10
0.0
 20
0.0
  9
$LIMMAX
 10
12.0
 20
9.0
  9
$ORTHOMODE
 70
     0
  9
$REGENMODE
 70
     1
  9
$FILLMODE
 70
     1
  9
$QTEXTMODE
 70
     0
  9
$MIRRTEXT
 70
     1
  9
$LTSCALE
 40
1.0
  9
$ATTMODE
 70
     1
  9
$TEXTSIZE
 40
0.2
  9
$TRACEWID
 40
0.05
  9
$TEXTSTYLE
  7
Standard
  9
$CLAYER
  8
0
  9
$CELTYPE
  6
ByLayer
  9
$CECOLOR
 62
   256
  9
$CELTSCALE
 40
1.0
  9
$DISPSILH
 70
     0
  9
$DIMSCALE
 40
1.0
  9
$DIMASZ
 40
0.18
  9
$DIMEXO
 40
0.0625
  9
$DIMDLI
 40
0.38
  9
$DIMRND
 40
0.0
  9
$DIMDLE
 40
0.0
  9
$DIMEXE
 40
0.18
  9
$DIMTP
 40
0.0
  9
$DIMTM
 40
0.0
  9
$DIMTXT
 40
0.18
  9
$DIMCEN
 40
0.09
  9
$DIMTSZ
 40
0.0
  9
$DIMTOL
 70
     0
  9
$DIMLIM
 70
     0
  9
$DIMTIH
 70
     1
  9
$DIMTOH
 70
     1
  9
$DIMSE1
 70
     0
  9
$DIMSE2
 70
     0
  9
$DIMTAD
 70
     0
  9
$DIMZIN
 70
     0
  9
$DIMBLK
  1

  9
$DIMASO
 70
     1
  9
$DIMSHO
 70
     1
  9
$DIMPOST
  1

  9
$DIMAPOST
  1

  9
$DIMALT
 70
     0
  9
$DIMALTD
 70
     2
  9
$DIMALTF
 40
25.4
  9
$DIMLFAC
 40
1.0
  9
$DIMTOFL
 70
     0
  9
$DIMTVP
 40
0.0
  9
$DIMTIX
 70
     0
  9
$DIMSOXD
 70
     0
  9
$DIMSAH
 70
     0
  9
$DIMBLK1
  1

  9
$DIMBLK2
  1

  9
$DIMSTYLE
  2
Standard
  9
$DIMCLRD
 70
     0
  9
$DIMCLRE
 70
     0
  9
$DIMCLRT
 70
     0
  9
$DIMTFAC
 40
1.0
  9
$DIMGAP
 40
0.09
  9
$DIMJUST
 70
     0
  9
$DIMSD1
 70
     0
  9
$DIMSD2
 70
     0
  9
$DIMTOLJ
 70
     1
  9
$DIMTZIN
 70
     0
  9
$DIMALTZ
 70
     0
  9
$DIMALTTZ
 70
     0
  9
$DIMUPT
 70
     0
  9
$DIMDEC
 70
     4
  9
$DIMTDEC
 70
     4
  9
$DIMALTU
 70
     2
  9
$DIMALTTD
 70
     2
  9
$DIMTXSTY
  7
Standard
  9
$DIMAUNIT
 70
     0
  9
$DIMADEC
 70
     0
  9
$DIMALTRND
 40
0.0
  9
$DIMAZIN
 70
     0
  9
$DIMDSEP
 70
    46
  9
$DIMATFIT
 70
     3
  9
$DIMFRAC
 70
     0
  9
$DIMLDRBLK
  1

  9
$DIMLUNIT
 70
     2
  9
$DIMLWD
 70
    -2
  9
$DIMLWE
 70
    -2
  9
$DIMTMOVE
 70
     0
  9
$DIMFXL
 40
1.0
  9
$DIMFXLON
 70
     0
  9
$DIMJOGANG
 40
0.7853981633974483
  9
$DIMTFILL
 70
     0
  9
$DIMTFILLCLR
 70
     0
  9
$DIMARCSYM
 70
     0
  9
$DIMLTYPE
  6

  9
$DIMLTEX1
  6

  9
$DIMLTEX2
  6

  9
$DIMTXTDIRECTION
 70
     0
  9
$LUNITS
 70
     2
  9
$LUPREC
 70
     4
  9
$SKETCHINC
 40
0.1
  9
$FILLETRAD
 40
0.5
  9
$AUNITS
 70
     0
  9
$AUPREC
 70
     0
  9
$MENU
  1
.
  9
$ELEVATION
 40
0.0
  9
$PELEVATION
 40
0.0
  9
$THICKNESS
 40
0.0
  9
$LIMCHECK
 70
     0
  9
$CHAMFERA
 40
0.5
  9
$CHAMFERB
 40
0.5
  9
$CHAMFERC
 40
1.0
  9
$CHAMFERD
 40
0.0
  9
$SKPOLY
 70
     0
  9
$TDCREATE
 40
2458190.50304397
  9
$TDUCREATE
 40
2458190.461377315
  9
$TDUPDATE
 40
2458190.50304397
  9
$TDUUPDATE
 40
2458190.461377315
  9
$TDINDWG
 40
0.0000000116
  9
$TDUSRTIMER
 40
0.0000000116
  9
$USRTIMER
 70
     1
  9
$ANGBASE
 50
0.0
  9
$ANGDIR
 70
     0
  9
$PDMODE
 70
     0
  9
$PDSIZE
 40
0.0
  9
$PLINEWID
 40
0.0
  9
$SPLFRAME
 70
     0
  9
$SPLINETYPE
 70
     6
  9
$SPLINESEGS
 70
     8
  9
$HANDSEED
  5
CC
  9
$SURFTAB1
 70
     6
  9
$SURFTAB2
 70
     6
  9
$SURFTYPE
 70
     6
  9
$SURFU
 70
     6
  9
$SURFV
 70
     6
  9
$UCSBASE
  2

  9
$UCSNAME
  2

  9
$UCSORG
 10
0.0
 20
0.0
 30
0.0
  9
$UCSXDIR
 10
1.0
 20
0.0
 30
0.0
  9
$UCSYDIR
 10
0.0
 20
1.0
 30
0.0
  9
$UCSORTHOREF
  2

  9
$UCSORTHOVIEW
 70
     0
  9
$UCSORGTOP
 10
0.0
 20
0.0
 30
0.0
  9
$UCSORGBOTTOM
 10
0.0
 20
0.0
 30
0.0
  9
$UCSORGLEFT
 10
0.0
 20
0.0
 30
0.0
  9
$UCSORGRIGHT
 10
0.0
 20
0.0
 30
0.0
  9
$UCSORGFRONT
 10
0.0
 20
0.0
 30
0.0
  9
$UCSORGBACK
 10
0.0
 20
0.0
 30
0.0
  9
$PUCSBASE
  2

  9
$PUCSNAME
  2

  9
$PUCSORG
 10
0.0
 20
0.0
 30
0.0
  9
$PUCSXDIR
 10
1.0
 20
0.0
 30
0.0
  9
$PUCSYDIR
 10
0.0
 20
1.0
 30
0.0
  9
$PUCSORTHOREF
  2

  9
$PUCSORTHOVIEW
 70
     0
  9
$PUCSORGTOP
 10
0.0
 20
0.0
 30
0.0
  9
$PUCSORGBOTTOM
 10
0.0
 20
0.0
 30
0.0
  9
$PUCSORGLEFT
 10
0.0
 20
0.0
 30
0.0
  9
$PUCSORGRIGHT
 10
0.0
 20
0.0
 30
0.0
  9
$PUCSORGFRONT
 10
0.0
 20
0.0
 30
0.0
  9
$PUCSORGBACK
 10
0.0
 20
0.0
 30
0.0
  9
$USERI1
 70
     0
  9
$USERI2
 70
     0
  9
$USERI3
 70
     0
  9
$USERI4
 70
     0
  9
$USERI5
 70
     0
  9
$USERR1
 40
0.0
  9
$USERR2
 40
0.0
  9
$USERR3
 40
0.0
  9
$USERR4
 40
0.0
  9
$USERR5
 40
0.0
  9
$WORLDVIEW
 70
     1
  9
$SHADEDGE
 70
     3
  9
$SHADEDIF
 70
    70
  9
$TILEMODE
 70
     1
  9
$MAXACTVP
 70
    64
  9
$PINSBASE
 10
0.0
 20
0.0
 30
0.0
  9
$PLIMCHECK
 70
     0
  9
$PEXTMIN
 10
1.000000000000000E+20
 20
1.000000000000000E+20
 30
1.000000000000000E+20
  9
$PEXTMAX
 10
-1.000000000000000E+20
 20
-1.000000000000000E+20
 30
-1.000000000000000E+20
  9
$PLIMMIN
 10
0.0
 20
0.0
  9
$PLIMMAX
 10
12.0
 20
9.0
  9
$UNITMODE
 70
     0
  9
$VISRETAIN
 70
     1
  9
$PLINEGEN
 70
     0
  9
$PSLTSCALE
 70
     1
  9
$TREEDEPTH
 70
  3020
  9
$CMLSTYLE
  2
Standard
  9
$CMLJUST
 70
     0
  9
$CMLSCALE
 40
1.0
  9
$PROXYGRAPHICS
 70
     1
  9
$MEASUREMENT
 70
     0
  9
$CELWEIGHT
370
    -1
  9
$ENDCAPS
280
     0
  9
$JOINSTYLE
280
     0
  9
$LWDISPLAY
290
     1
  9
$INSUNITS
 70
     1
  9
$HYPERLINKBASE
  1

  9
$STYLESHEET
  1

  9
$XEDIT
290
     1
  9
$CEPSNTYPE
380
     0
  9
$PSTYLEMODE
290
     1
  9
$FINGERPRINTGUID
  2
{BEAD09C2-04C4-1E9D-0CD3-1054E4177756}
  9
$VERSIONGUID
  2
{FAEB1C32-E019-11D5-929B-00C0DF256EC4}
  9
$EXTNAMES
290
     1
  9
$PSVPSCALE
 40
0.0
  9
$OLESTARTUP
290
     0
  9
$SORTENTS
280
   127
  9
$INDEXCTL
280
     0
  9
$HIDETEXT
280
     1
  9
$XCLIPFRAME
280
     2
  9
$HALOGAP
280
     0
  9
$OBSCOLOR
 70
   257
  9
$OBSLTYPE
280
     0
  9
$INTERSECTIONDISPLAY
280
     0
  9
$INTERSECTIONCOLOR
 70
   257
  9
$DIMASSOC
280
     2
  9
$PROJECTNAME
  1

  9
$CAMERADISPLAY
290
     0
  9
$LENSLENGTH
 40
50.0
  9
$CAMERAHEIGHT
 40
0.0
  9
$STEPSPERSEC
 40
2.0
  9
$STEPSIZE
 40
6.0
  9
$3DDWFPREC
 40
2.0
  9
$PSOLWIDTH
 40
0.25
  9
$PSOLHEIGHT
 40
4.0
  9
$LOFTANG1
 40
1.570796326794897
  9
$LOFTANG2
 40
1.570796326794897
  9
$LOFTMAG1
 40
0.0
  9
$LOFTMAG2
 40
0.0
  9
$LOFTPARAM
 70
     7
  9
$LOFTNORMALS
280
     1
  9
$LATITUDE
 40
37.795
  9
$LONGITUDE
 40
-122.394
  9
$NORTHDIRECTION
 40
0.0
  9
$TIMEZONE
 70
 -8000
  9
$LIGHTGLYPHDISPLAY
280
     1
  9
$TILEMODELIGHTSYNCH
280
     1
  9
$CMATERIAL
347
3C
  9
$SOLIDHIST
280
     1
  9
$SHOWHIST
280
     1
  9
$DWFFRAME
280
     2
  9
$DGNFRAME
280
     2
  9
$REALWORLDSCALE
290
     1
  9
$INTERFERECOLOR
 62
   256
  9
$CSHADOW
280
     0
  9
$SHADOWPLANELOCATION
 40
0.0
  0
ENDSEC
  0
SECTION
  2
CLASSES
  0
CLASS
  1
ACDBDICTIONARYWDFLT
  2
AcDbDictionaryWithDefault
  3
ObjectDBX Classes
 90
        0
 91
        4
280
     0
281
     0
  0
CLASS
  1
VISUALSTYLE
  2
AcDbVisualStyle
  3
ObjectDBX Classes
 90
     4095
 91
        4
280
     0
281
     0
  0
CLASS
  1
MATERIAL
  2
AcDbMaterial
  3
ObjectDBX Classes
 90
     1153
 91
        4
280
     0
281
     0
  0
CLASS
  1
SUN
  2
AcDbSun
  3
SCENEOE
 90
     1024
 91
        4
280
     0
281
     0
  0
ENDSEC
  0
SECTION
  2
TABLES
  0
TABLE
  2
VPORT
  5
8
330
0
100
AcDbSymbolTable
 70
     1
  0
VPORT
  5
29
330
8
100
AcDbSymbolTableRecord
100
AcDbViewportTableRecord
  2
*Active
 70
     0
 10
0.0
 20
0.0
 11
1.0
 21
1.0
 12
0.0
 22
0.0
 13
0.0
 23
0.0
 14
0.5
 24
0.5
 15
0.5
 25
0.5
 16
0.0
 26
0.0
 36
1.0
 17
300.0004582583334
 27
-200.0003055055556
 37
0.0
 40
400.0006110111112
 41
1.5
 42
50.0
 43
0.0
 44
0.0
 50
0.0
 51
0.0
 71
     0
 72
   100
 73
     1
 74
     3
 75
     0
 76
     0
 77
     0
 78
     0
281
     0
 65
     1
110
0.0
120
0.0
130
0.0
111
1.0
121
0.0
131
0.0
112
0.0
122
1.0
132
0.0
 79
     0
146
0.0
 60
     3
 61
     5
292
     1
282
     1
141
0.0
142
0.0
 63
   250
361
3F
  0
ENDTAB
  0
TABLE
  2
LTYPE
  5
5
330
0
100
AcDbSymbolTable
 70
     1
  0
LTYPE
  5
14
330
5
100
AcDbSymbolTableRecord
100
AcDbLinetypeTableRecord
  2
ByBlock
 70
     0
  3

 72
    65
 73
     0
 40
0.0
  0
LTYPE
  5
15
330
5
100
AcDbSymbolTableRecord
100
AcDbLinetypeTableRecord
  2
ByLayer
 70
     0
  3

 72
    65
 73
     0
 40
0.0
  0
LTYPE
  5
16
330
5
100
AcDbSymbolTableRecord
100
AcDbLinetypeTableRecord
  2
Continuous
 70
     0
  3
Solid line
 72
    65
 73
     0
 40
0.0
  0
ENDTAB
  0
TABLE
  2
LAYER
  5
2
330
0
100
AcDbSymbolTable
 70
     2
  0
LAYER
  5
10
330
2
100
AcDbSymbolTableRecord
100
AcDbLayerTableRecord
  2
0
 70
     0
 62
     7
  6
Continuous
370
    -3
390
F
347
3E
  0
LAYER
  5
40
330
2
100
AcDbSymbolTableRecord
100
AcDbLayerTableRecord
  2
Calque 1
 70
     0
 62
     7
  6
Continuous
370
    -3
390
F
347
3E
  0
ENDTAB
  0
TABLE
  2
STYLE
  5
3
330
0
100
AcDbSymbolTable
 70
     1
  0
STYLE
  5
11
330
3
100
AcDbSymbolTableRecord
100
AcDbTextStyleTableRecord
  2
Standard
 70
     0
 40
0.0
 41
1.0
 50
0.0
 71
     0
 42
0.2
  3
txt
  4

  0
ENDTAB
  0
TABLE
  2
VIEW
  5
6
330
0
100
AcDbSymbolTable
 70
     0
  0
ENDTAB
  0
TABLE
  2
UCS
  5
7
330
0
100
AcDbSymbolTable
 70
     0
  0
ENDTAB
  0
TABLE
  2
APPID
  5
9
330
0
100
AcDbSymbolTable
 70
     1
  0
APPID
  5
12
330
9
100
AcDbSymbolTableRecord
100
AcDbRegAppTableRecord
  2
ACAD
 70
     0
  0
ENDTAB
  0
TABLE
  2
DIMSTYLE
  5
A
330
0
100
AcDbSymbolTable
 70
     1
100
AcDbDimStyleTable
  0
DIMSTYLE
105
27
330
A
100
AcDbSymbolTableRecord
100
AcDbDimStyleTableRecord
  2
Standard
 70
     0
178
     0
340
11
  0
ENDTAB
  0
TABLE
  2
BLOCK_RECORD
  5
1
330
0
100
AcDbSymbolTable
 70
     3
  0
BLOCK_RECORD
  5
1F
330
1
100
AcDbSymbolTableRecord
100
AcDbBlockTableRecord
  2
*Model_Space
340
22
 70
     0
280
     1
281
     0
  0
BLOCK_RECORD
  5
1B
330
1
100
AcDbSymbolTableRecord
100
AcDbBlockTableRecord
  2
*Paper_Space
340
1E
 70
     0
280
     1
281
     0
  0
BLOCK_RECORD
  5
23
330
1
100
AcDbSymbolTableRecord
100
AcDbBlockTableRecord
  2
*Paper_Space0
340
26
 70
     0
280
     1
281
     0
  0
BLOCK_RECORD
  5
43
330
1
100
AcDbSymbolTableRecord
100
AcDbBlockTableRecord
  2
block 2
340
0
102
{BLKREFS
331
44
102
}
 70
     0
280
     1
281
     0
  0
BLOCK_RECORD
  5
B1
330
1
100
AcDbSymbolTableRecord
100
AcDbBlockTableRecord
  2
block 3
340
0
102
{BLKREFS
331
B2
102
}
 70
     0
280
     1
281
     0
  0
ENDTAB
  0
ENDSEC
  0
SECTION
  2
BLOCKS
  0
BLOCK
  5
20
330
1F
100
AcDbEntity
  8
0
100
AcDbBlockBegin
  2
*Model_Space
 70
     0
 10
0.0
 20
0.0
 30
0.0
  3
*Model_Space
  1

  0
ENDBLK
  5
21
330
1F
100
AcDbEntity
  8
0
100
AcDbBlockEnd
  0
BLOCK
  5
1C
330
1B
100
AcDbEntity
 67
     1
  8
0
100
AcDbBlockBegin
  2
*Paper_Space
 70
     0
 10
0.0
 20
0.0
 30
0.0
  3
*Paper_Space
  1

  0
ENDBLK
  5
1D
330
1B
100
AcDbEntity
 67
     1
  8
0
100
AcDbBlockEnd
  0
BLOCK
  5
24
330
23
100
AcDbEntity
  8
0
100
AcDbBlockBegin
  2
*Paper_Space0
 70
     0
 10
0.0
 20
0.0
 30
0.0
  3
*Paper_Space0
  1

  0
ENDBLK
  5
25
330
23
100
AcDbEntity
  8
0
100
AcDbBlockEnd
  0
BLOCK
  5
45
330
43
100
AcDbEntity
  8
0
100
AcDbBlockBegin
  2
block 2
 70
     0
 10
0.0
 20
0.0
 30
0.0
  3
block 2
  1

  0
SPLINE
  5
47
330
43
100
AcDbEntity
  8
Calque 1
370
     0
100
AcDbSpline
210
0.0
220
0.0
230
1.0
 70
    11
 71
     3
 72
    56
 73
    52
 74
     0
 42
0.0000000001
 43
0.0000000001
 12
1.0
 22
0.0
 32
0.0
 13
1.0
 23
0.0
 33
0.0
 40
0.0
 40
0.0
 40
0.0
 40
0.0
 40
1.0
 40
1.0
 40
1.0
 40
2.0
 40
2.0
 40
2.0
 40
3.0
 40
3.0
 40
3.0
 40
4.0
 40
4.0
 40
4.0
 40
5.0
 40
5.0
 40
5.0
 40
6.0
 40
6.0
 40
6.0
 40
7.0
 40
7.0
 40
7.0
 40
8.0
 40
8.0
 40
8.0
 40
9.0
 40
9.0
 40
9.0
 40
10.0
 40
10.0
 40
10.0
 40
11.0
 40
11.0
 40
11.0
 40
12.0
 40
12.0
 40
12.0
 40
13.0
 40
13.0
 40
13.0
 40
14.0
 40
14.0
 40
14.0
 40
15.0
 40
15.0
 40
15.0
 40
16.0
 40
16.0
 40
16.0
 40
17.0
 40
17.0
 40
17.0
 40
17.0
 10
384.900581639224
 20
-113.0159735642705
 30
0.0
 10
384.900581639224
 20
-113.0159735642705
 30
0.0
 10
384.900581639224
 20
-115.7141155811532
 30
0.0
 10
384.900581639224
 20
-115.7141155811532
 30
0.0
 10
385.1352712982796
 20
-115.441325487535
 30
0.0
 10
385.3970145203392
 20
-115.237972872292
 30
0.0
 10
385.6855858590426
 20
-115.103832289066
 30
0.0
 10
385.9741571977468
 20
-114.9699171521988
 30
0.0
 10
386.2875276358711
 20
-114.902734137407
 30
0.0
 10
386.6254717270559
 20
-114.902734137407
 30
0.0
 10
387.0150430343065
 20
-114.902734137407
 30
0.0
 10
387.3529871254926
 20
-114.9638301005234
 30
0.0
 10
387.6393040006134
 20
-115.0857965803973
 30
0.0
 10
387.9253954293748
 20
-115.2078757834506
 30
0.0
 10
388.1436275042703
 20
-115.3792150158058
 30
0.0
 10
388.2940002252981
 20
-115.5997015542853
 30
0.0
 10
388.4441474999671
 20
-115.8204135391217
 30
0.0
 10
388.5345514896709
 20
-116.0362784272538
 30
0.0
 10
388.5649867480493
 20
-116.2474089418604
 30
0.0
 10
388.5954220064284
 20
-116.4586521796458
 30
0.0
 10
388.6107523587967
 20
-116.9092067268347
 30
0.0
 10
388.6107523587967
 20
-117.5991853066022
 30
0.0
 10
388.6107523587967
 20
-117.5991853066022
 30
0.0
 10
388.6107523587967
 20
-121.8091706026663
 30
0.0
 10
388.6107523587967
 20
-121.8091706026663
 30
0.0
 10
388.6107523587967
 20
-122.4944148089088
 30
0.0
 10
388.5649867480493
 20
-123.0048253642411
 30
0.0
 10
388.4734555265545
 20
-123.3404022686644
 30
0.0
 10
388.3819243050597
 20
-123.6759791730871
 30
0.0
 10
388.167299371898
 20
-123.966917698554
 30
0.0
 10
387.829355280712
 20
-124.213330568244
 30
0.0
 10
387.4914111895272
 20
-124.459743437934
 30
0.0
 10
387.090116671642
 20
-124.5829498727796
 30
0.0
 10
386.6254717270565
 20
-124.5829498727796
 30
0.0
 10
386.2922620093972
 20
-124.5829498727802
 30
0.0
 10
385.981371481214
 20
-124.51001797585
 30
0.0
 10
385.6925746961516
 20
-124.364266905167
 30
0.0
 10
385.4040033574481
 20
-124.2185158344859
 30
0.0
 10
385.1400056718051
 20
-123.999832866874
 30
0.0
 10
384.900581639224
 20
-123.7082180023331
 30
0.0
 10
384.900581639224
 20
-123.7082180023331
 30
0.0
 10
384.7175191962338
 20
-124.4139778271859
 30
0.0
 10
384.7175191962338
 20
-124.4139778271859
 30
0.0
 10
384.7175191962338
 20
-124.4139778271859
 30
0.0
 10
382.0563503821207
 20
-124.4139778271866
 30
0.0
 10
382.0563503821207
 20
-124.4139778271866
 30
0.0
 10
382.0563503821207
 20
-124.4139778271866
 30
0.0
 10
382.0563503821214
 20
-113.0159735642705
 30
0.0
 10
382.0563503821214
 20
-113.0159735642705
 30
0.0
 10
382.0563503821214
 20
-113.0159735642705
 30
0.0
 10
384.900581639224
 20
-113.0159735642705
 30
0.0
 10
384.900581639224
 20
-113.0159735642705
 30
0.0
  0
SPLINE
  5
48
330
43
100
AcDbEntity
  8
Calque 1
370
     0
100
AcDbSpline
210
0.0
220
0.0
230
1.0
 70
    11
 71
     3
 72
    35
 73
    31
 74
     0
 42
0.0000000001
 43
0.0000000001
 12
1.0
 22
0.0
 32
0.0
 13
1.0
 23
0.0
 33
0.0
 40
0.0
 40
0.0
 40
0.0
 40
0.0
 40
1.0
 40
1.0
 40
1.0
 40
2.0
 40
2.0
 40
2.0
 40
3.0
 40
3.0
 40
3.0
 40
4.0
 40
4.0
 40
4.0
 40
5.0
 40
5.0
 40
5.0
 40
6.0
 40
6.0
 40
6.0
 40
7.0
 40
7.0
 40
7.0
 40
8.0
 40
8.0
 40
8.0
 40
9.0
 40
9.0
 40
9.0
 40
10.0
 40
10.0
 40
10.0
 40
10.0
 10
385.7665211016953
 20
-117.7258861600022
 30
0.0
 10
385.7665211016947
 20
-117.2425291676734
 30
0.0
 10
385.7360858433156
 20
-116.9267915427864
 30
0.0
 10
385.6749898801999
 20
-116.7790114548795
 30
0.0
 10
385.6141193634417
 20
-116.6311186437939
 30
0.0
 10
385.4944073471512
 20
-116.5571722382508
 30
0.0
 10
385.3160792776865
 20
-116.5571722382514
 30
0.0
 10
385.1422556181872
 20
-116.5571722382508
 30
0.0
 10
385.0297624025657
 20
-116.6217626199222
 30
0.0
 10
384.978135186501
 20
-116.7508306600844
 30
0.0
 10
384.9262825240776
 20
-116.8798987002467
 30
0.0
 10
384.900581639224
 20
-117.2048796258265
 30
0.0
 10
384.900581639224
 20
-117.7258861600022
 30
0.0
 10
384.900581639224
 20
-117.7258861600022
 30
0.0
 10
384.900581639224
 20
-121.7528090130742
 30
0.0
 10
384.900581639224
 20
-121.7528090130742
 30
0.0
 10
384.900581639224
 20
-122.2551034995065
 30
0.0
 10
384.9298896658115
 20
-122.5764772833525
 30
0.0
 10
384.9887311653438
 20
-122.7172685341498
 30
0.0
 10
385.0473472185186
 20
-122.8580597849465
 30
0.0
 10
385.1634520930753
 20
-122.9285117719358
 30
0.0
 10
385.3370457890138
 20
-122.9285117719358
 30
0.0
 10
385.5153738584792
 20
-122.9285117719352
 30
0.0
 10
385.631704179394
 20
-122.8558053213638
 30
0.0
 10
385.6855858590426
 20
-122.7102796970409
 30
0.0
 10
385.7394675386913
 20
-122.5648667958969
 30
0.0
 10
385.7665211016947
 20
-122.215199494077
 30
0.0
 10
385.7665211016947
 20
-121.6612777915794
 30
0.0
 10
385.7665211016947
 20
-121.6612777915794
 30
0.0
 10
385.7665211016953
 20
-117.7258861600022
 30
0.0
 10
385.7665211016953
 20
-117.7258861600022
 30
0.0
  0
SPLINE
  5
49
330
43
100
AcDbEntity
  8
Calque 1
370
     0
100
AcDbSpline
210
0.0
220
0.0
230
1.0
 70
    11
 71
     3
 72
    35
 73
    31
 74
     0
 42
0.0000000001
 43
0.0000000001
 12
1.0
 22
0.0
 32
0.0
 13
1.0
 23
0.0
 33
0.0
 40
0.0
 40
0.0
 40
0.0
 40
0.0
 40
1.0
 40
1.0
 40
1.0
 40
2.0
 40
2.0
 40
2.0
 40
3.0
 40
3.0
 40
3.0
 40
4.0
 40
4.0
 40
4.0
 40
5.0
 40
5.0
 40
5.0
 40
6.0
 40
6.0
 40
6.0
 40
7.0
 40
7.0
 40
7.0
 40
8.0
 40
8.0
 40
8.0
 40
9.0
 40
9.0
 40
9.0
 40
10.0
 40
10.0
 40
10.0
 40
10.0
 10
392.39126234218
 20
-115.071706183
 30
0.0
 10
392.39126234218
 20
-115.071706183
 30
0.0
 10
392.2787646093572
 20
-116.3002761128962
 30
0.0
 10
392.2787646093572
 20
-116.3002761128962
 30
0.0
 10
392.6915568915179
 20
-115.4204716993865
 30
0.0
 10
393.2901169729706
 20
-114.9545867998298
 30
0.0
 10
394.0739939609969
 20
-114.902734137407
 30
0.0
 10
394.0739939609969
 20
-114.902734137407
 30
0.0
 10
394.0739939609976
 20
-118.1905311045878
 30
0.0
 10
394.0739939609976
 20
-118.1905311045878
 30
0.0
 10
393.5529874268219
 20
-118.1905311045871
 30
0.0
 10
393.1704049566807
 20
-118.260870368397
 30
0.0
 10
392.9264719969323
 20
-118.4016616191937
 30
0.0
 10
392.6823135908256
 20
-118.5425655931711
 30
0.0
 10
392.532166316156
 20
-118.7385912017669
 30
0.0
 10
392.4758047265652
 20
-118.9895129986248
 30
0.0
 10
392.419443136975
 20
-119.2406602418404
 30
0.0
 10
392.3912623421793
 20
-119.8191555973992
 30
0.0
 10
392.3912623421793
 20
-120.7249990653001
 30
0.0
 10
392.3912623421793
 20
-120.7249990653001
 30
0.0
 10
392.3912623421793
 20
-124.4139778271866
 30
0.0
 10
392.3912623421793
 20
-124.4139778271866
 30
0.0
 10
392.3912623421793
 20
-124.4139778271866
 30
0.0
 10
389.5470310850766
 20
-124.4139778271866
 30
0.0
 10
389.5470310850766
 20
-124.4139778271866
 30
0.0
 10
389.5470310850766
 20
-124.4139778271866
 30
0.0
 10
389.5470310850766
 20
-115.071706183
 30
0.0
 10
389.5470310850766
 20
-115.071706183
 30
0.0
 10
389.5470310850766
 20
-115.071706183
 30
0.0
 10
392.39126234218
 20
-115.071706183
 30
0.0
 10
392.39126234218
 20
-115.071706183
 30
0.0
  0
SPLINE
  5
4A
330
43
100
AcDbEntity
  8
Calque 1
370
     0
100
AcDbSpline
210
0.0
220
0.0
230
1.0
 70
    11
 71
     3
 72
    80
 73
    76
 74
     0
 42
0.0000000001
 43
0.0000000001
 12
1.0
 22
0.0
 32
0.0
 13
1.0
 23
0.0
 33
0.0
 40
0.0
 40
0.0
 40
0.0
 40
0.0
 40
1.0
 40
1.0
 40
1.0
 40
2.0
 40
2.0
 40
2.0
 40
3.0
 40
3.0
 40
3.0
 40
4.0
 40
4.0
 40
4.0
 40
5.0
 40
5.0
 40
5.0
 40
6.0
 40
6.0
 40
6.0
 40
7.0
 40
7.0
 40
7.0
 40
8.0
 40
8.0
 40
8.0
 40
9.0
 40
9.0
 40
9.0
 40
10.0
 40
10.0
 40
10.0
 40
11.0
 40
11.0
 40
11.0
 40
12.0
 40
12.0
 40
12.0
 40
13.0
 40
13.0
 40
13.0
 40
14.0
 40
14.0
 40
14.0
 40
15.0
 40
15.0
 40
15.0
 40
16.0
 40
16.0
 40
16.0
 40
17.0
 40
17.0
 40
17.0
 40
18.0
 40
18.0
 40
18.0
 40
19.0
 40
19.0
 40
19.0
 40
20.0
 40
20.0
 40
20.0
 40
21.0
 40
21.0
 40
21.0
 40
22.0
 40
22.0
 40
22.0
 40
23.0
 40
23.0
 40
23.0
 40
24.0
 40
24.0
 40
24.0
 40
25.0
 40
25.0
 40
25.0
 40
25.0
 10
397.2491804721761
 20
-118.6903456810773
 30
0.0
 10
397.2491804721761
 20
-118.6903456810773
 30
0.0
 10
394.5807973745966
 20
-118.6903456810773
 30
0.0
 10
394.5807973745966
 20
-118.6903456810773
 30
0.0
 10
394.5807973745966
 20
-118.6903456810773
 30
0.0
 10
394.5807973745966
 20
-118.0638302511877
 30
0.0
 10
394.5807973745966
 20
-118.0638302511877
 30
0.0
 10
394.5807973745966
 20
-117.3410492262764
 30
0.0
 10
394.6642125271902
 20
-116.7837458284057
 30
0.0
 10
394.8308173860211
 20
-116.3918073343916
 30
0.0
 10
394.9974222448514
 20
-115.9999815635575
 30
0.0
 10
395.3317591943029
 20
-115.6538086802915
 30
0.0
 10
395.8340536807347
 20
-115.3532886845947
 30
0.0
 10
396.3361227208081
 20
-115.0529941352554
 30
0.0
 10
396.9885644819095
 20
-114.902734137407
 30
0.0
 10
397.7911535176798
 20
-114.902734137407
 30
0.0
 10
398.7531331288133
 20
-114.9027341374064
 30
0.0
 10
399.4783940636661
 20
-115.0729461379705
 30
0.0
 10
399.9664854295205
 20
-115.4131446927399
 30
0.0
 10
400.4545767953762
 20
-115.7535686938669
 30
0.0
 10
400.7481079539641
 20
-116.1712080727339
 30
0.0
 10
400.8466280125678
 20
-116.6662882756979
 30
0.0
 10
400.9451480711728
 20
-117.1615939250207
 30
0.0
 10
400.9945208236541
 20
-118.1811750807154
 30
0.0
 10
400.9945208236541
 20
-119.7252571891403
 30
0.0
 10
400.9945208236541
 20
-119.7252571891403
 30
0.0
 10
400.9945208236541
 20
-124.4139778271866
 30
0.0
 10
400.9945208236541
 20
-124.4139778271866
 30
0.0
 10
400.9945208236541
 20
-124.4139778271866
 30
0.0
 10
398.2276176674702
 20
-124.4139778271859
 30
0.0
 10
398.2276176674702
 20
-124.4139778271859
 30
0.0
 10
398.2276176674702
 20
-124.4139778271859
 30
0.0
 10
398.2276176674702
 20
-123.581517148933
 30
0.0
 10
398.2276176674702
 20
-123.581517148933
 30
0.0
 10
398.0540239715304
 20
-123.9152904824881
 30
0.0
 10
397.8299302913183
 20
-124.1656486634509
 30
0.0
 10
397.5553366268326
 20
-124.3325916918175
 30
0.0
 10
397.2807429623475
 20
-124.4994219970053
 30
0.0
 10
396.9533948500055
 20
-124.5829498727796
 30
0.0
 10
396.5732922898059
 20
-124.5829498727796
 30
0.0
 10
396.0757321768991
 20
-124.5829498727796
 30
0.0
 10
395.6192033012154
 20
-124.443285853774
 30
0.0
 10
395.2039311091112
 20
-124.1640705389415
 30
0.0
 10
394.7884334706487
 20
-123.8848552241103
 30
0.0
 10
394.5807973745966
 20
-123.2734447002295
 30
0.0
 10
394.5807973745966
 20
-122.3300644136619
 30
0.0
 10
394.5807973745966
 20
-122.3300644136619
 30
0.0
 10
394.5807973745966
 20
-121.562757732975
 30
0.0
 10
394.5807973745966
 20
-121.562757732975
 30
0.0
 10
394.5807973745966
 20
-120.863423129334
 30
0.0
 10
394.6910406438361
 20
-120.3870549741146
 30
0.0
 10
394.9117526286725
 20
-120.133540544135
 30
0.0
 10
395.132239167152
 20
-119.8801388373355
 30
0.0
 10
395.6791720325395
 20
-119.584465938343
 30
0.0
 10
396.552100332119
 20
-119.2465218471576
 30
0.0
 10
397.4861245948156
 20
-118.8803969611777
 30
0.0
 10
397.9859391713058
 20
-118.6339840914871
 30
0.0
 10
398.0515440615882
 20
-118.5072832380877
 30
0.0
 10
398.1173743982308
 20
-118.3805823846863
 30
0.0
 10
398.1502895665521
 20
-118.1225590275406
 30
0.0
 10
398.1502895665521
 20
-117.7328749971111
 30
0.0
 10
398.1502895665521
 20
-117.2447836312567
 30
0.0
 10
398.1137672564963
 20
-116.9267915427864
 30
0.0
 10
398.0411735291043
 20
-116.7790114548795
 30
0.0
 10
397.9683543553529
 20
-116.6311186437939
 30
0.0
 10
397.8475151072706
 20
-116.5571722382508
 30
0.0
 10
397.6784303384988
 20
-116.5571722382508
 30
0.0
 10
397.4861245948156
 20
-116.5571722382508
 30
0.0
 10
397.3664125785251
 20
-116.6195081563376
 30
0.0
 10
397.319519735986
 20
-116.7437290997955
 30
0.0
 10
397.2724014470881
 20
-116.8681754896122
 30
0.0
 10
397.2491804721761
 20
-117.1907892284287
 30
0.0
 10
397.2491804721768
 20
-117.7117957626044
 30
0.0
 10
397.2491804721768
 20
-117.7117957626044
 30
0.0
 10
397.2491804721761
 20
-118.6903456810773
 30
0.0
 10
397.2491804721761
 20
-118.6903456810773
 30
0.0
  0
SPLINE
  5
4B
330
43
100
AcDbEntity
  8
Calque 1
370
     0
100
AcDbSpline
210
0.0
220
0.0
230
1.0
 70
    11
 71
     3
 72
    26
 73
    22
 74
     0
 42
0.0000000001
 43
0.0000000001
 12
1.0
 22
0.0
 32
0.0
 13
1.0
 23
0.0
 33
0.0
 40
0.0
 40
0.0
 40
0.0
 40
0.0
 40
1.0
 40
1.0
 40
1.0
 40
2.0
 40
2.0
 40
2.0
 40
3.0
 40
3.0
 40
3.0
 40
4.0
 40
4.0
 40
4.0
 40
5.0
 40
5.0
 40
5.0
 40
6.0
 40
6.0
 40
6.0
 40
7.0
 40
7.0
 40
7.0
 40
7.0
 10
398.1502895665521
 20
-119.9716700588316
 30
0.0
 10
397.6948879226595
 20
-120.3049924996696
 30
0.0
 10
397.4308902370171
 20
-120.5840950913233
 30
0.0
 10
397.3582965096239
 20
-120.8094287265066
 30
0.0
 10
397.2854773358724
 20
-121.0347623616904
 30
0.0
 10
397.2491804721761
 20
-121.358616055478
 30
0.0
 10
397.2491804721761
 20
-121.7809898078699
 30
0.0
 10
397.2491804721768
 20
-122.2644595233788
 30
0.0
 10
397.2807429623475
 20
-122.5764772833525
 30
0.0
 10
397.3440933890473
 20
-122.7172685341505
 30
0.0
 10
397.4074438157469
 20
-122.8580597849471
 30
0.0
 10
397.5330174373547
 20
-122.9285117719352
 30
0.0
 10
397.7208142538712
 20
-122.9285117719352
 30
0.0
 10
397.8991423233359
 20
-122.9285117719358
 30
0.0
 10
398.0152471978926
 20
-122.8733901373167
 30
0.0
 10
398.0693543239
 20
-122.7630341448979
 30
0.0
 10
398.123236003548
 20
-122.6527908756578
 30
0.0
 10
398.1502895665521
 20
-122.3629795819825
 30
0.0
 10
398.1502895665521
 20
-121.8936002638728
 30
0.0
 10
398.1502895665521
 20
-121.8936002638728
 30
0.0
 10
398.1502895665521
 20
-119.9716700588316
 30
0.0
 10
398.1502895665521
 20
-119.9716700588316
 30
0.0
  0
POLYLINE
  5
4C
330
43
100
AcDbEntity
  8
Calque 1
370
     0
100
AcDb2dPolyline
 66
     1
 10
0.0
 20
0.0
 30
0.0
  0
VERTEX
  5
4D
330
4C
100
AcDbEntity
  8
Calque 1
370
     0
100
AcDbVertex
100
AcDb2dVertex
 10
404.9017316604361
 20
-113.0159735642698
 30
0.0
  0
VERTEX
  5
4E
330
4C
100
AcDbEntity
  8
Calque 1
370
     0
100
AcDbVertex
100
AcDb2dVertex
 10
404.9017316604361
 20
-114.5014396195212
 30
0.0
  0
VERTEX
  5
4F
330
4C
100
AcDbEntity
  8
Calque 1
370
     0
100
AcDbVertex
100
AcDb2dVertex
 10
401.9729580189476
 20
-114.5014396195212
 30
0.0
  0
VERTEX
  5
50
330
4C
100
AcDbEntity
  8
Calque 1
370
     0
100
AcDbVertex
100
AcDb2dVertex
 10
401.9729580189476
 20
-113.0159735642698
 30
0.0
  0
VERTEX
  5
51
330
4C
100
AcDbEntity
  8
Calque 1
370
     0
100
AcDbVertex
100
AcDb2dVertex
 10
404.9017316604361
 20
-113.0159735642698
 30
0.0
  0
SEQEND
  5
52
330
4C
100
AcDbEntity
  8
Calque 1
370
     0
  0
POLYLINE
  5
53
330
43
100
AcDbEntity
  8
Calque 1
370
     0
100
AcDb2dPolyline
 66
     1
 10
0.0
 20
0.0
 30
0.0
  0
VERTEX
  5
54
330
53
100
AcDbEntity
  8
Calque 1
370
     0
100
AcDbVertex
100
AcDb2dVertex
 10
404.9017316604367
 20
-115.0717061829994
 30
0.0
  0
VERTEX
  5
55
330
53
100
AcDbEntity
  8
Calque 1
370
     0
100
AcDbVertex
100
AcDb2dVertex
 10
404.9017316604361
 20
-124.4139778271859
 30
0.0
  0
VERTEX
  5
56
330
53
100
AcDbEntity
  8
Calque 1
370
     0
100
AcDbVertex
100
AcDb2dVertex
 10
401.9729580189476
 20
-124.4139778271859
 30
0.0
  0
VERTEX
  5
57
330
53
100
AcDbEntity
  8
Calque 1
370
     0
100
AcDbVertex
100
AcDb2dVertex
 10
401.9729580189476
 20
-115.0717061829994
 30
0.0
  0
VERTEX
  5
58
330
53
100
AcDbEntity
  8
Calque 1
370
     0
100
AcDbVertex
100
AcDb2dVertex
 10
404.9017316604367
 20
-115.0717061829994
 30
0.0
  0
SEQEND
  5
59
330
53
100
AcDbEntity
  8
Calque 1
370
     0
  0
POLYLINE
  5
5A
330
43
100
AcDbEntity
  8
Calque 1
370
     0
100
AcDb2dPolyline
 66
     1
 10
0.0
 20
0.0
 30
0.0
  0
VERTEX
  5
5B
330
5A
100
AcDbEntity
  8
Calque 1
370
     0
100
AcDbVertex
100
AcDb2dVertex
 10
408.8511009662317
 20
-113.0159735642698
 30
0.0
  0
VERTEX
  5
5C
330
5A
100
AcDbEntity
  8
Calque 1
370
     0
100
AcDbVertex
100
AcDb2dVertex
 10
408.8511009662317
 20
-124.4139778271859
 30
0.0
  0
VERTEX
  5
5D
330
5A
100
AcDbEntity
  8
Calque 1
370
     0
100
AcDbVertex
100
AcDb2dVertex
 10
405.9223273247437
 20
-124.4139778271866
 30
0.0
  0
VERTEX
  5
5E
330
5A
100
AcDbEntity
  8
Calque 1
370
     0
100
AcDbVertex
100
AcDb2dVertex
 10
405.9223273247437
 20
-113.0159735642705
 30
0.0
  0
VERTEX
  5
5F
330
5A
100
AcDbEntity
  8
Calque 1
370
     0
100
AcDbVertex
100
AcDb2dVertex
 10
408.8511009662317
 20
-113.0159735642698
 30
0.0
  0
SEQEND
  5
60
330
5A
100
AcDbEntity
  8
Calque 1
370
     0
  0
POLYLINE
  5
61
330
43
100
AcDbEntity
  8
Calque 1
370
     0
100
AcDb2dPolyline
 66
     1
 10
0.0
 20
0.0
 30
0.0
  0
VERTEX
  5
62
330
61
100
AcDbEntity
  8
Calque 1
370
     0
100
AcDbVertex
100
AcDb2dVertex
 10
412.8006957183861
 20
-113.0159735642705
 30
0.0
  0
VERTEX
  5
63
330
61
100
AcDbEntity
  8
Calque 1
370
     0
100
AcDbVertex
100
AcDb2dVertex
 10
412.8006957183854
 20
-124.4139778271866
 30
0.0
  0
VERTEX
  5
64
330
61
100
AcDbEntity
  8
Calque 1
370
     0
100
AcDbVertex
100
AcDb2dVertex
 10
409.8719220768975
 20
-124.4139778271866
 30
0.0
  0
VERTEX
  5
65
330
61
100
AcDbEntity
  8
Calque 1
370
     0
100
AcDbVertex
100
AcDb2dVertex
 10
409.8719220768975
 20
-113.0159735642705
 30
0.0
  0
VERTEX
  5
66
330
61
100
AcDbEntity
  8
Calque 1
370
     0
100
AcDbVertex
100
AcDb2dVertex
 10
412.8006957183861
 20
-113.0159735642705
 30
0.0
  0
SEQEND
  5
67
330
61
100
AcDbEntity
  8
Calque 1
370
     0
  0
SPLINE
  5
68
330
43
100
AcDbEntity
  8
Calque 1
370
     0
100
AcDbSpline
210
0.0
220
0.0
230
1.0
 70
    11
 71
     3
 72
    80
 73
    76
 74
     0
 42
0.0000000001
 43
0.0000000001
 12
1.0
 22
0.0
 32
0.0
 13
1.0
 23
0.0
 33
0.0
 40
0.0
 40
0.0
 40
0.0
 40
0.0
 40
1.0
 40
1.0
 40
1.0
 40
2.0
 40
2.0
 40
2.0
 40
3.0
 40
3.0
 40
3.0
 40
4.0
 40
4.0
 40
4.0
 40
5.0
 40
5.0
 40
5.0
 40
6.0
 40
6.0
 40
6.0
 40
7.0
 40
7.0
 40
7.0
 40
8.0
 40
8.0
 40
8.0
 40
9.0
 40
9.0
 40
9.0
 40
10.0
 40
10.0
 40
10.0
 40
11.0
 40
11.0
 40
11.0
 40
12.0
 40
12.0
 40
12.0
 40
13.0
 40
13.0
 40
13.0
 40
14.0
 40
14.0
 40
14.0
 40
15.0
 40
15.0
 40
15.0
 40
16.0
 40
16.0
 40
16.0
 40
17.0
 40
17.0
 40
17.0
 40
18.0
 40
18.0
 40
18.0
 40
19.0
 40
19.0
 40
19.0
 40
20.0
 40
20.0
 40
20.0
 40
21.0
 40
21.0
 40
21.0
 40
22.0
 40
22.0
 40
22.0
 40
23.0
 40
23.0
 40
23.0
 40
24.0
 40
24.0
 40
24.0
 40
25.0
 40
25.0
 40
25.0
 40
25.0
 10
420.2631956265462
 20
-119.9083196321313
 30
0.0
 10
420.2631956265462
 20
-119.9083196321313
 30
0.0
 10
416.581205701768
 20
-119.9083196321319
 30
0.0
 10
416.581205701768
 20
-119.9083196321319
 30
0.0
 10
416.581205701768
 20
-119.9083196321319
 30
0.0
 10
416.581205701768
 20
-121.9287698957768
 30
0.0
 10
416.581205701768
 20
-121.9287698957768
 30
0.0
 10
416.581205701768
 20
-122.3512563713487
 30
0.0
 10
416.6116409601471
 20
-122.6234828490704
 30
0.0
 10
416.6727369232635
 20
-122.7454493289456
 30
0.0
 10
416.7336074400216
 20
-122.8675285319982
 30
0.0
 10
416.85083954637
 20
-122.9285117719358
 30
0.0
 10
417.0246586886673
 20
-122.9285117719358
 30
0.0
 10
417.2404108536207
 20
-122.9285117719352
 30
0.0
 10
417.3846965229724
 20
-122.8475765292832
 30
0.0
 10
417.4575156967239
 20
-122.6855933208003
 30
0.0
 10
417.5303348704747
 20
-122.5237228354962
 30
0.0
 10
417.566631734171
 20
-122.2104651205514
 30
0.0
 10
417.566631734171
 20
-121.7458201759646
 30
0.0
 10
417.566631734171
 20
-121.7458201759646
 30
0.0
 10
417.566631734171
 20
-120.5137558275134
 30
0.0
 10
417.566631734171
 20
-120.5137558275134
 30
0.0
 10
417.566631734171
 20
-120.5137558275134
 30
0.0
 10
420.2631956265462
 20
-120.5137558275141
 30
0.0
 10
420.2631956265462
 20
-120.5137558275141
 30
0.0
 10
420.2631956265462
 20
-120.5137558275141
 30
0.0
 10
420.2631956265462
 20
-121.2037344072828
 30
0.0
 10
420.2631956265462
 20
-121.2037344072828
 30
0.0
 10
420.2631956265462
 20
-121.7809898078699
 30
0.0
 10
420.2266733164917
 20
-122.2244427947692
 30
0.0
 10
420.1540795890991
 20
-122.5343188143384
 30
0.0
 10
420.0810349689888
 20
-122.8440821107287
 30
0.0
 10
419.9110484147841
 20
-123.1749246416258
 30
0.0
 10
419.6436690337655
 20
-123.5269591302091
 30
0.0
 10
419.3760642063894
 20
-123.8788808956136
 30
0.0
 10
419.0369928834116
 20
-124.1428785812566
 30
0.0
 10
418.6262296184753
 20
-124.3189521871367
 30
0.0
 10
418.2154663535385
 20
-124.4949130698386
 30
0.0
 10
417.7005468710389
 20
-124.5829498727796
 30
0.0
 10
417.0810202782582
 20
-124.5829498727802
 30
0.0
 10
416.4802057332215
 20
-124.5829498727802
 30
0.0
 10
415.9497304519946
 20
-124.4960403016309
 30
0.0
 10
415.4898198809353
 20
-124.3224466056918
 30
0.0
 10
415.0299093098747
 20
-124.1488529097519
 30
0.0
 10
414.672125939153
 20
-123.9105561089625
 30
0.0
 10
414.4162443224125
 20
-123.6078943728612
 30
0.0
 10
414.1603627056708
 20
-123.3051199135797
 30
0.0
 10
413.9833873143566
 20
-122.9719101959198
 30
0.0
 10
413.8846418093928
 20
-122.6081524967021
 30
0.0
 10
413.7861217507891
 20
-122.2445075206637
 30
0.0
 10
413.7369744446653
 20
-121.715272194408
 30
0.0
 10
413.736974444666
 20
-121.0206719642925
 30
0.0
 10
413.736974444666
 20
-121.0206719642925
 30
0.0
 10
413.7369744446653
 20
-118.2961527234804
 30
0.0
 10
413.7369744446653
 20
-118.2961527234804
 30
0.0
 10
413.736974444666
 20
-117.4794732903123
 30
0.0
 10
413.8472177139048
 20
-116.8352603212903
 30
0.0
 10
414.0677042523837
 20
-116.3636265395965
 30
0.0
 10
414.2884162372201
 20
-115.891880034722
 30
0.0
 10
414.6495813033176
 20
-115.5306022454465
 30
0.0
 10
415.1518757897486
 20
-115.2794550022303
 30
0.0
 10
415.6541702761809
 20
-115.0284204821936
 30
0.0
 10
416.2313129535899
 20
-114.902734137407
 30
0.0
 10
416.8837547146906
 20
-114.902734137407
 30
0.0
 10
417.681609376936
 20
-114.902734137407
 30
0.0
 10
418.3399127433539
 20
-115.0541213670477
 30
0.0
 10
418.8586648139475
 20
-115.3568958263285
 30
0.0
 10
419.3771914381811
 20
-115.6595575624299
 30
0.0
 10
419.7408364142194
 20
-116.0608520803157
 30
0.0
 10
419.949825188422
 20
-116.5606666568052
 30
0.0
 10
420.1585885162658
 20
-117.0605939564742
 30
0.0
 10
420.2631956265462
 20
-117.7635357018491
 30
0.0
 10
420.2631956265469
 20
-118.6692664465699
 30
0.0
 10
420.2631956265469
 20
-118.6692664465699
 30
0.0
 10
420.2631956265462
 20
-119.9083196321313
 30
0.0
 10
420.2631956265462
 20
-119.9083196321313
 30
0.0
  0
SPLINE
  5
69
330
43
100
AcDbEntity
  8
Calque 1
370
     0
100
AcDbSpline
210
0.0
220
0.0
230
1.0
 70
    11
 71
     3
 72
    26
 73
    22
 74
     0
 42
0.0000000001
 43
0.0000000001
 12
1.0
 22
0.0
 32
0.0
 13
1.0
 23
0.0
 33
0.0
 40
0.0
 40
0.0
 40
0.0
 40
0.0
 40
1.0
 40
1.0
 40
1.0
 40
2.0
 40
2.0
 40
2.0
 40
3.0
 40
3.0
 40
3.0
 40
4.0
 40
4.0
 40
4.0
 40
5.0
 40
5.0
 40
5.0
 40
6.0
 40
6.0
 40
6.0
 40
7.0
 40
7.0
 40
7.0
 40
7.0
 10
417.4117500859758
 20
-118.3876839449753
 30
0.0
 10
417.4117500859758
 20
-118.3876839449753
 30
0.0
 10
417.4117500859758
 20
-117.7046942023154
 30
0.0
 10
417.4117500859758
 20
-117.7046942023154
 30
0.0
 10
417.4117500859758
 20
-117.2213372099865
 30
0.0
 10
417.3860492011223
 20
-116.9092067268341
 30
0.0
 10
417.3344219850577
 20
-116.7684154760361
 30
0.0
 10
417.2827947689924
 20
-116.6276242252395
 30
0.0
 10
417.1770604269203
 20
-116.5571722382508
 30
0.0
 10
417.0176698515584
 20
-116.5571722382514
 30
0.0
 10
416.8204042879909
 20
-116.5571722382508
 30
0.0
 10
416.6984378081164
 20
-116.6170282463954
 30
0.0
 10
416.6515449655779
 20
-116.7367402626866
 30
0.0
 10
416.60442667668
 20
-116.8564522789765
 30
0.0
 10
416.5812057017686
 20
-117.1791787409737
 30
0.0
 10
416.5812057017686
 20
-117.704694202316
 30
0.0
 10
416.5812057017686
 20
-117.704694202316
 30
0.0
 10
416.5812057017686
 20
-118.3876839449759
 30
0.0
 10
416.5812057017686
 20
-118.3876839449759
 30
0.0
 10
416.5812057017686
 20
-118.3876839449759
 30
0.0
 10
417.4117500859758
 20
-118.3876839449753
 30
0.0
 10
417.4117500859758
 20
-118.3876839449753
 30
0.0
  0
SPLINE
  5
6A
330
43
100
AcDbEntity
  8
Calque 1
370
     0
100
AcDbSpline
210
0.0
220
0.0
230
1.0
 70
    11
 71
     3
 72
    56
 73
    52
 74
     0
 42
0.0000000001
 43
0.0000000001
 12
1.0
 22
0.0
 32
0.0
 13
1.0
 23
0.0
 33
0.0
 40
0.0
 40
0.0
 40
0.0
 40
0.0
 40
1.0
 40
1.0
 40
1.0
 40
2.0
 40
2.0
 40
2.0
 40
3.0
 40
3.0
 40
3.0
 40
4.0
 40
4.0
 40
4.0
 40
5.0
 40
5.0
 40
5.0
 40
6.0
 40
6.0
 40
6.0
 40
7.0
 40
7.0
 40
7.0
 40
8.0
 40
8.0
 40
8.0
 40
9.0
 40
9.0
 40
9.0
 40
10.0
 40
10.0
 40
10.0
 40
11.0
 40
11.0
 40
11.0
 40
12.0
 40
12.0
 40
12.0
 40
13.0
 40
13.0
 40
13.0
 40
14.0
 40
14.0
 40
14.0
 40
15.0
 40
15.0
 40
15.0
 40
16.0
 40
16.0
 40
16.0
 40
17.0
 40
17.0
 40
17.0
 40
17.0
 10
421.2770279001026
 20
-113.0159735642705
 30
0.0
 10
421.2770279001026
 20
-113.0159735642705
 30
0.0
 10
423.3750317110244
 20
-113.0159735642705
 30
0.0
 10
423.3750317110244
 20
-113.0159735642705
 30
0.0
 10
424.7734754719477
 20
-113.0159735642698
 30
0.0
 10
425.7205756234292
 20
-113.0700806902773
 30
0.0
 10
426.2156558263939
 20
-113.177956772754
 30
0.0
 10
426.7107360293572
 20
-113.2859455784094
 30
0.0
 10
427.1145104571851
 20
-113.5616664746868
 30
0.0
 10
427.4265282171582
 20
-114.0051194615861
 30
0.0
 10
427.7387714234907
 20
-114.4486851716643
 30
0.0
 10
427.8947803034776
 20
-115.156248567386
 30
0.0
 10
427.8947803034776
 20
-116.1276969255705
 30
0.0
 10
427.8947803034776
 20
-117.0148283457267
 30
0.0
 10
427.7845370342382
 20
-117.6109085172379
 30
0.0
 10
427.5638250494017
 20
-117.9159374401021
 30
0.0
 10
427.343113064564
 20
-118.2210790861463
 30
0.0
 10
426.9091288247164
 20
-118.4041415291365
 30
0.0
 10
426.2614214371412
 20
-118.4651247690735
 30
0.0
 10
426.8480328616
 20
-118.6106503933963
 30
0.0
 10
427.2423385423769
 20
-118.805436047021
 30
0.0
 10
427.4441130331111
 20
-119.0493690067701
 30
0.0
 10
427.6458875238461
 20
-119.2935274128761
 30
0.0
 10
427.7714611454538
 20
-119.5176210930882
 30
0.0
 10
427.8208338979344
 20
-119.7217627705865
 30
0.0
 10
427.8702066504158
 20
-119.9259044480836
 30
0.0
 10
427.8947803034776
 20
-120.4880549426612
 30
0.0
 10
427.8947803034776
 20
-121.4078760847805
 30
0.0
 10
427.8947803034776
 20
-121.4078760847805
 30
0.0
 10
427.8947803034776
 20
-124.4139778271866
 30
0.0
 10
427.8947803034776
 20
-124.4139778271866
 30
0.0
 10
427.8947803034776
 20
-124.4139778271866
 30
0.0
 10
425.1420802678704
 20
-124.4139778271859
 30
0.0
 10
425.1420802678704
 20
-124.4139778271859
 30
0.0
 10
425.1420802678704
 20
-124.4139778271859
 30
0.0
 10
425.1420802678704
 20
-120.6263662835163
 30
0.0
 10
425.1420802678704
 20
-120.6263662835163
 30
0.0
 10
425.1420802678704
 20
-120.0163084377867
 30
0.0
 10
425.0938347471808
 20
-119.6384603411711
 30
0.0
 10
424.9977945985186
 20
-119.4929347168489
 30
0.0
 10
424.9015290034976
 20
-119.3475218157042
 30
0.0
 10
424.6492545284898
 20
-119.274702641954
 30
0.0
 10
424.2409711734957
 20
-119.2747026419533
 30
0.0
 10
424.2409711734957
 20
-119.2747026419533
 30
0.0
 10
424.2409711734957
 20
-124.4139778271859
 30
0.0
 10
424.2409711734957
 20
-124.4139778271859
 30
0.0
 10
424.2409711734957
 20
-124.4139778271859
 30
0.0
 10
421.2770279001026
 20
-124.4139778271866
 30
0.0
 10
421.2770279001026
 20
-124.4139778271866
 30
0.0
 10
421.2770279001026
 20
-124.4139778271866
 30
0.0
 10
421.2770279001026
 20
-113.0159735642705
 30
0.0
 10
421.2770279001026
 20
-113.0159735642705
 30
0.0
  0
SPLINE
  5
6B
330
43
100
AcDbEntity
  8
Calque 1
370
     0
100
AcDbSpline
210
0.0
220
0.0
230
1.0
 70
    11
 71
     3
 72
    23
 73
    19
 74
     0
 42
0.0000000001
 43
0.0000000001
 12
1.0
 22
0.0
 32
0.0
 13
1.0
 23
0.0
 33
0.0
 40
0.0
 40
0.0
 40
0.0
 40
0.0
 40
1.0
 40
1.0
 40
1.0
 40
2.0
 40
2.0
 40
2.0
 40
3.0
 40
3.0
 40
3.0
 40
4.0
 40
4.0
 40
4.0
 40
5.0
 40
5.0
 40
5.0
 40
6.0
 40
6.0
 40
6.0
 40
6.0
 10
424.2409711734957
 20
-114.9660845641067
 30
0.0
 10
424.2409711734957
 20
-114.9660845641067
 30
0.0
 10
424.2409711734964
 20
-117.500552524819
 30
0.0
 10
424.2409711734964
 20
-117.500552524819
 30
0.0
 10
424.5741808911556
 20
-117.500552524819
 30
0.0
 10
424.8077433184182
 20
-117.4547869140716
 30
0.0
 10
424.9414330089278
 20
-117.3632556925762
 30
0.0
 10
425.0751226994368
 20
-117.2717244710807
 30
0.0
 10
425.1420802678704
 20
-116.975037063476
 30
0.0
 10
425.1420802678704
 20
-116.4727425770436
 30
0.0
 10
425.1420802678704
 20
-116.4727425770436
 30
0.0
 10
425.1420802678704
 20
-115.8461144239746
 30
0.0
 10
425.1420802678704
 20
-115.8461144239746
 30
0.0
 10
425.1420802678704
 20
-115.4848366346991
 30
0.0
 10
425.0776026093783
 20
-115.2477797888808
 30
0.0
 10
424.9484218460367
 20
-115.1350566096991
 30
0.0
 10
424.8192410826957
 20
-115.0224461536975
 30
0.0
 10
424.5834241918479
 20
-114.9660845641067
 30
0.0
 10
424.2409711734957
 20
-114.9660845641067
 30
0.0
  0
POLYLINE
  5
6C
330
43
100
AcDbEntity
  8
Calque 1
370
     0
100
AcDb2dPolyline
 66
     1
 10
0.0
 20
0.0
 30
0.0
  0
VERTEX
  5
6D
330
6C
100
AcDbEntity
  8
Calque 1
370
     0
100
AcDbVertex
100
AcDb2dVertex
 10
434.1655707613332
 20
-113.0159735642705
 30
0.0
  0
VERTEX
  5
6E
330
6C
100
AcDbEntity
  8
Calque 1
370
     0
100
AcDbVertex
100
AcDb2dVertex
 10
435.860476483503
 20
-124.4139778271859
 30
0.0
  0
VERTEX
  5
6F
330
6C
100
AcDbEntity
  8
Calque 1
370
     0
100
AcDbVertex
100
AcDb2dVertex
 10
432.8313792125438
 20
-124.4139778271859
 30
0.0
  0
VERTEX
  5
70
330
6C
100
AcDbEntity
  8
Calque 1
370
     0
100
AcDbVertex
100
AcDb2dVertex
 10
432.6724395298976
 20
-122.3653467687453
 30
0.0
  0
VERTEX
  5
71
330
6C
100
AcDbEntity
  8
Calque 1
370
     0
100
AcDbVertex
100
AcDb2dVertex
 10
431.612165306518
 20
-122.3653467687453
 30
0.0
  0
VERTEX
  5
72
330
6C
100
AcDbEntity
  8
Calque 1
370
     0
100
AcDbVertex
100
AcDb2dVertex
 10
431.4340626834115
 20
-124.4139778271859
 30
0.0
  0
VERTEX
  5
73
330
6C
100
AcDbEntity
  8
Calque 1
370
     0
100
AcDbVertex
100
AcDb2dVertex
 10
428.3697957805477
 20
-124.4139778271859
 30
0.0
  0
VERTEX
  5
74
330
6C
100
AcDbEntity
  8
Calque 1
370
     0
100
AcDbVertex
100
AcDb2dVertex
 10
429.8816390597266
 20
-113.0159735642705
 30
0.0
  0
VERTEX
  5
75
330
6C
100
AcDbEntity
  8
Calque 1
370
     0
100
AcDbVertex
100
AcDb2dVertex
 10
434.1655707613332
 20
-113.0159735642705
 30
0.0
  0
SEQEND
  5
76
330
6C
100
AcDbEntity
  8
Calque 1
370
     0
  0
SPLINE
  5
77
330
43
100
AcDbEntity
  8
Calque 1
370
     0
100
AcDbSpline
210
0.0
220
0.0
230
1.0
 70
    11
 71
     3
 72
    14
 73
    10
 74
     0
 42
0.0000000001
 43
0.0000000001
 12
1.0
 22
0.0
 32
0.0
 13
1.0
 23
0.0
 33
0.0
 40
0.0
 40
0.0
 40
0.0
 40
0.0
 40
1.0
 40
1.0
 40
1.0
 40
2.0
 40
2.0
 40
2.0
 40
3.0
 40
3.0
 40
3.0
 40
3.0
 10
432.5946605362624
 20
-120.344783781921
 30
0.0
 10
432.4447387079517
 20
-119.053765210758
 30
0.0
 10
432.294140540565
 20
-117.4581686094466
 30
0.0
 10
432.1433169268201
 20
-115.5575430852711
 30
0.0
 10
431.8412188066152
 20
-117.7400892805789
 30
0.0
 10
431.6516184192318
 20
-119.3357986050697
 30
0.0
 10
431.5745157646718
 20
-120.3447837819217
 30
0.0
 10
431.5745157646718
 20
-120.3447837819217
 30
0.0
 10
432.5946605362624
 20
-120.344783781921
 30
0.0
 10
432.5946605362624
 20
-120.344783781921
 30
0.0
  0
SPLINE
  5
78
330
43
100
AcDbEntity
  8
Calque 1
370
     0
100
AcDbSpline
210
0.0
220
0.0
230
1.0
 70
    11
 71
     3
 72
    44
 73
    40
 74
     0
 42
0.0000000001
 43
0.0000000001
 12
1.0
 22
0.0
 32
0.0
 13
1.0
 23
0.0
 33
0.0
 40
0.0
 40
0.0
 40
0.0
 40
0.0
 40
1.0
 40
1.0
 40
1.0
 40
2.0
 40
2.0
 40
2.0
 40
3.0
 40
3.0
 40
3.0
 40
4.0
 40
4.0
 40
4.0
 40
5.0
 40
5.0
 40
5.0
 40
6.0
 40
6.0
 40
6.0
 40
7.0
 40
7.0
 40
7.0
 40
8.0
 40
8.0
 40
8.0
 40
9.0
 40
9.0
 40
9.0
 40
10.0
 40
10.0
 40
10.0
 40
11.0
 40
11.0
 40
11.0
 40
12.0
 40
12.0
 40
12.0
 40
13.0
 40
13.0
 40
13.0
 40
13.0
 10
436.3638982017263
 20
-113.0159735642705
 30
0.0
 10
436.3638982017263
 20
-113.0159735642705
 30
0.0
 10
439.3490334328057
 20
-113.0159735642698
 30
0.0
 10
439.3490334328057
 20
-113.0159735642698
 30
0.0
 10
440.156131395744
 20
-113.0159735642705
 30
0.0
 10
440.7767852203157
 20
-113.0793239909702
 30
0.0
 10
441.2109949065235
 20
-113.2061375675484
 30
0.0
 10
441.6452045927286
 20
-113.3328384209498
 30
0.0
 10
441.9714254732796
 20
-113.5159008639394
 30
0.0
 10
442.1896575481745
 20
-113.7552121733411
 30
0.0
 10
442.4078896230694
 20
-113.9946362059222
 30
0.0
 10
442.555782434155
 20
-114.2844474995974
 30
0.0
 10
442.6331105350732
 20
-114.6246460543656
 30
0.0
 10
442.7106640823502
 20
-114.9650700554938
 30
0.0
 10
442.7492154096298
 20
-115.491825471808
 30
0.0
 10
442.7492154096298
 20
-116.2051377496675
 30
0.0
 10
442.7492154096298
 20
-116.2051377496675
 30
0.0
 10
442.7492154096298
 20
-117.197890788717
 30
0.0
 10
442.7492154096298
 20
-117.197890788717
 30
0.0
 10
442.7492154096298
 20
-117.9254061871525
 30
0.0
 10
442.6741417722957
 20
-118.4557687452012
 30
0.0
 10
442.5239944976254
 20
-118.7888657396816
 30
0.0
 10
442.3738472229564
 20
-119.1221881805209
 30
0.0
 10
442.0981263266791
 20
-119.3779570740832
 30
0.0
 10
441.6968318087933
 20
-119.556285143548
 30
0.0
 10
441.2955372909094
 20
-119.7347259361921
 30
0.0
 10
440.7711490613573
 20
-119.8237772477453
 30
0.0
 10
440.1234416737809
 20
-119.8237772477453
 30
0.0
 10
440.1234416737809
 20
-119.8237772477453
 30
0.0
 10
439.3278414751195
 20
-119.8237772477453
 30
0.0
 10
439.3278414751195
 20
-119.8237772477453
 30
0.0
 10
439.3278414751195
 20
-119.8237772477453
 30
0.0
 10
439.3278414751195
 20
-124.4139778271866
 30
0.0
 10
439.3278414751195
 20
-124.4139778271866
 30
0.0
 10
439.3278414751195
 20
-124.4139778271866
 30
0.0
 10
436.3638982017263
 20
-124.4139778271866
 30
0.0
 10
436.3638982017263
 20
-124.4139778271866
 30
0.0
 10
436.3638982017263
 20
-124.4139778271866
 30
0.0
 10
436.3638982017263
 20
-113.0159735642705
 30
0.0
 10
436.3638982017263
 20
-113.0159735642705
 30
0.0
  0
SPLINE
  5
79
330
43
100
AcDbEntity
  8
Calque 1
370
     0
100
AcDbSpline
210
0.0
220
0.0
230
1.0
 70
    11
 71
     3
 72
    26
 73
    22
 74
     0
 42
0.0000000001
 43
0.0000000001
 12
1.0
 22
0.0
 32
0.0
 13
1.0
 23
0.0
 33
0.0
 40
0.0
 40
0.0
 40
0.0
 40
0.0
 40
1.0
 40
1.0
 40
1.0
 40
2.0
 40
2.0
 40
2.0
 40
3.0
 40
3.0
 40
3.0
 40
4.0
 40
4.0
 40
4.0
 40
5.0
 40
5.0
 40
5.0
 40
6.0
 40
6.0
 40
6.0
 40
7.0
 40
7.0
 40
7.0
 40
7.0
 10
439.3278414751195
 20
-114.9660845641074
 30
0.0
 10
439.3278414751195
 20
-114.9660845641074
 30
0.0
 10
439.3278414751195
 20
-117.8666774107996
 30
0.0
 10
439.3278414751195
 20
-117.8666774107996
 30
0.0
 10
439.4123838595054
 20
-117.8714117843251
 30
0.0
 10
439.4849775868987
 20
-117.8736662479091
 30
0.0
 10
439.5460735500144
 20
-117.8736662479091
 30
0.0
 10
439.8181873045579
 20
-117.8736662479091
 30
0.0
 10
440.007111352866
 20
-117.8068214026549
 30
0.0
 10
440.1128456949381
 20
-117.6730189889659
 30
0.0
 10
440.218354590652
 20
-117.5393292984569
 30
0.0
 10
440.271109038509
 20
-117.2612412154167
 30
0.0
 10
440.271109038509
 20
-116.8387547398454
 30
0.0
 10
440.271109038509
 20
-116.8387547398454
 30
0.0
 10
440.271109038509
 20
-115.9024760135661
 30
0.0
 10
440.271109038509
 20
-115.9024760135661
 30
0.0
 10
440.271109038509
 20
-115.5129047063154
 30
0.0
 10
440.2102385217502
 20
-115.2595029995152
 30
0.0
 10
440.0880465955181
 20
-115.1421581699874
 30
0.0
 10
439.9660801156448
 20
-115.0249260636385
 30
0.0
 10
439.7126784088447
 20
-114.9660845641074
 30
0.0
 10
439.3278414751195
 20
-114.9660845641074
 30
0.0
  0
POLYLINE
  5
7A
330
43
100
AcDbEntity
  8
Calque 1
370
     0
100
AcDb2dPolyline
 66
     1
 10
0.0
 20
0.0
 30
0.0
  0
VERTEX
  5
7B
330
7A
100
AcDbEntity
  8
Calque 1
370
     0
100
AcDbVertex
100
AcDb2dVertex
 10
447.0015846210657
 20
-118.760797668066
 30
0.0
  0
VERTEX
  5
7C
330
7A
100
AcDbEntity
  8
Calque 1
370
     0
100
AcDbVertex
100
AcDb2dVertex
 10
447.0015846210657
 20
-120.7249990652994
 30
0.0
  0
VERTEX
  5
7D
330
7A
100
AcDbEntity
  8
Calque 1
370
     0
100
AcDbVertex
100
AcDb2dVertex
 10
443.2632331066966
 20
-120.7249990653001
 30
0.0
  0
VERTEX
  5
7E
330
7A
100
AcDbEntity
  8
Calque 1
370
     0
100
AcDbVertex
100
AcDb2dVertex
 10
443.2632331066966
 20
-118.7607976680653
 30
0.0
  0
VERTEX
  5
7F
330
7A
100
AcDbEntity
  8
Calque 1
370
     0
100
AcDbVertex
100
AcDb2dVertex
 10
447.0015846210657
 20
-118.760797668066
 30
0.0
  0
SEQEND
  5
80
330
7A
100
AcDbEntity
  8
Calque 1
370
     0
  0
SPLINE
  5
81
330
43
100
AcDbEntity
  8
Calque 1
370
     0
100
AcDbSpline
210
0.0
220
0.0
230
1.0
 70
    11
 71
     3
 72
   110
 73
   106
 74
     0
 42
0.0000000001
 43
0.0000000001
 12
1.0
 22
0.0
 32
0.0
 13
1.0
 23
0.0
 33
0.0
 40
0.0
 40
0.0
 40
0.0
 40
0.0
 40
1.0
 40
1.0
 40
1.0
 40
2.0
 40
2.0
 40
2.0
 40
3.0
 40
3.0
 40
3.0
 40
4.0
 40
4.0
 40
4.0
 40
5.0
 40
5.0
 40
5.0
 40
6.0
 40
6.0
 40
6.0
 40
7.0
 40
7.0
 40
7.0
 40
8.0
 40
8.0
 40
8.0
 40
9.0
 40
9.0
 40
9.0
 40
10.0
 40
10.0
 40
10.0
 40
11.0
 40
11.0
 40
11.0
 40
12.0
 40
12.0
 40
12.0
 40
13.0
 40
13.0
 40
13.0
 40
14.0
 40
14.0
 40
14.0
 40
15.0
 40
15.0
 40
15.0
 40
16.0
 40
16.0
 40
16.0
 40
17.0
 40
17.0
 40
17.0
 40
18.0
 40
18.0
 40
18.0
 40
19.0
 40
19.0
 40
19.0
 40
20.0
 40
20.0
 40
20.0
 40
21.0
 40
21.0
 40
21.0
 40
22.0
 40
22.0
 40
22.0
 40
23.0
 40
23.0
 40
23.0
 40
24.0
 40
24.0
 40
24.0
 40
25.0
 40
25.0
 40
25.0
 40
26.0
 40
26.0
 40
26.0
 40
27.0
 40
27.0
 40
27.0
 40
28.0
 40
28.0
 40
28.0
 40
29.0
 40
29.0
 40
29.0
 40
30.0
 40
30.0
 40
30.0
 40
31.0
 40
31.0
 40
31.0
 40
32.0
 40
32.0
 40
32.0
 40
33.0
 40
33.0
 40
33.0
 40
34.0
 40
34.0
 40
34.0
 40
35.0
 40
35.0
 40
35.0
 40
35.0
 10
454.1261404380392
 20
-116.4656410167553
 30
0.0
 10
454.1261404380392
 20
-116.4656410167553
 30
0.0
 10
451.3734404024319
 20
-116.4656410167553
 30
0.0
 10
451.3734404024319
 20
-116.4656410167553
 30
0.0
 10
451.3734404024319
 20
-116.4656410167553
 30
0.0
 10
451.3734404024319
 20
-115.6208935119708
 30
0.0
 10
451.3734404024319
 20
-115.6208935119708
 30
0.0
 10
451.3734404024319
 20
-115.2265878311946
 30
0.0
 10
451.338270770528
 20
-114.9755533111578
 30
0.0
 10
451.2679315067193
 20
-114.8675645055017
 30
0.0
 10
451.1973667965513
 20
-114.7596884230257
 30
0.0
 10
451.0801346902029
 20
-114.7056940201977
 30
0.0
 10
450.9157842949566
 20
-114.7056940201983
 30
0.0
 10
450.7374562254913
 20
-114.7056940201983
 30
0.0
 10
450.6026393031913
 20
-114.7785131939485
 30
0.0
 10
450.5111080816958
 20
-114.9241515414508
 30
0.0
 10
450.4195768602003
 20
-115.069789888953
 30
0.0
 10
450.373811249453
 20
-115.2903891506107
 30
0.0
 10
450.373811249453
 20
-115.586287495962
 30
0.0
 10
450.373811249453
 20
-115.9667282256993
 30
0.0
 10
450.4252130191593
 20
-116.2532705471776
 30
0.0
 10
450.5280165585729
 20
-116.445801737219
 30
0.0
 10
450.626311170819
 20
-116.638332927261
 30
0.0
 10
450.9054137624721
 20
-116.8706553995544
 30
0.0
 10
451.3655497798902
 20
-117.1426564309179
 30
0.0
 10
452.6850873153859
 20
-117.9257443566914
 30
0.0
 10
453.515857145952
 20
-118.5683792012027
 30
0.0
 10
453.8585356106636
 20
-119.0705609644563
 30
0.0
 10
454.2012140753746
 20
-119.5727427277086
 30
0.0
 10
454.3725533077298
 20
-120.3824333237685
 30
0.0
 10
454.3725533077304
 20
-121.4994073062759
 30
0.0
 10
454.3725533077298
 20
-122.3113523659186
 30
0.0
 10
454.2774149445011
 20
-122.9097997241918
 30
0.0
 10
454.0873636644013
 20
-123.294636657917
 30
0.0
 10
453.8973123843021
 20
-123.6794735916415
 30
0.0
 10
453.5300602665287
 20
-124.0020873304586
 30
0.0
 10
452.985607311084
 20
-124.2625905975465
 30
0.0
 10
452.4411543556375
 20
-124.5230938646337
 30
0.0
 10
451.8074246422802
 20
-124.6532891365889
 30
0.0
 10
451.0848690637278
 20
-124.6532891365889
 30
0.0
 10
450.2915233286504
 20
-124.6532891365889
 30
0.0
 10
449.6145079144878
 20
-124.5030291387398
 30
0.0
 10
449.0538228212395
 20
-124.2027345894006
 30
0.0
 10
448.4929122816337
 20
-123.902440040062
 30
0.0
 10
448.1254347175026
 20
-123.5198575699208
 30
0.0
 10
447.9520664679223
 20
-123.0552126253353
 30
0.0
 10
447.7782473256242
 20
-122.5905676807498
 30
0.0
 10
447.691450477655
 20
-121.9312498057183
 30
0.0
 10
447.691450477655
 20
-121.0769208307033
 30
0.0
 10
447.691450477655
 20
-121.0769208307033
 30
0.0
 10
447.691450477655
 20
-120.3306933845232
 30
0.0
 10
447.691450477655
 20
-120.3306933845232
 30
0.0
 10
447.691450477655
 20
-120.3306933845232
 30
0.0
 10
450.4441505132622
 20
-120.3306933845232
 30
0.0
 10
450.4441505132622
 20
-120.3306933845232
 30
0.0
 10
450.4441505132622
 20
-120.3306933845232
 30
0.0
 10
450.4441505132622
 20
-121.7176393811702
 30
0.0
 10
450.4441505132622
 20
-121.7176393811702
 30
0.0
 10
450.4441505132622
 20
-122.1447475070877
 30
0.0
 10
450.4829272869001
 20
-122.4193411715747
 30
0.0
 10
450.5602553878189
 20
-122.5413076514479
 30
0.0
 10
450.6378089350952
 20
-122.6633868545012
 30
0.0
 10
450.7751057673381
 20
-122.7243700944388
 30
0.0
 10
450.9721458845474
 20
-122.7243700944382
 30
0.0
 10
451.1691860017555
 20
-122.7243700944382
 30
0.0
 10
451.3159515810501
 20
-122.6469292703406
 30
0.0
 10
451.4122171760704
 20
-122.4920476221448
 30
0.0
 10
451.5082573247333
 20
-122.3371659739502
 30
0.0
 10
451.5565028454229
 20
-122.1072106884209
 30
0.0
 10
451.5565028454229
 20
-121.8020690423773
 30
0.0
 10
451.5565028454229
 20
-121.130915233532
 30
0.0
 10
451.464971623928
 20
-120.6921966201576
 30
0.0
 10
451.2819091809378
 20
-120.485575032719
 30
0.0
 10
451.0941123644213
 20
-120.2790661684585
 30
0.0
 10
450.6317218834198
 20
-119.9341332401636
 30
0.0
 10
449.8949631842908
 20
-119.4506635246553
 30
0.0
 10
449.1582044851617
 20
-118.9625721588002
 30
0.0
 10
448.6701131193067
 20
-118.6082832066329
 30
0.0
 10
448.4306890867263
 20
-118.3876839449753
 30
0.0
 10
448.1912650541445
 20
-118.1670846833176
 30
0.0
 10
447.9930977051447
 20
-117.8620557604528
 30
0.0
 10
447.8357361470074
 20
-117.4723717300233
 30
0.0
 10
447.6786000352289
 20
-117.082913145952
 30
0.0
 10
447.5999192561595
 20
-116.5853530330459
 30
0.0
 10
447.5999192561595
 20
-115.979916837663
 30
0.0
 10
447.5999192561602
 20
-115.1069885380828
 30
0.0
 10
447.7112897571907
 20
-114.4687498975594
 30
0.0
 10
447.9342562056117
 20
-114.0649754697321
 30
0.0
 10
448.1572226540322
 20
-113.6614264882623
 30
0.0
 10
448.5174859346955
 20
-113.3458015865547
 30
0.0
 10
449.0150460476016
 20
-113.1181007646081
 30
0.0
 10
449.5123807141489
 20
-112.8905126658421
 30
0.0
 10
450.1131952591857
 20
-112.7766622548688
 30
0.0
 10
450.8172642363523
 20
-112.7766622548682
 30
0.0
 10
451.5869381038026
 20
-112.7766622548682
 30
0.0
 10
452.2429870066365
 20
-112.9011086446843
 30
0.0
 10
452.7849600521408
 20
-113.1497759779589
 30
0.0
 10
453.3271585440027
 20
-113.3985560344116
 30
0.0
 10
453.6860691465155
 20
-113.7119264725359
 30
0.0
 10
453.8621427523968
 20
-114.0896618459727
 30
0.0
 10
454.0382163582782
 20
-114.4675099425877
 30
0.0
 10
454.1261404380392
 20
-115.1093557248462
 30
0.0
 10
454.1261404380392
 20
-116.0150864695683
 30
0.0
 10
454.1261404380392
 20
-116.0150864695683
 30
0.0
 10
454.1261404380392
 20
-116.4656410167553
 30
0.0
 10
454.1261404380392
 20
-116.4656410167553
 30
0.0
  0
SPLINE
  5
82
330
43
100
AcDbEntity
  8
Calque 1
370
     0
100
AcDbSpline
210
0.0
220
0.0
230
1.0
 70
    11
 71
     3
 72
    44
 73
    40
 74
     0
 42
0.0000000001
 43
0.0000000001
 12
1.0
 22
0.0
 32
0.0
 13
1.0
 23
0.0
 33
0.0
 40
0.0
 40
0.0
 40
0.0
 40
0.0
 40
1.0
 40
1.0
 40
1.0
 40
2.0
 40
2.0
 40
2.0
 40
3.0
 40
3.0
 40
3.0
 40
4.0
 40
4.0
 40
4.0
 40
5.0
 40
5.0
 40
5.0
 40
6.0
 40
6.0
 40
6.0
 40
7.0
 40
7.0
 40
7.0
 40
8.0
 40
8.0
 40
8.0
 40
9.0
 40
9.0
 40
9.0
 40
10.0
 40
10.0
 40
10.0
 40
11.0
 40
11.0
 40
11.0
 40
12.0
 40
12.0
 40
12.0
 40
13.0
 40
13.0
 40
13.0
 40
13.0
 10
455.3018431969008
 20
-113.0159735642705
 30
0.0
 10
455.3018431969008
 20
-113.0159735642705
 30
0.0
 10
458.2869784279795
 20
-113.0159735642698
 30
0.0
 10
458.2869784279795
 20
-113.0159735642698
 30
0.0
 10
459.0940763909178
 20
-113.0159735642705
 30
0.0
 10
459.7147302154896
 20
-113.0793239909702
 30
0.0
 10
460.1489399016966
 20
-113.2061375675484
 30
0.0
 10
460.5831495879024
 20
-113.3328384209498
 30
0.0
 10
460.9093704684534
 20
-113.5159008639394
 30
0.0
 10
461.1276025433483
 20
-113.7552121733411
 30
0.0
 10
461.3458346182432
 20
-113.9946362059222
 30
0.0
 10
461.4937274293288
 20
-114.2844474995974
 30
0.0
 10
461.5710555302476
 20
-114.6246460543656
 30
0.0
 10
461.648609077524
 20
-114.9650700554938
 30
0.0
 10
461.6871604048043
 20
-115.491825471808
 30
0.0
 10
461.6871604048043
 20
-116.2051377496675
 30
0.0
 10
461.6871604048043
 20
-116.2051377496675
 30
0.0
 10
461.6871604048043
 20
-117.197890788717
 30
0.0
 10
461.6871604048043
 20
-117.197890788717
 30
0.0
 10
461.6871604048043
 20
-117.9254061871525
 30
0.0
 10
461.6120867674688
 20
-118.4557687452012
 30
0.0
 10
461.4619394928005
 20
-118.7888657396816
 30
0.0
 10
461.3117922181303
 20
-119.1221881805209
 30
0.0
 10
461.0360713218529
 20
-119.3779570740832
 30
0.0
 10
460.6347768039671
 20
-119.556285143548
 30
0.0
 10
460.2334822860826
 20
-119.7347259361927
 30
0.0
 10
459.7090940565319
 20
-119.8237772477453
 30
0.0
 10
459.0613866689554
 20
-119.8237772477453
 30
0.0
 10
459.0613866689554
 20
-119.8237772477453
 30
0.0
 10
458.265786470294
 20
-119.8237772477453
 30
0.0
 10
458.265786470294
 20
-119.8237772477453
 30
0.0
 10
458.265786470294
 20
-119.8237772477453
 30
0.0
 10
458.2657864702933
 20
-124.4139778271866
 30
0.0
 10
458.2657864702933
 20
-124.4139778271866
 30
0.0
 10
458.2657864702933
 20
-124.4139778271866
 30
0.0
 10
455.3018431969008
 20
-124.4139778271866
 30
0.0
 10
455.3018431969008
 20
-124.4139778271866
 30
0.0
 10
455.3018431969008
 20
-124.4139778271866
 30
0.0
 10
455.3018431969008
 20
-113.0159735642705
 30
0.0
 10
455.3018431969008
 20
-113.0159735642705
 30
0.0
  0
SPLINE
  5
83
330
43
100
AcDbEntity
  8
Calque 1
370
     0
100
AcDbSpline
210
0.0
220
0.0
230
1.0
 70
    11
 71
     3
 72
    26
 73
    22
 74
     0
 42
0.0000000001
 43
0.0000000001
 12
1.0
 22
0.0
 32
0.0
 13
1.0
 23
0.0
 33
0.0
 40
0.0
 40
0.0
 40
0.0
 40
0.0
 40
1.0
 40
1.0
 40
1.0
 40
2.0
 40
2.0
 40
2.0
 40
3.0
 40
3.0
 40
3.0
 40
4.0
 40
4.0
 40
4.0
 40
5.0
 40
5.0
 40
5.0
 40
6.0
 40
6.0
 40
6.0
 40
7.0
 40
7.0
 40
7.0
 40
7.0
 10
458.2657864702933
 20
-114.9660845641074
 30
0.0
 10
458.2657864702933
 20
-114.9660845641074
 30
0.0
 10
458.2657864702933
 20
-117.8666774107996
 30
0.0
 10
458.2657864702933
 20
-117.8666774107996
 30
0.0
 10
458.3503288546793
 20
-117.8714117843251
 30
0.0
 10
458.4229225820719
 20
-117.8736662479091
 30
0.0
 10
458.4840185451882
 20
-117.8736662479091
 30
0.0
 10
458.7561322997317
 20
-117.8736662479091
 30
0.0
 10
458.9450563480399
 20
-117.8068214026549
 30
0.0
 10
459.0507906901126
 20
-117.6730189889659
 30
0.0
 10
459.1562995858259
 20
-117.5393292984569
 30
0.0
 10
459.2090540336822
 20
-117.2612412154167
 30
0.0
 10
459.2090540336822
 20
-116.8387547398454
 30
0.0
 10
459.2090540336822
 20
-116.8387547398454
 30
0.0
 10
459.2090540336822
 20
-115.9024760135661
 30
0.0
 10
459.2090540336822
 20
-115.9024760135661
 30
0.0
 10
459.2090540336822
 20
-115.5129047063154
 30
0.0
 10
459.1481835169253
 20
-115.2595029995152
 30
0.0
 10
459.0259915906919
 20
-115.1421581699874
 30
0.0
 10
458.9040251108181
 20
-115.0249260636385
 30
0.0
 10
458.6506234040185
 20
-114.9660845641074
 30
0.0
 10
458.2657864702933
 20
-114.9660845641074
 30
0.0
  0
ENDBLK
  5
46
330
43
100
AcDbEntity
  8
0
100
AcDbBlockEnd
  0
BLOCK
  5
B3
330
B1
100
AcDbEntity
  8
0
100
AcDbBlockBegin
  2
block 3
 70
     0
 10
0.0
 20
0.0
 30
0.0
  3
block 3
  1

  0
SPLINE
  5
B5
330
B1
100
AcDbEntity
  8
Calque 1
 62
     7
370
    50
100
AcDbSpline
210
0.0
220
0.0
230
1.0
 70
    11
 71
     3
 72
    20
 73
    16
 74
     0
 42
0.0000000001
 43
0.0000000001
 12
1.0
 22
0.0
 32
0.0
 13
1.0
 23
0.0
 33
0.0
 40
0.0
 40
0.0
 40
0.0
 40
0.0
 40
1.0
 40
1.0
 40
1.0
 40
2.0
 40
2.0
 40
2.0
 40
3.0
 40
3.0
 40
3.0
 40
4.0
 40
4.0
 40
4.0
 40
5.0
 40
5.0
 40
5.0
 40
5.0
 10
529.3218429733246
 20
-118.6694444430336
 30
0.0
 10
529.3218429733246
 20
-119.7740139426955
 30
0.0
 10
528.4264124729865
 20
-120.6694444430336
 30
0.0
 10
527.3218429733246
 20
-120.6694444430336
 30
0.0
 10
526.2172734736627
 20
-120.6694444430336
 30
0.0
 10
525.3218429733245
 20
-119.7740139426955
 30
0.0
 10
525.3218429733245
 20
-118.6694444430336
 30
0.0
 10
525.3218429733245
 20
-117.5648749433716
 30
0.0
 10
526.2172734736627
 20
-116.6694444430335
 30
0.0
 10
527.3218429733246
 20
-116.6694444430335
 30
0.0
 10
528.4264124729865
 20
-116.6694444430335
 30
0.0
 10
529.3218429733246
 20
-117.5648749433716
 30
0.0
 10
529.3218429733246
 20
-118.6694444430336
 30
0.0
 10
529.3218429733246
 20
-118.6694444430336
 30
0.0
 10
529.3218429733246
 20
-118.6694444430336
 30
0.0
 10
529.3218429733246
 20
-118.6694444430336
 30
0.0
  0
POLYLINE
  5
B6
330
B1
100
AcDbEntity
  8
Calque 1
 62
     7
370
    50
100
AcDb2dPolyline
 66
     1
 10
0.0
 20
0.0
 30
0.0
  0
VERTEX
  5
B7
330
B6
100
AcDbEntity
  8
Calque 1
 62
     7
370
    50
100
AcDbVertex
100
AcDb2dVertex
 10
532.3218429733241
 20
-164.6694444430333
 30
0.0
  0
VERTEX
  5
B8
330
B6
100
AcDbEntity
  8
Calque 1
 62
     7
370
    50
100
AcDbVertex
100
AcDb2dVertex
 10
313.6276077979878
 20
-164.6694444430326
 30
0.0
  0
SEQEND
  5
B9
330
B6
100
AcDbEntity
  8
Calque 1
 62
     7
370
    50
  0
SPLINE
  5
BA
330
B1
100
AcDbEntity
  8
Calque 1
 62
     7
370
    50
100
AcDbSpline
210
0.0
220
0.0
230
1.0
 70
     8
 71
     3
 72
     8
 73
     4
 74
     0
 42
0.0000000001
 43
0.0000000001
 12
1.0
 22
0.0
 32
0.0
 13
1.0
 23
0.0
 33
0.0
 40
0.0
 40
0.0
 40
0.0
 40
0.0
 40
1.0
 40
1.0
 40
1.0
 40
1.0
 10
542.3218429733245
 20
-154.6694444430335
 30
0.0
 10
542.3218429733245
 20
-160.1922919413418
 30
0.0
 10
537.8446904716324
 20
-164.6694444430333
 30
0.0
 10
532.3218429733241
 20
-164.6694444430333
 30
0.0
  0
POLYLINE
  5
BB
330
B1
100
AcDbEntity
  8
Calque 1
 62
     7
370
    50
100
AcDb2dPolyline
 66
     1
 10
0.0
 20
0.0
 30
0.0
  0
VERTEX
  5
BC
330
BB
100
AcDbEntity
  8
Calque 1
 62
     7
370
    50
100
AcDbVertex
100
AcDb2dVertex
 10
542.3218429733245
 20
-82.66944444303421
 30
0.0
  0
VERTEX
  5
BD
330
BB
100
AcDbEntity
  8
Calque 1
 62
     7
370
    50
100
AcDbVertex
100
AcDb2dVertex
 10
542.3218429733245
 20
-154.6694444430335
 30
0.0
  0
SEQEND
  5
BE
330
BB
100
AcDbEntity
  8
Calque 1
 62
     7
370
    50
  0
SPLINE
  5
BF
330
B1
100
AcDbEntity
  8
Calque 1
 62
     7
370
    50
100
AcDbSpline
210
0.0
220
0.0
230
1.0
 70
     8
 71
     3
 72
     8
 73
     4
 74
     0
 42
0.0000000001
 43
0.0000000001
 12
1.0
 22
0.0
 32
0.0
 13
1.0
 23
0.0
 33
0.0
 40
0.0
 40
0.0
 40
0.0
 40
0.0
 40
1.0
 40
1.0
 40
1.0
 40
1.0
 10
532.3218429733254
 20
-72.66944444303418
 30
0.0
 10
537.8446904716324
 20
-72.66944444303418
 30
0.0
 10
542.3218429733245
 20
-77.14659694472626
 30
0.0
 10
542.3218429733245
 20
-82.66944444303421
 30
0.0
  0
POLYLINE
  5
C0
330
B1
100
AcDbEntity
  8
Calque 1
 62
     7
370
    50
100
AcDb2dPolyline
 66
     1
 10
0.0
 20
0.0
 30
0.0
  0
VERTEX
  5
C1
330
C0
100
AcDbEntity
  8
Calque 1
 62
     7
370
    50
100
AcDbVertex
100
AcDb2dVertex
 10
313.6276077979878
 20
-72.66944444303353
 30
0.0
  0
VERTEX
  5
C2
330
C0
100
AcDbEntity
  8
Calque 1
 62
     7
370
    50
100
AcDbVertex
100
AcDb2dVertex
 10
532.3218429733254
 20
-72.66944444303418
 30
0.0
  0
SEQEND
  5
C3
330
C0
100
AcDbEntity
  8
Calque 1
 62
     7
370
    50
  0
SPLINE
  5
C4
330
B1
100
AcDbEntity
  8
Calque 1
 62
     7
370
    50
100
AcDbSpline
210
0.0
220
0.0
230
1.0
 70
     8
 71
     3
 72
     8
 73
     4
 74
     0
 42
0.0000000001
 43
0.0000000001
 12
1.0
 22
0.0
 32
0.0
 13
1.0
 23
0.0
 33
0.0
 40
0.0
 40
0.0
 40
0.0
 40
0.0
 40
1.0
 40
1.0
 40
1.0
 40
1.0
 10
303.627607797988
 20
-82.66944444303357
 30
0.0
 10
303.627607797988
 20
-77.14659694472562
 30
0.0
 10
308.1047602996802
 20
-72.66944444303353
 30
0.0
 10
313.6276077979878
 20
-72.66944444303353
 30
0.0
  0
POLYLINE
  5
C5
330
B1
100
AcDbEntity
  8
Calque 1
 62
     7
370
    50
100
AcDb2dPolyline
 66
     1
 10
0.0
 20
0.0
 30
0.0
  0
VERTEX
  5
C6
330
C5
100
AcDbEntity
  8
Calque 1
 62
     7
370
    50
100
AcDbVertex
100
AcDb2dVertex
 10
303.6276077979887
 20
-154.6694444430329
 30
0.0
  0
VERTEX
  5
C7
330
C5
100
AcDbEntity
  8
Calque 1
 62
     7
370
    50
100
AcDbVertex
100
AcDb2dVertex
 10
303.627607797988
 20
-82.66944444303357
 30
0.0
  0
SEQEND
  5
C8
330
C5
100
AcDbEntity
  8
Calque 1
 62
     7
370
    50
  0
SPLINE
  5
C9
330
B1
100
AcDbEntity
  8
Calque 1
 62
     7
370
    50
100
AcDbSpline
210
0.0
220
0.0
230
1.0
 70
     8
 71
     3
 72
     8
 73
     4
 74
     0
 42
0.0000000001
 43
0.0000000001
 12
1.0
 22
0.0
 32
0.0
 13
1.0
 23
0.0
 33
0.0
 40
0.0
 40
0.0
 40
0.0
 40
0.0
 40
1.0
 40
1.0
 40
1.0
 40
1.0
 10
313.6276077979878
 20
-164.6694444430326
 30
0.0
 10
308.1047602996808
 20
-164.6694444430326
 30
0.0
 10
303.6276077979887
 20
-160.1922919413405
 30
0.0
 10
303.6276077979887
 20
-154.6694444430329
 30
0.0
  0
ENDBLK
  5
B4
330
B1
100
AcDbEntity
  8
0
100
AcDbBlockEnd
  0
ENDSEC
  0
SECTION
  2
ENTITIES
  0
SPLINE
  5
41
330
1F
100
AcDbEntity
  8
Calque 1
 62
     7
370
    25
100
AcDbSpline
210
0.0
220
0.0
230
1.0
 70
    11
 71
     3
 72
    29
 73
    25
 74
     0
 42
0.0000000001
 43
0.0000000001
 12
1.0
 22
0.0
 32
0.0
 13
1.0
 23
0.0
 33
0.0
 40
0.0
 40
0.0
 40
0.0
 40
0.0
 40
1.0
 40
1.0
 40
1.0
 40
2.0
 40
2.0
 40
2.0
 40
3.0
 40
3.0
 40
3.0
 40
4.0
 40
4.0
 40
4.0
 40
5.0
 40
5.0
 40
5.0
 40
6.0
 40
6.0
 40
6.0
 40
7.0
 40
7.0
 40
7.0
 40
8.0
 40
8.0
 40
8.0
 40
8.0
 10
465.8123778701237
 20
-122.4501660793701
 30
0.0
 10
465.812377870123
 20
-126.0643064166557
 30
0.0
 10
462.8825382430986
 20
-128.9941460436802
 30
0.0
 10
459.2683979058123
 20
-128.9941460436802
 30
0.0
 10
459.2683979058123
 20
-128.9941460436802
 30
0.0
 10
383.9380996554935
 20
-128.9941460436802
 30
0.0
 10
383.9380996554935
 20
-128.9941460436802
 30
0.0
 10
380.3239593182086
 20
-128.9941460436802
 30
0.0
 10
377.3941196911828
 20
-126.0643064166557
 30
0.0
 10
377.3941196911828
 20
-122.4501660793701
 30
0.0
 10
377.3941196911828
 20
-122.4501660793701
 30
0.0
 10
377.3941196911828
 20
-115.2227037632219
 30
0.0
 10
377.3941196911828
 20
-115.2227037632219
 30
0.0
 10
377.3941196911834
 20
-111.6085634259369
 30
0.0
 10
380.3239593182092
 20
-108.6787237989117
 30
0.0
 10
383.9380996554935
 20
-108.6787237989117
 30
0.0
 10
383.9380996554935
 20
-108.6787237989117
 30
0.0
 10
459.2683979058123
 20
-108.6787237989117
 30
0.0
 10
459.2683979058123
 20
-108.6787237989117
 30
0.0
 10
462.8825382430992
 20
-108.6787237989117
 30
0.0
 10
465.8123778701237
 20
-111.6085634259369
 30
0.0
 10
465.812377870123
 20
-115.2227037632219
 30
0.0
 10
465.812377870123
 20
-115.2227037632219
 30
0.0
 10
465.8123778701237
 20
-122.4501660793701
 30
0.0
 10
465.8123778701237
 20
-122.4501660793701
 30
0.0
  0
HATCH
  5
42
330
1F
100
AcDbEntity
  8
Calque 1
 62
     7
100
AcDbHatch
 10
0.0
 20
0.0
 30
0.0
210
0.0
220
0.0
230
1.0
  2
SOLID
 70
     1
 71
     0
 91
        1
 92
        1
 93
        1
 72
     4
 94
        3
 73
     0
 74
     1
 95
       29
 96
       25
 40
0.0
 40
0.0
 40
0.0
 40
0.0
 40
1.0
 40
1.0
 40
1.0
 40
2.0
 40
2.0
 40
2.0
 40
3.0
 40
3.0
 40
3.0
 40
4.0
 40
4.0
 40
4.0
 40
5.0
 40
5.0
 40
5.0
 40
6.0
 40
6.0
 40
6.0
 40
7.0
 40
7.0
 40
7.0
 40
8.0
 40
8.0
 40
8.0
 40
8.0
 10
465.8123778701237
 20
-122.4501660793701
 10
465.812377870123
 20
-126.0643064166557
 10
462.8825382430986
 20
-128.9941460436802
 10
459.2683979058123
 20
-128.9941460436802
 10
459.2683979058123
 20
-128.9941460436802
 10
383.9380996554935
 20
-128.9941460436802
 10
383.9380996554935
 20
-128.9941460436802
 10
380.3239593182086
 20
-128.9941460436802
 10
377.3941196911828
 20
-126.0643064166557
 10
377.3941196911828
 20
-122.4501660793701
 10
377.3941196911828
 20
-122.4501660793701
 10
377.3941196911828
 20
-115.2227037632219
 10
377.3941196911828
 20
-115.2227037632219
 10
377.3941196911834
 20
-111.6085634259369
 10
380.3239593182092
 20
-108.6787237989117
 10
383.9380996554935
 20
-108.6787237989117
 10
383.9380996554935
 20
-108.6787237989117
 10
459.2683979058123
 20
-108.6787237989117
 10
459.2683979058123
 20
-108.6787237989117
 10
462.8825382430992
 20
-108.6787237989117
 10
465.8123778701237
 20
-111.6085634259369
 10
465.812377870123
 20
-115.2227037632219
 10
465.812377870123
 20
-115.2227037632219
 10
465.8123778701237
 20
-122.4501660793701
 10
465.8123778701237
 20
-122.4501660793701
 97
        0
 97
        0
 75
     2
 76
     1
 98
        0
  0
INSERT
  5
44
330
1F
100
AcDbEntity
  8
Calque 1
100
AcDbBlockReference
  2
block 2
 10
0.0
 20
0.0
 30
0.0
  0
SPLINE
  5
84
330
1F
100
AcDbEntity
  8
Calque 1
 62
     7
370
    50
100
AcDbSpline
210
0.0
220
0.0
230
1.0
 70
    11
 71
     3
 72
    20
 73
    16
 74
     0
 42
0.0000000001
 43
0.0000000001
 12
1.0
 22
0.0
 32
0.0
 13
1.0
 23
0.0
 33
0.0
 40
0.0
 40
0.0
 40
0.0
 40
0.0
 40
1.0
 40
1.0
 40
1.0
 40
2.0
 40
2.0
 40
2.0
 40
3.0
 40
3.0
 40
3.0
 40
4.0
 40
4.0
 40
4.0
 40
5.0
 40
5.0
 40
5.0
 40
5.0
 10
572.3847339378204
 20
-39.67203499766321
 30
0.0
 10
572.3847339378204
 20
-40.61091907237552
 30
0.0
 10
571.6236180125337
 20
-41.37203499766327
 30
0.0
 10
570.6847339378214
 20
-41.37203499766327
 30
0.0
 10
569.7458498631091
 20
-41.37203499766327
 30
0.0
 10
568.984733937821
 20
-40.61091907237552
 30
0.0
 10
568.984733937821
 20
-39.67203499766321
 30
0.0
 10
568.984733937821
 20
-38.73315092295091
 30
0.0
 10
569.7458498631091
 20
-37.97203499766315
 30
0.0
 10
570.6847339378214
 20
-37.97203499766315
 30
0.0
 10
571.6236180125337
 20
-37.97203499766315
 30
0.0
 10
572.3847339378204
 20
-38.73315092295091
 30
0.0
 10
572.3847339378204
 20
-39.67203499766321
 30
0.0
 10
572.3847339378204
 20
-39.67203499766321
 30
0.0
 10
572.3847339378204
 20
-39.67203499766321
 30
0.0
 10
572.3847339378204
 20
-39.67203499766321
 30
0.0
  0
SPLINE
  5
85
330
1F
100
AcDbEntity
  8
Calque 1
 62
     7
370
    50
100
AcDbSpline
210
0.0
220
0.0
230
1.0
 70
    11
 71
     3
 72
    20
 73
    16
 74
     0
 42
0.0000000001
 43
0.0000000001
 12
1.0
 22
0.0
 32
0.0
 13
1.0
 23
0.0
 33
0.0
 40
0.0
 40
0.0
 40
0.0
 40
0.0
 40
1.0
 40
1.0
 40
1.0
 40
2.0
 40
2.0
 40
2.0
 40
3.0
 40
3.0
 40
3.0
 40
4.0
 40
4.0
 40
4.0
 40
5.0
 40
5.0
 40
5.0
 40
5.0
 10
572.3847339378204
 20
-29.67203499766318
 30
0.0
 10
572.3847339378204
 20
-30.61091907237548
 30
0.0
 10
571.6236180125337
 20
-31.37203499766324
 30
0.0
 10
570.6847339378214
 20
-31.37203499766324
 30
0.0
 10
569.7458498631091
 20
-31.37203499766324
 30
0.0
 10
568.984733937821
 20
-30.61091907237548
 30
0.0
 10
568.984733937821
 20
-29.67203499766318
 30
0.0
 10
568.984733937821
 20
-28.73315092295087
 30
0.0
 10
569.7458498631091
 20
-27.97203499766312
 30
0.0
 10
570.6847339378214
 20
-27.97203499766312
 30
0.0
 10
571.6236180125337
 20
-27.97203499766312
 30
0.0
 10
572.3847339378204
 20
-28.73315092295087
 30
0.0
 10
572.3847339378204
 20
-29.67203499766318
 30
0.0
 10
572.3847339378204
 20
-29.67203499766318
 30
0.0
 10
572.3847339378204
 20
-29.67203499766318
 30
0.0
 10
572.3847339378204
 20
-29.67203499766318
 30
0.0
  0
SPLINE
  5
86
330
1F
100
AcDbEntity
  8
Calque 1
 62
     7
370
    50
100
AcDbSpline
210
0.0
220
0.0
230
1.0
 70
    11
 71
     3
 72
    20
 73
    16
 74
     0
 42
0.0000000001
 43
0.0000000001
 12
1.0
 22
0.0
 32
0.0
 13
1.0
 23
0.0
 33
0.0
 40
0.0
 40
0.0
 40
0.0
 40
0.0
 40
1.0
 40
1.0
 40
1.0
 40
2.0
 40
2.0
 40
2.0
 40
3.0
 40
3.0
 40
3.0
 40
4.0
 40
4.0
 40
4.0
 40
5.0
 40
5.0
 40
5.0
 40
5.0
 10
278.3597103797998
 20
-39.67203499766321
 30
0.0
 10
278.3597103797998
 20
-40.61091907237552
 30
0.0
 10
277.5985944545121
 20
-41.37203499766327
 30
0.0
 10
276.6597103797998
 20
-41.37203499766327
 30
0.0
 10
275.7208263050874
 20
-41.37203499766327
 30
0.0
 10
274.9597103797997
 20
-40.61091907237552
 30
0.0
 10
274.9597103797997
 20
-39.67203499766321
 30
0.0
 10
274.9597103797997
 20
-38.73315092295091
 30
0.0
 10
275.7208263050874
 20
-37.97203499766315
 30
0.0
 10
276.6597103797998
 20
-37.97203499766315
 30
0.0
 10
277.5985944545121
 20
-37.97203499766315
 30
0.0
 10
278.3597103797998
 20
-38.73315092295091
 30
0.0
 10
278.3597103797998
 20
-39.67203499766321
 30
0.0
 10
278.3597103797998
 20
-39.67203499766321
 30
0.0
 10
278.3597103797998
 20
-39.67203499766321
 30
0.0
 10
278.3597103797998
 20
-39.67203499766321
 30
0.0
  0
SPLINE
  5
87
330
1F
100
AcDbEntity
  8
Calque 1
 62
     7
370
    50
100
AcDbSpline
210
0.0
220
0.0
230
1.0
 70
    11
 71
     3
 72
    20
 73
    16
 74
     0
 42
0.0000000001
 43
0.0000000001
 12
1.0
 22
0.0
 32
0.0
 13
1.0
 23
0.0
 33
0.0
 40
0.0
 40
0.0
 40
0.0
 40
0.0
 40
1.0
 40
1.0
 40
1.0
 40
2.0
 40
2.0
 40
2.0
 40
3.0
 40
3.0
 40
3.0
 40
4.0
 40
4.0
 40
4.0
 40
5.0
 40
5.0
 40
5.0
 40
5.0
 10
278.3597103797998
 20
-29.67203499766318
 30
0.0
 10
278.3597103797998
 20
-30.61091907237548
 30
0.0
 10
277.5985944545121
 20
-31.37203499766324
 30
0.0
 10
276.6597103797998
 20
-31.37203499766324
 30
0.0
 10
275.7208263050874
 20
-31.37203499766324
 30
0.0
 10
274.9597103797997
 20
-30.61091907237548
 30
0.0
 10
274.9597103797997
 20
-29.67203499766318
 30
0.0
 10
274.9597103797997
 20
-28.73315092295087
 30
0.0
 10
275.7208263050874
 20
-27.97203499766312
 30
0.0
 10
276.6597103797998
 20
-27.97203499766312
 30
0.0
 10
277.5985944545121
 20
-27.97203499766312
 30
0.0
 10
278.3597103797998
 20
-28.73315092295087
 30
0.0
 10
278.3597103797998
 20
-29.67203499766318
 30
0.0
 10
278.3597103797998
 20
-29.67203499766318
 30
0.0
 10
278.3597103797998
 20
-29.67203499766318
 30
0.0
 10
278.3597103797998
 20
-29.67203499766318
 30
0.0
  0
SPLINE
  5
88
330
1F
100
AcDbEntity
  8
Calque 1
 62
     7
370
    50
100
AcDbSpline
210
0.0
220
0.0
230
1.0
 70
    11
 71
     3
 72
    47
 73
    43
 74
     0
 42
0.0000000001
 43
0.0000000001
 12
1.0
 22
0.0
 32
0.0
 13
1.0
 23
0.0
 33
0.0
 40
0.0
 40
0.0
 40
0.0
 40
0.0
 40
1.0
 40
1.0
 40
1.0
 40
2.0
 40
2.0
 40
2.0
 40
3.0
 40
3.0
 40
3.0
 40
4.0
 40
4.0
 40
4.0
 40
5.0
 40
5.0
 40
5.0
 40
6.0
 40
6.0
 40
6.0
 40
7.0
 40
7.0
 40
7.0
 40
8.0
 40
8.0
 40
8.0
 40
9.0
 40
9.0
 40
9.0
 40
10.0
 40
10.0
 40
10.0
 40
11.0
 40
11.0
 40
11.0
 40
12.0
 40
12.0
 40
12.0
 40
13.0
 40
13.0
 40
13.0
 40
14.0
 40
14.0
 40
14.0
 40
14.0
 10
533.6276077979878
 20
-38.50712380051862
 30
0.0
 10
533.6276077979878
 20
-38.50712380051862
 30
0.0
 10
313.6276077979878
 20
-38.50712380051798
 30
0.0
 10
313.6276077979878
 20
-38.50712380051798
 30
0.0
 10
308.1047602996802
 20
-38.50712380051798
 30
0.0
 10
303.627607797988
 20
-42.98427630221006
 30
0.0
 10
303.627607797988
 20
-48.50712380051802
 30
0.0
 10
303.627607797988
 20
-48.50712380051802
 30
0.0
 10
303.627607797988
 20
-57.669444443033
 30
0.0
 10
303.627607797988
 20
-57.669444443033
 30
0.0
 10
303.627607797988
 20
-57.669444443033
 30
0.0
 10
358.6722221588104
 20
-57.669444443033
 30
0.0
 10
358.6722221588104
 20
-57.669444443033
 30
0.0
 10
358.6722221588104
 20
-57.669444443033
 30
0.0
 10
358.6722221588104
 20
-52.66944444303347
 30
0.0
 10
358.6722221588104
 20
-52.66944444303347
 30
0.0
 10
358.6722221588104
 20
-52.66944444303347
 30
0.0
 10
383.5147221588104
 20
-52.66944444303347
 30
0.0
 10
383.5147221588104
 20
-52.66944444303347
 30
0.0
 10
383.5147221588104
 20
-52.66944444303347
 30
0.0
 10
383.5147221588104
 20
-57.66944444303333
 30
0.0
 10
383.5147221588104
 20
-57.66944444303333
 30
0.0
 10
383.5147221588104
 20
-57.66944444303333
 30
0.0
 10
463.6722221588109
 20
-57.66944444303333
 30
0.0
 10
463.6722221588109
 20
-57.66944444303333
 30
0.0
 10
463.6722221588109
 20
-57.66944444303333
 30
0.0
 10
463.6722221588109
 20
-52.66944444303347
 30
0.0
 10
463.6722221588109
 20
-52.66944444303347
 30
0.0
 10
463.6722221588109
 20
-52.66944444303347
 30
0.0
 10
488.5147221588109
 20
-52.66944444303347
 30
0.0
 10
488.5147221588109
 20
-52.66944444303347
 30
0.0
 10
488.5147221588109
 20
-52.66944444303347
 30
0.0
 10
488.5147221588109
 20
-57.66944444303365
 30
0.0
 10
488.5147221588109
 20
-57.66944444303365
 30
0.0
 10
488.5147221588109
 20
-57.66944444303365
 30
0.0
 10
543.6276077979882
 20
-57.66944444303365
 30
0.0
 10
543.6276077979882
 20
-57.66944444303365
 30
0.0
 10
543.6276077979882
 20
-57.66944444303365
 30
0.0
 10
543.6276077979882
 20
-48.50712380051866
 30
0.0
 10
543.6276077979882
 20
-48.50712380051866
 30
0.0
 10
543.6276077979882
 20
-42.98427630221071
 30
0.0
 10
539.1504552962962
 20
-38.50712380051862
 30
0.0
 10
533.6276077979878
 20
-38.50712380051862
 30
0.0
  0
POLYLINE
  5
89
330
1F
100
AcDbEntity
  8
Calque 1
 62
     7
370
    50
100
AcDb2dPolyline
 66
     1
 10
0.0
 20
0.0
 30
0.0
  0
VERTEX
  5
8A
330
89
100
AcDbEntity
  8
Calque 1
 62
     7
370
    50
100
AcDbVertex
100
AcDb2dVertex
 10
463.6722221588109
 20
-184.6694444430333
 30
0.0
  0
VERTEX
  5
8B
330
89
100
AcDbEntity
  8
Calque 1
 62
     7
370
    50
100
AcDbVertex
100
AcDb2dVertex
 10
383.6722221588106
 20
-184.6694444430333
 30
0.0
  0
VERTEX
  5
8C
330
89
100
AcDbEntity
  8
Calque 1
 62
     7
370
    50
100
AcDbVertex
100
AcDb2dVertex
 10
383.6722221588106
 20
-189.6694444430335
 30
0.0
  0
VERTEX
  5
8D
330
89
100
AcDbEntity
  8
Calque 1
 62
     7
370
    50
100
AcDbVertex
100
AcDb2dVertex
 10
358.6722221588104
 20
-189.6694444430335
 30
0.0
  0
VERTEX
  5
8E
330
89
100
AcDbEntity
  8
Calque 1
 62
     7
370
    50
100
AcDbVertex
100
AcDb2dVertex
 10
358.6722221588104
 20
-184.6694444430333
 30
0.0
  0
VERTEX
  5
8F
330
89
100
AcDbEntity
  8
Calque 1
 62
     7
370
    50
100
AcDbVertex
100
AcDb2dVertex
 10
278.6722221588104
 20
-184.6694444430333
 30
0.0
  0
VERTEX
  5
90
330
89
100
AcDbEntity
  8
Calque 1
 62
     7
370
    50
100
AcDbVertex
100
AcDb2dVertex
 10
278.6722221588104
 20
-189.6694444430335
 30
0.0
  0
VERTEX
  5
91
330
89
100
AcDbEntity
  8
Calque 1
 62
     7
370
    50
100
AcDbVertex
100
AcDb2dVertex
 10
253.6722221588108
 20
-189.6694444430335
 30
0.0
  0
VERTEX
  5
92
330
89
100
AcDbEntity
  8
Calque 1
 62
     7
370
    50
100
AcDbVertex
100
AcDb2dVertex
 10
253.6722221588108
 20
-156.6694444430323
 30
0.0
  0
VERTEX
  5
93
330
89
100
AcDbEntity
  8
Calque 1
 62
     7
370
    50
100
AcDbVertex
100
AcDb2dVertex
 10
258.6722221588107
 20
-156.6694444430323
 30
0.0
  0
VERTEX
  5
94
330
89
100
AcDbEntity
  8
Calque 1
 62
     7
370
    50
100
AcDbVertex
100
AcDb2dVertex
 10
258.6722221588107
 20
-136.6694444430323
 30
0.0
  0
VERTEX
  5
95
330
89
100
AcDbEntity
  8
Calque 1
 62
     7
370
    50
100
AcDbVertex
100
AcDb2dVertex
 10
253.6722221588108
 20
-136.6694444430323
 30
0.0
  0
VERTEX
  5
96
330
89
100
AcDbEntity
  8
Calque 1
 62
     7
370
    50
100
AcDbVertex
100
AcDb2dVertex
 10
253.6722221588105
 20
-98.66944444303157
 30
0.0
  0
VERTEX
  5
97
330
89
100
AcDbEntity
  8
Calque 1
 62
     7
370
    50
100
AcDbVertex
100
AcDb2dVertex
 10
258.6722221588107
 20
-98.66944444303157
 30
0.0
  0
VERTEX
  5
98
330
89
100
AcDbEntity
  8
Calque 1
 62
     7
370
    50
100
AcDbVertex
100
AcDb2dVertex
 10
258.6722221588107
 20
-78.6694444430315
 30
0.0
  0
VERTEX
  5
99
330
89
100
AcDbEntity
  8
Calque 1
 62
     7
370
    50
100
AcDbVertex
100
AcDb2dVertex
 10
253.6722221588108
 20
-78.6694444430315
 30
0.0
  0
VERTEX
  5
9A
330
89
100
AcDbEntity
  8
Calque 1
 62
     7
370
    50
100
AcDbVertex
100
AcDb2dVertex
 10
253.6722221588108
 20
-33.66944444303344
 30
0.0
  0
VERTEX
  5
9B
330
89
100
AcDbEntity
  8
Calque 1
 62
     7
370
    50
100
AcDbVertex
100
AcDb2dVertex
 10
258.6722221588107
 20
-33.66944444303344
 30
0.0
  0
VERTEX
  5
9C
330
89
100
AcDbEntity
  8
Calque 1
 62
     7
370
    50
100
AcDbVertex
100
AcDb2dVertex
 10
258.6722221588107
 20
-5.669444443033415
 30
0.0
  0
VERTEX
  5
9D
330
89
100
AcDbEntity
  8
Calque 1
 62
     7
370
    50
100
AcDbVertex
100
AcDb2dVertex
 10
588.6722221588108
 20
-5.669444443033415
 30
0.0
  0
VERTEX
  5
9E
330
89
100
AcDbEntity
  8
Calque 1
 62
     7
370
    50
100
AcDbVertex
100
AcDb2dVertex
 10
588.6722221588108
 20
-33.66944444303344
 30
0.0
  0
VERTEX
  5
9F
330
89
100
AcDbEntity
  8
Calque 1
 62
     7
370
    50
100
AcDbVertex
100
AcDb2dVertex
 10
593.6722221588103
 20
-33.66944444303344
 30
0.0
  0
VERTEX
  5
A0
330
89
100
AcDbEntity
  8
Calque 1
 62
     7
370
    50
100
AcDbVertex
100
AcDb2dVertex
 10
593.6722221588103
 20
-78.6694444430315
 30
0.0
  0
VERTEX
  5
A1
330
89
100
AcDbEntity
  8
Calque 1
 62
     7
370
    50
100
AcDbVertex
100
AcDb2dVertex
 10
588.6722221588108
 20
-78.6694444430315
 30
0.0
  0
VERTEX
  5
A2
330
89
100
AcDbEntity
  8
Calque 1
 62
     7
370
    50
100
AcDbVertex
100
AcDb2dVertex
 10
588.6722221588108
 20
-98.66944444303157
 30
0.0
  0
VERTEX
  5
A3
330
89
100
AcDbEntity
  8
Calque 1
 62
     7
370
    50
100
AcDbVertex
100
AcDb2dVertex
 10
593.6722221588103
 20
-98.66944444303157
 30
0.0
  0
VERTEX
  5
A4
330
89
100
AcDbEntity
  8
Calque 1
 62
     7
370
    50
100
AcDbVertex
100
AcDb2dVertex
 10
593.6722221588103
 20
-136.6694444430335
 30
0.0
  0
VERTEX
  5
A5
330
89
100
AcDbEntity
  8
Calque 1
 62
     7
370
    50
100
AcDbVertex
100
AcDb2dVertex
 10
588.6722221588108
 20
-136.6694444430335
 30
0.0
  0
VERTEX
  5
A6
330
89
100
AcDbEntity
  8
Calque 1
 62
     7
370
    50
100
AcDbVertex
100
AcDb2dVertex
 10
588.6722221588108
 20
-156.6694444430336
 30
0.0
  0
VERTEX
  5
A7
330
89
100
AcDbEntity
  8
Calque 1
 62
     7
370
    50
100
AcDbVertex
100
AcDb2dVertex
 10
593.6722221588103
 20
-156.6694444430336
 30
0.0
  0
VERTEX
  5
A8
330
89
100
AcDbEntity
  8
Calque 1
 62
     7
370
    50
100
AcDbVertex
100
AcDb2dVertex
 10
593.6722221588103
 20
-189.6694444430335
 30
0.0
  0
VERTEX
  5
A9
330
89
100
AcDbEntity
  8
Calque 1
 62
     7
370
    50
100
AcDbVertex
100
AcDb2dVertex
 10
568.6722221588101
 20
-189.6694444430335
 30
0.0
  0
VERTEX
  5
AA
330
89
100
AcDbEntity
  8
Calque 1
 62
     7
370
    50
100
AcDbVertex
100
AcDb2dVertex
 10
568.6722221588101
 20
-184.6694444430333
 30
0.0
  0
VERTEX
  5
AB
330
89
100
AcDbEntity
  8
Calque 1
 62
     7
370
    50
100
AcDbVertex
100
AcDb2dVertex
 10
488.5147221588109
 20
-184.6694444430333
 30
0.0
  0
VERTEX
  5
AC
330
89
100
AcDbEntity
  8
Calque 1
 62
     7
370
    50
100
AcDbVertex
100
AcDb2dVertex
 10
488.5147221588109
 20
-189.6694444430335
 30
0.0
  0
VERTEX
  5
AD
330
89
100
AcDbEntity
  8
Calque 1
 62
     7
370
    50
100
AcDbVertex
100
AcDb2dVertex
 10
463.6722221588109
 20
-189.6694444430335
 30
0.0
  0
VERTEX
  5
AE
330
89
100
AcDbEntity
  8
Calque 1
 62
     7
370
    50
100
AcDbVertex
100
AcDb2dVertex
 10
463.6722221588109
 20
-184.6694444430333
 30
0.0
  0
SEQEND
  5
AF
330
89
100
AcDbEntity
  8
Calque 1
 62
     7
370
    50
  0
SPLINE
  5
B0
330
1F
100
AcDbEntity
  8
Calque 1
 62
     7
370
    50
100
AcDbSpline
210
0.0
220
0.0
230
1.0
 70
     8
 71
     3
 72
    20
 73
    16
 74
     0
 42
0.0000000001
 43
0.0000000001
 12
1.0
 22
0.0
 32
0.0
 13
1.0
 23
0.0
 33
0.0
 40
0.0
 40
0.0
 40
0.0
 40
0.0
 40
1.0
 40
1.0
 40
1.0
 40
2.0
 40
2.0
 40
2.0
 40
3.0
 40
3.0
 40
3.0
 40
4.0
 40
4.0
 40
4.0
 40
5.0
 40
5.0
 40
5.0
 40
5.0
 10
372.0157956789249
 20
-164.6694444430333
 30
0.0
 10
372.0157956789249
 20
-164.6694444430333
 30
0.0
 10
372.0157956789249
 20
-174.7522467496674
 30
0.0
 10
372.0157956789249
 20
-174.7522467496674
 30
0.0
 10
372.0157956789249
 20
-175.8568162493294
 30
0.0
 10
372.9112261792636
 20
-176.7522467496675
 30
0.0
 10
374.0157956789249
 20
-176.7522467496675
 30
0.0
 10
374.0157956789249
 20
-176.7522467496675
 30
0.0
 10
385.4858397525135
 20
-176.7522467496675
 30
0.0
 10
385.4858397525135
 20
-176.7522467496675
 30
0.0
 10
386.5904092521754
 20
-176.7522467496675
 30
0.0
 10
387.4858397525136
 20
-175.8568162493294
 30
0.0
 10
387.4858397525136
 20
-174.7522467496674
 30
0.0
 10
387.4858397525136
 20
-174.7522467496674
 30
0.0
 10
387.4858397525136
 20
-164.6694444430333
 30
0.0
 10
387.4858397525136
 20
-164.6694444430333
 30
0.0
  0
INSERT
  5
B2
330
1F
100
AcDbEntity
  8
Calque 1
100
AcDbBlockReference
  2
block 3
 10
0.0
 20
0.0
 30
0.0
  0
ENDSEC
  0
SECTION
  2
OBJECTS
  0
DICTIONARY
  5
C
330
0
100
AcDbDictionary
281
     1
  3
ACAD_GROUP
350
D
  3
ACAD_LAYOUT
350
1A
  3
ACAD_MATERIAL
350
3B
  3
ACAD_MLEADERSTYLE
350
CB
  3
ACAD_MLINESTYLE
350
17
  3
ACAD_PLOTSETTINGS
350
19
  3
ACAD_PLOTSTYLENAME
350
E
  3
ACAD_TABLESTYLE
350
CA
  3
ACAD_VISUALSTYLE
350
2A
  0
SUN
  5
3F
330
29
100
AcDbSun
 90
        1
290
     0
 63
     7
421
 16777215
 40
1.0
291
     1
 91
  2455826
 92
 54000000
292
     0
 70
     2
 71
   256
280
     1
  0
DICTIONARY
  5
D
102
{ACAD_REACTORS
330
C
102
}
330
C
100
AcDbDictionary
281
     1
  0
DICTIONARY
  5
1A
102
{ACAD_REACTORS
330
C
102
}
330
C
100
AcDbDictionary
281
     1
  3
Layout1
350
1E
  3
Layout2
350
26
  3
Model
350
22
  0
DICTIONARY
  5
3B
102
{ACAD_REACTORS
330
C
102
}
330
C
100
AcDbDictionary
281
     1
  3
ByBlock
350
3D
  3
ByLayer
350
3C
  3
Global
350
3E
  0
DICTIONARY
  5
CB
102
{ACAD_REACTORS
330
C
102
}
330
C
100
AcDbDictionary
281
     1
  0
DICTIONARY
  5
17
102
{ACAD_REACTORS
330
C
102
}
330
C
100
AcDbDictionary
281
     1
  3
Standard
350
18
  0
DICTIONARY
  5
19
102
{ACAD_REACTORS
330
C
102
}
330
C
100
AcDbDictionary
281
     1
  0
ACDBDICTIONARYWDFLT
  5
E
102
{ACAD_REACTORS
330
C
102
}
330
C
100
AcDbDictionary
281
     1
  3
Normal
350
F
100
AcDbDictionaryWithDefault
340
F
  0
DICTIONARY
  5
CA
102
{ACAD_REACTORS
330
C
102
}
330
C
100
AcDbDictionary
281
     1
  0
DICTIONARY
  5
2A
102
{ACAD_REACTORS
330
C
102
}
330
C
100
AcDbDictionary
281
     1
  3
2dWireframe
350
2F
  3
3D Hidden
350
31
  3
3dWireframe
350
30
  3
Basic
350
32
  3
Brighten
350
36
  3
ColorChange
350
3A
  3
Conceptual
350
34
  3
Dim
350
35
  3
Facepattern
350
39
  3
Flat
350
2B
  3
FlatWithEdges
350
2C
  3
Gouraud
350
2D
  3
GouraudWithEdges
350
2E
  3
Linepattern
350
38
  3
Realistic
350
33
  3
Thicken
350
37
  0
LAYOUT
  5
1E
102
{ACAD_REACTORS
330
1A
102
}
330
1A
100
AcDbPlotSettings
  1

  2
none_device
  4

  6

 40
0.0
 41
0.0
 42
0.0
 43
0.0
 44
0.0
 45
0.0
 46
0.0
 47
0.0
 48
0.0
 49
0.0
140
0.0
141
0.0
142
1.0
143
1.0
 70
   688
 72
     0
 73
     0
 74
     5
  7

 75
    16
 76
     0
 77
     2
 78
   300
147
1.0
148
0.0
149
0.0
100
AcDbLayout
  1
Layout1
 70
     1
 71
     1
 10
0.0
 20
0.0
 11
12.0
 21
9.0
 12
0.0
 22
0.0
 32
0.0
 14
1.000000000000000E+20
 24
1.000000000000000E+20
 34
1.000000000000000E+20
 15
-1.000000000000000E+20
 25
-1.000000000000000E+20
 35
-1.000000000000000E+20
146
0.0
 13
0.0
 23
0.0
 33
0.0
 16
1.0
 26
0.0
 36
0.0
 17
0.0
 27
1.0
 37
0.0
 76
     0
330
1B
  0
LAYOUT
  5
26
102
{ACAD_REACTORS
330
1A
102
}
330
1A
100
AcDbPlotSettings
  1

  2
none_device
  4

  6

 40
0.0
 41
0.0
 42
0.0
 43
0.0
 44
0.0
 45
0.0
 46
0.0
 47
0.0
 48
0.0
 49
0.0
140
0.0
141
0.0
142
1.0
143
1.0
 70
   688
 72
     0
 73
     0
 74
     5
  7

 75
    16
 76
     0
 77
     2
 78
   300
147
1.0
148
0.0
149
0.0
100
AcDbLayout
  1
Layout2
 70
     1
 71
     2
 10
0.0
 20
0.0
 11
0.0
 21
0.0
 12
0.0
 22
0.0
 32
0.0
 14
0.0
 24
0.0
 34
0.0
 15
0.0
 25
0.0
 35
0.0
146
0.0
 13
0.0
 23
0.0
 33
0.0
 16
1.0
 26
0.0
 36
0.0
 17
0.0
 27
1.0
 37
0.0
 76
     0
330
23
  0
LAYOUT
  5
22
102
{ACAD_REACTORS
330
1A
102
}
330
1A
100
AcDbPlotSettings
  1

  2
none_device
  4

  6

 40
0.0
 41
0.0
 42
0.0
 43
0.0
 44
0.0
 45
0.0
 46
0.0
 47
0.0
 48
0.0
 49
0.0
140
0.0
141
0.0
142
1.0
143
1.0
 70
  1712
 72
     0
 73
     0
 74
     0
  7

 75
     0
 76
     0
 77
     2
 78
   300
147
1.0
148
0.0
149
0.0
100
AcDbLayout
  1
Model
 70
     1
 71
     0
 10
0.0
 20
0.0
 11
12.0
 21
9.0
 12
0.0
 22
0.0
 32
0.0
 14
1.000000000000000E+20
 24
1.000000000000000E+20
 34
1.000000000000000E+20
 15
-1.000000000000000E+20
 25
-1.000000000000000E+20
 35
-1.000000000000000E+20
146
0.0
 13
0.0
 23
0.0
 33
0.0
 16
1.0
 26
0.0
 36
0.0
 17
0.0
 27
1.0
 37
0.0
 76
     0
330
1F
331
29
  0
MATERIAL
  5
3D
102
{ACAD_REACTORS
330
3B
102
}
330
3B
100
AcDbMaterial
  1
ByBlock
 72
     1
 94
      127
  0
MATERIAL
  5
3C
102
{ACAD_REACTORS
330
3B
102
}
330
3B
100
AcDbMaterial
  1
ByLayer
 72
     1
 94
      127
  0
MATERIAL
  5
3E
102
{ACAD_REACTORS
330
3B
102
}
330
3B
100
AcDbMaterial
  1
Global
 72
     1
 94
      127
  0
MLINESTYLE
  5
18
102
{ACAD_REACTORS
330
17
102
}
330
17
100
AcDbMlineStyle
  2
Standard
 70
     0
  3

 62
   256
 51
90.0
 52
90.0
 71
     2
 49
0.5
 62
   256
  6
BYLAYER
 49
-0.5
 62
   256
  6
BYLAYER
  0
ACDBPLACEHOLDER
  5
F
102
{ACAD_REACTORS
330
E
102
}
330
E
  0
VISUALSTYLE
  5
2F
102
{ACAD_REACTORS
330
2A
102
}
330
2A
100
AcDbVisualStyle
  2
2dWireframe
 70
     4
177
     2
291
     0
 71
     0
176
     1
 72
     2
176
     1
 73
     0
176
     1
 90
        0
176
     1
 40
-0.6
176
     1
 41
-30.0
176
     1
 62
     5
 63
     7
421
 16777215
176
     1
 74
     1
176
     1
 91
        4
176
     1
 64
     7
176
     1
 65
   257
176
     1
 75
     1
176
     1
175
     1
176
     1
 42
1.0
176
     1
 92
        0
176
     1
 66
   257
176
     1
 43
1.0
176
     1
 76
     1
176
     1
 77
     6
176
     1
 78
     2
176
     1
 67
     7
176
     1
 79
     5
176
     1
170
     0
176
     1
171
     0
176
     1
290
     0
176
     1
 93
        1
176
     1
 44
0.0
176
     1
173
     0
176
     1
  0
VISUALSTYLE
  5
31
102
{ACAD_REACTORS
330
2A
102
}
330
2A
100
AcDbVisualStyle
  2
3D Hidden
 70
     6
177
     2
291
     0
 71
     1
176
     1
 72
     2
176
     1
 73
     2
176
     1
 90
        0
176
     1
 40
-0.6
176
     1
 41
-30.0
176
     1
 62
     5
 63
     7
421
 16777215
176
     1
 74
     2
176
     1
 91
        2
176
     1
 64
     7
176
     1
 65
   257
176
     1
 75
     2
176
     1
175
     1
176
     1
 42
40.0
176
     1
 92
        0
176
     1
 66
   257
176
     1
 43
1.0
176
     1
 76
     1
176
     1
 77
     6
176
     1
 78
     2
176
     1
 67
     7
176
     1
 79
     3
176
     1
170
     0
176
     1
171
     0
176
     1
290
     0
176
     1
 93
        1
176
     1
 44
0.0
176
     1
173
     0
176
     1
  0
VISUALSTYLE
  5
30
102
{ACAD_REACTORS
330
2A
102
}
330
2A
100
AcDbVisualStyle
  2
3dWireframe
 70
     5
177
     2
291
     0
 71
     0
176
     1
 72
     2
176
     1
 73
     0
176
     1
 90
        0
176
     1
 40
-0.6
176
     1
 41
-30.0
176
     1
 62
     5
 63
     7
421
 16777215
176
     1
 74
     1
176
     1
 91
        4
176
     1
 64
     7
176
     1
 65
   257
176
     1
 75
     1
176
     1
175
     1
176
     1
 42
1.0
176
     1
 92
        0
176
     1
 66
   257
176
     1
 43
1.0
176
     1
 76
     1
176
     1
 77
     6
176
     1
 78
     2
176
     1
 67
     7
176
     1
 79
     5
176
     1
170
     0
176
     1
171
     0
176
     1
290
     0
176
     1
 93
        1
176
     1
 44
0.0
176
     1
173
     0
176
     1
  0
VISUALSTYLE
  5
32
102
{ACAD_REACTORS
330
2A
102
}
330
2A
100
AcDbVisualStyle
  2
Basic
 70
     7
177
     2
291
     1
 71
     1
176
     1
 72
     0
176
     1
 73
     1
176
     1
 90
        0
176
     1
 40
-0.6
176
     1
 41
-30.0
176
     1
 62
     5
 63
     7
421
 16777215
176
     1
 74
     0
176
     1
 91
        4
176
     1
 64
     7
176
     1
 65
   257
176
     1
 75
     1
176
     1
175
     1
176
     1
 42
1.0
176
     1
 92
        8
176
     1
 66
     7
176
     1
 43
1.0
176
     1
 76
     1
176
     1
 77
     6
176
     1
 78
     2
176
     1
 67
     7
176
     1
 79
     5
176
     1
170
     0
176
     1
171
     0
176
     1
290
     0
176
     1
 93
        1
176
     1
 44
0.0
176
     1
173
     0
176
     1
  0
VISUALSTYLE
  5
36
102
{ACAD_REACTORS
330
2A
102
}
330
2A
100
AcDbVisualStyle
  2
Brighten
 70
    12
177
     2
291
     1
 71
     2
176
     1
 72
     2
176
     1
 73
     0
176
     1
 90
        0
176
     1
 40
-0.6
176
     1
 41
-30.0
176
     1
 62
     5
 63
     7
421
 16777215
176
     1
 74
     1
176
     1
 91
        4
176
     1
 64
     7
176
     1
 65
   257
176
     1
 75
     1
176
     1
175
     1
176
     1
 42
1.0
176
     1
 92
        8
176
     1
 66
     7
176
     1
 43
1.0
176
     1
 76
     1
176
     1
 77
     6
176
     1
 78
     2
176
     1
 67
     7
176
     1
 79
     5
176
     1
170
     0
176
     1
171
     0
176
     1
290
     0
176
     1
 93
        1
176
     1
 44
50.0
176
     1
173
     0
176
     1
  0
VISUALSTYLE
  5
3A
102
{ACAD_REACTORS
330
2A
102
}
330
2A
100
AcDbVisualStyle
  2
ColorChange
 70
    16
177
     2
291
     1
 71
     2
176
     1
 72
     2
176
     1
 73
     3
176
     1
 90
        0
176
     1
 40
-0.6
176
     1
 41
-30.0
176
     1
 62
     5
 63
     8
421
  8421504
176
     1
 74
     1
176
     1
 91
        4
176
     1
 64
     7
176
     1
 65
   257
176
     1
 75
     1
176
     1
175
     1
176
     1
 42
1.0
176
     1
 92
        8
176
     1
 66
     8
424
  8421504
176
     1
 43
1.0
176
     1
 76
     1
176
     1
 77
     6
176
     1
 78
     2
176
     1
 67
     7
176
     1
 79
     5
176
     1
170
     0
176
     1
171
     0
176
     1
290
     0
176
     1
 93
        1
176
     1
 44
0.0
176
     1
173
     0
176
     1
  0
VISUALSTYLE
  5
34
102
{ACAD_REACTORS
330
2A
102
}
330
2A
100
AcDbVisualStyle
  2
Conceptual
 70
     9
177
     2
291
     0
 71
     3
176
     1
 72
     2
176
     1
 73
     0
176
     1
 90
        0
176
     1
 40
-0.6
176
     1
 41
-30.0
176
     1
 62
     5
 63
     7
421
 16777215
176
     1
 74
     2
176
     1
 91
        2
176
     1
 64
     7
176
     1
 65
   257
176
     1
 75
     1
176
     1
175
     1
176
     1
 42
40.0
176
     1
 92
        8
176
     1
 66
     7
176
     1
 43
1.0
176
     1
 76
     1
176
     1
 77
     6
176
     1
 78
     2
176
     1
 67
     7
176
     1
 79
     3
176
     1
170
     0
176
     1
171
     0
176
     1
290
     0
176
     1
 93
        1
176
     1
 44
0.0
176
     1
173
     0
176
     1
  0
VISUALSTYLE
  5
35
102
{ACAD_REACTORS
330
2A
102
}
330
2A
100
AcDbVisualStyle
  2
Dim
 70
    11
177
     2
291
     1
 71
     2
176
     1
 72
     2
176
     1
 73
     0
176
     1
 90
        0
176
     1
 40
-0.6
176
     1
 41
-30.0
176
     1
 62
     5
 63
     7
421
 16777215
176
     1
 74
     1
176
     1
 91
        4
176
     1
 64
     7
176
     1
 65
   257
176
     1
 75
     1
176
     1
175
     1
176
     1
 42
1.0
176
     1
 92
        8
176
     1
 66
     7
176
     1
 43
1.0
176
     1
 76
     1
176
     1
 77
     6
176
     1
 78
     2
176
     1
 67
     7
176
     1
 79
     5
176
     1
170
     0
176
     1
171
     0
176
     1
290
     0
176
     1
 93
        1
176
     1
 44
-50.0
176
     1
173
     0
176
     1
  0
VISUALSTYLE
  5
39
102
{ACAD_REACTORS
330
2A
102
}
330
2A
100
AcDbVisualStyle
  2
Facepattern
 70
    15
177
     2
291
     1
 71
     2
176
     1
 72
     2
176
     1
 73
     0
176
     1
 90
        0
176
     1
 40
-0.6
176
     1
 41
-30.0
176
     1
 62
     5
 63
     7
421
 16777215
176
     1
 74
     1
176
     1
 91
        4
176
     1
 64
     7
176
     1
 65
   257
176
     1
 75
     1
176
     1
175
     1
176
     1
 42
1.0
176
     1
 92
        8
176
     1
 66
     7
176
     1
 43
1.0
176
     1
 76
     1
176
     1
 77
     6
176
     1
 78
     2
176
     1
 67
     7
176
     1
 79
     5
176
     1
170
     0
176
     1
171
     0
176
     1
290
     0
176
     1
 93
        1
176
     1
 44
0.0
176
     1
173
     0
176
     1
  0
VISUALSTYLE
  5
2B
102
{ACAD_REACTORS
330
2A
102
}
330
2A
100
AcDbVisualStyle
  2
Flat
 70
     0
177
     2
291
     1
 71
     2
176
     1
 72
     1
176
     1
 73
     1
176
     1
 90
        2
176
     1
 40
-0.6
176
     1
 41
30.0
176
     1
 62
     5
 63
     7
421
 16777215
176
     1
 74
     0
176
     1
 91
        4
176
     1
 64
     7
176
     1
 65
   257
176
     1
 75
     1
176
     1
175
     1
176
     1
 42
1.0
176
     1
 92
        8
176
     1
 66
     7
176
     1
 43
1.0
176
     1
 76
     1
176
     1
 77
     6
176
     1
 78
     2
176
     1
 67
     7
176
     1
 79
     5
176
     1
170
     0
176
     1
171
     0
176
     1
290
     0
176
     1
 93
       13
176
     1
 44
0.0
176
     1
173
     0
176
     1
  0
VISUALSTYLE
  5
2C
102
{ACAD_REACTORS
330
2A
102
}
330
2A
100
AcDbVisualStyle
  2
FlatWithEdges
 70
     1
177
     2
291
     1
 71
     2
176
     1
 72
     1
176
     1
 73
     1
176
     1
 90
        2
176
     1
 40
-0.6
176
     1
 41
30.0
176
     1
 62
     5
 63
     7
421
 16777215
176
     1
 74
     1
176
     1
 91
        4
176
     1
 64
     7
176
     1
 65
   257
176
     1
 75
     1
176
     1
175
     1
176
     1
 42
1.0
176
     1
 92
        0
176
     1
 66
   257
176
     1
 43
1.0
176
     1
 76
     1
176
     1
 77
     6
176
     1
 78
     2
176
     1
 67
     7
176
     1
 79
     5
176
     1
170
     0
176
     1
171
     0
176
     1
290
     0
176
     1
 93
       13
176
     1
 44
0.0
176
     1
173
     0
176
     1
  0
VISUALSTYLE
  5
2D
102
{ACAD_REACTORS
330
2A
102
}
330
2A
100
AcDbVisualStyle
  2
Gouraud
 70
     2
177
     2
291
     1
 71
     2
176
     1
 72
     2
176
     1
 73
     1
176
     1
 90
        2
176
     1
 40
-0.6
176
     1
 41
30.0
176
     1
 62
     5
 63
     7
421
 16777215
176
     1
 74
     0
176
     1
 91
        4
176
     1
 64
     7
176
     1
 65
   257
176
     1
 75
     1
176
     1
175
     1
176
     1
 42
1.0
176
     1
 92
        0
176
     1
 66
     7
176
     1
 43
1.0
176
     1
 76
     1
176
     1
 77
     6
176
     1
 78
     2
176
     1
 67
     7
176
     1
 79
     5
176
     1
170
     0
176
     1
171
     0
176
     1
290
     0
176
     1
 93
       13
176
     1
 44
0.0
176
     1
173
     0
176
     1
  0
VISUALSTYLE
  5
2E
102
{ACAD_REACTORS
330
2A
102
}
330
2A
100
AcDbVisualStyle
  2
GouraudWithEdges
 70
     3
177
     2
291
     1
 71
     2
176
     1
 72
     2
176
     1
 73
     1
176
     1
 90
        2
176
     1
 40
-0.6
176
     1
 41
30.0
176
     1
 62
     5
 63
     7
421
 16777215
176
     1
 74
     1
176
     1
 91
        4
176
     1
 64
     7
176
     1
 65
   257
176
     1
 75
     1
176
     1
175
     1
176
     1
 42
1.0
176
     1
 92
        0
176
     1
 66
   257
176
     1
 43
1.0
176
     1
 76
     1
176
     1
 77
     6
176
     1
 78
     2
176
     1
 67
     7
176
     1
 79
     5
176
     1
170
     0
176
     1
171
     0
176
     1
290
     0
176
     1
 93
       13
176
     1
 44
0.0
176
     1
173
     0
176
     1
  0
VISUALSTYLE
  5
38
102
{ACAD_REACTORS
330
2A
102
}
330
2A
100
AcDbVisualStyle
  2
Linepattern
 70
    14
177
     2
291
     1
 71
     2
176
     1
 72
     2
176
     1
 73
     0
176
     1
 90
        0
176
     1
 40
-0.6
176
     1
 41
-30.0
176
     1
 62
     5
 63
     7
421
 16777215
176
     1
 74
     1
176
     1
 91
        4
176
     1
 64
     7
176
     1
 65
   257
176
     1
 75
     7
176
     1
175
     7
176
     1
 42
1.0
176
     1
 92
        8
176
     1
 66
     7
176
     1
 43
1.0
176
     1
 76
     1
176
     1
 77
     6
176
     1
 78
     2
176
     1
 67
     7
176
     1
 79
     5
176
     1
170
     0
176
     1
171
     0
176
     1
290
     0
176
     1
 93
        1
176
     1
 44
0.0
176
     1
173
     0
176
     1
  0
VISUALSTYLE
  5
33
102
{ACAD_REACTORS
330
2A
102
}
330
2A
100
AcDbVisualStyle
  2
Realistic
 70
     8
177
     2
291
     0
 71
     2
176
     1
 72
     2
176
     1
 73
     0
176
     1
 90
        0
176
     1
 40
-0.6
176
     1
 41
-30.0
176
     1
 62
     5
 63
     7
421
 16777215
176
     1
 74
     1
176
     1
 91
        0
176
     1
 64
     7
176
     1
 65
   257
176
     1
 75
     1
176
     1
175
     1
176
     1
 42
1.0
176
     1
 92
        8
176
     1
 66
     8
424
  7895160
176
     1
 43
1.0
176
     1
 76
     1
176
     1
 77
     6
176
     1
 78
     2
176
     1
 67
     7
176
     1
 79
     5
176
     1
170
     0
176
     1
171
     0
176
     1
290
     0
176
     1
 93
       13
176
     1
 44
0.0
176
     1
173
     0
176
     1
  0
VISUALSTYLE
  5
37
102
{ACAD_REACTORS
330
2A
102
}
330
2A
100
AcDbVisualStyle
  2
Thicken
 70
    13
177
     2
291
     1
 71
     2
176
     1
 72
     2
176
     1
 73
     0
176
     1
 90
        0
176
     1
 40
-0.6
176
     1
 41
-30.0
176
     1
 62
     5
 63
     7
421
 16777215
176
     1
 74
     1
176
     1
 91
        4
176
     1
 64
     7
176
     1
 65
   257
176
     1
 75
     1
176
     1
175
     1
176
     1
 42
1.0
176
     1
 92
       12
176
     1
 66
     7
176
     1
 43
1.0
176
     1
 76
     1
176
     1
 77
     6
176
     1
 78
     2
176
     1
 67
     7
176
     1
 79
     5
176
     1
170
     0
176
     1
171
     0
176
     1
290
     0
176
     1
 93
        1
176
     1
 44
0.0
176
     1
173
     0
176
     1
  0
ENDSEC
  0
EOF
