  0
SECTION
  2
HEADER
  9
$ACADVER
  1
AC1024
  9
$ACADMAINTVER
 70
     6
  9
$DWGCODEPAGE
  3
UNDEFINED
  9
$INSBASE
 10
0.0
 20
0.0
 30
0.0
  9
$EXTMIN
 10
1.000000000000000E+20
 20
1.000000000000000E+20
 30
1.000000000000000E+20
  9
$EXTMAX
 10
-1.000000000000000E+20
 20
-1.000000000000000E+20
 30
-1.000000000000000E+20
  9
$LIMMIN
 10
0.0
 20
0.0
  9
$LIMMAX
 10
12.0
 20
9.0
  9
$ORTHOMODE
 70
     0
  9
$REGENMODE
 70
     1
  9
$FILLMODE
 70
     1
  9
$QTEXTMODE
 70
     0
  9
$MIRRTEXT
 70
     1
  9
$LTSCALE
 40
1.0
  9
$ATTMODE
 70
     1
  9
$TEXTSIZE
 40
0.2
  9
$TRACEWID
 40
0.05
  9
$TEXTSTYLE
  7
Standard
  9
$CLAYER
  8
0
  9
$CELTYPE
  6
ByLayer
  9
$CECOLOR
 62
   256
  9
$CELTSCALE
 40
1.0
  9
$DISPSILH
 70
     0
  9
$DIMSCALE
 40
1.0
  9
$DIMASZ
 40
0.18
  9
$DIMEXO
 40
0.0625
  9
$DIMDLI
 40
0.38
  9
$DIMRND
 40
0.0
  9
$DIMDLE
 40
0.0
  9
$DIMEXE
 40
0.18
  9
$DIMTP
 40
0.0
  9
$DIMTM
 40
0.0
  9
$DIMTXT
 40
0.18
  9
$DIMCEN
 40
0.09
  9
$DIMTSZ
 40
0.0
  9
$DIMTOL
 70
     0
  9
$DIMLIM
 70
     0
  9
$DIMTIH
 70
     1
  9
$DIMTOH
 70
     1
  9
$DIMSE1
 70
     0
  9
$DIMSE2
 70
     0
  9
$DIMTAD
 70
     0
  9
$DIMZIN
 70
     0
  9
$DIMBLK
  1

  9
$DIMASO
 70
     1
  9
$DIMSHO
 70
     1
  9
$DIMPOST
  1

  9
$DIMAPOST
  1

  9
$DIMALT
 70
     0
  9
$DIMALTD
 70
     2
  9
$DIMALTF
 40
25.4
  9
$DIMLFAC
 40
1.0
  9
$DIMTOFL
 70
     0
  9
$DIMTVP
 40
0.0
  9
$DIMTIX
 70
     0
  9
$DIMSOXD
 70
     0
  9
$DIMSAH
 70
     0
  9
$DIMBLK1
  1

  9
$DIMBLK2
  1

  9
$DIMSTYLE
  2
Standard
  9
$DIMCLRD
 70
     0
  9
$DIMCLRE
 70
     0
  9
$DIMCLRT
 70
     0
  9
$DIMTFAC
 40
1.0
  9
$DIMGAP
 40
0.09
  9
$DIMJUST
 70
     0
  9
$DIMSD1
 70
     0
  9
$DIMSD2
 70
     0
  9
$DIMTOLJ
 70
     1
  9
$DIMTZIN
 70
     0
  9
$DIMALTZ
 70
     0
  9
$DIMALTTZ
 70
     0
  9
$DIMUPT
 70
     0
  9
$DIMDEC
 70
     4
  9
$DIMTDEC
 70
     4
  9
$DIMALTU
 70
     2
  9
$DIMALTTD
 70
     2
  9
$DIMTXSTY
  7
Standard
  9
$DIMAUNIT
 70
     0
  9
$DIMADEC
 70
     0
  9
$DIMALTRND
 40
0.0
  9
$DIMAZIN
 70
     0
  9
$DIMDSEP
 70
    46
  9
$DIMATFIT
 70
     3
  9
$DIMFRAC
 70
     0
  9
$DIMLDRBLK
  1

  9
$DIMLUNIT
 70
     2
  9
$DIMLWD
 70
    -2
  9
$DIMLWE
 70
    -2
  9
$DIMTMOVE
 70
     0
  9
$DIMFXL
 40
1.0
  9
$DIMFXLON
 70
     0
  9
$DIMJOGANG
 40
0.7853981633974483
  9
$DIMTFILL
 70
     0
  9
$DIMTFILLCLR
 70
     0
  9
$DIMARCSYM
 70
     0
  9
$DIMLTYPE
  6

  9
$DIMLTEX1
  6

  9
$DIMLTEX2
  6

  9
$DIMTXTDIRECTION
 70
     0
  9
$LUNITS
 70
     2
  9
$LUPREC
 70
     4
  9
$SKETCHINC
 40
0.1
  9
$FILLETRAD
 40
0.5
  9
$AUNITS
 70
     0
  9
$AUPREC
 70
     0
  9
$MENU
  1
.
  9
$ELEVATION
 40
0.0
  9
$PELEVATION
 40
0.0
  9
$THICKNESS
 40
0.0
  9
$LIMCHECK
 70
     0
  9
$CHAMFERA
 40
0.5
  9
$CHAMFERB
 40
0.5
  9
$CHAMFERC
 40
1.0
  9
$CHAMFERD
 40
0.0
  9
$SKPOLY
 70
     0
  9
$TDCREATE
 40
2458190.480196747
  9
$TDUCREATE
 40
2458190.438530093
  9
$TDUPDATE
 40
2458190.480196747
  9
$TDUUPDATE
 40
2458190.438530093
  9
$TDINDWG
 40
0.0000000116
  9
$TDUSRTIMER
 40
0.0000000116
  9
$USRTIMER
 70
     1
  9
$ANGBASE
 50
0.0
  9
$ANGDIR
 70
     0
  9
$PDMODE
 70
     0
  9
$PDSIZE
 40
0.0
  9
$PLINEWID
 40
0.0
  9
$SPLFRAME
 70
     0
  9
$SPLINETYPE
 70
     6
  9
$SPLINESEGS
 70
     8
  9
$HANDSEED
  5
110
  9
$SURFTAB1
 70
     6
  9
$SURFTAB2
 70
     6
  9
$SURFTYPE
 70
     6
  9
$SURFU
 70
     6
  9
$SURFV
 70
     6
  9
$UCSBASE
  2

  9
$UCSNAME
  2

  9
$UCSORG
 10
0.0
 20
0.0
 30
0.0
  9
$UCSXDIR
 10
1.0
 20
0.0
 30
0.0
  9
$UCSYDIR
 10
0.0
 20
1.0
 30
0.0
  9
$UCSORTHOREF
  2

  9
$UCSORTHOVIEW
 70
     0
  9
$UCSORGTOP
 10
0.0
 20
0.0
 30
0.0
  9
$UCSORGBOTTOM
 10
0.0
 20
0.0
 30
0.0
  9
$UCSORGLEFT
 10
0.0
 20
0.0
 30
0.0
  9
$UCSORGRIGHT
 10
0.0
 20
0.0
 30
0.0
  9
$UCSORGFRONT
 10
0.0
 20
0.0
 30
0.0
  9
$UCSORGBACK
 10
0.0
 20
0.0
 30
0.0
  9
$PUCSBASE
  2

  9
$PUCSNAME
  2

  9
$PUCSORG
 10
0.0
 20
0.0
 30
0.0
  9
$PUCSXDIR
 10
1.0
 20
0.0
 30
0.0
  9
$PUCSYDIR
 10
0.0
 20
1.0
 30
0.0
  9
$PUCSORTHOREF
  2

  9
$PUCSORTHOVIEW
 70
     0
  9
$PUCSORGTOP
 10
0.0
 20
0.0
 30
0.0
  9
$PUCSORGBOTTOM
 10
0.0
 20
0.0
 30
0.0
  9
$PUCSORGLEFT
 10
0.0
 20
0.0
 30
0.0
  9
$PUCSORGRIGHT
 10
0.0
 20
0.0
 30
0.0
  9
$PUCSORGFRONT
 10
0.0
 20
0.0
 30
0.0
  9
$PUCSORGBACK
 10
0.0
 20
0.0
 30
0.0
  9
$USERI1
 70
     0
  9
$USERI2
 70
     0
  9
$USERI3
 70
     0
  9
$USERI4
 70
     0
  9
$USERI5
 70
     0
  9
$USERR1
 40
0.0
  9
$USERR2
 40
0.0
  9
$USERR3
 40
0.0
  9
$USERR4
 40
0.0
  9
$USERR5
 40
0.0
  9
$WORLDVIEW
 70
     1
  9
$SHADEDGE
 70
     3
  9
$SHADEDIF
 70
    70
  9
$TILEMODE
 70
     1
  9
$MAXACTVP
 70
    64
  9
$PINSBASE
 10
0.0
 20
0.0
 30
0.0
  9
$PLIMCHECK
 70
     0
  9
$PEXTMIN
 10
1.000000000000000E+20
 20
1.000000000000000E+20
 30
1.000000000000000E+20
  9
$PEXTMAX
 10
-1.000000000000000E+20
 20
-1.000000000000000E+20
 30
-1.000000000000000E+20
  9
$PLIMMIN
 10
0.0
 20
0.0
  9
$PLIMMAX
 10
12.0
 20
9.0
  9
$UNITMODE
 70
     0
  9
$VISRETAIN
 70
     1
  9
$PLINEGEN
 70
     0
  9
$PSLTSCALE
 70
     1
  9
$TREEDEPTH
 70
  3020
  9
$CMLSTYLE
  2
Standard
  9
$CMLJUST
 70
     0
  9
$CMLSCALE
 40
1.0
  9
$PROXYGRAPHICS
 70
     1
  9
$MEASUREMENT
 70
     0
  9
$CELWEIGHT
370
    -1
  9
$ENDCAPS
280
     0
  9
$JOINSTYLE
280
     0
  9
$LWDISPLAY
290
     1
  9
$INSUNITS
 70
     1
  9
$HYPERLINKBASE
  1

  9
$STYLESHEET
  1

  9
$XEDIT
290
     1
  9
$CEPSNTYPE
380
     0
  9
$PSTYLEMODE
290
     1
  9
$FINGERPRINTGUID
  2
{4B73CA28-CEFE-F845-E7B3-3881A9833E27}
  9
$VERSIONGUID
  2
{FAEB1C32-E019-11D5-929B-00C0DF256EC4}
  9
$EXTNAMES
290
     1
  9
$PSVPSCALE
 40
0.0
  9
$OLESTARTUP
290
     0
  9
$SORTENTS
280
   127
  9
$INDEXCTL
280
     0
  9
$HIDETEXT
280
     1
  9
$XCLIPFRAME
280
     2
  9
$HALOGAP
280
     0
  9
$OBSCOLOR
 70
   257
  9
$OBSLTYPE
280
     0
  9
$INTERSECTIONDISPLAY
280
     0
  9
$INTERSECTIONCOLOR
 70
   257
  9
$DIMASSOC
280
     2
  9
$PROJECTNAME
  1

  9
$CAMERADISPLAY
290
     0
  9
$LENSLENGTH
 40
50.0
  9
$CAMERAHEIGHT
 40
0.0
  9
$STEPSPERSEC
 40
2.0
  9
$STEPSIZE
 40
6.0
  9
$3DDWFPREC
 40
2.0
  9
$PSOLWIDTH
 40
0.25
  9
$PSOLHEIGHT
 40
4.0
  9
$LOFTANG1
 40
1.570796326794897
  9
$LOFTANG2
 40
1.570796326794897
  9
$LOFTMAG1
 40
0.0
  9
$LOFTMAG2
 40
0.0
  9
$LOFTPARAM
 70
     7
  9
$LOFTNORMALS
280
     1
  9
$LATITUDE
 40
37.795
  9
$LONGITUDE
 40
-122.394
  9
$NORTHDIRECTION
 40
0.0
  9
$TIMEZONE
 70
 -8000
  9
$LIGHTGLYPHDISPLAY
280
     1
  9
$TILEMODELIGHTSYNCH
280
     1
  9
$CMATERIAL
347
3C
  9
$SOLIDHIST
280
     1
  9
$SHOWHIST
280
     1
  9
$DWFFRAME
280
     2
  9
$DGNFRAME
280
     2
  9
$REALWORLDSCALE
290
     1
  9
$INTERFERECOLOR
 62
   256
  9
$CSHADOW
280
     0
  9
$SHADOWPLANELOCATION
 40
0.0
  0
ENDSEC
  0
SECTION
  2
CLASSES
  0
CLASS
  1
ACDBDICTIONARYWDFLT
  2
AcDbDictionaryWithDefault
  3
ObjectDBX Classes
 90
        0
 91
        4
280
     0
281
     0
  0
CLASS
  1
VISUALSTYLE
  2
AcDbVisualStyle
  3
ObjectDBX Classes
 90
     4095
 91
        4
280
     0
281
     0
  0
CLASS
  1
MATERIAL
  2
AcDbMaterial
  3
ObjectDBX Classes
 90
     1153
 91
        4
280
     0
281
     0
  0
CLASS
  1
SUN
  2
AcDbSun
  3
SCENEOE
 90
     1024
 91
        4
280
     0
281
     0
  0
ENDSEC
  0
SECTION
  2
TABLES
  0
TABLE
  2
VPORT
  5
8
330
0
100
AcDbSymbolTable
 70
     1
  0
VPORT
  5
29
330
8
100
AcDbSymbolTableRecord
100
AcDbViewportTableRecord
  2
*Active
 70
     0
 10
0.0
 20
0.0
 11
1.0
 21
1.0
 12
0.0
 22
0.0
 13
0.0
 23
0.0
 14
0.5
 24
0.5
 15
0.5
 25
0.5
 16
0.0
 26
0.0
 36
1.0
 17
300.0004582583334
 27
-200.0003055055556
 37
0.0
 40
400.0006110111112
 41
1.5
 42
50.0
 43
0.0
 44
0.0
 50
0.0
 51
0.0
 71
     0
 72
   100
 73
     1
 74
     3
 75
     0
 76
     0
 77
     0
 78
     0
281
     0
 65
     1
110
0.0
120
0.0
130
0.0
111
1.0
121
0.0
131
0.0
112
0.0
122
1.0
132
0.0
 79
     0
146
0.0
 60
     3
 61
     5
292
     1
282
     1
141
0.0
142
0.0
 63
   250
361
3F
  0
ENDTAB
  0
TABLE
  2
LTYPE
  5
5
330
0
100
AcDbSymbolTable
 70
     1
  0
LTYPE
  5
14
330
5
100
AcDbSymbolTableRecord
100
AcDbLinetypeTableRecord
  2
ByBlock
 70
     0
  3

 72
    65
 73
     0
 40
0.0
  0
LTYPE
  5
15
330
5
100
AcDbSymbolTableRecord
100
AcDbLinetypeTableRecord
  2
ByLayer
 70
     0
  3

 72
    65
 73
     0
 40
0.0
  0
LTYPE
  5
16
330
5
100
AcDbSymbolTableRecord
100
AcDbLinetypeTableRecord
  2
Continuous
 70
     0
  3
Solid line
 72
    65
 73
     0
 40
0.0
  0
ENDTAB
  0
TABLE
  2
LAYER
  5
2
330
0
100
AcDbSymbolTable
 70
     2
  0
LAYER
  5
10
330
2
100
AcDbSymbolTableRecord
100
AcDbLayerTableRecord
  2
0
 70
     0
 62
     7
  6
Continuous
370
    -3
390
F
347
3E
  0
LAYER
  5
40
330
2
100
AcDbSymbolTableRecord
100
AcDbLayerTableRecord
  2
Calque 1
 70
     0
 62
     7
  6
Continuous
370
    -3
390
F
347
3E
  0
ENDTAB
  0
TABLE
  2
STYLE
  5
3
330
0
100
AcDbSymbolTable
 70
     1
  0
STYLE
  5
11
330
3
100
AcDbSymbolTableRecord
100
AcDbTextStyleTableRecord
  2
Standard
 70
     0
 40
0.0
 41
1.0
 50
0.0
 71
     0
 42
0.2
  3
txt
  4

  0
ENDTAB
  0
TABLE
  2
VIEW
  5
6
330
0
100
AcDbSymbolTable
 70
     0
  0
ENDTAB
  0
TABLE
  2
UCS
  5
7
330
0
100
AcDbSymbolTable
 70
     0
  0
ENDTAB
  0
TABLE
  2
APPID
  5
9
330
0
100
AcDbSymbolTable
 70
     1
  0
APPID
  5
12
330
9
100
AcDbSymbolTableRecord
100
AcDbRegAppTableRecord
  2
ACAD
 70
     0
  0
ENDTAB
  0
TABLE
  2
DIMSTYLE
  5
A
330
0
100
AcDbSymbolTable
 70
     1
100
AcDbDimStyleTable
  0
DIMSTYLE
105
27
330
A
100
AcDbSymbolTableRecord
100
AcDbDimStyleTableRecord
  2
Standard
 70
     0
178
     0
340
11
  0
ENDTAB
  0
TABLE
  2
BLOCK_RECORD
  5
1
330
0
100
AcDbSymbolTable
 70
     2
  0
BLOCK_RECORD
  5
1F
330
1
100
AcDbSymbolTableRecord
100
AcDbBlockTableRecord
  2
*Model_Space
340
22
 70
     0
280
     1
281
     0
  0
BLOCK_RECORD
  5
1B
330
1
100
AcDbSymbolTableRecord
100
AcDbBlockTableRecord
  2
*Paper_Space
340
1E
 70
     0
280
     1
281
     0
  0
BLOCK_RECORD
  5
23
330
1
100
AcDbSymbolTableRecord
100
AcDbBlockTableRecord
  2
*Paper_Space0
340
26
 70
     0
280
     1
281
     0
  0
BLOCK_RECORD
  5
CD
330
1
100
AcDbSymbolTableRecord
100
AcDbBlockTableRecord
  2
block 2
340
0
102
{BLKREFS
331
CE
102
}
 70
     0
280
     1
281
     0
  0
ENDTAB
  0
ENDSEC
  0
SECTION
  2
BLOCKS
  0
BLOCK
  5
20
330
1F
100
AcDbEntity
  8
0
100
AcDbBlockBegin
  2
*Model_Space
 70
     0
 10
0.0
 20
0.0
 30
0.0
  3
*Model_Space
  1

  0
ENDBLK
  5
21
330
1F
100
AcDbEntity
  8
0
100
AcDbBlockEnd
  0
BLOCK
  5
1C
330
1B
100
AcDbEntity
 67
     1
  8
0
100
AcDbBlockBegin
  2
*Paper_Space
 70
     0
 10
0.0
 20
0.0
 30
0.0
  3
*Paper_Space
  1

  0
ENDBLK
  5
1D
330
1B
100
AcDbEntity
 67
     1
  8
0
100
AcDbBlockEnd
  0
BLOCK
  5
24
330
23
100
AcDbEntity
  8
0
100
AcDbBlockBegin
  2
*Paper_Space0
 70
     0
 10
0.0
 20
0.0
 30
0.0
  3
*Paper_Space0
  1

  0
ENDBLK
  5
25
330
23
100
AcDbEntity
  8
0
100
AcDbBlockEnd
  0
BLOCK
  5
CF
330
CD
100
AcDbEntity
  8
0
100
AcDbBlockBegin
  2
block 2
 70
     0
 10
0.0
 20
0.0
 30
0.0
  3
block 2
  1

  0
SPLINE
  5
D1
330
CD
100
AcDbEntity
  8
Calque 1
370
     0
100
AcDbSpline
210
0.0
220
0.0
230
1.0
 70
    11
 71
     3
 72
    56
 73
    52
 74
     0
 42
0.0000000001
 43
0.0000000001
 12
1.0
 22
0.0
 32
0.0
 13
1.0
 23
0.0
 33
0.0
 40
0.0
 40
0.0
 40
0.0
 40
0.0
 40
1.0
 40
1.0
 40
1.0
 40
2.0
 40
2.0
 40
2.0
 40
3.0
 40
3.0
 40
3.0
 40
4.0
 40
4.0
 40
4.0
 40
5.0
 40
5.0
 40
5.0
 40
6.0
 40
6.0
 40
6.0
 40
7.0
 40
7.0
 40
7.0
 40
8.0
 40
8.0
 40
8.0
 40
9.0
 40
9.0
 40
9.0
 40
10.0
 40
10.0
 40
10.0
 40
11.0
 40
11.0
 40
11.0
 40
12.0
 40
12.0
 40
12.0
 40
13.0
 40
13.0
 40
13.0
 40
14.0
 40
14.0
 40
14.0
 40
15.0
 40
15.0
 40
15.0
 40
16.0
 40
16.0
 40
16.0
 40
17.0
 40
17.0
 40
17.0
 40
17.0
 10
368.0742126494958
 20
-264.3727231648922
 30
0.0
 10
368.0742126494958
 20
-264.3727231648922
 30
0.0
 10
368.0742126494958
 20
-268.2051975628728
 30
0.0
 10
368.0742126494958
 20
-268.2051975628728
 30
0.0
 10
368.4075687531314
 20
-267.8177231292537
 30
0.0
 10
368.7793520733229
 20
-267.5288785514647
 30
0.0
 10
369.1892423832675
 20
-267.3383436027015
 30
0.0
 10
369.5991326932121
 20
-267.148128880743
 30
0.0
 10
370.0442479516669
 20
-267.0527012929587
 30
0.0
 10
370.5242679318279
 20
-267.0527012929587
 30
0.0
 10
371.0776198502537
 20
-267.0527012929587
 30
0.0
 10
371.5576398304153
 20
-267.1394827570174
 30
0.0
 10
371.9643278723129
 20
-267.3127254583302
 30
0.0
 10
372.3706956874065
 20
-267.4861282730453
 30
0.0
 10
372.6806752343024
 20
-267.7295006445746
 30
0.0
 10
372.8942665129999
 20
-268.0426824595161
 30
0.0
 10
373.1075375648933
 20
-268.356184501263
 30
0.0
 10
373.235948513555
 20
-268.6628016667095
 30
0.0
 10
373.2791791321827
 20
-268.9626940692594
 30
0.0
 10
373.322409750809
 20
-269.2627465852096
 30
0.0
 10
373.3441851735239
 20
-269.9027198542917
 30
0.0
 10
373.3441851735239
 20
-270.8827739899048
 30
0.0
 10
373.3441851735239
 20
-270.8827739899048
 30
0.0
 10
373.3441851735239
 20
-276.8626893398302
 30
0.0
 10
373.3441851735239
 20
-276.8626893398302
 30
0.0
 10
373.3441851735239
 20
-277.8360187125459
 30
0.0
 10
373.2791791321827
 20
-278.5610121982596
 30
0.0
 10
373.1491670494969
 20
-279.0376697969726
 30
0.0
 10
373.0191549668111
 20
-279.5143273956857
 30
0.0
 10
372.7142990487898
 20
-279.9275800870789
 30
0.0
 10
372.2342790686281
 20
-280.2775879845542
 30
0.0
 10
371.7542590884671
 20
-280.6275958820314
 30
0.0
 10
371.1842553761997
 20
-280.8025998307693
 30
0.0
 10
370.5242679318279
 20
-280.8025998307693
 30
0.0
 10
370.0509727145649
 20
-280.8025998307693
 30
0.0
 10
369.6093799509604
 20
-280.6990064594672
 30
0.0
 10
369.1991694142112
 20
-280.4919798302635
 30
0.0
 10
368.7892791042665
 20
-280.2849532010622
 30
0.0
 10
368.4142935160281
 20
-279.9743332005563
 30
0.0
 10
368.0742126494958
 20
-279.5601198287502
 30
0.0
 10
368.0742126494958
 20
-279.5601198287502
 30
0.0
 10
367.8141884841263
 20
-280.5625898406876
 30
0.0
 10
367.8141884841263
 20
-280.5625898406876
 30
0.0
 10
367.8141884841263
 20
-280.5625898406876
 30
0.0
 10
364.0342312821044
 20
-280.5625898406876
 30
0.0
 10
364.0342312821044
 20
-280.5625898406876
 30
0.0
 10
364.0342312821044
 20
-280.5625898406876
 30
0.0
 10
364.0342312821044
 20
-264.3727231648922
 30
0.0
 10
364.0342312821044
 20
-264.3727231648922
 30
0.0
 10
364.0342312821044
 20
-264.3727231648922
 30
0.0
 10
368.0742126494958
 20
-264.3727231648922
 30
0.0
 10
368.0742126494958
 20
-264.3727231648922
 30
0.0
  0
SPLINE
  5
D2
330
CD
100
AcDbEntity
  8
Calque 1
370
     0
100
AcDbSpline
210
0.0
220
0.0
230
1.0
 70
    11
 71
     3
 72
    35
 73
    31
 74
     0
 42
0.0000000001
 43
0.0000000001
 12
1.0
 22
0.0
 32
0.0
 13
1.0
 23
0.0
 33
0.0
 40
0.0
 40
0.0
 40
0.0
 40
0.0
 40
1.0
 40
1.0
 40
1.0
 40
2.0
 40
2.0
 40
2.0
 40
3.0
 40
3.0
 40
3.0
 40
4.0
 40
4.0
 40
4.0
 40
5.0
 40
5.0
 40
5.0
 40
6.0
 40
6.0
 40
6.0
 40
7.0
 40
7.0
 40
7.0
 40
8.0
 40
8.0
 40
8.0
 40
9.0
 40
9.0
 40
9.0
 40
10.0
 40
10.0
 40
10.0
 40
10.0
 10
369.304203806135
 20
-271.0627414541149
 30
0.0
 10
369.304203806135
 20
-270.3761751849584
 30
0.0
 10
369.2609731875074
 20
-269.9276975450542
 30
0.0
 10
369.1741917234493
 20
-269.7177888746101
 30
0.0
 10
369.0877304861946
 20
-269.5077200907636
 30
0.0
 10
368.9176900529288
 20
-269.4026856988403
 30
0.0
 10
368.6643906504547
 20
-269.4026856988403
 30
0.0
 10
368.4174893677861
 20
-269.4026856988403
 30
0.0
 10
368.2577026085564
 20
-269.4944306783706
 30
0.0
 10
368.1843706702936
 20
-269.6777605240288
 30
0.0
 10
368.1107185052255
 20
-269.8610903696882
 30
0.0
 10
368.0742126494958
 20
-270.3226973085823
 30
0.0
 10
368.0742126494958
 20
-271.0627414541149
 30
0.0
 10
368.0742126494958
 20
-271.0627414541149
 30
0.0
 10
368.0742126494958
 20
-276.7826326386682
 30
0.0
 10
368.0742126494958
 20
-276.7826326386682
 30
0.0
 10
368.0742126494958
 20
-277.496097959416
 30
0.0
 10
368.1158421341
 20
-277.9525812694357
 30
0.0
 10
368.1994213301124
 20
-278.1525629089361
 30
0.0
 10
368.2826802993195
 20
-278.3525445484366
 30
0.0
 10
368.4475971037115
 20
-278.4526154248877
 30
0.0
 10
368.694171743287
 20
-278.4526154248877
 30
0.0
 10
368.9474711457611
 20
-278.4526154248877
 30
0.0
 10
369.1127081769571
 20
-278.3493422803909
 30
0.0
 10
369.1892423832675
 20
-278.1426358779918
 30
0.0
 10
369.2657765895772
 20
-277.936089588997
 30
0.0
 10
369.304203806135
 20
-277.4394178149937
 30
0.0
 10
369.304203806135
 20
-276.6526205559831
 30
0.0
 10
369.304203806135
 20
-276.6526205559831
 30
0.0
 10
369.304203806135
 20
-271.0627414541149
 30
0.0
 10
369.304203806135
 20
-271.0627414541149
 30
0.0
  0
SPLINE
  5
D3
330
CD
100
AcDbEntity
  8
Calque 1
370
     0
100
AcDbSpline
210
0.0
220
0.0
230
1.0
 70
    11
 71
     3
 72
    35
 73
    31
 74
     0
 42
0.0000000001
 43
0.0000000001
 12
1.0
 22
0.0
 32
0.0
 13
1.0
 23
0.0
 33
0.0
 40
0.0
 40
0.0
 40
0.0
 40
0.0
 40
1.0
 40
1.0
 40
1.0
 40
2.0
 40
2.0
 40
2.0
 40
3.0
 40
3.0
 40
3.0
 40
4.0
 40
4.0
 40
4.0
 40
5.0
 40
5.0
 40
5.0
 40
6.0
 40
6.0
 40
6.0
 40
7.0
 40
7.0
 40
7.0
 40
8.0
 40
8.0
 40
8.0
 40
9.0
 40
9.0
 40
9.0
 40
10.0
 40
10.0
 40
10.0
 40
10.0
 10
378.714068460602
 20
-267.2927112830399
 30
0.0
 10
378.714068460602
 20
-267.2927112830399
 30
0.0
 10
378.5542752850852
 20
-269.0377872549479
 30
0.0
 10
378.5542752850852
 20
-269.0377872549479
 30
0.0
 10
379.1406105643889
 20
-267.7881021498238
 30
0.0
 10
379.9908127307185
 20
-267.1263534580268
 30
0.0
 10
381.1042413304654
 20
-267.0527012929587
 30
0.0
 10
381.1042413304654
 20
-267.0527012929587
 30
0.0
 10
381.1042413304654
 20
-271.7227288984867
 30
0.0
 10
381.1042413304654
 20
-271.7227288984867
 30
0.0
 10
380.3641971849341
 20
-271.7227288984867
 30
0.0
 10
379.8207722974534
 20
-271.8226396615354
 30
0.0
 10
379.4742868948272
 20
-272.0226213010359
 30
0.0
 10
379.1274812653976
 20
-272.2227630539387
 30
0.0
 10
378.9142102135048
 20
-272.5012002605764
 30
0.0
 10
378.8341535123441
 20
-272.8576126941456
 30
0.0
 10
378.7540968111826
 20
-273.2143453545189
 30
0.0
 10
378.714068460602
 20
-274.0360473352357
 30
0.0
 10
378.714068460602
 20
-275.3227186362959
 30
0.0
 10
378.714068460602
 20
-275.3227186362959
 30
0.0
 10
378.714068460602
 20
-280.5625898406876
 30
0.0
 10
378.714068460602
 20
-280.5625898406876
 30
0.0
 10
378.714068460602
 20
-280.5625898406876
 30
0.0
 10
374.6740870932124
 20
-280.5625898406876
 30
0.0
 10
374.6740870932124
 20
-280.5625898406876
 30
0.0
 10
374.6740870932124
 20
-280.5625898406876
 30
0.0
 10
374.6740870932124
 20
-267.2927112830399
 30
0.0
 10
374.6740870932124
 20
-267.2927112830399
 30
0.0
 10
374.6740870932124
 20
-267.2927112830399
 30
0.0
 10
378.714068460602
 20
-267.2927112830399
 30
0.0
 10
378.714068460602
 20
-267.2927112830399
 30
0.0
  0
SPLINE
  5
D4
330
CD
100
AcDbEntity
  8
Calque 1
370
     0
100
AcDbSpline
210
0.0
220
0.0
230
1.0
 70
    11
 71
     3
 72
    80
 73
    76
 74
     0
 42
0.0000000001
 43
0.0000000001
 12
1.0
 22
0.0
 32
0.0
 13
1.0
 23
0.0
 33
0.0
 40
0.0
 40
0.0
 40
0.0
 40
0.0
 40
1.0
 40
1.0
 40
1.0
 40
2.0
 40
2.0
 40
2.0
 40
3.0
 40
3.0
 40
3.0
 40
4.0
 40
4.0
 40
4.0
 40
5.0
 40
5.0
 40
5.0
 40
6.0
 40
6.0
 40
6.0
 40
7.0
 40
7.0
 40
7.0
 40
8.0
 40
8.0
 40
8.0
 40
9.0
 40
9.0
 40
9.0
 40
10.0
 40
10.0
 40
10.0
 40
11.0
 40
11.0
 40
11.0
 40
12.0
 40
12.0
 40
12.0
 40
13.0
 40
13.0
 40
13.0
 40
14.0
 40
14.0
 40
14.0
 40
15.0
 40
15.0
 40
15.0
 40
16.0
 40
16.0
 40
16.0
 40
17.0
 40
17.0
 40
17.0
 40
18.0
 40
18.0
 40
18.0
 40
19.0
 40
19.0
 40
19.0
 40
20.0
 40
20.0
 40
20.0
 40
21.0
 40
21.0
 40
21.0
 40
22.0
 40
22.0
 40
22.0
 40
23.0
 40
23.0
 40
23.0
 40
24.0
 40
24.0
 40
24.0
 40
25.0
 40
25.0
 40
25.0
 40
25.0
 10
385.6143156470742
 20
-272.4326717243828
 30
0.0
 10
385.6143156470742
 20
-272.4326717243828
 30
0.0
 10
381.8241111873065
 20
-272.4326717243828
 30
0.0
 10
381.8241111873065
 20
-272.4326717243828
 30
0.0
 10
381.8241111873065
 20
-272.4326717243828
 30
0.0
 10
381.8241111873065
 20
-271.5427614342765
 30
0.0
 10
381.8241111873065
 20
-271.5427614342765
 30
0.0
 10
381.8241111873065
 20
-270.5161142985872
 30
0.0
 10
381.9425951050244
 20
-269.7245136375075
 30
0.0
 10
382.1792427136569
 20
-269.1677993376337
 30
0.0
 10
382.4158903222894
 20
-268.6112451511623
 30
0.0
 10
382.8907866735765
 20
-268.1195368926305
 30
0.0
 10
383.6042519943231
 20
-267.6926745620395
 30
0.0
 10
384.3173970882662
 20
-267.2661324582539
 30
0.0
 10
385.2441334609056
 20
-267.0527012929587
 30
0.0
 10
386.384140885439
 20
-267.0527012929587
 30
0.0
 10
387.7505486608553
 20
-267.0527012929587
 30
0.0
 10
388.7807182913957
 20
-267.2944725304651
 30
0.0
 10
389.4740093234502
 20
-267.7776947786731
 30
0.0
 10
390.1673003555047
 20
-268.2612372536857
 30
0.0
 10
390.5842356551513
 20
-268.8544574092898
 30
0.0
 10
390.7241747687801
 20
-269.5576754722873
 30
0.0
 10
390.8641138824108
 20
-270.2612137620908
 30
0.0
 10
390.9342435526279
 20
-271.7094394860943
 30
0.0
 10
390.9342435526279
 20
-273.9026728711012
 30
0.0
 10
390.9342435526279
 20
-273.9026728711012
 30
0.0
 10
390.9342435526279
 20
-280.5625898406876
 30
0.0
 10
390.9342435526279
 20
-280.5625898406876
 30
0.0
 10
390.9342435526279
 20
-280.5625898406876
 30
0.0
 10
387.0040999792295
 20
-280.5625898406876
 30
0.0
 10
387.0040999792295
 20
-280.5625898406876
 30
0.0
 10
387.0040999792295
 20
-280.5625898406876
 30
0.0
 10
387.0040999792295
 20
-279.3801523645395
 30
0.0
 10
387.0040999792295
 20
-279.3801523645395
 30
0.0
 10
386.7575253396533
 20
-279.8542481488155
 30
0.0
 10
386.4392198958379
 20
-280.209860015373
 30
0.0
 10
386.0491836477813
 20
-280.4469879642119
 30
0.0
 10
385.6591473997246
 20
-280.6839557996478
 30
0.0
 10
385.1941780793819
 20
-280.8025998307693
 30
0.0
 10
384.6542756867515
 20
-280.8025998307693
 30
0.0
 10
383.9475351289016
 20
-280.8025998307693
 30
0.0
 10
383.299075849497
 20
-280.6042193252924
 30
0.0
 10
382.709218075343
 20
-280.2076184277407
 30
0.0
 10
382.1190400743841
 20
-279.8110175301885
 30
0.0
 10
381.8241111873065
 20
-278.9425624359931
 30
0.0
 10
381.8241111873065
 20
-277.6025733719604
 30
0.0
 10
381.8241111873065
 20
-277.6025733719604
 30
0.0
 10
381.8241111873065
 20
-276.5126814423543
 30
0.0
 10
381.8241111873065
 20
-276.5126814423543
 30
0.0
 10
381.8241111873065
 20
-275.5193378943476
 30
0.0
 10
381.9807020947769
 20
-274.8426986561349
 30
0.0
 10
382.2942041365238
 20
-274.4826036143123
 30
0.0
 10
382.607385951466
 20
-274.1226686858927
 30
0.0
 10
383.3842561795323
 20
-273.7026912316014
 30
0.0
 10
384.6241743671151
 20
-273.2226712514404
 30
0.0
 10
385.9508740187547
 20
-272.7026229206987
 30
0.0
 10
386.6608168446502
 20
-272.3526150232221
 30
0.0
 10
386.7540028448023
 20
-272.172647559012
 30
0.0
 10
386.847509071759
 20
-271.9926800948012
 30
0.0
 10
386.894262185237
 20
-271.626180516886
 30
0.0
 10
386.894262185237
 20
-271.0726684850592
 30
0.0
 10
386.894262185237
 20
-270.3793774530041
 30
0.0
 10
386.8423854428839
 20
-269.9276975450542
 30
0.0
 10
386.7392724117894
 20
-269.7177888746101
 30
0.0
 10
386.635839153889
 20
-269.5077200907636
 30
0.0
 10
386.4641975865998
 20
-269.4026856988403
 30
0.0
 10
386.2240274831162
 20
-269.4026856988403
 30
0.0
 10
385.9508740187547
 20
-269.4026856988403
 30
0.0
 10
385.7808335854896
 20
-269.4912284103236
 30
0.0
 10
385.7142264101242
 20
-269.6676733796828
 30
0.0
 10
385.6472990079534
 20
-269.8444385758465
 30
0.0
 10
385.6143156470742
 20
-270.3026831332926
 30
0.0
 10
385.6143156470742
 20
-271.0427272788252
 30
0.0
 10
385.6143156470742
 20
-271.0427272788252
 30
0.0
 10
385.6143156470742
 20
-272.4326717243828
 30
0.0
 10
385.6143156470742
 20
-272.4326717243828
 30
0.0
  0
SPLINE
  5
D5
330
CD
100
AcDbEntity
  8
Calque 1
370
     0
100
AcDbSpline
210
0.0
220
0.0
230
1.0
 70
    11
 71
     3
 72
    26
 73
    22
 74
     0
 42
0.0000000001
 43
0.0000000001
 12
1.0
 22
0.0
 32
0.0
 13
1.0
 23
0.0
 33
0.0
 40
0.0
 40
0.0
 40
0.0
 40
0.0
 40
1.0
 40
1.0
 40
1.0
 40
2.0
 40
2.0
 40
2.0
 40
3.0
 40
3.0
 40
3.0
 40
4.0
 40
4.0
 40
4.0
 40
5.0
 40
5.0
 40
5.0
 40
6.0
 40
6.0
 40
6.0
 40
7.0
 40
7.0
 40
7.0
 40
7.0
 10
386.894262185237
 20
-274.2526807685778
 30
0.0
 10
386.2474040398559
 20
-274.7261360992438
 30
0.0
 10
385.8724184516175
 20
-275.1225768833937
 30
0.0
 10
385.7693054205218
 20
-275.4426435746349
 30
0.0
 10
385.6658721626208
 20
-275.7627102658769
 30
0.0
 10
385.6143156470742
 20
-276.2227160707482
 30
0.0
 10
385.6143156470742
 20
-276.8226609892489
 30
0.0
 10
385.6143156470742
 20
-277.5093873718091
 30
0.0
 10
385.6591473997246
 20
-277.9525812694357
 30
0.0
 10
385.7491311318298
 20
-278.1525629089361
 30
0.0
 10
385.8391148639354
 20
-278.3525445484366
 30
0.0
 10
386.0174811941208
 20
-278.4526154248877
 30
0.0
 10
386.2842301223903
 20
-278.4526154248877
 30
0.0
 10
386.5375295248638
 20
-278.4526154248877
 30
0.0
 10
386.7024463292551
 20
-278.3743199711521
 30
0.0
 10
386.7793007623702
 20
-278.2175689502794
 30
0.0
 10
386.8558349686792
 20
-278.0609780428082
 30
0.0
 10
386.894262185237
 20
-277.6493264854385
 30
0.0
 10
386.894262185237
 20
-276.9826142781694
 30
0.0
 10
386.894262185237
 20
-276.9826142781694
 30
0.0
 10
386.894262185237
 20
-274.2526807685778
 30
0.0
 10
386.894262185237
 20
-274.2526807685778
 30
0.0
  0
POLYLINE
  5
D6
330
CD
100
AcDbEntity
  8
Calque 1
370
     0
100
AcDb2dPolyline
 66
     1
 10
0.0
 20
0.0
 30
0.0
  0
VERTEX
  5
D7
330
D6
100
AcDbEntity
  8
Calque 1
370
     0
100
AcDbVertex
100
AcDb2dVertex
 10
396.4840943039154
 20
-264.3727231648922
 30
0.0
  0
VERTEX
  5
D8
330
D6
100
AcDbEntity
  8
Calque 1
370
     0
100
AcDbVertex
100
AcDb2dVertex
 10
396.4840943039154
 20
-266.4826975806927
 30
0.0
  0
VERTEX
  5
D9
330
D6
100
AcDbEntity
  8
Calque 1
370
     0
100
AcDbVertex
100
AcDb2dVertex
 10
392.3240278847832
 20
-266.4826975806927
 30
0.0
  0
VERTEX
  5
DA
330
D6
100
AcDbEntity
  8
Calque 1
370
     0
100
AcDbVertex
100
AcDb2dVertex
 10
392.3240278847832
 20
-264.3727231648922
 30
0.0
  0
VERTEX
  5
DB
330
D6
100
AcDbEntity
  8
Calque 1
370
     0
100
AcDbVertex
100
AcDb2dVertex
 10
396.4840943039154
 20
-264.3727231648922
 30
0.0
  0
SEQEND
  5
DC
330
D6
100
AcDbEntity
  8
Calque 1
370
     0
  0
POLYLINE
  5
DD
330
CD
100
AcDbEntity
  8
Calque 1
370
     0
100
AcDb2dPolyline
 66
     1
 10
0.0
 20
0.0
 30
0.0
  0
VERTEX
  5
DE
330
DD
100
AcDbEntity
  8
Calque 1
370
     0
100
AcDbVertex
100
AcDb2dVertex
 10
396.4840943039154
 20
-267.2927112830399
 30
0.0
  0
VERTEX
  5
DF
330
DD
100
AcDbEntity
  8
Calque 1
370
     0
100
AcDbVertex
100
AcDb2dVertex
 10
396.4840943039154
 20
-280.5625898406876
 30
0.0
  0
VERTEX
  5
E0
330
DD
100
AcDbEntity
  8
Calque 1
370
     0
100
AcDbVertex
100
AcDb2dVertex
 10
392.3240278847832
 20
-280.5625898406876
 30
0.0
  0
VERTEX
  5
E1
330
DD
100
AcDbEntity
  8
Calque 1
370
     0
100
AcDbVertex
100
AcDb2dVertex
 10
392.3240278847832
 20
-267.2927112830399
 30
0.0
  0
VERTEX
  5
E2
330
DD
100
AcDbEntity
  8
Calque 1
370
     0
100
AcDbVertex
100
AcDb2dVertex
 10
396.4840943039154
 20
-267.2927112830399
 30
0.0
  0
SEQEND
  5
E3
330
DD
100
AcDbEntity
  8
Calque 1
370
     0
  0
POLYLINE
  5
E4
330
CD
100
AcDbEntity
  8
Calque 1
370
     0
100
AcDb2dPolyline
 66
     1
 10
0.0
 20
0.0
 30
0.0
  0
VERTEX
  5
E5
330
E4
100
AcDbEntity
  8
Calque 1
370
     0
100
AcDbVertex
100
AcDb2dVertex
 10
402.093827467671
 20
-264.3727231648922
 30
0.0
  0
VERTEX
  5
E6
330
E4
100
AcDbEntity
  8
Calque 1
370
     0
100
AcDbVertex
100
AcDb2dVertex
 10
402.093827467671
 20
-280.5625898406876
 30
0.0
  0
VERTEX
  5
E7
330
E4
100
AcDbEntity
  8
Calque 1
370
     0
100
AcDbVertex
100
AcDb2dVertex
 10
397.9337610485394
 20
-280.5625898406876
 30
0.0
  0
VERTEX
  5
E8
330
E4
100
AcDbEntity
  8
Calque 1
370
     0
100
AcDbVertex
100
AcDb2dVertex
 10
397.9337610485394
 20
-264.3727231648922
 30
0.0
  0
VERTEX
  5
E9
330
E4
100
AcDbEntity
  8
Calque 1
370
     0
100
AcDbVertex
100
AcDb2dVertex
 10
402.093827467671
 20
-264.3727231648922
 30
0.0
  0
SEQEND
  5
EA
330
E4
100
AcDbEntity
  8
Calque 1
370
     0
  0
POLYLINE
  5
EB
330
CD
100
AcDbEntity
  8
Calque 1
370
     0
100
AcDb2dPolyline
 66
     1
 10
0.0
 20
0.0
 30
0.0
  0
VERTEX
  5
EC
330
EB
100
AcDbEntity
  8
Calque 1
370
     0
100
AcDbVertex
100
AcDb2dVertex
 10
407.7038808582313
 20
-264.3727231648922
 30
0.0
  0
VERTEX
  5
ED
330
EB
100
AcDbEntity
  8
Calque 1
370
     0
100
AcDbVertex
100
AcDb2dVertex
 10
407.7038808582313
 20
-280.5625898406876
 30
0.0
  0
VERTEX
  5
EE
330
EB
100
AcDbEntity
  8
Calque 1
370
     0
100
AcDbVertex
100
AcDb2dVertex
 10
403.5438144390997
 20
-280.5625898406876
 30
0.0
  0
VERTEX
  5
EF
330
EB
100
AcDbEntity
  8
Calque 1
370
     0
100
AcDbVertex
100
AcDb2dVertex
 10
403.5438144390997
 20
-264.3727231648922
 30
0.0
  0
VERTEX
  5
F0
330
EB
100
AcDbEntity
  8
Calque 1
370
     0
100
AcDbVertex
100
AcDb2dVertex
 10
407.7038808582313
 20
-264.3727231648922
 30
0.0
  0
SEQEND
  5
F1
330
EB
100
AcDbEntity
  8
Calque 1
370
     0
  0
SPLINE
  5
F2
330
CD
100
AcDbEntity
  8
Calque 1
370
     0
100
AcDbSpline
210
0.0
220
0.0
230
1.0
 70
    11
 71
     3
 72
    80
 73
    76
 74
     0
 42
0.0000000001
 43
0.0000000001
 12
1.0
 22
0.0
 32
0.0
 13
1.0
 23
0.0
 33
0.0
 40
0.0
 40
0.0
 40
0.0
 40
0.0
 40
1.0
 40
1.0
 40
1.0
 40
2.0
 40
2.0
 40
2.0
 40
3.0
 40
3.0
 40
3.0
 40
4.0
 40
4.0
 40
4.0
 40
5.0
 40
5.0
 40
5.0
 40
6.0
 40
6.0
 40
6.0
 40
7.0
 40
7.0
 40
7.0
 40
8.0
 40
8.0
 40
8.0
 40
9.0
 40
9.0
 40
9.0
 40
10.0
 40
10.0
 40
10.0
 40
11.0
 40
11.0
 40
11.0
 40
12.0
 40
12.0
 40
12.0
 40
13.0
 40
13.0
 40
13.0
 40
14.0
 40
14.0
 40
14.0
 40
15.0
 40
15.0
 40
15.0
 40
16.0
 40
16.0
 40
16.0
 40
17.0
 40
17.0
 40
17.0
 40
18.0
 40
18.0
 40
18.0
 40
19.0
 40
19.0
 40
19.0
 40
20.0
 40
20.0
 40
20.0
 40
21.0
 40
21.0
 40
21.0
 40
22.0
 40
22.0
 40
22.0
 40
23.0
 40
23.0
 40
23.0
 40
24.0
 40
24.0
 40
24.0
 40
25.0
 40
25.0
 40
25.0
 40
25.0
 10
418.303708318758
 20
-274.1626970364733
 30
0.0
 10
418.303708318758
 20
-274.1626970364733
 30
0.0
 10
413.0737641453094
 20
-274.1626970364733
 30
0.0
 10
413.0737641453094
 20
-274.1626970364733
 30
0.0
 10
413.0737641453094
 20
-274.1626970364733
 30
0.0
 10
413.0737641453094
 20
-277.0325696596937
 30
0.0
 10
413.0737641453094
 20
-277.0325696596937
 30
0.0
 10
413.0737641453094
 20
-277.6326746915975
 30
0.0
 10
413.1169947639364
 20
-278.0193485582034
 30
0.0
 10
413.2037762279951
 20
-278.1925912595175
 30
0.0
 10
413.2902374652492
 20
-278.365994074232
 30
0.0
 10
413.4567554036645
 20
-278.4526154248877
 30
0.0
 10
413.7036502700448
 20
-278.4526154248877
 30
0.0
 10
414.0101073220896
 20
-278.4526154248877
 30
0.0
 10
414.2150524770616
 20
-278.3376540020208
 30
0.0
 10
414.3184857349614
 20
-278.1075710428833
 30
0.0
 10
414.4219189928618
 20
-277.8776481971495
 30
0.0
 10
414.473475508409
 20
-277.4326930520963
 30
0.0
 10
414.473475508409
 20
-276.7727056077239
 30
0.0
 10
414.473475508409
 20
-276.7727056077239
 30
0.0
 10
414.473475508409
 20
-275.0226661203443
 30
0.0
 10
414.473475508409
 20
-275.0226661203443
 30
0.0
 10
414.473475508409
 20
-275.0226661203443
 30
0.0
 10
418.303708318758
 20
-275.0226661203443
 30
0.0
 10
418.303708318758
 20
-275.0226661203443
 30
0.0
 10
418.303708318758
 20
-275.0226661203443
 30
0.0
 10
418.303708318758
 20
-276.0027202559573
 30
0.0
 10
418.303708318758
 20
-276.0027202559573
 30
0.0
 10
418.303708318758
 20
-276.8226609892489
 30
0.0
 10
418.2518315764054
 20
-277.452547113983
 30
0.0
 10
418.1487185453104
 20
-277.892698856967
 30
0.0
 10
418.0449650606053
 20
-278.3326904865486
 30
0.0
 10
417.8035140499036
 20
-278.8026233223636
 30
0.0
 10
417.4237250595961
 20
-279.3026574778157
 30
0.0
 10
417.0436158424831
 20
-279.802531519866
 30
0.0
 10
416.561994728298
 20
-280.1775171081038
 30
0.0
 10
415.9785414902365
 20
-280.4276142425309
 30
0.0
 10
415.3950882521751
 20
-280.6775512635564
 30
0.0
 10
414.6636902303681
 20
-280.8025998307693
 30
0.0
 10
413.7837069712055
 20
-280.8025998307693
 30
0.0
 10
412.9303025368289
 20
-280.8025998307693
 30
0.0
 10
412.176808865501
 20
-280.6791523975786
 30
0.0
 10
411.5235461840272
 20
-280.4325777580024
 30
0.0
 10
410.8702835025528
 20
-280.1860031184263
 30
0.0
 10
410.3620835635817
 20
-279.8475233859182
 30
0.0
 10
409.9986261403124
 20
-279.4176189006832
 30
0.0
 10
409.635168717041
 20
-278.9875543020465
 30
0.0
 10
409.3837906753944
 20
-278.514259084781
 30
0.0
 10
409.2435313349609
 20
-277.9975731354886
 30
0.0
 10
409.1035922213322
 20
-277.4810472995979
 30
0.0
 10
409.0337827779192
 20
-276.7293148756958
 30
0.0
 10
409.0337827779192
 20
-275.7426960905872
 30
0.0
 10
409.0337827779192
 20
-275.7426960905872
 30
0.0
 10
409.0337827779192
 20
-271.8727551564615
 30
0.0
 10
409.0337827779192
 20
-271.8727551564615
 30
0.0
 10
409.0337827779192
 20
-270.712733556639
 30
0.0
 10
409.1903736853897
 20
-269.7976854623685
 30
0.0
 10
409.5035555003325
 20
-269.127770987053
 30
0.0
 10
409.8170575420787
 20
-268.4576963983346
 30
0.0
 10
410.3300608831178
 20
-267.9445329438932
 30
0.0
 10
411.0435262038649
 20
-267.5878002835186
 30
0.0
 10
411.7569915246115
 20
-267.2312277365477
 30
0.0
 10
412.5767721445026
 20
-267.0527012929587
 30
0.0
 10
413.5035085171419
 20
-267.0527012929587
 30
0.0
 10
414.6367911787787
 20
-267.0527012929587
 30
0.0
 10
415.5718534483376
 20
-267.267733592278
 30
0.0
 10
416.3086953258244
 20
-267.6977981909147
 30
0.0
 10
417.045216976506
 20
-268.1277026761496
 30
0.0
 10
417.5617428123966
 20
-268.6977063884163
 30
0.0
 10
417.8585930603025
 20
-269.4076492143125
 30
0.0
 10
418.1551230814024
 20
-270.117752153611
 30
0.0
 10
418.303708318758
 20
-271.1162193304909
 30
0.0
 10
418.303708318758
 20
-272.4027305181482
 30
0.0
 10
418.303708318758
 20
-272.4027305181482
 30
0.0
 10
418.303708318758
 20
-274.1626970364733
 30
0.0
 10
418.303708318758
 20
-274.1626970364733
 30
0.0
  0
SPLINE
  5
F3
330
CD
100
AcDbEntity
  8
Calque 1
370
     0
100
AcDbSpline
210
0.0
220
0.0
230
1.0
 70
    11
 71
     3
 72
    26
 73
    22
 74
     0
 42
0.0000000001
 43
0.0000000001
 12
1.0
 22
0.0
 32
0.0
 13
1.0
 23
0.0
 33
0.0
 40
0.0
 40
0.0
 40
0.0
 40
0.0
 40
1.0
 40
1.0
 40
1.0
 40
2.0
 40
2.0
 40
2.0
 40
3.0
 40
3.0
 40
3.0
 40
4.0
 40
4.0
 40
4.0
 40
5.0
 40
5.0
 40
5.0
 40
6.0
 40
6.0
 40
6.0
 40
7.0
 40
7.0
 40
7.0
 40
7.0
 10
414.2534796936188
 20
-272.0027672391479
 30
0.0
 10
414.2534796936188
 20
-272.0027672391479
 30
0.0
 10
414.2534796936188
 20
-271.0326401344779
 30
0.0
 10
414.2534796936188
 20
-271.0326401344779
 30
0.0
 10
414.2534796936188
 20
-270.346073865322
 30
0.0
 10
414.2169738378885
 20
-269.9027198542917
 30
0.0
 10
414.1436418996264
 20
-269.7027382147906
 30
0.0
 10
414.0703099613623
 20
-269.5027565752915
 30
0.0
 10
413.9201235899833
 20
-269.4026856988403
 30
0.0
 10
413.6937232391004
 20
-269.4026856988403
 30
0.0
 10
413.4135247850369
 20
-269.4026856988403
 30
0.0
 10
413.2402820837241
 20
-269.4877059154726
 30
0.0
 10
413.1736749083581
 20
-269.6577463487391
 30
0.0
 10
413.1067475061886
 20
-269.8277867820049
 30
0.0
 10
413.0737641453094
 20
-270.286191452854
 30
0.0
 10
413.0737641453094
 20
-271.0326401344779
 30
0.0
 10
413.0737641453094
 20
-271.0326401344779
 30
0.0
 10
413.0737641453094
 20
-272.0027672391479
 30
0.0
 10
413.0737641453094
 20
-272.0027672391479
 30
0.0
 10
413.0737641453094
 20
-272.0027672391479
 30
0.0
 10
414.2534796936188
 20
-272.0027672391479
 30
0.0
 10
414.2534796936188
 20
-272.0027672391479
 30
0.0
  0
SPLINE
  5
F4
330
CD
100
AcDbEntity
  8
Calque 1
370
     0
100
AcDbSpline
210
0.0
220
0.0
230
1.0
 70
    11
 71
     3
 72
    56
 73
    52
 74
     0
 42
0.0000000001
 43
0.0000000001
 12
1.0
 22
0.0
 32
0.0
 13
1.0
 23
0.0
 33
0.0
 40
0.0
 40
0.0
 40
0.0
 40
0.0
 40
1.0
 40
1.0
 40
1.0
 40
2.0
 40
2.0
 40
2.0
 40
3.0
 40
3.0
 40
3.0
 40
4.0
 40
4.0
 40
4.0
 40
5.0
 40
5.0
 40
5.0
 40
6.0
 40
6.0
 40
6.0
 40
7.0
 40
7.0
 40
7.0
 40
8.0
 40
8.0
 40
8.0
 40
9.0
 40
9.0
 40
9.0
 40
10.0
 40
10.0
 40
10.0
 40
11.0
 40
11.0
 40
11.0
 40
12.0
 40
12.0
 40
12.0
 40
13.0
 40
13.0
 40
13.0
 40
14.0
 40
14.0
 40
14.0
 40
15.0
 40
15.0
 40
15.0
 40
16.0
 40
16.0
 40
16.0
 40
17.0
 40
17.0
 40
17.0
 40
17.0
 10
419.7437682592417
 20
-264.3727231648922
 30
0.0
 10
419.7437682592417
 20
-264.3727231648922
 30
0.0
 10
422.7237989032611
 20
-264.3727231648922
 30
0.0
 10
422.7237989032611
 20
-264.3727231648922
 30
0.0
 10
424.7101657724679
 20
-264.3727231648922
 30
0.0
 10
426.0554385787786
 20
-264.4495775980066
 30
0.0
 10
426.7586566417768
 20
-264.602806124029
 30
0.0
 10
427.4618747047749
 20
-264.7561947634532
 30
0.0
 10
428.0354009118927
 20
-265.1478321455332
 30
0.0
 10
428.47859480952
 20
-265.7777182702687
 30
0.0
 10
428.922108933952
 20
-266.4077645084045
 30
0.0
 10
429.1437058827663
 20
-267.4127963347813
 30
0.0
 10
429.1437058827663
 20
-268.792653635993
 30
0.0
 10
429.1437058827663
 20
-270.0527461122672
 30
0.0
 10
428.9871149752952
 20
-270.8994257837471
 30
0.0
 10
428.6736129335483
 20
-271.3326926504301
 30
0.0
 10
428.360110891802
 20
-271.766119630516
 30
0.0
 10
427.743674292862
 20
-272.0261437958869
 30
0.0
 10
426.8236626831193
 20
-272.1127651465433
 30
0.0
 10
427.6568928288039
 20
-272.3194715489411
 30
0.0
 10
428.2169695101263
 20
-272.5961475081536
 30
0.0
 10
428.5035725002832
 20
-272.9426329107785
 30
0.0
 10
428.7901754904394
 20
-273.2894385402081
 30
0.0
 10
428.968541820626
 20
-273.6077439840242
 30
0.0
 10
429.0386714908424
 20
-273.8977093556304
 30
0.0
 10
429.1088011610601
 20
-274.1876747272352
 30
0.0
 10
429.1437058827663
 20
-274.9861602646153
 30
0.0
 10
429.1437058827663
 20
-276.2926856275629
 30
0.0
 10
429.1437058827663
 20
-276.2926856275629
 30
0.0
 10
429.1437058827663
 20
-280.5625898406876
 30
0.0
 10
429.1437058827663
 20
-280.5625898406876
 30
0.0
 10
429.1437058827663
 20
-280.5625898406876
 30
0.0
 10
425.2337365980612
 20
-280.5625898406876
 30
0.0
 10
425.2337365980612
 20
-280.5625898406876
 30
0.0
 10
425.2337365980612
 20
-280.5625898406876
 30
0.0
 10
425.2337365980612
 20
-275.1826194092641
 30
0.0
 10
425.2337365980612
 20
-275.1826194092641
 30
0.0
 10
425.2337365980612
 20
-274.3160856758975
 30
0.0
 10
425.165208061867
 20
-273.7793855513141
 30
0.0
 10
425.0287914430892
 20
-273.5726791489163
 30
0.0
 10
424.8920545975055
 20
-273.3661328599202
 30
0.0
 10
424.53372080311
 20
-273.2626996020204
 30
0.0
 10
423.9537900598996
 20
-273.2626996020204
 30
0.0
 10
423.9537900598996
 20
-273.2626996020204
 30
0.0
 10
423.9537900598996
 20
-280.5625898406876
 30
0.0
 10
423.9537900598996
 20
-280.5625898406876
 30
0.0
 10
423.9537900598996
 20
-280.5625898406876
 30
0.0
 10
419.7437682592417
 20
-280.5625898406876
 30
0.0
 10
419.7437682592417
 20
-280.5625898406876
 30
0.0
 10
419.7437682592417
 20
-280.5625898406876
 30
0.0
 10
419.7437682592417
 20
-264.3727231648922
 30
0.0
 10
419.7437682592417
 20
-264.3727231648922
 30
0.0
  0
SPLINE
  5
F5
330
CD
100
AcDbEntity
  8
Calque 1
370
     0
100
AcDbSpline
210
0.0
220
0.0
230
1.0
 70
    11
 71
     3
 72
    23
 73
    19
 74
     0
 42
0.0000000001
 43
0.0000000001
 12
1.0
 22
0.0
 32
0.0
 13
1.0
 23
0.0
 33
0.0
 40
0.0
 40
0.0
 40
0.0
 40
0.0
 40
1.0
 40
1.0
 40
1.0
 40
2.0
 40
2.0
 40
2.0
 40
3.0
 40
3.0
 40
3.0
 40
4.0
 40
4.0
 40
4.0
 40
5.0
 40
5.0
 40
5.0
 40
6.0
 40
6.0
 40
6.0
 40
6.0
 10
423.9537900598996
 20
-267.1426850250638
 30
0.0
 10
423.9537900598996
 20
-267.1426850250638
 30
0.0
 10
423.9537900598996
 20
-270.7426747628737
 30
0.0
 10
423.9537900598996
 20
-270.7426747628737
 30
0.0
 10
424.4270852771626
 20
-270.7426747628737
 30
0.0
 10
424.7588402467734
 20
-270.6776687215311
 30
0.0
 10
424.9487347419279
 20
-270.5476566388447
 30
0.0
 10
425.1386292370817
 20
-270.4176445561596
 30
0.0
 10
425.2337365980612
 20
-269.9962260812478
 30
0.0
 10
425.2337365980612
 20
-269.2827607605013
 30
0.0
 10
425.2337365980612
 20
-269.2827607605013
 30
0.0
 10
425.2337365980612
 20
-268.392690356992
 30
0.0
 10
425.2337365980612
 20
-268.392690356992
 30
0.0
 10
425.2337365980612
 20
-267.8795269025493
 30
0.0
 10
425.1421517319333
 20
-267.5428084174664
 30
0.0
 10
424.9586617728722
 20
-267.382695015145
 30
0.0
 10
424.775171813811
 20
-267.2227417262245
 30
0.0
 10
424.4402145761526
 20
-267.1426850250638
 30
0.0
 10
423.9537900598996
 20
-267.1426850250638
 30
0.0
  0
POLYLINE
  5
F6
330
CD
100
AcDbEntity
  8
Calque 1
370
     0
100
AcDb2dPolyline
 66
     1
 10
0.0
 20
0.0
 30
0.0
  0
VERTEX
  5
F7
330
F6
100
AcDbEntity
  8
Calque 1
370
     0
100
AcDbVertex
100
AcDb2dVertex
 10
438.0508144539432
 20
-264.3727231648922
 30
0.0
  0
VERTEX
  5
F8
330
F6
100
AcDbEntity
  8
Calque 1
370
     0
100
AcDbVertex
100
AcDb2dVertex
 10
440.4582795712577
 20
-280.5625898406876
 30
0.0
  0
VERTEX
  5
F9
330
F6
100
AcDbEntity
  8
Calque 1
370
     0
100
AcDbVertex
100
AcDb2dVertex
 10
436.1557122240603
 20
-280.5625898406876
 30
0.0
  0
VERTEX
  5
FA
330
F6
100
AcDbEntity
  8
Calque 1
370
     0
100
AcDbVertex
100
AcDb2dVertex
 10
435.929952326785
 20
-277.6526888668865
 30
0.0
  0
VERTEX
  5
FB
330
F6
100
AcDbEntity
  8
Calque 1
370
     0
100
AcDbVertex
100
AcDb2dVertex
 10
434.4239256645427
 20
-277.6526888668865
 30
0.0
  0
VERTEX
  5
FC
330
F6
100
AcDbEntity
  8
Calque 1
370
     0
100
AcDbVertex
100
AcDb2dVertex
 10
434.1709464888746
 20
-280.5625898406876
 30
0.0
  0
VERTEX
  5
FD
330
F6
100
AcDbEntity
  8
Calque 1
370
     0
100
AcDbVertex
100
AcDb2dVertex
 10
429.8184237601516
 20
-280.5625898406876
 30
0.0
  0
VERTEX
  5
FE
330
F6
100
AcDbEntity
  8
Calque 1
370
     0
100
AcDbVertex
100
AcDb2dVertex
 10
431.9658647120945
 20
-264.3727231648922
 30
0.0
  0
VERTEX
  5
FF
330
F6
100
AcDbEntity
  8
Calque 1
370
     0
100
AcDbVertex
100
AcDb2dVertex
 10
438.0508144539432
 20
-264.3727231648922
 30
0.0
  0
SEQEND
  5
100
330
F6
100
AcDbEntity
  8
Calque 1
370
     0
  0
SPLINE
  5
101
330
CD
100
AcDbEntity
  8
Calque 1
370
     0
100
AcDbSpline
210
0.0
220
0.0
230
1.0
 70
    11
 71
     3
 72
    14
 73
    10
 74
     0
 42
0.0000000001
 43
0.0000000001
 12
1.0
 22
0.0
 32
0.0
 13
1.0
 23
0.0
 33
0.0
 40
0.0
 40
0.0
 40
0.0
 40
0.0
 40
1.0
 40
1.0
 40
1.0
 40
2.0
 40
2.0
 40
2.0
 40
3.0
 40
3.0
 40
3.0
 40
3.0
 10
435.8194740791826
 20
-274.7826561302645
 30
0.0
 10
435.6065232540944
 20
-272.9488773334688
 30
0.0
 10
435.3926117485915
 20
-270.6824721236009
 30
0.0
 10
435.1783800162853
 20
-267.9828000470474
 30
0.0
 10
434.7492760980621
 20
-271.0829157428076
 30
0.0
 10
434.4799653553563
 20
-273.3494810660791
 30
0.0
 10
434.370447788168
 20
-274.7826561302645
 30
0.0
 10
434.370447788168
 20
-274.7826561302645
 30
0.0
 10
435.8194740791826
 20
-274.7826561302645
 30
0.0
 10
435.8194740791826
 20
-274.7826561302645
 30
0.0
  0
SPLINE
  5
102
330
CD
100
AcDbEntity
  8
Calque 1
370
     0
100
AcDbSpline
210
0.0
220
0.0
230
1.0
 70
    11
 71
     3
 72
    44
 73
    40
 74
     0
 42
0.0000000001
 43
0.0000000001
 12
1.0
 22
0.0
 32
0.0
 13
1.0
 23
0.0
 33
0.0
 40
0.0
 40
0.0
 40
0.0
 40
0.0
 40
1.0
 40
1.0
 40
1.0
 40
2.0
 40
2.0
 40
2.0
 40
3.0
 40
3.0
 40
3.0
 40
4.0
 40
4.0
 40
4.0
 40
5.0
 40
5.0
 40
5.0
 40
6.0
 40
6.0
 40
6.0
 40
7.0
 40
7.0
 40
7.0
 40
8.0
 40
8.0
 40
8.0
 40
9.0
 40
9.0
 40
9.0
 40
10.0
 40
10.0
 40
10.0
 40
11.0
 40
11.0
 40
11.0
 40
12.0
 40
12.0
 40
12.0
 40
13.0
 40
13.0
 40
13.0
 40
13.0
 10
441.1733460260277
 20
-264.3727231648922
 30
0.0
 10
441.1733460260277
 20
-264.3727231648922
 30
0.0
 10
445.4134691463207
 20
-264.3727231648922
 30
0.0
 10
445.4134691463207
 20
-264.3727231648922
 30
0.0
 10
446.5598811069474
 20
-264.3727231648922
 30
0.0
 10
447.4414655001329
 20
-264.4627068969972
 30
0.0
 10
448.0582223258783
 20
-264.6428344746084
 30
0.0
 10
448.6749791516218
 20
-264.8228019388199
 30
0.0
 10
449.1383473379418
 20
-265.08282610419
 30
0.0
 10
449.4483268848376
 20
-265.4227468573199
 30
0.0
 10
449.7583064317335
 20
-265.7628277238522
 30
0.0
 10
449.9683752155793
 20
-266.174479281222
 30
0.0
 10
450.0782130095718
 20
-266.65770152943
 30
0.0
 10
450.1883710303701
 20
-267.1412440044427
 30
0.0
 10
450.2431298139637
 20
-267.8894539334943
 30
0.0
 10
450.2431298139637
 20
-268.9026515433877
 30
0.0
 10
450.2431298139637
 20
-268.9026515433877
 30
0.0
 10
450.2431298139637
 20
-270.3127702776387
 30
0.0
 10
450.2431298139637
 20
-270.3127702776387
 30
0.0
 10
450.2431298139637
 20
-271.3461421762248
 30
0.0
 10
450.1364942880182
 20
-272.0994757341509
 30
0.0
 10
449.9232232361242
 20
-272.5726108380123
 30
0.0
 10
449.7099521842313
 20
-273.0460661686789
 30
0.0
 10
449.3183148021519
 20
-273.4093634785478
 30
0.0
 10
448.7483110898851
 20
-273.6626628810213
 30
0.0
 10
448.1783073776191
 20
-273.9161223968978
 30
0.0
 10
447.4334598300167
 20
-274.0426119847313
 30
0.0
 10
446.5134482202735
 20
-274.0426119847313
 30
0.0
 10
446.5134482202735
 20
-274.0426119847313
 30
0.0
 10
445.3833678266849
 20
-274.0426119847313
 30
0.0
 10
445.3833678266849
 20
-274.0426119847313
 30
0.0
 10
445.3833678266849
 20
-274.0426119847313
 30
0.0
 10
445.3833678266849
 20
-280.5625898406876
 30
0.0
 10
445.3833678266849
 20
-280.5625898406876
 30
0.0
 10
445.3833678266849
 20
-280.5625898406876
 30
0.0
 10
441.1733460260277
 20
-280.5625898406876
 30
0.0
 10
441.1733460260277
 20
-280.5625898406876
 30
0.0
 10
441.1733460260277
 20
-280.5625898406876
 30
0.0
 10
441.1733460260277
 20
-264.3727231648922
 30
0.0
 10
441.1733460260277
 20
-264.3727231648922
 30
0.0
  0
SPLINE
  5
103
330
CD
100
AcDbEntity
  8
Calque 1
370
     0
100
AcDbSpline
210
0.0
220
0.0
230
1.0
 70
    11
 71
     3
 72
    26
 73
    22
 74
     0
 42
0.0000000001
 43
0.0000000001
 12
1.0
 22
0.0
 32
0.0
 13
1.0
 23
0.0
 33
0.0
 40
0.0
 40
0.0
 40
0.0
 40
0.0
 40
1.0
 40
1.0
 40
1.0
 40
2.0
 40
2.0
 40
2.0
 40
3.0
 40
3.0
 40
3.0
 40
4.0
 40
4.0
 40
4.0
 40
5.0
 40
5.0
 40
5.0
 40
6.0
 40
6.0
 40
6.0
 40
7.0
 40
7.0
 40
7.0
 40
7.0
 10
445.3833678266849
 20
-267.1426850250638
 30
0.0
 10
445.3833678266849
 20
-267.1426850250638
 30
0.0
 10
445.3833678266849
 20
-271.2627230936154
 30
0.0
 10
445.3833678266849
 20
-271.2627230936154
 30
0.0
 10
445.5034528784264
 20
-271.2694478565134
 30
0.0
 10
445.6065659095227
 20
-271.2726501245597
 30
0.0
 10
445.6933473735802
 20
-271.2726501245597
 30
0.0
 10
446.0798611267858
 20
-271.2726501245597
 30
0.0
 10
446.3482111890768
 20
-271.1777028769824
 30
0.0
 10
446.4983975604559
 20
-270.9876482684257
 30
0.0
 10
446.648263705029
 20
-270.7977537732719
 30
0.0
 10
446.7231967773159
 20
-270.4027540097437
 30
0.0
 10
446.7231967773159
 20
-269.8026489778406
 30
0.0
 10
446.7231967773159
 20
-269.8026489778406
 30
0.0
 10
446.7231967773159
 20
-268.4727470581528
 30
0.0
 10
446.7231967773159
 20
-268.4727470581528
 30
0.0
 10
446.7231967773159
 20
-267.919395139729
 30
0.0
 10
446.6367355400619
 20
-267.5594602113081
 30
0.0
 10
446.4631726119444
 20
-267.392782159491
 30
0.0
 10
446.2899299106329
 20
-267.2262642210756
 30
0.0
 10
445.9299949822126
 20
-267.1426850250638
 30
0.0
 10
445.3833678266849
 20
-267.1426850250638
 30
0.0
  0
POLYLINE
  5
104
330
CD
100
AcDbEntity
  8
Calque 1
370
     0
100
AcDb2dPolyline
 66
     1
 10
0.0
 20
0.0
 30
0.0
  0
VERTEX
  5
105
330
104
100
AcDbEntity
  8
Calque 1
370
     0
100
AcDbVertex
100
AcDb2dVertex
 10
456.2832478031619
 20
-272.5327426008339
 30
0.0
  0
VERTEX
  5
106
330
104
100
AcDbEntity
  8
Calque 1
370
     0
100
AcDbVertex
100
AcDb2dVertex
 10
456.2832478031619
 20
-275.3227186362959
 30
0.0
  0
VERTEX
  5
107
330
104
100
AcDbEntity
  8
Calque 1
370
     0
100
AcDbVertex
100
AcDb2dVertex
 10
450.9732469285519
 20
-275.3227186362959
 30
0.0
  0
VERTEX
  5
108
330
104
100
AcDbEntity
  8
Calque 1
370
     0
100
AcDbVertex
100
AcDb2dVertex
 10
450.9732469285519
 20
-272.5327426008339
 30
0.0
  0
VERTEX
  5
109
330
104
100
AcDbEntity
  8
Calque 1
370
     0
100
AcDbVertex
100
AcDb2dVertex
 10
456.2832478031619
 20
-272.5327426008339
 30
0.0
  0
SEQEND
  5
10A
330
104
100
AcDbEntity
  8
Calque 1
370
     0
  0
SPLINE
  5
10B
330
CD
100
AcDbEntity
  8
Calque 1
370
     0
100
AcDbSpline
210
0.0
220
0.0
230
1.0
 70
    11
 71
     3
 72
   110
 73
   106
 74
     0
 42
0.0000000001
 43
0.0000000001
 12
1.0
 22
0.0
 32
0.0
 13
1.0
 23
0.0
 33
0.0
 40
0.0
 40
0.0
 40
0.0
 40
0.0
 40
1.0
 40
1.0
 40
1.0
 40
2.0
 40
2.0
 40
2.0
 40
3.0
 40
3.0
 40
3.0
 40
4.0
 40
4.0
 40
4.0
 40
5.0
 40
5.0
 40
5.0
 40
6.0
 40
6.0
 40
6.0
 40
7.0
 40
7.0
 40
7.0
 40
8.0
 40
8.0
 40
8.0
 40
9.0
 40
9.0
 40
9.0
 40
10.0
 40
10.0
 40
10.0
 40
11.0
 40
11.0
 40
11.0
 40
12.0
 40
12.0
 40
12.0
 40
13.0
 40
13.0
 40
13.0
 40
14.0
 40
14.0
 40
14.0
 40
15.0
 40
15.0
 40
15.0
 40
16.0
 40
16.0
 40
16.0
 40
17.0
 40
17.0
 40
17.0
 40
18.0
 40
18.0
 40
18.0
 40
19.0
 40
19.0
 40
19.0
 40
20.0
 40
20.0
 40
20.0
 40
21.0
 40
21.0
 40
21.0
 40
22.0
 40
22.0
 40
22.0
 40
23.0
 40
23.0
 40
23.0
 40
24.0
 40
24.0
 40
24.0
 40
25.0
 40
25.0
 40
25.0
 40
26.0
 40
26.0
 40
26.0
 40
27.0
 40
27.0
 40
27.0
 40
28.0
 40
28.0
 40
28.0
 40
29.0
 40
29.0
 40
29.0
 40
30.0
 40
30.0
 40
30.0
 40
31.0
 40
31.0
 40
31.0
 40
32.0
 40
32.0
 40
32.0
 40
33.0
 40
33.0
 40
33.0
 40
34.0
 40
34.0
 40
34.0
 40
35.0
 40
35.0
 40
35.0
 40
35.0
 10
466.4030552835257
 20
-269.272673616154
 30
0.0
 10
466.4030552835257
 20
-269.272673616154
 30
0.0
 10
462.4930859988206
 20
-269.272673616154
 30
0.0
 10
462.4930859988206
 20
-269.272673616154
 30
0.0
 10
462.4930859988206
 20
-269.272673616154
 30
0.0
 10
462.4930859988206
 20
-268.0727837791531
 30
0.0
 10
462.4930859988206
 20
-268.0727837791531
 30
0.0
 10
462.4930859988206
 20
-267.5127070978301
 30
0.0
 10
462.4431306172969
 20
-267.1561345508585
 30
0.0
 10
462.3432198542475
 20
-267.0027459114344
 30
0.0
 10
462.2429888643941
 20
-266.849517385412
 30
0.0
 10
462.0764709259799
 20
-266.7728230657005
 30
0.0
 10
461.8430255853931
 20
-266.7728230657005
 30
0.0
 10
461.5897261829197
 20
-266.7728230657005
 30
0.0
 10
461.3982305537436
 20
-266.876256323599
 30
0.0
 10
461.2682184710573
 20
-267.0831228394005
 30
0.0
 10
461.1382063883722
 20
-267.2899893552
 30
0.0
 10
461.0732003470296
 20
-267.6033312835439
 30
0.0
 10
461.0732003470296
 20
-268.0236289646398
 30
0.0
 10
461.0732003470296
 20
-268.5640116974766
 30
0.0
 10
461.1462120584877
 20
-268.9710199661796
 30
0.0
 10
461.2922354814063
 20
-269.2444936573458
 30
0.0
 10
461.431854368231
 20
-269.5179673485113
 30
0.0
 10
461.8282951523803
 20
-269.8479610706975
 30
0.0
 10
462.4818780606588
 20
-270.2343147105008
 30
0.0
 10
464.3561655482409
 20
-271.3466225164324
 30
0.0
 10
465.5362013233537
 20
-272.2594290230701
 30
0.0
 10
466.022946066414
 20
-272.9727342304149
 30
0.0
 10
466.5096908094731
 20
-273.6860394377604
 30
0.0
 10
466.7530631810016
 20
-274.8361340066398
 30
0.0
 10
466.7530631810016
 20
-276.4226977102493
 30
0.0
 10
466.7530631810016
 20
-277.5759945471751
 30
0.0
 10
466.6179274694413
 20
-278.4260366001023
 30
0.0
 10
466.3479762731275
 20
-278.9726637556307
 30
0.0
 10
466.0780250768123
 20
-279.5192909111578
 30
0.0
 10
465.5563756120471
 20
-279.9775354686033
 30
0.0
 10
464.7830278788325
 20
-280.3475575413696
 30
0.0
 10
464.009680145616
 20
-280.7175796141358
 30
0.0
 10
463.1095225977607
 20
-280.9025105938181
 30
0.0
 10
462.083195688876
 20
-280.9025105938181
 30
0.0
 10
460.9563175633345
 20
-280.9025105938181
 30
0.0
 10
459.9946764689877
 20
-280.6890794285229
 30
0.0
 10
459.1982724058368
 20
-280.2625373247373
 30
0.0
 10
458.4015481158826
 20
-279.8359952209503
 30
0.0
 10
457.8795784243133
 20
-279.292570333469
 30
0.0
 10
457.6333240115412
 20
-278.6325828890972
 30
0.0
 10
457.386429145161
 20
-277.9725954447267
 30
0.0
 10
457.2631418253726
 20
-277.0360921545447
 30
0.0
 10
457.2631418253726
 20
-275.8225926783455
 30
0.0
 10
457.2631418253726
 20
-275.8225926783455
 30
0.0
 10
457.2631418253726
 20
-274.7626419549728
 30
0.0
 10
457.2631418253726
 20
-274.7626419549728
 30
0.0
 10
457.2631418253726
 20
-274.7626419549728
 30
0.0
 10
461.1731111100783
 20
-274.7626419549728
 30
0.0
 10
461.1731111100783
 20
-274.7626419549728
 30
0.0
 10
461.1731111100783
 20
-274.7626419549728
 30
0.0
 10
461.1731111100783
 20
-276.7326772571445
 30
0.0
 10
461.1731111100783
 20
-276.7326772571445
 30
0.0
 10
461.1731111100783
 20
-277.3393469385426
 30
0.0
 10
461.2281901204765
 20
-277.7293831865992
 30
0.0
 10
461.3380279144703
 20
-277.9026258879113
 30
0.0
 10
461.448185935268
 20
-278.0760287026258
 30
0.0
 10
461.6432040592957
 20
-278.1626500532835
 30
0.0
 10
461.9230822865551
 20
-278.1626500532835
 30
0.0
 10
462.2029605138127
 20
-278.1626500532835
 30
0.0
 10
462.4114281636364
 20
-278.0526521458868
 30
0.0
 10
462.5481650092195
 20
-277.8326563310966
 30
0.0
 10
462.6845816279979
 20
-277.6126605163058
 30
0.0
 10
462.7531101641928
 20
-277.2860291755696
 30
0.0
 10
462.7531101641928
 20
-276.8526021954842
 30
0.0
 10
462.7531101641928
 20
-275.8992869980576
 30
0.0
 10
462.6230980815064
 20
-275.2761256362208
 30
0.0
 10
462.3630739161362
 20
-274.9826377697643
 30
0.0
 10
462.0963249878666
 20
-274.6893100167107
 30
0.0
 10
461.4395398115412
 20
-274.1993630056041
 30
0.0
 10
460.3930386139651
 20
-273.5126366230446
 30
0.0
 10
459.3465374163877
 20
-272.8193455909907
 30
0.0
 10
458.6532463843333
 20
-272.3161091674918
 30
0.0
 10
458.313165517801
 20
-272.0027672391479
 30
0.0
 10
457.9730846512688
 20
-271.689425310804
 30
0.0
 10
457.6916052899865
 20
-271.2561584441197
 30
0.0
 10
457.4680869803452
 20
-270.7026464122929
 30
0.0
 10
457.2448888975088
 20
-270.1494546072702
 30
0.0
 10
457.1331297426875
 20
-269.4427140494211
 30
0.0
 10
457.1331297426875
 20
-268.5827449655482
 30
0.0
 10
457.1331297426875
 20
-267.3428267779666
 30
0.0
 10
457.2913217841821
 20
-266.4362646940193
 30
0.0
 10
457.6080260939753
 20
-265.8627384869009
 30
0.0
 10
457.9247304037679
 20
-265.2895325065891
 30
0.0
 10
458.4364528375894
 20
-264.8412149800867
 30
0.0
 10
459.1431933954386
 20
-264.5177859073955
 30
0.0
 10
459.8496137264837
 20
-264.1945169481079
 30
0.0
 10
460.7030181608609
 20
-264.0328024117623
 30
0.0
 10
461.7030864717644
 20
-264.0328024117623
 30
0.0
 10
462.7963407828198
 20
-264.0328024117623
 30
0.0
 10
463.728200784333
 20
-264.2095676079255
 30
0.0
 10
464.4980260226985
 20
-264.5627777734483
 30
0.0
 10
465.2681714878674
 20
-264.9161480523736
 30
0.0
 10
465.7779725608601
 20
-265.3612633108284
 30
0.0
 10
466.0280696952873
 20
-265.8978033220095
 30
0.0
 10
466.2781668297145
 20
-266.4345034465935
 30
0.0
 10
466.4030552835257
 20
-267.3461891594153
 30
0.0
 10
466.4030552835257
 20
-268.6327003470732
 30
0.0
 10
466.4030552835257
 20
-268.6327003470732
 30
0.0
 10
466.4030552835257
 20
-269.272673616154
 30
0.0
 10
466.4030552835257
 20
-269.272673616154
 30
0.0
  0
SPLINE
  5
10C
330
CD
100
AcDbEntity
  8
Calque 1
370
     0
100
AcDbSpline
210
0.0
220
0.0
230
1.0
 70
    11
 71
     3
 72
    44
 73
    40
 74
     0
 42
0.0000000001
 43
0.0000000001
 12
1.0
 22
0.0
 32
0.0
 13
1.0
 23
0.0
 33
0.0
 40
0.0
 40
0.0
 40
0.0
 40
0.0
 40
1.0
 40
1.0
 40
1.0
 40
2.0
 40
2.0
 40
2.0
 40
3.0
 40
3.0
 40
3.0
 40
4.0
 40
4.0
 40
4.0
 40
5.0
 40
5.0
 40
5.0
 40
6.0
 40
6.0
 40
6.0
 40
7.0
 40
7.0
 40
7.0
 40
8.0
 40
8.0
 40
8.0
 40
9.0
 40
9.0
 40
9.0
 40
10.0
 40
10.0
 40
10.0
 40
11.0
 40
11.0
 40
11.0
 40
12.0
 40
12.0
 40
12.0
 40
13.0
 40
13.0
 40
13.0
 40
13.0
 10
468.0730380697458
 20
-264.3727231648922
 30
0.0
 10
468.0730380697458
 20
-264.3727231648922
 30
0.0
 10
472.3131611900382
 20
-264.3727231648922
 30
0.0
 10
472.3131611900382
 20
-264.3727231648922
 30
0.0
 10
473.4595731506643
 20
-264.3727231648922
 30
0.0
 10
474.3411575438497
 20
-264.4627068969972
 30
0.0
 10
474.9579143695938
 20
-264.6428344746084
 30
0.0
 10
475.5746711953386
 20
-264.8228019388199
 30
0.0
 10
476.0380393816592
 20
-265.08282610419
 30
0.0
 10
476.3480189285545
 20
-265.4227468573199
 30
0.0
 10
476.6579984754503
 20
-265.7628277238522
 30
0.0
 10
476.8680672592962
 20
-266.174479281222
 30
0.0
 10
476.9779050532899
 20
-266.65770152943
 30
0.0
 10
477.0880630740876
 20
-267.1412440044427
 30
0.0
 10
477.1428218576805
 20
-267.8894539334943
 30
0.0
 10
477.1428218576805
 20
-268.9026515433877
 30
0.0
 10
477.1428218576805
 20
-268.9026515433877
 30
0.0
 10
477.1428218576805
 20
-270.3127702776387
 30
0.0
 10
477.1428218576805
 20
-270.3127702776387
 30
0.0
 10
477.1428218576805
 20
-271.3461421762248
 30
0.0
 10
477.0361863317338
 20
-272.0994757341509
 30
0.0
 10
476.8229152798423
 20
-272.5726108380123
 30
0.0
 10
476.6096442279488
 20
-273.0460661686789
 30
0.0
 10
476.2180068458694
 20
-273.4093634785478
 30
0.0
 10
475.648003133602
 20
-273.6626628810213
 30
0.0
 10
475.0779994213359
 20
-273.9161223968978
 30
0.0
 10
474.3331518737336
 20
-274.0426119847313
 30
0.0
 10
473.4131402639909
 20
-274.0426119847313
 30
0.0
 10
473.4131402639909
 20
-274.0426119847313
 30
0.0
 10
472.2830598704018
 20
-274.0426119847313
 30
0.0
 10
472.2830598704018
 20
-274.0426119847313
 30
0.0
 10
472.2830598704018
 20
-274.0426119847313
 30
0.0
 10
472.2830598704018
 20
-280.5625898406876
 30
0.0
 10
472.2830598704018
 20
-280.5625898406876
 30
0.0
 10
472.2830598704018
 20
-280.5625898406876
 30
0.0
 10
468.0730380697458
 20
-280.5625898406876
 30
0.0
 10
468.0730380697458
 20
-280.5625898406876
 30
0.0
 10
468.0730380697458
 20
-280.5625898406876
 30
0.0
 10
468.0730380697458
 20
-264.3727231648922
 30
0.0
 10
468.0730380697458
 20
-264.3727231648922
 30
0.0
  0
SPLINE
  5
10D
330
CD
100
AcDbEntity
  8
Calque 1
370
     0
100
AcDbSpline
210
0.0
220
0.0
230
1.0
 70
    11
 71
     3
 72
    26
 73
    22
 74
     0
 42
0.0000000001
 43
0.0000000001
 12
1.0
 22
0.0
 32
0.0
 13
1.0
 23
0.0
 33
0.0
 40
0.0
 40
0.0
 40
0.0
 40
0.0
 40
1.0
 40
1.0
 40
1.0
 40
2.0
 40
2.0
 40
2.0
 40
3.0
 40
3.0
 40
3.0
 40
4.0
 40
4.0
 40
4.0
 40
5.0
 40
5.0
 40
5.0
 40
6.0
 40
6.0
 40
6.0
 40
7.0
 40
7.0
 40
7.0
 40
7.0
 10
472.2830598704018
 20
-267.1426850250638
 30
0.0
 10
472.2830598704018
 20
-267.1426850250638
 30
0.0
 10
472.2830598704018
 20
-271.2627230936154
 30
0.0
 10
472.2830598704018
 20
-271.2627230936154
 30
0.0
 10
472.4031449221438
 20
-271.2694478565134
 30
0.0
 10
472.5062579532383
 20
-271.2726501245597
 30
0.0
 10
472.593039417297
 20
-271.2726501245597
 30
0.0
 10
472.9795531705026
 20
-271.2726501245597
 30
0.0
 10
473.2479032327943
 20
-271.1777028769824
 30
0.0
 10
473.3980896041728
 20
-270.9876482684257
 30
0.0
 10
473.5479557487458
 20
-270.7977537732719
 30
0.0
 10
473.6228888210327
 20
-270.4027540097437
 30
0.0
 10
473.6228888210327
 20
-269.8026489778406
 30
0.0
 10
473.6228888210327
 20
-269.8026489778406
 30
0.0
 10
473.6228888210327
 20
-268.4727470581528
 30
0.0
 10
473.6228888210327
 20
-268.4727470581528
 30
0.0
 10
473.6228888210327
 20
-267.919395139729
 30
0.0
 10
473.5364275837793
 20
-267.5594602113081
 30
0.0
 10
473.3628646556612
 20
-267.392782159491
 30
0.0
 10
473.1896219543485
 20
-267.2262642210756
 30
0.0
 10
472.8296870259295
 20
-267.1426850250638
 30
0.0
 10
472.2830598704018
 20
-267.1426850250638
 30
0.0
  0
ENDBLK
  5
D0
330
CD
100
AcDbEntity
  8
0
100
AcDbBlockEnd
  0
ENDSEC
  0
SECTION
  2
ENTITIES
  0
SPLINE
  5
41
330
1F
100
AcDbEntity
  8
Calque 1
 62
     7
370
    50
100
AcDbSpline
210
0.0
220
0.0
230
1.0
 70
    11
 71
     3
 72
    20
 73
    16
 74
     0
 42
0.0000000001
 43
0.0000000001
 12
1.0
 22
0.0
 32
0.0
 13
1.0
 23
0.0
 33
0.0
 40
0.0
 40
0.0
 40
0.0
 40
0.0
 40
1.0
 40
1.0
 40
1.0
 40
2.0
 40
2.0
 40
2.0
 40
3.0
 40
3.0
 40
3.0
 40
4.0
 40
4.0
 40
4.0
 40
5.0
 40
5.0
 40
5.0
 40
5.0
 10
561.1153505868243
 20
-193.7805555537923
 30
0.0
 10
562.0542346615367
 20
-193.7805555537923
 30
0.0
 10
562.8153505868247
 20
-193.0194396285042
 30
0.0
 10
562.8153505868247
 20
-192.0805555537919
 30
0.0
 10
562.8153505868247
 20
-191.1416714790795
 30
0.0
 10
562.0542346615367
 20
-190.3805555537921
 30
0.0
 10
561.1153505868243
 20
-190.3805555537921
 30
0.0
 10
560.176466512112
 20
-190.3805555537921
 30
0.0
 10
559.4153505868246
 20
-191.1416714790795
 30
0.0
 10
559.4153505868246
 20
-192.0805555537919
 30
0.0
 10
559.4153505868246
 20
-193.0194396285042
 30
0.0
 10
560.176466512112
 20
-193.7805555537923
 30
0.0
 10
561.1153505868243
 20
-193.7805555537923
 30
0.0
 10
561.1153505868243
 20
-193.7805555537923
 30
0.0
 10
561.1153505868243
 20
-193.7805555537923
 30
0.0
 10
561.1153505868243
 20
-193.7805555537923
 30
0.0
  0
SPLINE
  5
42
330
1F
100
AcDbEntity
  8
Calque 1
 62
     7
370
    50
100
AcDbSpline
210
0.0
220
0.0
230
1.0
 70
    11
 71
     3
 72
    20
 73
    16
 74
     0
 42
0.0000000001
 43
0.0000000001
 12
1.0
 22
0.0
 32
0.0
 13
1.0
 23
0.0
 33
0.0
 40
0.0
 40
0.0
 40
0.0
 40
0.0
 40
1.0
 40
1.0
 40
1.0
 40
2.0
 40
2.0
 40
2.0
 40
3.0
 40
3.0
 40
3.0
 40
4.0
 40
4.0
 40
4.0
 40
5.0
 40
5.0
 40
5.0
 40
5.0
 10
575.0379166655423
 20
-193.7805555537923
 30
0.0
 10
575.9768007402546
 20
-193.7805555537923
 30
0.0
 10
576.737916665542
 20
-193.0194396285042
 30
0.0
 10
576.737916665542
 20
-192.0805555537919
 30
0.0
 10
576.737916665542
 20
-191.1416714790795
 30
0.0
 10
575.9768007402546
 20
-190.3805555537921
 30
0.0
 10
575.0379166655423
 20
-190.3805555537921
 30
0.0
 10
574.0990325908299
 20
-190.3805555537921
 30
0.0
 10
573.3379166655425
 20
-191.1416714790795
 30
0.0
 10
573.3379166655425
 20
-192.0805555537919
 30
0.0
 10
573.3379166655425
 20
-193.0194396285042
 30
0.0
 10
574.0990325908299
 20
-193.7805555537923
 30
0.0
 10
575.0379166655423
 20
-193.7805555537923
 30
0.0
 10
575.0379166655423
 20
-193.7805555537923
 30
0.0
 10
575.0379166655423
 20
-193.7805555537923
 30
0.0
 10
575.0379166655423
 20
-193.7805555537923
 30
0.0
  0
SPLINE
  5
43
330
1F
100
AcDbEntity
  8
Calque 1
 62
     7
370
    50
100
AcDbSpline
210
0.0
220
0.0
230
1.0
 70
    11
 71
     3
 72
    20
 73
    16
 74
     0
 42
0.0000000001
 43
0.0000000001
 12
1.0
 22
0.0
 32
0.0
 13
1.0
 23
0.0
 33
0.0
 40
0.0
 40
0.0
 40
0.0
 40
0.0
 40
1.0
 40
1.0
 40
1.0
 40
2.0
 40
2.0
 40
2.0
 40
3.0
 40
3.0
 40
3.0
 40
4.0
 40
4.0
 40
4.0
 40
5.0
 40
5.0
 40
5.0
 40
5.0
 10
561.1153505868243
 20
-15.38055555379172
 30
0.0
 10
560.176466512112
 20
-15.38055555379172
 30
0.0
 10
559.4153505868246
 20
-16.14167147907948
 30
0.0
 10
559.4153505868246
 20
-17.08055555379178
 30
0.0
 10
559.4153505868246
 20
-18.01943962850408
 30
0.0
 10
560.176466512112
 20
-18.78055555379184
 30
0.0
 10
561.1153505868243
 20
-18.78055555379184
 30
0.0
 10
562.0542346615367
 20
-18.78055555379184
 30
0.0
 10
562.8153505868247
 20
-18.01943962850408
 30
0.0
 10
562.8153505868247
 20
-17.08055555379178
 30
0.0
 10
562.8153505868247
 20
-16.14167147907948
 30
0.0
 10
562.0542346615367
 20
-15.38055555379172
 30
0.0
 10
561.1153505868243
 20
-15.38055555379172
 30
0.0
 10
561.1153505868243
 20
-15.38055555379172
 30
0.0
 10
561.1153505868243
 20
-15.38055555379172
 30
0.0
 10
561.1153505868243
 20
-15.38055555379172
 30
0.0
  0
SPLINE
  5
44
330
1F
100
AcDbEntity
  8
Calque 1
 62
     7
370
    50
100
AcDbSpline
210
0.0
220
0.0
230
1.0
 70
    11
 71
     3
 72
    20
 73
    16
 74
     0
 42
0.0000000001
 43
0.0000000001
 12
1.0
 22
0.0
 32
0.0
 13
1.0
 23
0.0
 33
0.0
 40
0.0
 40
0.0
 40
0.0
 40
0.0
 40
1.0
 40
1.0
 40
1.0
 40
2.0
 40
2.0
 40
2.0
 40
3.0
 40
3.0
 40
3.0
 40
4.0
 40
4.0
 40
4.0
 40
5.0
 40
5.0
 40
5.0
 40
5.0
 10
575.0379166655423
 20
-15.38055555379172
 30
0.0
 10
574.0990325908299
 20
-15.38055555379172
 30
0.0
 10
573.3379166655425
 20
-16.14167147907948
 30
0.0
 10
573.3379166655425
 20
-17.08055555379178
 30
0.0
 10
573.3379166655425
 20
-18.01943962850408
 30
0.0
 10
574.0990325908299
 20
-18.78055555379184
 30
0.0
 10
575.0379166655423
 20
-18.78055555379184
 30
0.0
 10
575.9768007402546
 20
-18.78055555379184
 30
0.0
 10
576.737916665542
 20
-18.01943962850408
 30
0.0
 10
576.737916665542
 20
-17.08055555379178
 30
0.0
 10
576.737916665542
 20
-16.14167147907948
 30
0.0
 10
575.9768007402546
 20
-15.38055555379172
 30
0.0
 10
575.0379166655423
 20
-15.38055555379172
 30
0.0
 10
575.0379166655423
 20
-15.38055555379172
 30
0.0
 10
575.0379166655423
 20
-15.38055555379172
 30
0.0
 10
575.0379166655423
 20
-15.38055555379172
 30
0.0
  0
SPLINE
  5
45
330
1F
100
AcDbEntity
  8
Calque 1
 62
     7
370
    50
100
AcDbSpline
210
0.0
220
0.0
230
1.0
 70
    11
 71
     3
 72
    20
 73
    16
 74
     0
 42
0.0000000001
 43
0.0000000001
 12
1.0
 22
0.0
 32
0.0
 13
1.0
 23
0.0
 33
0.0
 40
0.0
 40
0.0
 40
0.0
 40
0.0
 40
1.0
 40
1.0
 40
1.0
 40
2.0
 40
2.0
 40
2.0
 40
3.0
 40
3.0
 40
3.0
 40
4.0
 40
4.0
 40
4.0
 40
5.0
 40
5.0
 40
5.0
 40
5.0
 10
281.0384827442603
 20
-15.38055555379172
 30
0.0
 10
280.099598669548
 20
-15.38055555379172
 30
0.0
 10
279.3384827442599
 20
-16.14167147907948
 30
0.0
 10
279.3384827442599
 20
-17.08055555379178
 30
0.0
 10
279.3384827442599
 20
-18.01943962850408
 30
0.0
 10
280.099598669548
 20
-18.78055555379184
 30
0.0
 10
281.0384827442603
 20
-18.78055555379184
 30
0.0
 10
281.9773668189726
 20
-18.78055555379184
 30
0.0
 10
282.73848274426
 20
-18.01943962850408
 30
0.0
 10
282.73848274426
 20
-17.08055555379178
 30
0.0
 10
282.73848274426
 20
-16.14167147907948
 30
0.0
 10
281.9773668189726
 20
-15.38055555379172
 30
0.0
 10
281.0384827442603
 20
-15.38055555379172
 30
0.0
 10
281.0384827442603
 20
-15.38055555379172
 30
0.0
 10
281.0384827442603
 20
-15.38055555379172
 30
0.0
 10
281.0384827442603
 20
-15.38055555379172
 30
0.0
  0
SPLINE
  5
46
330
1F
100
AcDbEntity
  8
Calque 1
 62
     7
370
    50
100
AcDbSpline
210
0.0
220
0.0
230
1.0
 70
    11
 71
     3
 72
    20
 73
    16
 74
     0
 42
0.0000000001
 43
0.0000000001
 12
1.0
 22
0.0
 32
0.0
 13
1.0
 23
0.0
 33
0.0
 40
0.0
 40
0.0
 40
0.0
 40
0.0
 40
1.0
 40
1.0
 40
1.0
 40
2.0
 40
2.0
 40
2.0
 40
3.0
 40
3.0
 40
3.0
 40
4.0
 40
4.0
 40
4.0
 40
5.0
 40
5.0
 40
5.0
 40
5.0
 10
267.1159166655424
 20
-15.38055555379172
 30
0.0
 10
266.1770325908301
 20
-15.38055555379172
 30
0.0
 10
265.415916665542
 20
-16.14167147907948
 30
0.0
 10
265.415916665542
 20
-17.08055555379178
 30
0.0
 10
265.415916665542
 20
-18.01943962850408
 30
0.0
 10
266.1770325908301
 20
-18.78055555379184
 30
0.0
 10
267.1159166655424
 20
-18.78055555379184
 30
0.0
 10
268.0548007402547
 20
-18.78055555379184
 30
0.0
 10
268.8159166655428
 20
-18.01943962850408
 30
0.0
 10
268.8159166655428
 20
-17.08055555379178
 30
0.0
 10
268.8159166655428
 20
-16.14167147907948
 30
0.0
 10
268.0548007402547
 20
-15.38055555379172
 30
0.0
 10
267.1159166655424
 20
-15.38055555379172
 30
0.0
 10
267.1159166655424
 20
-15.38055555379172
 30
0.0
 10
267.1159166655424
 20
-15.38055555379172
 30
0.0
 10
267.1159166655424
 20
-15.38055555379172
 30
0.0
  0
SPLINE
  5
47
330
1F
100
AcDbEntity
  8
Calque 1
 62
     7
370
    50
100
AcDbSpline
210
0.0
220
0.0
230
1.0
 70
    11
 71
     3
 72
    20
 73
    16
 74
     0
 42
0.0000000001
 43
0.0000000001
 12
1.0
 22
0.0
 32
0.0
 13
1.0
 23
0.0
 33
0.0
 40
0.0
 40
0.0
 40
0.0
 40
0.0
 40
1.0
 40
1.0
 40
1.0
 40
2.0
 40
2.0
 40
2.0
 40
3.0
 40
3.0
 40
3.0
 40
4.0
 40
4.0
 40
4.0
 40
5.0
 40
5.0
 40
5.0
 40
5.0
 10
281.0384827442603
 20
-193.7805555537923
 30
0.0
 10
281.9773668189726
 20
-193.7805555537923
 30
0.0
 10
282.73848274426
 20
-193.0194396285042
 30
0.0
 10
282.73848274426
 20
-192.0805555537919
 30
0.0
 10
282.73848274426
 20
-191.1416714790795
 30
0.0
 10
281.9773668189726
 20
-190.3805555537921
 30
0.0
 10
281.0384827442603
 20
-190.3805555537921
 30
0.0
 10
280.099598669548
 20
-190.3805555537921
 30
0.0
 10
279.3384827442599
 20
-191.1416714790795
 30
0.0
 10
279.3384827442599
 20
-192.0805555537919
 30
0.0
 10
279.3384827442599
 20
-193.0194396285042
 30
0.0
 10
280.099598669548
 20
-193.7805555537923
 30
0.0
 10
281.0384827442603
 20
-193.7805555537923
 30
0.0
 10
281.0384827442603
 20
-193.7805555537923
 30
0.0
 10
281.0384827442603
 20
-193.7805555537923
 30
0.0
 10
281.0384827442603
 20
-193.7805555537923
 30
0.0
  0
SPLINE
  5
48
330
1F
100
AcDbEntity
  8
Calque 1
 62
     7
370
    50
100
AcDbSpline
210
0.0
220
0.0
230
1.0
 70
    11
 71
     3
 72
    20
 73
    16
 74
     0
 42
0.0000000001
 43
0.0000000001
 12
1.0
 22
0.0
 32
0.0
 13
1.0
 23
0.0
 33
0.0
 40
0.0
 40
0.0
 40
0.0
 40
0.0
 40
1.0
 40
1.0
 40
1.0
 40
2.0
 40
2.0
 40
2.0
 40
3.0
 40
3.0
 40
3.0
 40
4.0
 40
4.0
 40
4.0
 40
5.0
 40
5.0
 40
5.0
 40
5.0
 10
267.1159166655424
 20
-193.7805555537923
 30
0.0
 10
268.0548007402547
 20
-193.7805555537923
 30
0.0
 10
268.8159166655428
 20
-193.0194396285042
 30
0.0
 10
268.8159166655428
 20
-192.0805555537919
 30
0.0
 10
268.8159166655428
 20
-191.1416714790795
 30
0.0
 10
268.0548007402547
 20
-190.3805555537921
 30
0.0
 10
267.1159166655424
 20
-190.3805555537921
 30
0.0
 10
266.1770325908301
 20
-190.3805555537921
 30
0.0
 10
265.415916665542
 20
-191.1416714790795
 30
0.0
 10
265.415916665542
 20
-192.0805555537919
 30
0.0
 10
265.415916665542
 20
-193.0194396285042
 30
0.0
 10
266.1770325908301
 20
-193.7805555537923
 30
0.0
 10
267.1159166655424
 20
-193.7805555537923
 30
0.0
 10
267.1159166655424
 20
-193.7805555537923
 30
0.0
 10
267.1159166655424
 20
-193.7805555537923
 30
0.0
 10
267.1159166655424
 20
-193.7805555537923
 30
0.0
  0
POLYLINE
  5
49
330
1F
100
AcDbEntity
  8
Calque 1
 62
     7
370
    50
100
AcDb2dPolyline
 66
     1
 10
0.0
 20
0.0
 30
0.0
  0
VERTEX
  5
4A
330
49
100
AcDbEntity
  8
Calque 1
 62
     7
370
    50
100
AcDbVertex
100
AcDb2dVertex
 10
256.0769166655429
 20
-202.0805555537922
 30
0.0
  0
VERTEX
  5
4B
330
49
100
AcDbEntity
  8
Calque 1
 62
     7
370
    50
100
AcDbVertex
100
AcDb2dVertex
 10
256.0769166655429
 20
-7.080555553791748
 30
0.0
  0
VERTEX
  5
4C
330
49
100
AcDbEntity
  8
Calque 1
 62
     7
370
    50
100
AcDbVertex
100
AcDb2dVertex
 10
586.0769166655424
 20
-7.080555553791748
 30
0.0
  0
VERTEX
  5
4D
330
49
100
AcDbEntity
  8
Calque 1
 62
     7
370
    50
100
AcDbVertex
100
AcDb2dVertex
 10
586.0769166655424
 20
-202.0805555537922
 30
0.0
  0
VERTEX
  5
4E
330
49
100
AcDbEntity
  8
Calque 1
 62
     7
370
    50
100
AcDbVertex
100
AcDb2dVertex
 10
256.0769166655429
 20
-202.0805555537922
 30
0.0
  0
SEQEND
  5
4F
330
49
100
AcDbEntity
  8
Calque 1
 62
     7
370
    50
  0
SPLINE
  5
50
330
1F
100
AcDbEntity
  8
Calque 1
 62
     7
370
    50
100
AcDbSpline
210
0.0
220
0.0
230
1.0
 70
    11
 71
     3
 72
    20
 73
    16
 74
     0
 42
0.0000000001
 43
0.0000000001
 12
1.0
 22
0.0
 32
0.0
 13
1.0
 23
0.0
 33
0.0
 40
0.0
 40
0.0
 40
0.0
 40
0.0
 40
1.0
 40
1.0
 40
1.0
 40
2.0
 40
2.0
 40
2.0
 40
3.0
 40
3.0
 40
3.0
 40
4.0
 40
4.0
 40
4.0
 40
5.0
 40
5.0
 40
5.0
 40
5.0
 10
571.0769166655425
 20
-80.08055555379175
 30
0.0
 10
571.0769166655425
 20
-74.55770805548381
 30
0.0
 10
566.5997641638504
 20
-70.08055555379173
 30
0.0
 10
561.0769166655422
 20
-70.08055555379173
 30
0.0
 10
555.5540691672345
 20
-70.08055555379173
 30
0.0
 10
551.0769166655424
 20
-74.55770805548381
 30
0.0
 10
551.0769166655424
 20
-80.08055555379175
 30
0.0
 10
551.0769166655424
 20
-85.60340305209971
 30
0.0
 10
555.5540691672345
 20
-90.0805555537918
 30
0.0
 10
561.0769166655422
 20
-90.0805555537918
 30
0.0
 10
566.5997641638504
 20
-90.0805555537918
 30
0.0
 10
571.0769166655425
 20
-85.60340305209971
 30
0.0
 10
571.0769166655425
 20
-80.08055555379175
 30
0.0
 10
571.0769166655425
 20
-80.08055555379175
 30
0.0
 10
571.0769166655425
 20
-80.08055555379175
 30
0.0
 10
571.0769166655425
 20
-80.08055555379175
 30
0.0
  0
SPLINE
  5
51
330
1F
100
AcDbEntity
  8
Calque 1
 62
     7
370
    50
100
AcDbSpline
210
0.0
220
0.0
230
1.0
 70
    11
 71
     3
 72
    20
 73
    16
 74
     0
 42
0.0000000001
 43
0.0000000001
 12
1.0
 22
0.0
 32
0.0
 13
1.0
 23
0.0
 33
0.0
 40
0.0
 40
0.0
 40
0.0
 40
0.0
 40
1.0
 40
1.0
 40
1.0
 40
2.0
 40
2.0
 40
2.0
 40
3.0
 40
3.0
 40
3.0
 40
4.0
 40
4.0
 40
4.0
 40
5.0
 40
5.0
 40
5.0
 40
5.0
 10
571.0769166655425
 20
-135.0805555537918
 30
0.0
 10
571.0769166655425
 20
-129.5577080554838
 30
0.0
 10
566.5997641638504
 20
-125.0805555537917
 30
0.0
 10
561.0769166655422
 20
-125.0805555537917
 30
0.0
 10
555.5540691672345
 20
-125.0805555537917
 30
0.0
 10
551.0769166655424
 20
-129.5577080554838
 30
0.0
 10
551.0769166655424
 20
-135.0805555537918
 30
0.0
 10
551.0769166655424
 20
-140.6034030520997
 30
0.0
 10
555.5540691672345
 20
-145.0805555537918
 30
0.0
 10
561.0769166655422
 20
-145.0805555537918
 30
0.0
 10
566.5997641638504
 20
-145.0805555537918
 30
0.0
 10
571.0769166655425
 20
-140.6034030520997
 30
0.0
 10
571.0769166655425
 20
-135.0805555537918
 30
0.0
 10
571.0769166655425
 20
-135.0805555537918
 30
0.0
 10
571.0769166655425
 20
-135.0805555537918
 30
0.0
 10
571.0769166655425
 20
-135.0805555537918
 30
0.0
  0
SPLINE
  5
52
330
1F
100
AcDbEntity
  8
Calque 1
 62
     7
370
    50
100
AcDbSpline
210
0.0
220
0.0
230
1.0
 70
    11
 71
     3
 72
    20
 73
    16
 74
     0
 42
0.0000000001
 43
0.0000000001
 12
1.0
 22
0.0
 32
0.0
 13
1.0
 23
0.0
 33
0.0
 40
0.0
 40
0.0
 40
0.0
 40
0.0
 40
1.0
 40
1.0
 40
1.0
 40
2.0
 40
2.0
 40
2.0
 40
3.0
 40
3.0
 40
3.0
 40
4.0
 40
4.0
 40
4.0
 40
5.0
 40
5.0
 40
5.0
 40
5.0
 10
543.0769166655422
 20
-135.0805555537918
 30
0.0
 10
543.0769166655422
 20
-129.5577080554838
 30
0.0
 10
538.5997641638501
 20
-125.0805555537917
 30
0.0
 10
533.0769166655424
 20
-125.0805555537917
 30
0.0
 10
527.5540691672342
 20
-125.0805555537917
 30
0.0
 10
523.0769166655421
 20
-129.5577080554838
 30
0.0
 10
523.0769166655421
 20
-135.0805555537918
 30
0.0
 10
523.0769166655421
 20
-140.6034030520997
 30
0.0
 10
527.5540691672342
 20
-145.0805555537918
 30
0.0
 10
533.0769166655424
 20
-145.0805555537918
 30
0.0
 10
538.5997641638501
 20
-145.0805555537918
 30
0.0
 10
543.0769166655422
 20
-140.6034030520997
 30
0.0
 10
543.0769166655422
 20
-135.0805555537918
 30
0.0
 10
543.0769166655422
 20
-135.0805555537918
 30
0.0
 10
543.0769166655422
 20
-135.0805555537918
 30
0.0
 10
543.0769166655422
 20
-135.0805555537918
 30
0.0
  0
SPLINE
  5
53
330
1F
100
AcDbEntity
  8
Calque 1
 62
     7
370
    50
100
AcDbSpline
210
0.0
220
0.0
230
1.0
 70
    11
 71
     3
 72
    20
 73
    16
 74
     0
 42
0.0000000001
 43
0.0000000001
 12
1.0
 22
0.0
 32
0.0
 13
1.0
 23
0.0
 33
0.0
 40
0.0
 40
0.0
 40
0.0
 40
0.0
 40
1.0
 40
1.0
 40
1.0
 40
2.0
 40
2.0
 40
2.0
 40
3.0
 40
3.0
 40
3.0
 40
4.0
 40
4.0
 40
4.0
 40
5.0
 40
5.0
 40
5.0
 40
5.0
 10
543.0769166655422
 20
-107.5805555537918
 30
0.0
 10
543.0769166655422
 20
-102.0577080554838
 30
0.0
 10
538.5997641638501
 20
-97.58055555379174
 30
0.0
 10
533.0769166655424
 20
-97.58055555379174
 30
0.0
 10
527.5540691672342
 20
-97.58055555379174
 30
0.0
 10
523.0769166655421
 20
-102.0577080554838
 30
0.0
 10
523.0769166655421
 20
-107.5805555537918
 30
0.0
 10
523.0769166655421
 20
-113.1034030520997
 30
0.0
 10
527.5540691672342
 20
-117.5805555537918
 30
0.0
 10
533.0769166655424
 20
-117.5805555537918
 30
0.0
 10
538.5997641638501
 20
-117.5805555537918
 30
0.0
 10
543.0769166655422
 20
-113.1034030520997
 30
0.0
 10
543.0769166655422
 20
-107.5805555537918
 30
0.0
 10
543.0769166655422
 20
-107.5805555537918
 30
0.0
 10
543.0769166655422
 20
-107.5805555537918
 30
0.0
 10
543.0769166655422
 20
-107.5805555537918
 30
0.0
  0
SPLINE
  5
54
330
1F
100
AcDbEntity
  8
Calque 1
 62
     7
370
    50
100
AcDbSpline
210
0.0
220
0.0
230
1.0
 70
    11
 71
     3
 72
    20
 73
    16
 74
     0
 42
0.0000000001
 43
0.0000000001
 12
1.0
 22
0.0
 32
0.0
 13
1.0
 23
0.0
 33
0.0
 40
0.0
 40
0.0
 40
0.0
 40
0.0
 40
1.0
 40
1.0
 40
1.0
 40
2.0
 40
2.0
 40
2.0
 40
3.0
 40
3.0
 40
3.0
 40
4.0
 40
4.0
 40
4.0
 40
5.0
 40
5.0
 40
5.0
 40
5.0
 10
543.0769166655422
 20
-80.08055555379175
 30
0.0
 10
543.0769166655422
 20
-74.55770805548381
 30
0.0
 10
538.5997641638501
 20
-70.08055555379173
 30
0.0
 10
533.0769166655424
 20
-70.08055555379173
 30
0.0
 10
527.5540691672342
 20
-70.08055555379173
 30
0.0
 10
523.0769166655421
 20
-74.55770805548381
 30
0.0
 10
523.0769166655421
 20
-80.08055555379175
 30
0.0
 10
523.0769166655421
 20
-85.60340305209971
 30
0.0
 10
527.5540691672342
 20
-90.0805555537918
 30
0.0
 10
533.0769166655424
 20
-90.0805555537918
 30
0.0
 10
538.5997641638501
 20
-90.0805555537918
 30
0.0
 10
543.0769166655422
 20
-85.60340305209971
 30
0.0
 10
543.0769166655422
 20
-80.08055555379175
 30
0.0
 10
543.0769166655422
 20
-80.08055555379175
 30
0.0
 10
543.0769166655422
 20
-80.08055555379175
 30
0.0
 10
543.0769166655422
 20
-80.08055555379175
 30
0.0
  0
SPLINE
  5
55
330
1F
100
AcDbEntity
  8
Calque 1
 62
     7
370
    50
100
AcDbSpline
210
0.0
220
0.0
230
1.0
 70
    11
 71
     3
 72
    20
 73
    16
 74
     0
 42
0.0000000001
 43
0.0000000001
 12
1.0
 22
0.0
 32
0.0
 13
1.0
 23
0.0
 33
0.0
 40
0.0
 40
0.0
 40
0.0
 40
0.0
 40
1.0
 40
1.0
 40
1.0
 40
2.0
 40
2.0
 40
2.0
 40
3.0
 40
3.0
 40
3.0
 40
4.0
 40
4.0
 40
4.0
 40
5.0
 40
5.0
 40
5.0
 40
5.0
 10
299.0769166655425
 20
-135.0805555537918
 30
0.0
 10
299.0769166655425
 20
-140.6034030520997
 30
0.0
 10
303.5540691672346
 20
-145.0805555537918
 30
0.0
 10
309.0769166655422
 20
-145.0805555537918
 30
0.0
 10
314.5997641638505
 20
-145.0805555537918
 30
0.0
 10
319.0769166655426
 20
-140.6034030520997
 30
0.0
 10
319.0769166655426
 20
-135.0805555537918
 30
0.0
 10
319.0769166655426
 20
-129.5577080554838
 30
0.0
 10
314.5997641638505
 20
-125.0805555537917
 30
0.0
 10
309.0769166655422
 20
-125.0805555537917
 30
0.0
 10
303.5540691672346
 20
-125.0805555537917
 30
0.0
 10
299.0769166655425
 20
-129.5577080554838
 30
0.0
 10
299.0769166655425
 20
-135.0805555537918
 30
0.0
 10
299.0769166655425
 20
-135.0805555537918
 30
0.0
 10
299.0769166655425
 20
-135.0805555537918
 30
0.0
 10
299.0769166655425
 20
-135.0805555537918
 30
0.0
  0
SPLINE
  5
56
330
1F
100
AcDbEntity
  8
Calque 1
 62
     7
370
    50
100
AcDbSpline
210
0.0
220
0.0
230
1.0
 70
    11
 71
     3
 72
    20
 73
    16
 74
     0
 42
0.0000000001
 43
0.0000000001
 12
1.0
 22
0.0
 32
0.0
 13
1.0
 23
0.0
 33
0.0
 40
0.0
 40
0.0
 40
0.0
 40
0.0
 40
1.0
 40
1.0
 40
1.0
 40
2.0
 40
2.0
 40
2.0
 40
3.0
 40
3.0
 40
3.0
 40
4.0
 40
4.0
 40
4.0
 40
5.0
 40
5.0
 40
5.0
 40
5.0
 10
271.0769166655428
 20
-135.0805555537918
 30
0.0
 10
271.0769166655428
 20
-140.6034030520997
 30
0.0
 10
275.5540691672349
 20
-145.0805555537918
 30
0.0
 10
281.0769166655425
 20
-145.0805555537918
 30
0.0
 10
286.5997641638501
 20
-145.0805555537918
 30
0.0
 10
291.0769166655422
 20
-140.6034030520997
 30
0.0
 10
291.0769166655422
 20
-135.0805555537918
 30
0.0
 10
291.0769166655422
 20
-129.5577080554838
 30
0.0
 10
286.5997641638501
 20
-125.0805555537917
 30
0.0
 10
281.0769166655425
 20
-125.0805555537917
 30
0.0
 10
275.5540691672349
 20
-125.0805555537917
 30
0.0
 10
271.0769166655428
 20
-129.5577080554838
 30
0.0
 10
271.0769166655428
 20
-135.0805555537918
 30
0.0
 10
271.0769166655428
 20
-135.0805555537918
 30
0.0
 10
271.0769166655428
 20
-135.0805555537918
 30
0.0
 10
271.0769166655428
 20
-135.0805555537918
 30
0.0
  0
SPLINE
  5
57
330
1F
100
AcDbEntity
  8
Calque 1
 62
     7
370
    50
100
AcDbSpline
210
0.0
220
0.0
230
1.0
 70
    11
 71
     3
 72
    20
 73
    16
 74
     0
 42
0.0000000001
 43
0.0000000001
 12
1.0
 22
0.0
 32
0.0
 13
1.0
 23
0.0
 33
0.0
 40
0.0
 40
0.0
 40
0.0
 40
0.0
 40
1.0
 40
1.0
 40
1.0
 40
2.0
 40
2.0
 40
2.0
 40
3.0
 40
3.0
 40
3.0
 40
4.0
 40
4.0
 40
4.0
 40
5.0
 40
5.0
 40
5.0
 40
5.0
 10
271.0769166655428
 20
-107.5805555537918
 30
0.0
 10
271.0769166655428
 20
-113.1034030520997
 30
0.0
 10
275.5540691672349
 20
-117.5805555537918
 30
0.0
 10
281.0769166655425
 20
-117.5805555537918
 30
0.0
 10
286.5997641638501
 20
-117.5805555537918
 30
0.0
 10
291.0769166655422
 20
-113.1034030520997
 30
0.0
 10
291.0769166655422
 20
-107.5805555537918
 30
0.0
 10
291.0769166655422
 20
-102.0577080554838
 30
0.0
 10
286.5997641638501
 20
-97.58055555379174
 30
0.0
 10
281.0769166655425
 20
-97.58055555379174
 30
0.0
 10
275.5540691672349
 20
-97.58055555379174
 30
0.0
 10
271.0769166655428
 20
-102.0577080554838
 30
0.0
 10
271.0769166655428
 20
-107.5805555537918
 30
0.0
 10
271.0769166655428
 20
-107.5805555537918
 30
0.0
 10
271.0769166655428
 20
-107.5805555537918
 30
0.0
 10
271.0769166655428
 20
-107.5805555537918
 30
0.0
  0
SPLINE
  5
58
330
1F
100
AcDbEntity
  8
Calque 1
 62
     7
370
    50
100
AcDbSpline
210
0.0
220
0.0
230
1.0
 70
    11
 71
     3
 72
    20
 73
    16
 74
     0
 42
0.0000000001
 43
0.0000000001
 12
1.0
 22
0.0
 32
0.0
 13
1.0
 23
0.0
 33
0.0
 40
0.0
 40
0.0
 40
0.0
 40
0.0
 40
1.0
 40
1.0
 40
1.0
 40
2.0
 40
2.0
 40
2.0
 40
3.0
 40
3.0
 40
3.0
 40
4.0
 40
4.0
 40
4.0
 40
5.0
 40
5.0
 40
5.0
 40
5.0
 10
299.0769166655425
 20
-80.08055555379175
 30
0.0
 10
299.0769166655425
 20
-85.60340305209971
 30
0.0
 10
303.5540691672346
 20
-90.0805555537918
 30
0.0
 10
309.0769166655422
 20
-90.0805555537918
 30
0.0
 10
314.5997641638505
 20
-90.0805555537918
 30
0.0
 10
319.0769166655426
 20
-85.60340305209971
 30
0.0
 10
319.0769166655426
 20
-80.08055555379175
 30
0.0
 10
319.0769166655426
 20
-74.55770805548381
 30
0.0
 10
314.5997641638505
 20
-70.08055555379173
 30
0.0
 10
309.0769166655422
 20
-70.08055555379173
 30
0.0
 10
303.5540691672346
 20
-70.08055555379173
 30
0.0
 10
299.0769166655425
 20
-74.55770805548381
 30
0.0
 10
299.0769166655425
 20
-80.08055555379175
 30
0.0
 10
299.0769166655425
 20
-80.08055555379175
 30
0.0
 10
299.0769166655425
 20
-80.08055555379175
 30
0.0
 10
299.0769166655425
 20
-80.08055555379175
 30
0.0
  0
POLYLINE
  5
59
330
1F
100
AcDbEntity
  8
Calque 1
 62
     7
370
    50
100
AcDb2dPolyline
 66
     1
 10
0.0
 20
0.0
 30
0.0
  0
VERTEX
  5
5A
330
59
100
AcDbEntity
  8
Calque 1
 62
     7
370
    50
100
AcDbVertex
100
AcDb2dVertex
 10
246.0769166655426
 20
-233.0194444414441
 30
0.0
  0
VERTEX
  5
5B
330
59
100
AcDbEntity
  8
Calque 1
 62
     7
370
    50
100
AcDbVertex
100
AcDb2dVertex
 10
246.0769166655426
 20
-207.0194444414464
 30
0.0
  0
VERTEX
  5
5C
330
59
100
AcDbEntity
  8
Calque 1
 62
     7
370
    50
100
AcDbVertex
100
AcDb2dVertex
 10
271.0769166655428
 20
-207.0194444414464
 30
0.0
  0
VERTEX
  5
5D
330
59
100
AcDbEntity
  8
Calque 1
 62
     7
370
    50
100
AcDbVertex
100
AcDb2dVertex
 10
271.0769166655428
 20
-212.0194444414459
 30
0.0
  0
VERTEX
  5
5E
330
59
100
AcDbEntity
  8
Calque 1
 62
     7
370
    50
100
AcDbVertex
100
AcDb2dVertex
 10
351.0769166655424
 20
-212.0194444414459
 30
0.0
  0
VERTEX
  5
5F
330
59
100
AcDbEntity
  8
Calque 1
 62
     7
370
    50
100
AcDbVertex
100
AcDb2dVertex
 10
351.0769166655424
 20
-207.0194444414464
 30
0.0
  0
VERTEX
  5
60
330
59
100
AcDbEntity
  8
Calque 1
 62
     7
370
    50
100
AcDbVertex
100
AcDb2dVertex
 10
375.9194166655425
 20
-207.0194444414464
 30
0.0
  0
VERTEX
  5
61
330
59
100
AcDbEntity
  8
Calque 1
 62
     7
370
    50
100
AcDbVertex
100
AcDb2dVertex
 10
375.9194166655425
 20
-212.0194444414459
 30
0.0
  0
VERTEX
  5
62
330
59
100
AcDbEntity
  8
Calque 1
 62
     7
370
    50
100
AcDbVertex
100
AcDb2dVertex
 10
456.0769166655423
 20
-212.0194444414459
 30
0.0
  0
VERTEX
  5
63
330
59
100
AcDbEntity
  8
Calque 1
 62
     7
370
    50
100
AcDbVertex
100
AcDb2dVertex
 10
456.0769166655423
 20
-207.0194444414464
 30
0.0
  0
VERTEX
  5
64
330
59
100
AcDbEntity
  8
Calque 1
 62
     7
370
    50
100
AcDbVertex
100
AcDb2dVertex
 10
480.9194166655423
 20
-207.0194444414464
 30
0.0
  0
VERTEX
  5
65
330
59
100
AcDbEntity
  8
Calque 1
 62
     7
370
    50
100
AcDbVertex
100
AcDb2dVertex
 10
480.9194166655423
 20
-212.0194444414459
 30
0.0
  0
VERTEX
  5
66
330
59
100
AcDbEntity
  8
Calque 1
 62
     7
370
    50
100
AcDbVertex
100
AcDb2dVertex
 10
561.0769166655422
 20
-212.0194444414459
 30
0.0
  0
VERTEX
  5
67
330
59
100
AcDbEntity
  8
Calque 1
 62
     7
370
    50
100
AcDbVertex
100
AcDb2dVertex
 10
561.0769166655422
 20
-207.0194444414464
 30
0.0
  0
VERTEX
  5
68
330
59
100
AcDbEntity
  8
Calque 1
 62
     7
370
    50
100
AcDbVertex
100
AcDb2dVertex
 10
586.0769166655424
 20
-207.0194444414464
 30
0.0
  0
VERTEX
  5
69
330
59
100
AcDbEntity
  8
Calque 1
 62
     7
370
    50
100
AcDbVertex
100
AcDb2dVertex
 10
586.0769166655424
 20
-233.0194444414441
 30
0.0
  0
VERTEX
  5
6A
330
59
100
AcDbEntity
  8
Calque 1
 62
     7
370
    50
100
AcDbVertex
100
AcDb2dVertex
 10
581.0769166655422
 20
-233.0194444414441
 30
0.0
  0
VERTEX
  5
6B
330
59
100
AcDbEntity
  8
Calque 1
 62
     7
370
    50
100
AcDbVertex
100
AcDb2dVertex
 10
581.0769166655422
 20
-253.0194444414442
 30
0.0
  0
VERTEX
  5
6C
330
59
100
AcDbEntity
  8
Calque 1
 62
     7
370
    50
100
AcDbVertex
100
AcDb2dVertex
 10
586.0769166655424
 20
-253.0194444414442
 30
0.0
  0
VERTEX
  5
6D
330
59
100
AcDbEntity
  8
Calque 1
 62
     7
370
    50
100
AcDbVertex
100
AcDb2dVertex
 10
586.0769166655424
 20
-291.0194444414455
 30
0.0
  0
VERTEX
  5
6E
330
59
100
AcDbEntity
  8
Calque 1
 62
     7
370
    50
100
AcDbVertex
100
AcDb2dVertex
 10
581.0769166655422
 20
-291.0194444414455
 30
0.0
  0
VERTEX
  5
6F
330
59
100
AcDbEntity
  8
Calque 1
 62
     7
370
    50
100
AcDbVertex
100
AcDb2dVertex
 10
581.0769166655422
 20
-311.0194444414449
 30
0.0
  0
VERTEX
  5
70
330
59
100
AcDbEntity
  8
Calque 1
 62
     7
370
    50
100
AcDbVertex
100
AcDb2dVertex
 10
586.0769166655424
 20
-311.0194444414449
 30
0.0
  0
VERTEX
  5
71
330
59
100
AcDbEntity
  8
Calque 1
 62
     7
370
    50
100
AcDbVertex
100
AcDb2dVertex
 10
586.0769166655424
 20
-344.0194444414461
 30
0.0
  0
VERTEX
  5
72
330
59
100
AcDbEntity
  8
Calque 1
 62
     7
370
    50
100
AcDbVertex
100
AcDb2dVertex
 10
561.0769166655422
 20
-344.0194444414461
 30
0.0
  0
VERTEX
  5
73
330
59
100
AcDbEntity
  8
Calque 1
 62
     7
370
    50
100
AcDbVertex
100
AcDb2dVertex
 10
561.0769166655422
 20
-339.0194444414459
 30
0.0
  0
VERTEX
  5
74
330
59
100
AcDbEntity
  8
Calque 1
 62
     7
370
    50
100
AcDbVertex
100
AcDb2dVertex
 10
480.9194166655429
 20
-339.0194444414459
 30
0.0
  0
VERTEX
  5
75
330
59
100
AcDbEntity
  8
Calque 1
 62
     7
370
    50
100
AcDbVertex
100
AcDb2dVertex
 10
480.9194166655429
 20
-344.0194444414461
 30
0.0
  0
VERTEX
  5
76
330
59
100
AcDbEntity
  8
Calque 1
 62
     7
370
    50
100
AcDbVertex
100
AcDb2dVertex
 10
456.0769166655423
 20
-344.0194444414461
 30
0.0
  0
VERTEX
  5
77
330
59
100
AcDbEntity
  8
Calque 1
 62
     7
370
    50
100
AcDbVertex
100
AcDb2dVertex
 10
456.0769166655423
 20
-339.0194444414459
 30
0.0
  0
VERTEX
  5
78
330
59
100
AcDbEntity
  8
Calque 1
 62
     7
370
    50
100
AcDbVertex
100
AcDb2dVertex
 10
375.9194166655425
 20
-339.0194444414459
 30
0.0
  0
VERTEX
  5
79
330
59
100
AcDbEntity
  8
Calque 1
 62
     7
370
    50
100
AcDbVertex
100
AcDb2dVertex
 10
375.9194166655425
 20
-344.0194444414461
 30
0.0
  0
VERTEX
  5
7A
330
59
100
AcDbEntity
  8
Calque 1
 62
     7
370
    50
100
AcDbVertex
100
AcDb2dVertex
 10
351.0769166655424
 20
-344.0194444414461
 30
0.0
  0
VERTEX
  5
7B
330
59
100
AcDbEntity
  8
Calque 1
 62
     7
370
    50
100
AcDbVertex
100
AcDb2dVertex
 10
351.0769166655424
 20
-339.0194444414459
 30
0.0
  0
VERTEX
  5
7C
330
59
100
AcDbEntity
  8
Calque 1
 62
     7
370
    50
100
AcDbVertex
100
AcDb2dVertex
 10
271.0769166655428
 20
-339.0194444414459
 30
0.0
  0
VERTEX
  5
7D
330
59
100
AcDbEntity
  8
Calque 1
 62
     7
370
    50
100
AcDbVertex
100
AcDb2dVertex
 10
271.0769166655428
 20
-344.0194444414461
 30
0.0
  0
VERTEX
  5
7E
330
59
100
AcDbEntity
  8
Calque 1
 62
     7
370
    50
100
AcDbVertex
100
AcDb2dVertex
 10
246.0769166655426
 20
-344.0194444414461
 30
0.0
  0
VERTEX
  5
7F
330
59
100
AcDbEntity
  8
Calque 1
 62
     7
370
    50
100
AcDbVertex
100
AcDb2dVertex
 10
246.0769166655426
 20
-311.0194444414449
 30
0.0
  0
VERTEX
  5
80
330
59
100
AcDbEntity
  8
Calque 1
 62
     7
370
    50
100
AcDbVertex
100
AcDb2dVertex
 10
251.0769166655427
 20
-311.0194444414449
 30
0.0
  0
VERTEX
  5
81
330
59
100
AcDbEntity
  8
Calque 1
 62
     7
370
    50
100
AcDbVertex
100
AcDb2dVertex
 10
251.0769166655427
 20
-291.0194444414455
 30
0.0
  0
VERTEX
  5
82
330
59
100
AcDbEntity
  8
Calque 1
 62
     7
370
    50
100
AcDbVertex
100
AcDb2dVertex
 10
246.0769166655426
 20
-291.0194444414455
 30
0.0
  0
VERTEX
  5
83
330
59
100
AcDbEntity
  8
Calque 1
 62
     7
370
    50
100
AcDbVertex
100
AcDb2dVertex
 10
246.0769166655426
 20
-253.0194444414442
 30
0.0
  0
VERTEX
  5
84
330
59
100
AcDbEntity
  8
Calque 1
 62
     7
370
    50
100
AcDbVertex
100
AcDb2dVertex
 10
251.0769166655427
 20
-253.0194444414442
 30
0.0
  0
VERTEX
  5
85
330
59
100
AcDbEntity
  8
Calque 1
 62
     7
370
    50
100
AcDbVertex
100
AcDb2dVertex
 10
251.0769166655427
 20
-233.0194444414441
 30
0.0
  0
VERTEX
  5
86
330
59
100
AcDbEntity
  8
Calque 1
 62
     7
370
    50
100
AcDbVertex
100
AcDb2dVertex
 10
246.0769166655426
 20
-233.0194444414441
 30
0.0
  0
SEQEND
  5
87
330
59
100
AcDbEntity
  8
Calque 1
 62
     7
370
    50
  0
SPLINE
  5
88
330
1F
100
AcDbEntity
  8
Calque 1
 62
     7
370
    50
100
AcDbSpline
210
0.0
220
0.0
230
1.0
 70
    11
 71
     3
 72
    23
 73
    19
 74
     0
 42
0.0000000001
 43
0.0000000001
 12
1.0
 22
0.0
 32
0.0
 13
1.0
 23
0.0
 33
0.0
 40
0.0
 40
0.0
 40
0.0
 40
0.0
 40
1.0
 40
1.0
 40
1.0
 40
2.0
 40
2.0
 40
2.0
 40
3.0
 40
3.0
 40
3.0
 40
4.0
 40
4.0
 40
4.0
 40
5.0
 40
5.0
 40
5.0
 40
6.0
 40
6.0
 40
6.0
 40
6.0
 10
288.8940053452341
 20
-268.1248518784815
 30
0.0
 10
288.8940053452341
 20
-268.1248518784815
 30
0.0
 10
288.8940053452341
 20
-276.1248518784818
 30
0.0
 10
288.8940053452341
 20
-276.1248518784818
 30
0.0
 10
288.8940053452347
 20
-277.3398783281093
 30
0.0
 10
289.8789788956067
 20
-278.3248518784819
 30
0.0
 10
291.0940053452348
 20
-278.3248518784819
 30
0.0
 10
292.3090317948623
 20
-278.3248518784819
 30
0.0
 10
293.2940053452343
 20
-277.3398783281093
 30
0.0
 10
293.2940053452343
 20
-276.1248518784818
 30
0.0
 10
293.2940053452343
 20
-276.1248518784818
 30
0.0
 10
293.2940053452343
 20
-268.1248518784815
 30
0.0
 10
293.2940053452343
 20
-268.1248518784815
 30
0.0
 10
293.2940053452343
 20
-266.909825428854
 30
0.0
 10
292.3090317948623
 20
-265.9248518784814
 30
0.0
 10
291.0940053452348
 20
-265.9248518784814
 30
0.0
 10
289.8789788956067
 20
-265.9248518784814
 30
0.0
 10
288.8940053452347
 20
-266.909825428854
 30
0.0
 10
288.8940053452341
 20
-268.1248518784815
 30
0.0
  0
SPLINE
  5
89
330
1F
100
AcDbEntity
  8
Calque 1
 62
     7
370
    50
100
AcDbSpline
210
0.0
220
0.0
230
1.0
 70
    11
 71
     3
 72
    23
 73
    19
 74
     0
 42
0.0000000001
 43
0.0000000001
 12
1.0
 22
0.0
 32
0.0
 13
1.0
 23
0.0
 33
0.0
 40
0.0
 40
0.0
 40
0.0
 40
0.0
 40
1.0
 40
1.0
 40
1.0
 40
2.0
 40
2.0
 40
2.0
 40
3.0
 40
3.0
 40
3.0
 40
4.0
 40
4.0
 40
4.0
 40
5.0
 40
5.0
 40
5.0
 40
6.0
 40
6.0
 40
6.0
 40
6.0
 10
288.8940053452347
 20
-249.8248518784818
 30
0.0
 10
288.8940053452347
 20
-251.0398783281093
 30
0.0
 10
289.8789788956067
 20
-252.0248518784813
 30
0.0
 10
291.0940053452348
 20
-252.0248518784813
 30
0.0
 10
292.3090317948623
 20
-252.0248518784813
 30
0.0
 10
293.2940053452343
 20
-251.0398783281093
 30
0.0
 10
293.2940053452343
 20
-249.8248518784818
 30
0.0
 10
293.2940053452343
 20
-249.8248518784818
 30
0.0
 10
293.2940053452343
 20
-241.8248518784816
 30
0.0
 10
293.2940053452343
 20
-241.8248518784816
 30
0.0
 10
293.2940053452343
 20
-240.6098254288541
 30
0.0
 10
292.3090317948623
 20
-239.6248518784815
 30
0.0
 10
291.0940053452348
 20
-239.6248518784815
 30
0.0
 10
289.8789788956067
 20
-239.6248518784815
 30
0.0
 10
288.8940053452347
 20
-240.6098254288541
 30
0.0
 10
288.8940053452347
 20
-241.8248518784816
 30
0.0
 10
288.8940053452347
 20
-241.8248518784816
 30
0.0
 10
288.8940053452347
 20
-249.8248518784818
 30
0.0
 10
288.8940053452347
 20
-249.8248518784818
 30
0.0
  0
SPLINE
  5
8A
330
1F
100
AcDbEntity
  8
Calque 1
 62
     7
370
    50
100
AcDbSpline
210
0.0
220
0.0
230
1.0
 70
    11
 71
     3
 72
    29
 73
    25
 74
     0
 42
0.0000000001
 43
0.0000000001
 12
1.0
 22
0.0
 32
0.0
 13
1.0
 23
0.0
 33
0.0
 40
0.0
 40
0.0
 40
0.0
 40
0.0
 40
1.0
 40
1.0
 40
1.0
 40
2.0
 40
2.0
 40
2.0
 40
3.0
 40
3.0
 40
3.0
 40
4.0
 40
4.0
 40
4.0
 40
5.0
 40
5.0
 40
5.0
 40
6.0
 40
6.0
 40
6.0
 40
7.0
 40
7.0
 40
7.0
 40
8.0
 40
8.0
 40
8.0
 40
8.0
 10
524.7265374800568
 20
-227.0194444414471
 30
0.0
 10
524.7265374800568
 20
-227.0194444414471
 30
0.0
 10
316.0323023047202
 20
-227.0194444414471
 30
0.0
 10
316.0323023047202
 20
-227.0194444414471
 30
0.0
 10
310.5094548064126
 20
-227.0194444414471
 30
0.0
 10
306.0323023047205
 20
-231.4965969431392
 30
0.0
 10
306.0323023047205
 20
-237.0194444414468
 30
0.0
 10
306.0323023047205
 20
-237.0194444414468
 30
0.0
 10
306.0323023047205
 20
-309.0194444414455
 30
0.0
 10
306.0323023047205
 20
-309.0194444414455
 30
0.0
 10
306.0323023047205
 20
-314.5422919397531
 30
0.0
 10
310.5094548064126
 20
-319.0194444414452
 30
0.0
 10
316.0323023047202
 20
-319.0194444414452
 30
0.0
 10
316.0323023047202
 20
-319.0194444414452
 30
0.0
 10
524.7265374800568
 20
-319.0194444414452
 30
0.0
 10
524.7265374800568
 20
-319.0194444414452
 30
0.0
 10
530.2493849783644
 20
-319.0194444414452
 30
0.0
 10
534.7265374800565
 20
-314.5422919397531
 30
0.0
 10
534.7265374800565
 20
-309.0194444414455
 30
0.0
 10
534.7265374800565
 20
-309.0194444414455
 30
0.0
 10
534.7265374800565
 20
-237.0194444414468
 30
0.0
 10
534.7265374800565
 20
-237.0194444414468
 30
0.0
 10
534.7265374800565
 20
-231.4965969431392
 30
0.0
 10
530.2493849783644
 20
-227.0194444414471
 30
0.0
 10
524.7265374800568
 20
-227.0194444414471
 30
0.0
  0
SPLINE
  5
8B
330
1F
100
AcDbEntity
  8
Calque 1
 62
     7
370
    50
100
AcDbSpline
210
0.0
220
0.0
230
1.0
 70
    11
 71
     3
 72
    29
 73
    25
 74
     0
 42
0.0000000001
 43
0.0000000001
 12
1.0
 22
0.0
 32
0.0
 13
1.0
 23
0.0
 33
0.0
 40
0.0
 40
0.0
 40
0.0
 40
0.0
 40
1.0
 40
1.0
 40
1.0
 40
2.0
 40
2.0
 40
2.0
 40
3.0
 40
3.0
 40
3.0
 40
4.0
 40
4.0
 40
4.0
 40
5.0
 40
5.0
 40
5.0
 40
6.0
 40
6.0
 40
6.0
 40
7.0
 40
7.0
 40
7.0
 40
8.0
 40
8.0
 40
8.0
 40
8.0
 10
328.5554852159871
 20
-355.6163203387968
 30
0.0
 10
328.5554852159871
 20
-355.6163203387968
 30
0.0
 10
328.5554852159871
 20
-359.6163203387962
 30
0.0
 10
328.5554852159871
 20
-359.6163203387962
 30
0.0
 10
328.5554852159871
 20
-361.2731745882891
 30
0.0
 10
327.2123394654791
 20
-362.6163203387964
 30
0.0
 10
325.5554852159869
 20
-362.6163203387964
 30
0.0
 10
325.5554852159869
 20
-362.6163203387964
 30
0.0
 10
256.5554852159871
 20
-362.6163203387964
 30
0.0
 10
256.5554852159871
 20
-362.6163203387964
 30
0.0
 10
254.8986309664942
 20
-362.6163203387964
 30
0.0
 10
253.555485215987
 20
-361.2731745882891
 30
0.0
 10
253.555485215987
 20
-359.6163203387962
 30
0.0
 10
253.555485215987
 20
-359.6163203387962
 30
0.0
 10
253.555485215987
 20
-355.6163203387968
 30
0.0
 10
253.555485215987
 20
-355.6163203387968
 30
0.0
 10
253.555485215987
 20
-353.9594660893045
 30
0.0
 10
254.8986309664942
 20
-352.6163203387966
 30
0.0
 10
256.5554852159871
 20
-352.6163203387966
 30
0.0
 10
256.5554852159871
 20
-352.6163203387966
 30
0.0
 10
325.5554852159869
 20
-352.6163203387966
 30
0.0
 10
325.5554852159869
 20
-352.6163203387966
 30
0.0
 10
327.2123394654791
 20
-352.6163203387966
 30
0.0
 10
328.5554852159871
 20
-353.9594660893045
 30
0.0
 10
328.5554852159871
 20
-355.6163203387968
 30
0.0
  0
SPLINE
  5
8C
330
1F
100
AcDbEntity
  8
Calque 1
 62
     7
370
    50
100
AcDbSpline
210
0.0
220
0.0
230
1.0
 70
    11
 71
     3
 72
    29
 73
    25
 74
     0
 42
0.0000000001
 43
0.0000000001
 12
1.0
 22
0.0
 32
0.0
 13
1.0
 23
0.0
 33
0.0
 40
0.0
 40
0.0
 40
0.0
 40
0.0
 40
1.0
 40
1.0
 40
1.0
 40
2.0
 40
2.0
 40
2.0
 40
3.0
 40
3.0
 40
3.0
 40
4.0
 40
4.0
 40
4.0
 40
5.0
 40
5.0
 40
5.0
 40
6.0
 40
6.0
 40
6.0
 40
7.0
 40
7.0
 40
7.0
 40
8.0
 40
8.0
 40
8.0
 40
8.0
 10
328.5554852159871
 20
-369.0443203387965
 30
0.0
 10
328.5554852159871
 20
-369.0443203387965
 30
0.0
 10
328.5554852159871
 20
-373.0443203387967
 30
0.0
 10
328.5554852159871
 20
-373.0443203387967
 30
0.0
 10
328.5554852159871
 20
-374.7011745882889
 30
0.0
 10
327.2123394654791
 20
-376.0443203387968
 30
0.0
 10
325.5554852159869
 20
-376.0443203387968
 30
0.0
 10
325.5554852159869
 20
-376.0443203387968
 30
0.0
 10
256.5554852159871
 20
-376.0443203387968
 30
0.0
 10
256.5554852159871
 20
-376.0443203387968
 30
0.0
 10
254.8986309664942
 20
-376.0443203387968
 30
0.0
 10
253.555485215987
 20
-374.7011745882889
 30
0.0
 10
253.555485215987
 20
-373.0443203387967
 30
0.0
 10
253.555485215987
 20
-373.0443203387967
 30
0.0
 10
253.555485215987
 20
-369.0443203387965
 30
0.0
 10
253.555485215987
 20
-369.0443203387965
 30
0.0
 10
253.555485215987
 20
-367.3874660893043
 30
0.0
 10
254.8986309664942
 20
-366.0443203387964
 30
0.0
 10
256.5554852159871
 20
-366.0443203387964
 30
0.0
 10
256.5554852159871
 20
-366.0443203387964
 30
0.0
 10
325.5554852159869
 20
-366.0443203387964
 30
0.0
 10
325.5554852159869
 20
-366.0443203387964
 30
0.0
 10
327.2123394654791
 20
-366.0443203387964
 30
0.0
 10
328.5554852159871
 20
-367.3874660893043
 30
0.0
 10
328.5554852159871
 20
-369.0443203387965
 30
0.0
  0
SPLINE
  5
8D
330
1F
100
AcDbEntity
  8
Calque 1
 62
     7
370
    50
100
AcDbSpline
210
0.0
220
0.0
230
1.0
 70
    11
 71
     3
 72
    29
 73
    25
 74
     0
 42
0.0000000001
 43
0.0000000001
 12
1.0
 22
0.0
 32
0.0
 13
1.0
 23
0.0
 33
0.0
 40
0.0
 40
0.0
 40
0.0
 40
0.0
 40
1.0
 40
1.0
 40
1.0
 40
2.0
 40
2.0
 40
2.0
 40
3.0
 40
3.0
 40
3.0
 40
4.0
 40
4.0
 40
4.0
 40
5.0
 40
5.0
 40
5.0
 40
6.0
 40
6.0
 40
6.0
 40
7.0
 40
7.0
 40
7.0
 40
8.0
 40
8.0
 40
8.0
 40
8.0
 10
412.5165963061079
 20
-355.6163203387968
 30
0.0
 10
412.5165963061079
 20
-355.6163203387968
 30
0.0
 10
412.5165963061079
 20
-359.6163203387962
 30
0.0
 10
412.5165963061079
 20
-359.6163203387962
 30
0.0
 10
412.5165963061079
 20
-361.2731745882891
 30
0.0
 10
411.1734505556
 20
-362.6163203387964
 30
0.0
 10
409.5165963061078
 20
-362.6163203387964
 30
0.0
 10
409.5165963061078
 20
-362.6163203387964
 30
0.0
 10
340.5165963061079
 20
-362.6163203387964
 30
0.0
 10
340.5165963061079
 20
-362.6163203387964
 30
0.0
 10
338.8597420566151
 20
-362.6163203387964
 30
0.0
 10
337.5165963061078
 20
-361.2731745882891
 30
0.0
 10
337.5165963061078
 20
-359.6163203387962
 30
0.0
 10
337.5165963061078
 20
-359.6163203387962
 30
0.0
 10
337.5165963061078
 20
-355.6163203387968
 30
0.0
 10
337.5165963061078
 20
-355.6163203387968
 30
0.0
 10
337.5165963061078
 20
-353.9594660893045
 30
0.0
 10
338.8597420566151
 20
-352.6163203387966
 30
0.0
 10
340.5165963061079
 20
-352.6163203387966
 30
0.0
 10
340.5165963061079
 20
-352.6163203387966
 30
0.0
 10
409.5165963061078
 20
-352.6163203387966
 30
0.0
 10
409.5165963061078
 20
-352.6163203387966
 30
0.0
 10
411.1734505556
 20
-352.6163203387966
 30
0.0
 10
412.5165963061079
 20
-353.9594660893045
 30
0.0
 10
412.5165963061079
 20
-355.6163203387968
 30
0.0
  0
SPLINE
  5
8E
330
1F
100
AcDbEntity
  8
Calque 1
 62
     7
370
    50
100
AcDbSpline
210
0.0
220
0.0
230
1.0
 70
    11
 71
     3
 72
    29
 73
    25
 74
     0
 42
0.0000000001
 43
0.0000000001
 12
1.0
 22
0.0
 32
0.0
 13
1.0
 23
0.0
 33
0.0
 40
0.0
 40
0.0
 40
0.0
 40
0.0
 40
1.0
 40
1.0
 40
1.0
 40
2.0
 40
2.0
 40
2.0
 40
3.0
 40
3.0
 40
3.0
 40
4.0
 40
4.0
 40
4.0
 40
5.0
 40
5.0
 40
5.0
 40
6.0
 40
6.0
 40
6.0
 40
7.0
 40
7.0
 40
7.0
 40
8.0
 40
8.0
 40
8.0
 40
8.0
 10
412.5165963061079
 20
-369.0443203387965
 30
0.0
 10
412.5165963061079
 20
-369.0443203387965
 30
0.0
 10
412.5165963061079
 20
-373.0443203387967
 30
0.0
 10
412.5165963061079
 20
-373.0443203387967
 30
0.0
 10
412.5165963061079
 20
-374.7011745882889
 30
0.0
 10
411.1734505556
 20
-376.0443203387968
 30
0.0
 10
409.5165963061078
 20
-376.0443203387968
 30
0.0
 10
409.5165963061078
 20
-376.0443203387968
 30
0.0
 10
340.5165963061079
 20
-376.0443203387968
 30
0.0
 10
340.5165963061079
 20
-376.0443203387968
 30
0.0
 10
338.8597420566151
 20
-376.0443203387968
 30
0.0
 10
337.5165963061078
 20
-374.7011745882889
 30
0.0
 10
337.5165963061078
 20
-373.0443203387967
 30
0.0
 10
337.5165963061078
 20
-373.0443203387967
 30
0.0
 10
337.5165963061078
 20
-369.0443203387965
 30
0.0
 10
337.5165963061078
 20
-369.0443203387965
 30
0.0
 10
337.5165963061078
 20
-367.3874660893043
 30
0.0
 10
338.8597420566151
 20
-366.0443203387964
 30
0.0
 10
340.5165963061079
 20
-366.0443203387964
 30
0.0
 10
340.5165963061079
 20
-366.0443203387964
 30
0.0
 10
409.5165963061078
 20
-366.0443203387964
 30
0.0
 10
409.5165963061078
 20
-366.0443203387964
 30
0.0
 10
411.1734505556
 20
-366.0443203387964
 30
0.0
 10
412.5165963061079
 20
-367.3874660893043
 30
0.0
 10
412.5165963061079
 20
-369.0443203387965
 30
0.0
  0
SPLINE
  5
8F
330
1F
100
AcDbEntity
  8
Calque 1
 62
     7
370
    50
100
AcDbSpline
210
0.0
220
0.0
230
1.0
 70
    11
 71
     3
 72
    20
 73
    16
 74
     0
 42
0.0000000001
 43
0.0000000001
 12
1.0
 22
0.0
 32
0.0
 13
1.0
 23
0.0
 33
0.0
 40
0.0
 40
0.0
 40
0.0
 40
0.0
 40
1.0
 40
1.0
 40
1.0
 40
2.0
 40
2.0
 40
2.0
 40
3.0
 40
3.0
 40
3.0
 40
4.0
 40
4.0
 40
4.0
 40
5.0
 40
5.0
 40
5.0
 40
5.0
 10
521.7265374800567
 20
-273.0194444414461
 30
0.0
 10
521.7265374800567
 20
-271.9148749417849
 30
0.0
 10
520.8311069797185
 20
-271.0194444414461
 30
0.0
 10
519.7265374800567
 20
-271.0194444414461
 30
0.0
 10
518.6219679803953
 20
-271.0194444414461
 30
0.0
 10
517.7265374800565
 20
-271.9148749417849
 30
0.0
 10
517.7265374800565
 20
-273.0194444414461
 30
0.0
 10
517.7265374800565
 20
-274.124013941108
 30
0.0
 10
518.6219679803953
 20
-275.0194444414462
 30
0.0
 10
519.7265374800567
 20
-275.0194444414462
 30
0.0
 10
520.8311069797185
 20
-275.0194444414462
 30
0.0
 10
521.7265374800567
 20
-274.124013941108
 30
0.0
 10
521.7265374800567
 20
-273.0194444414461
 30
0.0
 10
521.7265374800567
 20
-273.0194444414461
 30
0.0
 10
521.7265374800567
 20
-273.0194444414461
 30
0.0
 10
521.7265374800567
 20
-273.0194444414461
 30
0.0
  0
SPLINE
  5
90
330
1F
100
AcDbEntity
  8
Calque 1
 62
     7
370
    50
100
AcDbSpline
210
0.0
220
0.0
230
1.0
 70
    11
 71
     3
 72
    20
 73
    16
 74
     0
 42
0.0000000001
 43
0.0000000001
 12
1.0
 22
0.0
 32
0.0
 13
1.0
 23
0.0
 33
0.0
 40
0.0
 40
0.0
 40
0.0
 40
0.0
 40
1.0
 40
1.0
 40
1.0
 40
2.0
 40
2.0
 40
2.0
 40
3.0
 40
3.0
 40
3.0
 40
4.0
 40
4.0
 40
4.0
 40
5.0
 40
5.0
 40
5.0
 40
5.0
 10
229.6710227084559
 20
-19.81326879748447
 30
0.0
 10
228.6217126870918
 20
-19.8049339544724
 30
0.0
 10
227.7643221196543
 20
-20.64881107137358
 30
0.0
 10
227.755987276642
 20
-21.69812109273774
 30
0.0
 10
227.7476524336299
 20
-22.74743111410158
 30
0.0
 10
228.5915295505311
 20
-23.604821681539
 30
0.0
 10
229.6408395718952
 20
-23.61315652455138
 30
0.0
 10
230.6901495932594
 20
-23.62149136756344
 30
0.0
 10
231.5475401606965
 20
-22.77761425066226
 30
0.0
 10
231.5558750037089
 20
-21.7283042292981
 30
0.0
 10
231.5642098467213
 20
-20.67899420793427
 30
0.0
 10
230.7203327298198
 20
-19.82160364049685
 30
0.0
 10
229.6710227084559
 20
-19.81326879748447
 30
0.0
 10
229.6710227084559
 20
-19.81326879748447
 30
0.0
 10
229.6710227084559
 20
-19.81326879748447
 30
0.0
 10
229.6710227084559
 20
-19.81326879748447
 30
0.0
  0
SPLINE
  5
91
330
1F
100
AcDbEntity
  8
Calque 1
 62
     7
370
    50
100
AcDbSpline
210
0.0
220
0.0
230
1.0
 70
    11
 71
     3
 72
    20
 73
    16
 74
     0
 42
0.0000000001
 43
0.0000000001
 12
1.0
 22
0.0
 32
0.0
 13
1.0
 23
0.0
 33
0.0
 40
0.0
 40
0.0
 40
0.0
 40
0.0
 40
1.0
 40
1.0
 40
1.0
 40
2.0
 40
2.0
 40
2.0
 40
3.0
 40
3.0
 40
3.0
 40
4.0
 40
4.0
 40
4.0
 40
5.0
 40
5.0
 40
5.0
 40
5.0
 10
153.5732711216392
 20
-19.20881177320574
 30
0.0
 10
152.5239611002751
 20
-19.20047693019336
 30
0.0
 10
151.6665705328377
 20
-20.04435404709454
 30
0.0
 10
151.6582356898256
 20
-21.0936640684587
 30
0.0
 10
151.6499008468132
 20
-22.14297408982285
 30
0.0
 10
152.4937779637144
 20
-23.00036465726027
 30
0.0
 10
153.5430879850786
 20
-23.00869950027234
 30
0.0
 10
154.5923980064427
 20
-23.01703434328472
 30
0.0
 10
155.4497885738801
 20
-22.17315722638354
 30
0.0
 10
155.4581234168922
 20
-21.12384720501938
 30
0.0
 10
155.4664582599046
 20
-20.07453718365522
 30
0.0
 10
154.6225811430034
 20
-19.2171466162178
 30
0.0
 10
153.5732711216392
 20
-19.20881177320574
 30
0.0
 10
153.5732711216392
 20
-19.20881177320574
 30
0.0
 10
153.5732711216392
 20
-19.20881177320574
 30
0.0
 10
153.5732711216392
 20
-19.20881177320574
 30
0.0
  0
SPLINE
  5
92
330
1F
100
AcDbEntity
  8
Calque 1
 62
     7
370
    50
100
AcDbSpline
210
0.0
220
0.0
230
1.0
 70
    11
 71
     3
 72
    20
 73
    16
 74
     0
 42
0.0000000001
 43
0.0000000001
 12
1.0
 22
0.0
 32
0.0
 13
1.0
 23
0.0
 33
0.0
 40
0.0
 40
0.0
 40
0.0
 40
0.0
 40
1.0
 40
1.0
 40
1.0
 40
2.0
 40
2.0
 40
2.0
 40
3.0
 40
3.0
 40
3.0
 40
4.0
 40
4.0
 40
4.0
 40
5.0
 40
5.0
 40
5.0
 40
5.0
 10
228.5971384813509
 20
-155.0092742447595
 30
0.0
 10
227.5478284599871
 20
-155.0009394017474
 30
0.0
 10
226.6904378925497
 20
-155.8448165186486
 30
0.0
 10
226.6821030495373
 20
-156.8941265400128
 30
0.0
 10
226.6737682065252
 20
-157.9434365613766
 30
0.0
 10
227.5176453234264
 20
-158.800827128814
 30
0.0
 10
228.5669553447905
 20
-158.8091619718264
 30
0.0
 10
229.6162653661547
 20
-158.8174968148385
 30
0.0
 10
230.4736559335918
 20
-157.9736196979373
 30
0.0
 10
230.4819907766042
 20
-156.9243096765731
 30
0.0
 10
230.4903256196166
 20
-155.8749996552093
 30
0.0
 10
229.6464485027151
 20
-155.0176090877719
 30
0.0
 10
228.5971384813509
 20
-155.0092742447595
 30
0.0
 10
228.5971384813509
 20
-155.0092742447595
 30
0.0
 10
228.5971384813509
 20
-155.0092742447595
 30
0.0
 10
228.5971384813509
 20
-155.0092742447595
 30
0.0
  0
SPLINE
  5
93
330
1F
100
AcDbEntity
  8
Calque 1
 62
     7
370
    50
100
AcDbSpline
210
0.0
220
0.0
230
1.0
 70
    11
 71
     3
 72
    20
 73
    16
 74
     0
 42
0.0000000001
 43
0.0000000001
 12
1.0
 22
0.0
 32
0.0
 13
1.0
 23
0.0
 33
0.0
 40
0.0
 40
0.0
 40
0.0
 40
0.0
 40
1.0
 40
1.0
 40
1.0
 40
2.0
 40
2.0
 40
2.0
 40
3.0
 40
3.0
 40
3.0
 40
4.0
 40
4.0
 40
4.0
 40
5.0
 40
5.0
 40
5.0
 40
5.0
 10
152.4993868945345
 20
-154.4048172204808
 30
0.0
 10
151.4500768731704
 20
-154.3964823774684
 30
0.0
 10
150.5926863057329
 20
-155.2403594943696
 30
0.0
 10
150.5843514627209
 20
-156.2896695157337
 30
0.0
 10
150.5760166197085
 20
-157.3389795370979
 30
0.0
 10
151.4198937366097
 20
-158.1963701045353
 30
0.0
 10
152.4692037579738
 20
-158.2047049475474
 30
0.0
 10
153.518513779338
 20
-158.2130397905597
 30
0.0
 10
154.3759043467754
 20
-157.3691626736586
 30
0.0
 10
154.3842391897875
 20
-156.3198526522944
 30
0.0
 10
154.3925740327999
 20
-155.2705426309303
 30
0.0
 10
153.5486969158987
 20
-154.4131520634928
 30
0.0
 10
152.4993868945345
 20
-154.4048172204808
 30
0.0
 10
152.4993868945345
 20
-154.4048172204808
 30
0.0
 10
152.4993868945345
 20
-154.4048172204808
 30
0.0
 10
152.4993868945345
 20
-154.4048172204808
 30
0.0
  0
POLYLINE
  5
94
330
1F
100
AcDbEntity
  8
Calque 1
 62
     7
370
    50
100
AcDb2dPolyline
 66
     1
 10
0.0
 20
0.0
 30
0.0
  0
VERTEX
  5
95
330
94
100
AcDbEntity
  8
Calque 1
 62
     7
370
    50
100
AcDbVertex
100
AcDb2dVertex
 10
112.0229166655419
 20
-12.0805555537916
 30
0.0
  0
VERTEX
  5
96
330
94
100
AcDbEntity
  8
Calque 1
 62
     7
370
    50
100
AcDbVertex
100
AcDb2dVertex
 10
59.52291666554164
 20
-12.0805555537916
 30
0.0
  0
VERTEX
  5
97
330
94
100
AcDbEntity
  8
Calque 1
 62
     7
370
    50
100
AcDbVertex
100
AcDb2dVertex
 10
59.52291666554164
 20
-7.080555553791748
 30
0.0
  0
VERTEX
  5
98
330
94
100
AcDbEntity
  8
Calque 1
 62
     7
370
    50
100
AcDbVertex
100
AcDb2dVertex
 10
34.52291666554172
 20
-7.080555553791748
 30
0.0
  0
VERTEX
  5
99
330
94
100
AcDbEntity
  8
Calque 1
 62
     7
370
    50
100
AcDbVertex
100
AcDb2dVertex
 10
34.52291666554172
 20
-12.0805555537916
 30
0.0
  0
VERTEX
  5
9A
330
94
100
AcDbEntity
  8
Calque 1
 62
     7
370
    50
100
AcDbVertex
100
AcDb2dVertex
 10
9.522916665541803
 20
-12.0805555537916
 30
0.0
  0
VERTEX
  5
9B
330
94
100
AcDbEntity
  8
Calque 1
 62
     7
370
    50
100
AcDbVertex
100
AcDb2dVertex
 10
9.522916665541803
 20
-32.08055555379167
 30
0.0
  0
VERTEX
  5
9C
330
94
100
AcDbEntity
  8
Calque 1
 62
     7
370
    50
100
AcDbVertex
100
AcDb2dVertex
 10
4.522916665542269
 20
-32.08055555379167
 30
0.0
  0
VERTEX
  5
9D
330
94
100
AcDbEntity
  8
Calque 1
 62
     7
370
    50
100
AcDbVertex
100
AcDb2dVertex
 10
4.522916665542269
 20
-112.0805555537916
 30
0.0
  0
VERTEX
  5
9E
330
94
100
AcDbEntity
  8
Calque 1
 62
     7
370
    50
100
AcDbVertex
100
AcDb2dVertex
 10
9.522916665541803
 20
-112.0805555537916
 30
0.0
  0
VERTEX
  5
9F
330
94
100
AcDbEntity
  8
Calque 1
 62
     7
370
    50
100
AcDbVertex
100
AcDb2dVertex
 10
9.522916665541803
 20
-136.9230555537916
 30
0.0
  0
VERTEX
  5
A0
330
94
100
AcDbEntity
  8
Calque 1
 62
     7
370
    50
100
AcDbVertex
100
AcDb2dVertex
 10
4.522916665542269
 20
-136.9230555537916
 30
0.0
  0
VERTEX
  5
A1
330
94
100
AcDbEntity
  8
Calque 1
 62
     7
370
    50
100
AcDbVertex
100
AcDb2dVertex
 10
4.522916665542269
 20
-217.0805555537915
 30
0.0
  0
VERTEX
  5
A2
330
94
100
AcDbEntity
  8
Calque 1
 62
     7
370
    50
100
AcDbVertex
100
AcDb2dVertex
 10
9.522916665541803
 20
-217.0805555537915
 30
0.0
  0
VERTEX
  5
A3
330
94
100
AcDbEntity
  8
Calque 1
 62
     7
370
    50
100
AcDbVertex
100
AcDb2dVertex
 10
9.522916665541803
 20
-241.9230555537915
 30
0.0
  0
VERTEX
  5
A4
330
94
100
AcDbEntity
  8
Calque 1
 62
     7
370
    50
100
AcDbVertex
100
AcDb2dVertex
 10
4.522916665542269
 20
-241.9230555537915
 30
0.0
  0
VERTEX
  5
A5
330
94
100
AcDbEntity
  8
Calque 1
 62
     7
370
    50
100
AcDbVertex
100
AcDb2dVertex
 10
4.522916665542269
 20
-322.0805555537913
 30
0.0
  0
VERTEX
  5
A6
330
94
100
AcDbEntity
  8
Calque 1
 62
     7
370
    50
100
AcDbVertex
100
AcDb2dVertex
 10
9.522916665541803
 20
-322.0805555537913
 30
0.0
  0
VERTEX
  5
A7
330
94
100
AcDbEntity
  8
Calque 1
 62
     7
370
    50
100
AcDbVertex
100
AcDb2dVertex
 10
9.522916665541803
 20
-342.0805555537914
 30
0.0
  0
VERTEX
  5
A8
330
94
100
AcDbEntity
  8
Calque 1
 62
     7
370
    50
100
AcDbVertex
100
AcDb2dVertex
 10
34.52291666554172
 20
-342.0805555537914
 30
0.0
  0
VERTEX
  5
A9
330
94
100
AcDbEntity
  8
Calque 1
 62
     7
370
    50
100
AcDbVertex
100
AcDb2dVertex
 10
34.52291666554172
 20
-347.0805555537916
 30
0.0
  0
VERTEX
  5
AA
330
94
100
AcDbEntity
  8
Calque 1
 62
     7
370
    50
100
AcDbVertex
100
AcDb2dVertex
 10
59.52291666554164
 20
-347.0805555537916
 30
0.0
  0
VERTEX
  5
AB
330
94
100
AcDbEntity
  8
Calque 1
 62
     7
370
    50
100
AcDbVertex
100
AcDb2dVertex
 10
59.52291666554164
 20
-342.0805555537914
 30
0.0
  0
VERTEX
  5
AC
330
94
100
AcDbEntity
  8
Calque 1
 62
     7
370
    50
100
AcDbVertex
100
AcDb2dVertex
 10
112.0229166655422
 20
-342.0805555537914
 30
0.0
  0
VERTEX
  5
AD
330
94
100
AcDbEntity
  8
Calque 1
 62
     7
370
    50
100
AcDbVertex
100
AcDb2dVertex
 10
112.0229166655422
 20
-347.0805555537916
 30
0.0
  0
VERTEX
  5
AE
330
94
100
AcDbEntity
  8
Calque 1
 62
     7
370
    50
100
AcDbVertex
100
AcDb2dVertex
 10
137.0229166655421
 20
-347.0805555537916
 30
0.0
  0
VERTEX
  5
AF
330
94
100
AcDbEntity
  8
Calque 1
 62
     7
370
    50
100
AcDbVertex
100
AcDb2dVertex
 10
137.0229166655421
 20
-342.0805555537914
 30
0.0
  0
VERTEX
  5
B0
330
94
100
AcDbEntity
  8
Calque 1
 62
     7
370
    50
100
AcDbVertex
100
AcDb2dVertex
 10
189.5229166655424
 20
-342.0805555537914
 30
0.0
  0
VERTEX
  5
B1
330
94
100
AcDbEntity
  8
Calque 1
 62
     7
370
    50
100
AcDbVertex
100
AcDb2dVertex
 10
189.5229166655424
 20
-347.0805555537916
 30
0.0
  0
VERTEX
  5
B2
330
94
100
AcDbEntity
  8
Calque 1
 62
     7
370
    50
100
AcDbVertex
100
AcDb2dVertex
 10
214.5229166655426
 20
-347.0805555537916
 30
0.0
  0
VERTEX
  5
B3
330
94
100
AcDbEntity
  8
Calque 1
 62
     7
370
    50
100
AcDbVertex
100
AcDb2dVertex
 10
214.5229166655426
 20
-342.0805555537914
 30
0.0
  0
VERTEX
  5
B4
330
94
100
AcDbEntity
  8
Calque 1
 62
     7
370
    50
100
AcDbVertex
100
AcDb2dVertex
 10
234.5229166655424
 20
-342.0805555537914
 30
0.0
  0
VERTEX
  5
B5
330
94
100
AcDbEntity
  8
Calque 1
 62
     7
370
    50
100
AcDbVertex
100
AcDb2dVertex
 10
234.5229166655424
 20
-322.0805555537913
 30
0.0
  0
VERTEX
  5
B6
330
94
100
AcDbEntity
  8
Calque 1
 62
     7
370
    50
100
AcDbVertex
100
AcDb2dVertex
 10
239.5229166655422
 20
-322.0805555537913
 30
0.0
  0
VERTEX
  5
B7
330
94
100
AcDbEntity
  8
Calque 1
 62
     7
370
    50
100
AcDbVertex
100
AcDb2dVertex
 10
239.5229166655422
 20
-241.9230555537915
 30
0.0
  0
VERTEX
  5
B8
330
94
100
AcDbEntity
  8
Calque 1
 62
     7
370
    50
100
AcDbVertex
100
AcDb2dVertex
 10
234.5229166655424
 20
-241.9230555537915
 30
0.0
  0
VERTEX
  5
B9
330
94
100
AcDbEntity
  8
Calque 1
 62
     7
370
    50
100
AcDbVertex
100
AcDb2dVertex
 10
234.5229166655424
 20
-217.0805555537915
 30
0.0
  0
VERTEX
  5
BA
330
94
100
AcDbEntity
  8
Calque 1
 62
     7
370
    50
100
AcDbVertex
100
AcDb2dVertex
 10
239.5229166655422
 20
-217.0805555537915
 30
0.0
  0
VERTEX
  5
BB
330
94
100
AcDbEntity
  8
Calque 1
 62
     7
370
    50
100
AcDbVertex
100
AcDb2dVertex
 10
239.5229166655422
 20
-137.0805555537915
 30
0.0
  0
VERTEX
  5
BC
330
94
100
AcDbEntity
  8
Calque 1
 62
     7
370
    50
100
AcDbVertex
100
AcDb2dVertex
 10
234.5229166655424
 20
-137.0805555537915
 30
0.0
  0
VERTEX
  5
BD
330
94
100
AcDbEntity
  8
Calque 1
 62
     7
370
    50
100
AcDbVertex
100
AcDb2dVertex
 10
234.5229166655424
 20
-112.0805555537913
 30
0.0
  0
VERTEX
  5
BE
330
94
100
AcDbEntity
  8
Calque 1
 62
     7
370
    50
100
AcDbVertex
100
AcDb2dVertex
 10
239.5229166655422
 20
-112.0805555537913
 30
0.0
  0
VERTEX
  5
BF
330
94
100
AcDbEntity
  8
Calque 1
 62
     7
370
    50
100
AcDbVertex
100
AcDb2dVertex
 10
239.5229166655422
 20
-32.08055555379167
 30
0.0
  0
VERTEX
  5
C0
330
94
100
AcDbEntity
  8
Calque 1
 62
     7
370
    50
100
AcDbVertex
100
AcDb2dVertex
 10
234.5229166655424
 20
-32.08055555379167
 30
0.0
  0
VERTEX
  5
C1
330
94
100
AcDbEntity
  8
Calque 1
 62
     7
370
    50
100
AcDbVertex
100
AcDb2dVertex
 10
234.5229166655424
 20
-12.0805555537916
 30
0.0
  0
VERTEX
  5
C2
330
94
100
AcDbEntity
  8
Calque 1
 62
     7
370
    50
100
AcDbVertex
100
AcDb2dVertex
 10
214.5229166655426
 20
-12.0805555537916
 30
0.0
  0
VERTEX
  5
C3
330
94
100
AcDbEntity
  8
Calque 1
 62
     7
370
    50
100
AcDbVertex
100
AcDb2dVertex
 10
214.5229166655426
 20
-7.080555553791748
 30
0.0
  0
VERTEX
  5
C4
330
94
100
AcDbEntity
  8
Calque 1
 62
     7
370
    50
100
AcDbVertex
100
AcDb2dVertex
 10
189.5229166655424
 20
-7.080555553791748
 30
0.0
  0
VERTEX
  5
C5
330
94
100
AcDbEntity
  8
Calque 1
 62
     7
370
    50
100
AcDbVertex
100
AcDb2dVertex
 10
189.5229166655424
 20
-12.0805555537916
 30
0.0
  0
VERTEX
  5
C6
330
94
100
AcDbEntity
  8
Calque 1
 62
     7
370
    50
100
AcDbVertex
100
AcDb2dVertex
 10
137.0229166655421
 20
-12.0805555537916
 30
0.0
  0
VERTEX
  5
C7
330
94
100
AcDbEntity
  8
Calque 1
 62
     7
370
    50
100
AcDbVertex
100
AcDb2dVertex
 10
137.0229166655421
 20
-7.080555553791748
 30
0.0
  0
VERTEX
  5
C8
330
94
100
AcDbEntity
  8
Calque 1
 62
     7
370
    50
100
AcDbVertex
100
AcDb2dVertex
 10
112.0229166655419
 20
-7.080555553791748
 30
0.0
  0
VERTEX
  5
C9
330
94
100
AcDbEntity
  8
Calque 1
 62
     7
370
    50
100
AcDbVertex
100
AcDb2dVertex
 10
112.0229166655419
 20
-12.0805555537916
 30
0.0
  0
SEQEND
  5
CA
330
94
100
AcDbEntity
  8
Calque 1
 62
     7
370
    50
  0
SPLINE
  5
CB
330
1F
100
AcDbEntity
  8
Calque 1
 62
     7
370
    35
100
AcDbSpline
210
0.0
220
0.0
230
1.0
 70
    11
 71
     3
 72
    29
 73
    25
 74
     0
 42
0.0000000001
 43
0.0000000001
 12
1.0
 22
0.0
 32
0.0
 13
1.0
 23
0.0
 33
0.0
 40
0.0
 40
0.0
 40
0.0
 40
0.0
 40
1.0
 40
1.0
 40
1.0
 40
2.0
 40
2.0
 40
2.0
 40
3.0
 40
3.0
 40
3.0
 40
4.0
 40
4.0
 40
4.0
 40
5.0
 40
5.0
 40
5.0
 40
6.0
 40
6.0
 40
6.0
 40
7.0
 40
7.0
 40
7.0
 40
8.0
 40
8.0
 40
8.0
 40
8.0
 10
483.0023319290599
 20
-277.7731672680938
 30
0.0
 10
483.0023319290599
 20
-282.906737045624
 30
0.0
 10
478.8407513708472
 20
-287.0683176038386
 30
0.0
 10
473.707181593315
 20
-287.0683176038386
 30
0.0
 10
473.707181593315
 20
-287.0683176038386
 30
0.0
 10
366.7070912978091
 20
-287.0683176038386
 30
0.0
 10
366.7070912978091
 20
-287.0683176038386
 30
0.0
 10
361.5735215202794
 20
-287.0683176038386
 30
0.0
 10
357.4119409620642
 20
-282.906737045624
 30
0.0
 10
357.4119409620642
 20
-277.7731672680938
 30
0.0
 10
357.4119409620642
 20
-277.7731672680938
 30
0.0
 10
357.4119409620642
 20
-267.5071901194904
 30
0.0
 10
357.4119409620642
 20
-267.5071901194904
 30
0.0
 10
357.4119409620642
 20
-262.3736203419607
 30
0.0
 10
361.5735215202794
 20
-258.2120397837461
 30
0.0
 10
366.7070912978091
 20
-258.2120397837461
 30
0.0
 10
366.7070912978091
 20
-258.2120397837461
 30
0.0
 10
473.707181593315
 20
-258.2120397837461
 30
0.0
 10
473.707181593315
 20
-258.2120397837461
 30
0.0
 10
478.8407513708472
 20
-258.2120397837461
 30
0.0
 10
483.0023319290599
 20
-262.3736203419607
 30
0.0
 10
483.0023319290599
 20
-267.5071901194904
 30
0.0
 10
483.0023319290599
 20
-267.5071901194904
 30
0.0
 10
483.0023319290599
 20
-277.7731672680938
 30
0.0
 10
483.0023319290599
 20
-277.7731672680938
 30
0.0
  0
HATCH
  5
CC
330
1F
100
AcDbEntity
  8
Calque 1
 62
     7
100
AcDbHatch
 10
0.0
 20
0.0
 30
0.0
210
0.0
220
0.0
230
1.0
  2
SOLID
 70
     1
 71
     0
 91
        1
 92
        1
 93
        1
 72
     4
 94
        3
 73
     0
 74
     1
 95
       29
 96
       25
 40
0.0
 40
0.0
 40
0.0
 40
0.0
 40
1.0
 40
1.0
 40
1.0
 40
2.0
 40
2.0
 40
2.0
 40
3.0
 40
3.0
 40
3.0
 40
4.0
 40
4.0
 40
4.0
 40
5.0
 40
5.0
 40
5.0
 40
6.0
 40
6.0
 40
6.0
 40
7.0
 40
7.0
 40
7.0
 40
8.0
 40
8.0
 40
8.0
 40
8.0
 10
483.0023319290599
 20
-277.7731672680938
 10
483.0023319290599
 20
-282.906737045624
 10
478.8407513708472
 20
-287.0683176038386
 10
473.707181593315
 20
-287.0683176038386
 10
473.707181593315
 20
-287.0683176038386
 10
366.7070912978091
 20
-287.0683176038386
 10
366.7070912978091
 20
-287.0683176038386
 10
361.5735215202794
 20
-287.0683176038386
 10
357.4119409620642
 20
-282.906737045624
 10
357.4119409620642
 20
-277.7731672680938
 10
357.4119409620642
 20
-277.7731672680938
 10
357.4119409620642
 20
-267.5071901194904
 10
357.4119409620642
 20
-267.5071901194904
 10
357.4119409620642
 20
-262.3736203419607
 10
361.5735215202794
 20
-258.2120397837461
 10
366.7070912978091
 20
-258.2120397837461
 10
366.7070912978091
 20
-258.2120397837461
 10
473.707181593315
 20
-258.2120397837461
 10
473.707181593315
 20
-258.2120397837461
 10
478.8407513708472
 20
-258.2120397837461
 10
483.0023319290599
 20
-262.3736203419607
 10
483.0023319290599
 20
-267.5071901194904
 10
483.0023319290599
 20
-267.5071901194904
 10
483.0023319290599
 20
-277.7731672680938
 10
483.0023319290599
 20
-277.7731672680938
 97
        0
 97
        0
 75
     2
 76
     1
 98
        0
  0
INSERT
  5
CE
330
1F
100
AcDbEntity
  8
Calque 1
100
AcDbBlockReference
  2
block 2
 10
0.0
 20
0.0
 30
0.0
  0
ENDSEC
  0
SECTION
  2
OBJECTS
  0
DICTIONARY
  5
C
330
0
100
AcDbDictionary
281
     1
  3
ACAD_GROUP
350
D
  3
ACAD_LAYOUT
350
1A
  3
ACAD_MATERIAL
350
3B
  3
ACAD_MLEADERSTYLE
350
10F
  3
ACAD_MLINESTYLE
350
17
  3
ACAD_PLOTSETTINGS
350
19
  3
ACAD_PLOTSTYLENAME
350
E
  3
ACAD_TABLESTYLE
350
10E
  3
ACAD_VISUALSTYLE
350
2A
  0
SUN
  5
3F
330
29
100
AcDbSun
 90
        1
290
     0
 63
     7
421
 16777215
 40
1.0
291
     1
 91
  2455826
 92
 54000000
292
     0
 70
     2
 71
   256
280
     1
  0
DICTIONARY
  5
D
102
{ACAD_REACTORS
330
C
102
}
330
C
100
AcDbDictionary
281
     1
  0
DICTIONARY
  5
1A
102
{ACAD_REACTORS
330
C
102
}
330
C
100
AcDbDictionary
281
     1
  3
Layout1
350
1E
  3
Layout2
350
26
  3
Model
350
22
  0
DICTIONARY
  5
3B
102
{ACAD_REACTORS
330
C
102
}
330
C
100
AcDbDictionary
281
     1
  3
ByBlock
350
3D
  3
ByLayer
350
3C
  3
Global
350
3E
  0
DICTIONARY
  5
10F
102
{ACAD_REACTORS
330
C
102
}
330
C
100
AcDbDictionary
281
     1
  0
DICTIONARY
  5
17
102
{ACAD_REACTORS
330
C
102
}
330
C
100
AcDbDictionary
281
     1
  3
Standard
350
18
  0
DICTIONARY
  5
19
102
{ACAD_REACTORS
330
C
102
}
330
C
100
AcDbDictionary
281
     1
  0
ACDBDICTIONARYWDFLT
  5
E
102
{ACAD_REACTORS
330
C
102
}
330
C
100
AcDbDictionary
281
     1
  3
Normal
350
F
100
AcDbDictionaryWithDefault
340
F
  0
DICTIONARY
  5
10E
102
{ACAD_REACTORS
330
C
102
}
330
C
100
AcDbDictionary
281
     1
  0
DICTIONARY
  5
2A
102
{ACAD_REACTORS
330
C
102
}
330
C
100
AcDbDictionary
281
     1
  3
2dWireframe
350
2F
  3
3D Hidden
350
31
  3
3dWireframe
350
30
  3
Basic
350
32
  3
Brighten
350
36
  3
ColorChange
350
3A
  3
Conceptual
350
34
  3
Dim
350
35
  3
Facepattern
350
39
  3
Flat
350
2B
  3
FlatWithEdges
350
2C
  3
Gouraud
350
2D
  3
GouraudWithEdges
350
2E
  3
Linepattern
350
38
  3
Realistic
350
33
  3
Thicken
350
37
  0
LAYOUT
  5
1E
102
{ACAD_REACTORS
330
1A
102
}
330
1A
100
AcDbPlotSettings
  1

  2
none_device
  4

  6

 40
0.0
 41
0.0
 42
0.0
 43
0.0
 44
0.0
 45
0.0
 46
0.0
 47
0.0
 48
0.0
 49
0.0
140
0.0
141
0.0
142
1.0
143
1.0
 70
   688
 72
     0
 73
     0
 74
     5
  7

 75
    16
 76
     0
 77
     2
 78
   300
147
1.0
148
0.0
149
0.0
100
AcDbLayout
  1
Layout1
 70
     1
 71
     1
 10
0.0
 20
0.0
 11
12.0
 21
9.0
 12
0.0
 22
0.0
 32
0.0
 14
1.000000000000000E+20
 24
1.000000000000000E+20
 34
1.000000000000000E+20
 15
-1.000000000000000E+20
 25
-1.000000000000000E+20
 35
-1.000000000000000E+20
146
0.0
 13
0.0
 23
0.0
 33
0.0
 16
1.0
 26
0.0
 36
0.0
 17
0.0
 27
1.0
 37
0.0
 76
     0
330
1B
  0
LAYOUT
  5
26
102
{ACAD_REACTORS
330
1A
102
}
330
1A
100
AcDbPlotSettings
  1

  2
none_device
  4

  6

 40
0.0
 41
0.0
 42
0.0
 43
0.0
 44
0.0
 45
0.0
 46
0.0
 47
0.0
 48
0.0
 49
0.0
140
0.0
141
0.0
142
1.0
143
1.0
 70
   688
 72
     0
 73
     0
 74
     5
  7

 75
    16
 76
     0
 77
     2
 78
   300
147
1.0
148
0.0
149
0.0
100
AcDbLayout
  1
Layout2
 70
     1
 71
     2
 10
0.0
 20
0.0
 11
0.0
 21
0.0
 12
0.0
 22
0.0
 32
0.0
 14
0.0
 24
0.0
 34
0.0
 15
0.0
 25
0.0
 35
0.0
146
0.0
 13
0.0
 23
0.0
 33
0.0
 16
1.0
 26
0.0
 36
0.0
 17
0.0
 27
1.0
 37
0.0
 76
     0
330
23
  0
LAYOUT
  5
22
102
{ACAD_REACTORS
330
1A
102
}
330
1A
100
AcDbPlotSettings
  1

  2
none_device
  4

  6

 40
0.0
 41
0.0
 42
0.0
 43
0.0
 44
0.0
 45
0.0
 46
0.0
 47
0.0
 48
0.0
 49
0.0
140
0.0
141
0.0
142
1.0
143
1.0
 70
  1712
 72
     0
 73
     0
 74
     0
  7

 75
     0
 76
     0
 77
     2
 78
   300
147
1.0
148
0.0
149
0.0
100
AcDbLayout
  1
Model
 70
     1
 71
     0
 10
0.0
 20
0.0
 11
12.0
 21
9.0
 12
0.0
 22
0.0
 32
0.0
 14
1.000000000000000E+20
 24
1.000000000000000E+20
 34
1.000000000000000E+20
 15
-1.000000000000000E+20
 25
-1.000000000000000E+20
 35
-1.000000000000000E+20
146
0.0
 13
0.0
 23
0.0
 33
0.0
 16
1.0
 26
0.0
 36
0.0
 17
0.0
 27
1.0
 37
0.0
 76
     0
330
1F
331
29
  0
MATERIAL
  5
3D
102
{ACAD_REACTORS
330
3B
102
}
330
3B
100
AcDbMaterial
  1
ByBlock
 72
     1
 94
      127
  0
MATERIAL
  5
3C
102
{ACAD_REACTORS
330
3B
102
}
330
3B
100
AcDbMaterial
  1
ByLayer
 72
     1
 94
      127
  0
MATERIAL
  5
3E
102
{ACAD_REACTORS
330
3B
102
}
330
3B
100
AcDbMaterial
  1
Global
 72
     1
 94
      127
  0
MLINESTYLE
  5
18
102
{ACAD_REACTORS
330
17
102
}
330
17
100
AcDbMlineStyle
  2
Standard
 70
     0
  3

 62
   256
 51
90.0
 52
90.0
 71
     2
 49
0.5
 62
   256
  6
BYLAYER
 49
-0.5
 62
   256
  6
BYLAYER
  0
ACDBPLACEHOLDER
  5
F
102
{ACAD_REACTORS
330
E
102
}
330
E
  0
VISUALSTYLE
  5
2F
102
{ACAD_REACTORS
330
2A
102
}
330
2A
100
AcDbVisualStyle
  2
2dWireframe
 70
     4
177
     2
291
     0
 71
     0
176
     1
 72
     2
176
     1
 73
     0
176
     1
 90
        0
176
     1
 40
-0.6
176
     1
 41
-30.0
176
     1
 62
     5
 63
     7
421
 16777215
176
     1
 74
     1
176
     1
 91
        4
176
     1
 64
     7
176
     1
 65
   257
176
     1
 75
     1
176
     1
175
     1
176
     1
 42
1.0
176
     1
 92
        0
176
     1
 66
   257
176
     1
 43
1.0
176
     1
 76
     1
176
     1
 77
     6
176
     1
 78
     2
176
     1
 67
     7
176
     1
 79
     5
176
     1
170
     0
176
     1
171
     0
176
     1
290
     0
176
     1
 93
        1
176
     1
 44
0.0
176
     1
173
     0
176
     1
  0
VISUALSTYLE
  5
31
102
{ACAD_REACTORS
330
2A
102
}
330
2A
100
AcDbVisualStyle
  2
3D Hidden
 70
     6
177
     2
291
     0
 71
     1
176
     1
 72
     2
176
     1
 73
     2
176
     1
 90
        0
176
     1
 40
-0.6
176
     1
 41
-30.0
176
     1
 62
     5
 63
     7
421
 16777215
176
     1
 74
     2
176
     1
 91
        2
176
     1
 64
     7
176
     1
 65
   257
176
     1
 75
     2
176
     1
175
     1
176
     1
 42
40.0
176
     1
 92
        0
176
     1
 66
   257
176
     1
 43
1.0
176
     1
 76
     1
176
     1
 77
     6
176
     1
 78
     2
176
     1
 67
     7
176
     1
 79
     3
176
     1
170
     0
176
     1
171
     0
176
     1
290
     0
176
     1
 93
        1
176
     1
 44
0.0
176
     1
173
     0
176
     1
  0
VISUALSTYLE
  5
30
102
{ACAD_REACTORS
330
2A
102
}
330
2A
100
AcDbVisualStyle
  2
3dWireframe
 70
     5
177
     2
291
     0
 71
     0
176
     1
 72
     2
176
     1
 73
     0
176
     1
 90
        0
176
     1
 40
-0.6
176
     1
 41
-30.0
176
     1
 62
     5
 63
     7
421
 16777215
176
     1
 74
     1
176
     1
 91
        4
176
     1
 64
     7
176
     1
 65
   257
176
     1
 75
     1
176
     1
175
     1
176
     1
 42
1.0
176
     1
 92
        0
176
     1
 66
   257
176
     1
 43
1.0
176
     1
 76
     1
176
     1
 77
     6
176
     1
 78
     2
176
     1
 67
     7
176
     1
 79
     5
176
     1
170
     0
176
     1
171
     0
176
     1
290
     0
176
     1
 93
        1
176
     1
 44
0.0
176
     1
173
     0
176
     1
  0
VISUALSTYLE
  5
32
102
{ACAD_REACTORS
330
2A
102
}
330
2A
100
AcDbVisualStyle
  2
Basic
 70
     7
177
     2
291
     1
 71
     1
176
     1
 72
     0
176
     1
 73
     1
176
     1
 90
        0
176
     1
 40
-0.6
176
     1
 41
-30.0
176
     1
 62
     5
 63
     7
421
 16777215
176
     1
 74
     0
176
     1
 91
        4
176
     1
 64
     7
176
     1
 65
   257
176
     1
 75
     1
176
     1
175
     1
176
     1
 42
1.0
176
     1
 92
        8
176
     1
 66
     7
176
     1
 43
1.0
176
     1
 76
     1
176
     1
 77
     6
176
     1
 78
     2
176
     1
 67
     7
176
     1
 79
     5
176
     1
170
     0
176
     1
171
     0
176
     1
290
     0
176
     1
 93
        1
176
     1
 44
0.0
176
     1
173
     0
176
     1
  0
VISUALSTYLE
  5
36
102
{ACAD_REACTORS
330
2A
102
}
330
2A
100
AcDbVisualStyle
  2
Brighten
 70
    12
177
     2
291
     1
 71
     2
176
     1
 72
     2
176
     1
 73
     0
176
     1
 90
        0
176
     1
 40
-0.6
176
     1
 41
-30.0
176
     1
 62
     5
 63
     7
421
 16777215
176
     1
 74
     1
176
     1
 91
        4
176
     1
 64
     7
176
     1
 65
   257
176
     1
 75
     1
176
     1
175
     1
176
     1
 42
1.0
176
     1
 92
        8
176
     1
 66
     7
176
     1
 43
1.0
176
     1
 76
     1
176
     1
 77
     6
176
     1
 78
     2
176
     1
 67
     7
176
     1
 79
     5
176
     1
170
     0
176
     1
171
     0
176
     1
290
     0
176
     1
 93
        1
176
     1
 44
50.0
176
     1
173
     0
176
     1
  0
VISUALSTYLE
  5
3A
102
{ACAD_REACTORS
330
2A
102
}
330
2A
100
AcDbVisualStyle
  2
ColorChange
 70
    16
177
     2
291
     1
 71
     2
176
     1
 72
     2
176
     1
 73
     3
176
     1
 90
        0
176
     1
 40
-0.6
176
     1
 41
-30.0
176
     1
 62
     5
 63
     8
421
  8421504
176
     1
 74
     1
176
     1
 91
        4
176
     1
 64
     7
176
     1
 65
   257
176
     1
 75
     1
176
     1
175
     1
176
     1
 42
1.0
176
     1
 92
        8
176
     1
 66
     8
424
  8421504
176
     1
 43
1.0
176
     1
 76
     1
176
     1
 77
     6
176
     1
 78
     2
176
     1
 67
     7
176
     1
 79
     5
176
     1
170
     0
176
     1
171
     0
176
     1
290
     0
176
     1
 93
        1
176
     1
 44
0.0
176
     1
173
     0
176
     1
  0
VISUALSTYLE
  5
34
102
{ACAD_REACTORS
330
2A
102
}
330
2A
100
AcDbVisualStyle
  2
Conceptual
 70
     9
177
     2
291
     0
 71
     3
176
     1
 72
     2
176
     1
 73
     0
176
     1
 90
        0
176
     1
 40
-0.6
176
     1
 41
-30.0
176
     1
 62
     5
 63
     7
421
 16777215
176
     1
 74
     2
176
     1
 91
        2
176
     1
 64
     7
176
     1
 65
   257
176
     1
 75
     1
176
     1
175
     1
176
     1
 42
40.0
176
     1
 92
        8
176
     1
 66
     7
176
     1
 43
1.0
176
     1
 76
     1
176
     1
 77
     6
176
     1
 78
     2
176
     1
 67
     7
176
     1
 79
     3
176
     1
170
     0
176
     1
171
     0
176
     1
290
     0
176
     1
 93
        1
176
     1
 44
0.0
176
     1
173
     0
176
     1
  0
VISUALSTYLE
  5
35
102
{ACAD_REACTORS
330
2A
102
}
330
2A
100
AcDbVisualStyle
  2
Dim
 70
    11
177
     2
291
     1
 71
     2
176
     1
 72
     2
176
     1
 73
     0
176
     1
 90
        0
176
     1
 40
-0.6
176
     1
 41
-30.0
176
     1
 62
     5
 63
     7
421
 16777215
176
     1
 74
     1
176
     1
 91
        4
176
     1
 64
     7
176
     1
 65
   257
176
     1
 75
     1
176
     1
175
     1
176
     1
 42
1.0
176
     1
 92
        8
176
     1
 66
     7
176
     1
 43
1.0
176
     1
 76
     1
176
     1
 77
     6
176
     1
 78
     2
176
     1
 67
     7
176
     1
 79
     5
176
     1
170
     0
176
     1
171
     0
176
     1
290
     0
176
     1
 93
        1
176
     1
 44
-50.0
176
     1
173
     0
176
     1
  0
VISUALSTYLE
  5
39
102
{ACAD_REACTORS
330
2A
102
}
330
2A
100
AcDbVisualStyle
  2
Facepattern
 70
    15
177
     2
291
     1
 71
     2
176
     1
 72
     2
176
     1
 73
     0
176
     1
 90
        0
176
     1
 40
-0.6
176
     1
 41
-30.0
176
     1
 62
     5
 63
     7
421
 16777215
176
     1
 74
     1
176
     1
 91
        4
176
     1
 64
     7
176
     1
 65
   257
176
     1
 75
     1
176
     1
175
     1
176
     1
 42
1.0
176
     1
 92
        8
176
     1
 66
     7
176
     1
 43
1.0
176
     1
 76
     1
176
     1
 77
     6
176
     1
 78
     2
176
     1
 67
     7
176
     1
 79
     5
176
     1
170
     0
176
     1
171
     0
176
     1
290
     0
176
     1
 93
        1
176
     1
 44
0.0
176
     1
173
     0
176
     1
  0
VISUALSTYLE
  5
2B
102
{ACAD_REACTORS
330
2A
102
}
330
2A
100
AcDbVisualStyle
  2
Flat
 70
     0
177
     2
291
     1
 71
     2
176
     1
 72
     1
176
     1
 73
     1
176
     1
 90
        2
176
     1
 40
-0.6
176
     1
 41
30.0
176
     1
 62
     5
 63
     7
421
 16777215
176
     1
 74
     0
176
     1
 91
        4
176
     1
 64
     7
176
     1
 65
   257
176
     1
 75
     1
176
     1
175
     1
176
     1
 42
1.0
176
     1
 92
        8
176
     1
 66
     7
176
     1
 43
1.0
176
     1
 76
     1
176
     1
 77
     6
176
     1
 78
     2
176
     1
 67
     7
176
     1
 79
     5
176
     1
170
     0
176
     1
171
     0
176
     1
290
     0
176
     1
 93
       13
176
     1
 44
0.0
176
     1
173
     0
176
     1
  0
VISUALSTYLE
  5
2C
102
{ACAD_REACTORS
330
2A
102
}
330
2A
100
AcDbVisualStyle
  2
FlatWithEdges
 70
     1
177
     2
291
     1
 71
     2
176
     1
 72
     1
176
     1
 73
     1
176
     1
 90
        2
176
     1
 40
-0.6
176
     1
 41
30.0
176
     1
 62
     5
 63
     7
421
 16777215
176
     1
 74
     1
176
     1
 91
        4
176
     1
 64
     7
176
     1
 65
   257
176
     1
 75
     1
176
     1
175
     1
176
     1
 42
1.0
176
     1
 92
        0
176
     1
 66
   257
176
     1
 43
1.0
176
     1
 76
     1
176
     1
 77
     6
176
     1
 78
     2
176
     1
 67
     7
176
     1
 79
     5
176
     1
170
     0
176
     1
171
     0
176
     1
290
     0
176
     1
 93
       13
176
     1
 44
0.0
176
     1
173
     0
176
     1
  0
VISUALSTYLE
  5
2D
102
{ACAD_REACTORS
330
2A
102
}
330
2A
100
AcDbVisualStyle
  2
Gouraud
 70
     2
177
     2
291
     1
 71
     2
176
     1
 72
     2
176
     1
 73
     1
176
     1
 90
        2
176
     1
 40
-0.6
176
     1
 41
30.0
176
     1
 62
     5
 63
     7
421
 16777215
176
     1
 74
     0
176
     1
 91
        4
176
     1
 64
     7
176
     1
 65
   257
176
     1
 75
     1
176
     1
175
     1
176
     1
 42
1.0
176
     1
 92
        0
176
     1
 66
     7
176
     1
 43
1.0
176
     1
 76
     1
176
     1
 77
     6
176
     1
 78
     2
176
     1
 67
     7
176
     1
 79
     5
176
     1
170
     0
176
     1
171
     0
176
     1
290
     0
176
     1
 93
       13
176
     1
 44
0.0
176
     1
173
     0
176
     1
  0
VISUALSTYLE
  5
2E
102
{ACAD_REACTORS
330
2A
102
}
330
2A
100
AcDbVisualStyle
  2
GouraudWithEdges
 70
     3
177
     2
291
     1
 71
     2
176
     1
 72
     2
176
     1
 73
     1
176
     1
 90
        2
176
     1
 40
-0.6
176
     1
 41
30.0
176
     1
 62
     5
 63
     7
421
 16777215
176
     1
 74
     1
176
     1
 91
        4
176
     1
 64
     7
176
     1
 65
   257
176
     1
 75
     1
176
     1
175
     1
176
     1
 42
1.0
176
     1
 92
        0
176
     1
 66
   257
176
     1
 43
1.0
176
     1
 76
     1
176
     1
 77
     6
176
     1
 78
     2
176
     1
 67
     7
176
     1
 79
     5
176
     1
170
     0
176
     1
171
     0
176
     1
290
     0
176
     1
 93
       13
176
     1
 44
0.0
176
     1
173
     0
176
     1
  0
VISUALSTYLE
  5
38
102
{ACAD_REACTORS
330
2A
102
}
330
2A
100
AcDbVisualStyle
  2
Linepattern
 70
    14
177
     2
291
     1
 71
     2
176
     1
 72
     2
176
     1
 73
     0
176
     1
 90
        0
176
     1
 40
-0.6
176
     1
 41
-30.0
176
     1
 62
     5
 63
     7
421
 16777215
176
     1
 74
     1
176
     1
 91
        4
176
     1
 64
     7
176
     1
 65
   257
176
     1
 75
     7
176
     1
175
     7
176
     1
 42
1.0
176
     1
 92
        8
176
     1
 66
     7
176
     1
 43
1.0
176
     1
 76
     1
176
     1
 77
     6
176
     1
 78
     2
176
     1
 67
     7
176
     1
 79
     5
176
     1
170
     0
176
     1
171
     0
176
     1
290
     0
176
     1
 93
        1
176
     1
 44
0.0
176
     1
173
     0
176
     1
  0
VISUALSTYLE
  5
33
102
{ACAD_REACTORS
330
2A
102
}
330
2A
100
AcDbVisualStyle
  2
Realistic
 70
     8
177
     2
291
     0
 71
     2
176
     1
 72
     2
176
     1
 73
     0
176
     1
 90
        0
176
     1
 40
-0.6
176
     1
 41
-30.0
176
     1
 62
     5
 63
     7
421
 16777215
176
     1
 74
     1
176
     1
 91
        0
176
     1
 64
     7
176
     1
 65
   257
176
     1
 75
     1
176
     1
175
     1
176
     1
 42
1.0
176
     1
 92
        8
176
     1
 66
     8
424
  7895160
176
     1
 43
1.0
176
     1
 76
     1
176
     1
 77
     6
176
     1
 78
     2
176
     1
 67
     7
176
     1
 79
     5
176
     1
170
     0
176
     1
171
     0
176
     1
290
     0
176
     1
 93
       13
176
     1
 44
0.0
176
     1
173
     0
176
     1
  0
VISUALSTYLE
  5
37
102
{ACAD_REACTORS
330
2A
102
}
330
2A
100
AcDbVisualStyle
  2
Thicken
 70
    13
177
     2
291
     1
 71
     2
176
     1
 72
     2
176
     1
 73
     0
176
     1
 90
        0
176
     1
 40
-0.6
176
     1
 41
-30.0
176
     1
 62
     5
 63
     7
421
 16777215
176
     1
 74
     1
176
     1
 91
        4
176
     1
 64
     7
176
     1
 65
   257
176
     1
 75
     1
176
     1
175
     1
176
     1
 42
1.0
176
     1
 92
       12
176
     1
 66
     7
176
     1
 43
1.0
176
     1
 76
     1
176
     1
 77
     6
176
     1
 78
     2
176
     1
 67
     7
176
     1
 79
     5
176
     1
170
     0
176
     1
171
     0
176
     1
290
     0
176
     1
 93
        1
176
     1
 44
0.0
176
     1
173
     0
176
     1
  0
ENDSEC
  0
EOF
