  0
SECTION
  2
HEADER
  9
$ACADVER
  1
AC1024
  9
$ACADMAINTVER
 70
     6
  9
$DWGCODEPAGE
  3
UNDEFINED
  9
$INSBASE
 10
0.0
 20
0.0
 30
0.0
  9
$EXTMIN
 10
1.000000000000000E+20
 20
1.000000000000000E+20
 30
1.000000000000000E+20
  9
$EXTMAX
 10
-1.000000000000000E+20
 20
-1.000000000000000E+20
 30
-1.000000000000000E+20
  9
$LIMMIN
 10
0.0
 20
0.0
  9
$LIMMAX
 10
12.0
 20
9.0
  9
$ORTHOMODE
 70
     0
  9
$REGENMODE
 70
     1
  9
$FILLMODE
 70
     1
  9
$QTEXTMODE
 70
     0
  9
$MIRRTEXT
 70
     1
  9
$LTSCALE
 40
1.0
  9
$ATTMODE
 70
     1
  9
$TEXTSIZE
 40
0.2
  9
$TRACEWID
 40
0.05
  9
$TEXTSTYLE
  7
Standard
  9
$CLAYER
  8
0
  9
$CELTYPE
  6
ByLayer
  9
$CECOLOR
 62
   256
  9
$CELTSCALE
 40
1.0
  9
$DISPSILH
 70
     0
  9
$DIMSCALE
 40
1.0
  9
$DIMASZ
 40
0.18
  9
$DIMEXO
 40
0.0625
  9
$DIMDLI
 40
0.38
  9
$DIMRND
 40
0.0
  9
$DIMDLE
 40
0.0
  9
$DIMEXE
 40
0.18
  9
$DIMTP
 40
0.0
  9
$DIMTM
 40
0.0
  9
$DIMTXT
 40
0.18
  9
$DIMCEN
 40
0.09
  9
$DIMTSZ
 40
0.0
  9
$DIMTOL
 70
     0
  9
$DIMLIM
 70
     0
  9
$DIMTIH
 70
     1
  9
$DIMTOH
 70
     1
  9
$DIMSE1
 70
     0
  9
$DIMSE2
 70
     0
  9
$DIMTAD
 70
     0
  9
$DIMZIN
 70
     0
  9
$DIMBLK
  1

  9
$DIMASO
 70
     1
  9
$DIMSHO
 70
     1
  9
$DIMPOST
  1

  9
$DIMAPOST
  1

  9
$DIMALT
 70
     0
  9
$DIMALTD
 70
     2
  9
$DIMALTF
 40
25.4
  9
$DIMLFAC
 40
1.0
  9
$DIMTOFL
 70
     0
  9
$DIMTVP
 40
0.0
  9
$DIMTIX
 70
     0
  9
$DIMSOXD
 70
     0
  9
$DIMSAH
 70
     0
  9
$DIMBLK1
  1

  9
$DIMBLK2
  1

  9
$DIMSTYLE
  2
Standard
  9
$DIMCLRD
 70
     0
  9
$DIMCLRE
 70
     0
  9
$DIMCLRT
 70
     0
  9
$DIMTFAC
 40
1.0
  9
$DIMGAP
 40
0.09
  9
$DIMJUST
 70
     0
  9
$DIMSD1
 70
     0
  9
$DIMSD2
 70
     0
  9
$DIMTOLJ
 70
     1
  9
$DIMTZIN
 70
     0
  9
$DIMALTZ
 70
     0
  9
$DIMALTTZ
 70
     0
  9
$DIMUPT
 70
     0
  9
$DIMDEC
 70
     4
  9
$DIMTDEC
 70
     4
  9
$DIMALTU
 70
     2
  9
$DIMALTTD
 70
     2
  9
$DIMTXSTY
  7
Standard
  9
$DIMAUNIT
 70
     0
  9
$DIMADEC
 70
     0
  9
$DIMALTRND
 40
0.0
  9
$DIMAZIN
 70
     0
  9
$DIMDSEP
 70
    46
  9
$DIMATFIT
 70
     3
  9
$DIMFRAC
 70
     0
  9
$DIMLDRBLK
  1

  9
$DIMLUNIT
 70
     2
  9
$DIMLWD
 70
    -2
  9
$DIMLWE
 70
    -2
  9
$DIMTMOVE
 70
     0
  9
$DIMFXL
 40
1.0
  9
$DIMFXLON
 70
     0
  9
$DIMJOGANG
 40
0.7853981633974483
  9
$DIMTFILL
 70
     0
  9
$DIMTFILLCLR
 70
     0
  9
$DIMARCSYM
 70
     0
  9
$DIMLTYPE
  6

  9
$DIMLTEX1
  6

  9
$DIMLTEX2
  6

  9
$DIMTXTDIRECTION
 70
     0
  9
$LUNITS
 70
     2
  9
$LUPREC
 70
     4
  9
$SKETCHINC
 40
0.1
  9
$FILLETRAD
 40
0.5
  9
$AUNITS
 70
     0
  9
$AUPREC
 70
     0
  9
$MENU
  1
.
  9
$ELEVATION
 40
0.0
  9
$PELEVATION
 40
0.0
  9
$THICKNESS
 40
0.0
  9
$LIMCHECK
 70
     0
  9
$CHAMFERA
 40
0.5
  9
$CHAMFERB
 40
0.5
  9
$CHAMFERC
 40
1.0
  9
$CHAMFERD
 40
0.0
  9
$SKPOLY
 70
     0
  9
$TDCREATE
 40
2458534.485081007
  9
$TDUCREATE
 40
2458534.443414352
  9
$TDUPDATE
 40
2458534.485081007
  9
$TDUUPDATE
 40
2458534.443414352
  9
$TDINDWG
 40
0.0000000116
  9
$TDUSRTIMER
 40
0.0000000116
  9
$USRTIMER
 70
     1
  9
$ANGBASE
 50
0.0
  9
$ANGDIR
 70
     0
  9
$PDMODE
 70
     0
  9
$PDSIZE
 40
0.0
  9
$PLINEWID
 40
0.0
  9
$SPLFRAME
 70
     0
  9
$SPLINETYPE
 70
     6
  9
$SPLINESEGS
 70
     8
  9
$HANDSEED
  5
B6
  9
$SURFTAB1
 70
     6
  9
$SURFTAB2
 70
     6
  9
$SURFTYPE
 70
     6
  9
$SURFU
 70
     6
  9
$SURFV
 70
     6
  9
$UCSBASE
  2

  9
$UCSNAME
  2

  9
$UCSORG
 10
0.0
 20
0.0
 30
0.0
  9
$UCSXDIR
 10
1.0
 20
0.0
 30
0.0
  9
$UCSYDIR
 10
0.0
 20
1.0
 30
0.0
  9
$UCSORTHOREF
  2

  9
$UCSORTHOVIEW
 70
     0
  9
$UCSORGTOP
 10
0.0
 20
0.0
 30
0.0
  9
$UCSORGBOTTOM
 10
0.0
 20
0.0
 30
0.0
  9
$UCSORGLEFT
 10
0.0
 20
0.0
 30
0.0
  9
$UCSORGRIGHT
 10
0.0
 20
0.0
 30
0.0
  9
$UCSORGFRONT
 10
0.0
 20
0.0
 30
0.0
  9
$UCSORGBACK
 10
0.0
 20
0.0
 30
0.0
  9
$PUCSBASE
  2

  9
$PUCSNAME
  2

  9
$PUCSORG
 10
0.0
 20
0.0
 30
0.0
  9
$PUCSXDIR
 10
1.0
 20
0.0
 30
0.0
  9
$PUCSYDIR
 10
0.0
 20
1.0
 30
0.0
  9
$PUCSORTHOREF
  2

  9
$PUCSORTHOVIEW
 70
     0
  9
$PUCSORGTOP
 10
0.0
 20
0.0
 30
0.0
  9
$PUCSORGBOTTOM
 10
0.0
 20
0.0
 30
0.0
  9
$PUCSORGLEFT
 10
0.0
 20
0.0
 30
0.0
  9
$PUCSORGRIGHT
 10
0.0
 20
0.0
 30
0.0
  9
$PUCSORGFRONT
 10
0.0
 20
0.0
 30
0.0
  9
$PUCSORGBACK
 10
0.0
 20
0.0
 30
0.0
  9
$USERI1
 70
     0
  9
$USERI2
 70
     0
  9
$USERI3
 70
     0
  9
$USERI4
 70
     0
  9
$USERI5
 70
     0
  9
$USERR1
 40
0.0
  9
$USERR2
 40
0.0
  9
$USERR3
 40
0.0
  9
$USERR4
 40
0.0
  9
$USERR5
 40
0.0
  9
$WORLDVIEW
 70
     1
  9
$SHADEDGE
 70
     3
  9
$SHADEDIF
 70
    70
  9
$TILEMODE
 70
     1
  9
$MAXACTVP
 70
    64
  9
$PINSBASE
 10
0.0
 20
0.0
 30
0.0
  9
$PLIMCHECK
 70
     0
  9
$PEXTMIN
 10
1.000000000000000E+20
 20
1.000000000000000E+20
 30
1.000000000000000E+20
  9
$PEXTMAX
 10
-1.000000000000000E+20
 20
-1.000000000000000E+20
 30
-1.000000000000000E+20
  9
$PLIMMIN
 10
0.0
 20
0.0
  9
$PLIMMAX
 10
12.0
 20
9.0
  9
$UNITMODE
 70
     0
  9
$VISRETAIN
 70
     1
  9
$PLINEGEN
 70
     0
  9
$PSLTSCALE
 70
     1
  9
$TREEDEPTH
 70
  3020
  9
$CMLSTYLE
  2
Standard
  9
$CMLJUST
 70
     0
  9
$CMLSCALE
 40
1.0
  9
$PROXYGRAPHICS
 70
     1
  9
$MEASUREMENT
 70
     0
  9
$CELWEIGHT
370
    -1
  9
$ENDCAPS
280
     0
  9
$JOINSTYLE
280
     0
  9
$LWDISPLAY
290
     1
  9
$INSUNITS
 70
     1
  9
$HYPERLINKBASE
  1

  9
$STYLESHEET
  1

  9
$XEDIT
290
     1
  9
$CEPSNTYPE
380
     0
  9
$PSTYLEMODE
290
     1
  9
$FINGERPRINTGUID
  2
{B91B5EE7-F794-04A1-818B-D4E95073EEFC}
  9
$VERSIONGUID
  2
{FAEB1C32-E019-11D5-929B-00C0DF256EC4}
  9
$EXTNAMES
290
     1
  9
$PSVPSCALE
 40
0.0
  9
$OLESTARTUP
290
     0
  9
$SORTENTS
280
   127
  9
$INDEXCTL
280
     0
  9
$HIDETEXT
280
     1
  9
$XCLIPFRAME
280
     2
  9
$HALOGAP
280
     0
  9
$OBSCOLOR
 70
   257
  9
$OBSLTYPE
280
     0
  9
$INTERSECTIONDISPLAY
280
     0
  9
$INTERSECTIONCOLOR
 70
   257
  9
$DIMASSOC
280
     2
  9
$PROJECTNAME
  1

  9
$CAMERADISPLAY
290
     0
  9
$LENSLENGTH
 40
50.0
  9
$CAMERAHEIGHT
 40
0.0
  9
$STEPSPERSEC
 40
2.0
  9
$STEPSIZE
 40
6.0
  9
$3DDWFPREC
 40
2.0
  9
$PSOLWIDTH
 40
0.25
  9
$PSOLHEIGHT
 40
4.0
  9
$LOFTANG1
 40
1.570796326794897
  9
$LOFTANG2
 40
1.570796326794897
  9
$LOFTMAG1
 40
0.0
  9
$LOFTMAG2
 40
0.0
  9
$LOFTPARAM
 70
     7
  9
$LOFTNORMALS
280
     1
  9
$LATITUDE
 40
37.795
  9
$LONGITUDE
 40
-122.394
  9
$NORTHDIRECTION
 40
0.0
  9
$TIMEZONE
 70
 -8000
  9
$LIGHTGLYPHDISPLAY
280
     1
  9
$TILEMODELIGHTSYNCH
280
     1
  9
$CMATERIAL
347
3C
  9
$SOLIDHIST
280
     1
  9
$SHOWHIST
280
     1
  9
$DWFFRAME
280
     2
  9
$DGNFRAME
280
     2
  9
$REALWORLDSCALE
290
     1
  9
$INTERFERECOLOR
 62
   256
  9
$CSHADOW
280
     0
  9
$SHADOWPLANELOCATION
 40
0.0
  0
ENDSEC
  0
SECTION
  2
CLASSES
  0
CLASS
  1
ACDBDICTIONARYWDFLT
  2
AcDbDictionaryWithDefault
  3
ObjectDBX Classes
 90
        0
 91
        4
280
     0
281
     0
  0
CLASS
  1
VISUALSTYLE
  2
AcDbVisualStyle
  3
ObjectDBX Classes
 90
     4095
 91
        4
280
     0
281
     0
  0
CLASS
  1
MATERIAL
  2
AcDbMaterial
  3
ObjectDBX Classes
 90
     1153
 91
        4
280
     0
281
     0
  0
CLASS
  1
SUN
  2
AcDbSun
  3
SCENEOE
 90
     1024
 91
        4
280
     0
281
     0
  0
ENDSEC
  0
SECTION
  2
TABLES
  0
TABLE
  2
VPORT
  5
8
330
0
100
AcDbSymbolTable
 70
     1
  0
VPORT
  5
29
330
8
100
AcDbSymbolTableRecord
100
AcDbViewportTableRecord
  2
*Active
 70
     0
 10
0.0
 20
0.0
 11
1.0
 21
1.0
 12
0.0
 22
0.0
 13
0.0
 23
0.0
 14
0.5
 24
0.5
 15
0.5
 25
0.5
 16
0.0
 26
0.0
 36
1.0
 17
300.0004582583334
 27
-200.0003055055556
 37
0.0
 40
400.0006110111112
 41
1.5
 42
50.0
 43
0.0
 44
0.0
 50
0.0
 51
0.0
 71
     0
 72
   100
 73
     1
 74
     3
 75
     0
 76
     0
 77
     0
 78
     0
281
     0
 65
     1
110
0.0
120
0.0
130
0.0
111
1.0
121
0.0
131
0.0
112
0.0
122
1.0
132
0.0
 79
     0
146
0.0
 60
     3
 61
     5
292
     1
282
     1
141
0.0
142
0.0
 63
   250
361
3F
  0
ENDTAB
  0
TABLE
  2
LTYPE
  5
5
330
0
100
AcDbSymbolTable
 70
     1
  0
LTYPE
  5
14
330
5
100
AcDbSymbolTableRecord
100
AcDbLinetypeTableRecord
  2
ByBlock
 70
     0
  3

 72
    65
 73
     0
 40
0.0
  0
LTYPE
  5
15
330
5
100
AcDbSymbolTableRecord
100
AcDbLinetypeTableRecord
  2
ByLayer
 70
     0
  3

 72
    65
 73
     0
 40
0.0
  0
LTYPE
  5
16
330
5
100
AcDbSymbolTableRecord
100
AcDbLinetypeTableRecord
  2
Continuous
 70
     0
  3
Solid line
 72
    65
 73
     0
 40
0.0
  0
ENDTAB
  0
TABLE
  2
LAYER
  5
2
330
0
100
AcDbSymbolTable
 70
     2
  0
LAYER
  5
10
330
2
100
AcDbSymbolTableRecord
100
AcDbLayerTableRecord
  2
0
 70
     0
 62
     7
  6
Continuous
370
    -3
390
F
347
3E
  0
LAYER
  5
40
330
2
100
AcDbSymbolTableRecord
100
AcDbLayerTableRecord
  2
D_U+00E9coupe V5
 70
     0
 62
     7
  6
Continuous
370
    -3
390
F
347
3E
  0
ENDTAB
  0
TABLE
  2
STYLE
  5
3
330
0
100
AcDbSymbolTable
 70
     1
  0
STYLE
  5
11
330
3
100
AcDbSymbolTableRecord
100
AcDbTextStyleTableRecord
  2
Standard
 70
     0
 40
0.0
 41
1.0
 50
0.0
 71
     0
 42
0.2
  3
txt
  4

  0
ENDTAB
  0
TABLE
  2
VIEW
  5
6
330
0
100
AcDbSymbolTable
 70
     0
  0
ENDTAB
  0
TABLE
  2
UCS
  5
7
330
0
100
AcDbSymbolTable
 70
     0
  0
ENDTAB
  0
TABLE
  2
APPID
  5
9
330
0
100
AcDbSymbolTable
 70
     1
  0
APPID
  5
12
330
9
100
AcDbSymbolTableRecord
100
AcDbRegAppTableRecord
  2
ACAD
 70
     0
  0
ENDTAB
  0
TABLE
  2
DIMSTYLE
  5
A
330
0
100
AcDbSymbolTable
 70
     1
100
AcDbDimStyleTable
  0
DIMSTYLE
105
27
330
A
100
AcDbSymbolTableRecord
100
AcDbDimStyleTableRecord
  2
Standard
 70
     0
178
     0
340
11
  0
ENDTAB
  0
TABLE
  2
BLOCK_RECORD
  5
1
330
0
100
AcDbSymbolTable
 70
     1
  0
BLOCK_RECORD
  5
1F
330
1
100
AcDbSymbolTableRecord
100
AcDbBlockTableRecord
  2
*Model_Space
340
22
 70
     0
280
     1
281
     0
  0
BLOCK_RECORD
  5
1B
330
1
100
AcDbSymbolTableRecord
100
AcDbBlockTableRecord
  2
*Paper_Space
340
1E
 70
     0
280
     1
281
     0
  0
BLOCK_RECORD
  5
23
330
1
100
AcDbSymbolTableRecord
100
AcDbBlockTableRecord
  2
*Paper_Space0
340
26
 70
     0
280
     1
281
     0
  0
ENDTAB
  0
ENDSEC
  0
SECTION
  2
BLOCKS
  0
BLOCK
  5
20
330
1F
100
AcDbEntity
  8
0
100
AcDbBlockBegin
  2
*Model_Space
 70
     0
 10
0.0
 20
0.0
 30
0.0
  3
*Model_Space
  1

  0
ENDBLK
  5
21
330
1F
100
AcDbEntity
  8
0
100
AcDbBlockEnd
  0
BLOCK
  5
1C
330
1B
100
AcDbEntity
 67
     1
  8
0
100
AcDbBlockBegin
  2
*Paper_Space
 70
     0
 10
0.0
 20
0.0
 30
0.0
  3
*Paper_Space
  1

  0
ENDBLK
  5
1D
330
1B
100
AcDbEntity
 67
     1
  8
0
100
AcDbBlockEnd
  0
BLOCK
  5
24
330
23
100
AcDbEntity
  8
0
100
AcDbBlockBegin
  2
*Paper_Space0
 70
     0
 10
0.0
 20
0.0
 30
0.0
  3
*Paper_Space0
  1

  0
ENDBLK
  5
25
330
23
100
AcDbEntity
  8
0
100
AcDbBlockEnd
  0
ENDSEC
  0
SECTION
  2
ENTITIES
  0
POLYLINE
  5
41
330
1F
100
AcDbEntity
  8
D_U+00E9coupe V5
 62
     3
370
     9
100
AcDb2dPolyline
 66
     1
 10
0.0
 20
0.0
 30
0.0
  0
VERTEX
  5
42
330
41
100
AcDbEntity
  8
D_U+00E9coupe V5
 62
     3
370
     9
100
AcDbVertex
100
AcDb2dVertex
 10
394.4679474808575
 20
-177.6885927333555
 30
0.0
  0
VERTEX
  5
43
330
41
100
AcDbEntity
  8
D_U+00E9coupe V5
 62
     3
370
     9
100
AcDbVertex
100
AcDb2dVertex
 10
394.4679474808575
 20
-185.7524224535619
 30
0.0
  0
SEQEND
  5
44
330
41
100
AcDbEntity
  8
D_U+00E9coupe V5
 62
     3
370
     9
  0
SPLINE
  5
45
330
1F
100
AcDbEntity
  8
D_U+00E9coupe V5
 62
     3
370
     9
100
AcDbSpline
210
0.0
220
0.0
230
1.0
 70
     8
 71
     3
 72
     8
 73
     4
 74
     0
 42
0.0000000001
 43
0.0000000001
 12
1.0
 22
0.0
 32
0.0
 13
1.0
 23
0.0
 33
0.0
 40
0.0
 40
0.0
 40
0.0
 40
0.0
 40
1.0
 40
1.0
 40
1.0
 40
1.0
 10
393.4679635922186
 20
-186.7524063422009
 30
0.0
 10
394.0202372031918
 20
-186.7524063422009
 30
0.0
 10
394.4679474808575
 20
-186.3046960645349
 30
0.0
 10
394.4679474808575
 20
-185.7524224535619
 30
0.0
  0
POLYLINE
  5
46
330
1F
100
AcDbEntity
  8
D_U+00E9coupe V5
 62
     3
370
     9
100
AcDb2dPolyline
 66
     1
 10
0.0
 20
0.0
 30
0.0
  0
VERTEX
  5
47
330
46
100
AcDbEntity
  8
D_U+00E9coupe V5
 62
     3
370
     9
100
AcDbVertex
100
AcDb2dVertex
 10
393.4679635922186
 20
-186.7524063422009
 30
0.0
  0
VERTEX
  5
48
330
46
100
AcDbEntity
  8
D_U+00E9coupe V5
 62
     3
370
     9
100
AcDbVertex
100
AcDb2dVertex
 10
379.7451549845385
 20
-186.7524063422009
 30
0.0
  0
SEQEND
  5
49
330
46
100
AcDbEntity
  8
D_U+00E9coupe V5
 62
     3
370
     9
  0
SPLINE
  5
4A
330
1F
100
AcDbEntity
  8
D_U+00E9coupe V5
 62
     3
370
     9
100
AcDbSpline
210
0.0
220
0.0
230
1.0
 70
     8
 71
     3
 72
     8
 73
     4
 74
     0
 42
0.0000000001
 43
0.0000000001
 12
1.0
 22
0.0
 32
0.0
 13
1.0
 23
0.0
 33
0.0
 40
0.0
 40
0.0
 40
0.0
 40
0.0
 40
1.0
 40
1.0
 40
1.0
 40
1.0
 10
378.7451710958995
 20
-185.7524224535619
 30
0.0
 10
378.7451710958995
 20
-186.3046960645349
 30
0.0
 10
379.1928813735652
 20
-186.7524063422009
 30
0.0
 10
379.7451549845385
 20
-186.7524063422009
 30
0.0
  0
POLYLINE
  5
4B
330
1F
100
AcDbEntity
  8
D_U+00E9coupe V5
 62
     3
370
     9
100
AcDb2dPolyline
 66
     1
 10
0.0
 20
0.0
 30
0.0
  0
VERTEX
  5
4C
330
4B
100
AcDbEntity
  8
D_U+00E9coupe V5
 62
     3
370
     9
100
AcDbVertex
100
AcDb2dVertex
 10
378.7451710958995
 20
-185.7524224535619
 30
0.0
  0
VERTEX
  5
4D
330
4B
100
AcDbEntity
  8
D_U+00E9coupe V5
 62
     3
370
     9
100
AcDbVertex
100
AcDb2dVertex
 10
378.7451710958995
 20
-177.6885927333555
 30
0.0
  0
SEQEND
  5
4E
330
4B
100
AcDbEntity
  8
D_U+00E9coupe V5
 62
     3
370
     9
  0
SPLINE
  5
4F
330
1F
100
AcDbEntity
  8
D_U+00E9coupe V5
 62
     3
370
     9
100
AcDbSpline
210
0.0
220
0.0
230
1.0
 70
    11
 71
     3
 72
    20
 73
    16
 74
     0
 42
0.0000000001
 43
0.0000000001
 12
1.0
 22
0.0
 32
0.0
 13
1.0
 23
0.0
 33
0.0
 40
0.0
 40
0.0
 40
0.0
 40
0.0
 40
1.0
 40
1.0
 40
1.0
 40
2.0
 40
2.0
 40
2.0
 40
3.0
 40
3.0
 40
3.0
 40
4.0
 40
4.0
 40
4.0
 40
5.0
 40
5.0
 40
5.0
 40
5.0
 10
333.2432642760338
 20
-164.5646244033032
 30
0.0
 10
333.2432642760338
 20
-163.4600419035795
 30
0.0
 10
334.1386848087453
 20
-162.5646213482478
 30
0.0
 10
335.243267280565
 20
-162.5646213482478
 30
0.0
 10
336.3478582492463
 20
-162.5646213482478
 30
0.0
 10
337.2432702850963
 20
-163.4600419035795
 30
0.0
 10
337.2432702850963
 20
-164.5646244033032
 30
0.0
 10
337.2432702850963
 20
-165.6691716252494
 30
0.0
 10
336.3478582492463
 20
-166.564627458359
 30
0.0
 10
335.243267280565
 20
-166.564627458359
 30
0.0
 10
334.1386848087453
 20
-166.564627458359
 30
0.0
 10
333.2432642760338
 20
-165.6691716252494
 30
0.0
 10
333.2432642760338
 20
-164.5646244033032
 30
0.0
 10
333.2432642760338
 20
-164.5646244033032
 30
0.0
 10
333.2432642760338
 20
-164.5646244033032
 30
0.0
 10
333.2432642760338
 20
-164.5646244033032
 30
0.0
  0
SPLINE
  5
50
330
1F
100
AcDbEntity
  8
D_U+00E9coupe V5
 62
     3
370
     9
100
AcDbSpline
210
0.0
220
0.0
230
1.0
 70
    11
 71
     3
 72
    29
 73
    25
 74
     0
 42
0.0000000001
 43
0.0000000001
 12
1.0
 22
0.0
 32
0.0
 13
1.0
 23
0.0
 33
0.0
 40
0.0
 40
0.0
 40
0.0
 40
0.0
 40
1.0
 40
1.0
 40
1.0
 40
2.0
 40
2.0
 40
2.0
 40
3.0
 40
3.0
 40
3.0
 40
4.0
 40
4.0
 40
4.0
 40
5.0
 40
5.0
 40
5.0
 40
6.0
 40
6.0
 40
6.0
 40
7.0
 40
7.0
 40
7.0
 40
8.0
 40
8.0
 40
8.0
 40
8.0
 10
553.4065070838712
 20
-177.6886280111334
 30
0.0
 10
563.3293843036123
 20
-177.6886280111334
 30
0.0
 10
567.8065223580485
 20
-173.2114546789193
 30
0.0
 10
567.8065223580485
 20
-167.6886127358557
 30
0.0
 10
567.8065223580485
 20
-167.6886127358557
 30
0.0
 10
567.8065223580485
 20
-102.6886369187723
 30
0.0
 10
567.8065223580485
 20
-102.6886369187723
 30
0.0
 10
567.8065223580485
 20
-97.16575969793092
 30
0.0
 10
563.3293843036123
 20
-92.68862164349466
 30
0.0
 10
557.8065070827708
 20
-92.68862164349466
 30
0.0
 10
557.8065070827708
 20
-92.68862164349466
 30
0.0
 10
289.1122823463534
 20
-92.68862164349466
 30
0.0
 10
289.1122823463534
 20
-92.68862164349466
 30
0.0
 10
283.5894405428084
 20
-92.68862164349466
 30
0.0
 10
279.1122673236973
 20
-97.16575969793092
 30
0.0
 10
279.1122673236973
 20
-102.6886369187723
 30
0.0
 10
279.1122673236973
 20
-102.6886369187723
 30
0.0
 10
279.1122673236973
 20
-167.6886127358557
 30
0.0
 10
279.1122673236973
 20
-167.6886127358557
 30
0.0
 10
279.1122673236973
 20
-173.2114546789193
 30
0.0
 10
283.5894405428084
 20
-177.6886280111334
 30
0.0
 10
284.7122823474534
 20
-177.6886280111334
 30
0.0
 10
284.7122823474534
 20
-177.6886280111334
 30
0.0
 10
553.4065070838712
 20
-177.6886280111334
 30
0.0
 10
553.4065070838712
 20
-177.6886280111334
 30
0.0
  0
SPLINE
  5
51
330
1F
100
AcDbEntity
  8
D_U+00E9coupe V5
 62
     3
370
     5
100
AcDbSpline
210
0.0
220
0.0
230
1.0
 70
    11
 71
     3
 72
    20
 73
    16
 74
     0
 42
0.0000000001
 43
0.0000000001
 12
1.0
 22
0.0
 32
0.0
 13
1.0
 23
0.0
 33
0.0
 40
0.0
 40
0.0
 40
0.0
 40
0.0
 40
1.0
 40
1.0
 40
1.0
 40
2.0
 40
2.0
 40
2.0
 40
3.0
 40
3.0
 40
3.0
 40
4.0
 40
4.0
 40
4.0
 40
5.0
 40
5.0
 40
5.0
 40
5.0
 10
313.9280243014216
 20
-187.6886131794043
 30
0.0
 10
313.9280243010943
 20
-184.0435338305212
 30
0.0
 10
316.8829449519458
 20
-181.088613179139
 30
0.0
 10
320.5280243008295
 20
-181.0886131788117
 30
0.0
 10
324.1731036497125
 20
-181.0886131784845
 30
0.0
 10
327.1280243010941
 20
-184.043533829336
 30
0.0
 10
327.1280243014214
 20
-187.688613178219
 30
0.0
 10
327.1280243017487
 20
-191.3336925271027
 30
0.0
 10
324.1731036508978
 20
-194.2886131784843
 30
0.0
 10
320.5280243020147
 20
-194.2886131788115
 30
0.0
 10
316.8829449531311
 20
-194.2886131791388
 30
0.0
 10
313.9280243017488
 20
-191.3336925282879
 30
0.0
 10
313.9280243014216
 20
-187.6886131794043
 30
0.0
 10
313.9280243014216
 20
-187.6886131794043
 30
0.0
 10
313.9280243014216
 20
-187.6886131794043
 30
0.0
 10
313.9280243014216
 20
-187.6886131794043
 30
0.0
  0
SPLINE
  5
52
330
1F
100
AcDbEntity
  8
D_U+00E9coupe V5
 62
     3
370
     5
100
AcDbSpline
210
0.0
220
0.0
230
1.0
 70
    11
 71
     3
 72
    20
 73
    16
 74
     0
 42
0.0000000001
 43
0.0000000001
 12
1.0
 22
0.0
 32
0.0
 13
1.0
 23
0.0
 33
0.0
 40
0.0
 40
0.0
 40
0.0
 40
0.0
 40
1.0
 40
1.0
 40
1.0
 40
2.0
 40
2.0
 40
2.0
 40
3.0
 40
3.0
 40
3.0
 40
4.0
 40
4.0
 40
4.0
 40
5.0
 40
5.0
 40
5.0
 40
5.0
 10
337.1280243014218
 20
-187.6886131773213
 30
0.0
 10
337.1280243015013
 20
-188.5722687770505
 30
0.0
 10
336.4116799012943
 20
-189.2886131773855
 30
0.0
 10
335.5280243015654
 20
-189.2886131774651
 30
0.0
 10
334.6443687018359
 20
-189.288613177544
 30
0.0
 10
333.9280243015012
 20
-188.5722687773377
 30
0.0
 10
333.9280243014217
 20
-187.6886131776088
 30
0.0
 10
333.9280243013427
 20
-186.8049575778793
 30
0.0
 10
334.6443687015484
 20
-186.0886131775439
 30
0.0
 10
335.528024301278
 20
-186.088613177465
 30
0.0
 10
336.4116799010068
 20
-186.0886131773857
 30
0.0
 10
337.1280243013428
 20
-186.8049575775918
 30
0.0
 10
337.1280243014218
 20
-187.6886131773213
 30
0.0
 10
337.1280243014218
 20
-187.6886131773213
 30
0.0
 10
337.1280243014218
 20
-187.6886131773213
 30
0.0
 10
337.1280243014218
 20
-187.6886131773213
 30
0.0
  0
SPLINE
  5
53
330
1F
100
AcDbEntity
  8
D_U+00E9coupe V5
 62
     3
370
     5
100
AcDbSpline
210
0.0
220
0.0
230
1.0
 70
    11
 71
     3
 72
    20
 73
    16
 74
     0
 42
0.0000000001
 43
0.0000000001
 12
1.0
 22
0.0
 32
0.0
 13
1.0
 23
0.0
 33
0.0
 40
0.0
 40
0.0
 40
0.0
 40
0.0
 40
1.0
 40
1.0
 40
1.0
 40
2.0
 40
2.0
 40
2.0
 40
3.0
 40
3.0
 40
3.0
 40
4.0
 40
4.0
 40
4.0
 40
5.0
 40
5.0
 40
5.0
 40
5.0
 10
303.9280243014212
 20
-187.688613180302
 30
0.0
 10
303.9280243013423
 20
-186.8049575805731
 30
0.0
 10
304.6443687015487
 20
-186.0886131802378
 30
0.0
 10
305.5280243012775
 20
-186.0886131801588
 30
0.0
 10
306.4116799010071
 20
-186.0886131800793
 30
0.0
 10
307.1280243013424
 20
-186.8049575802856
 30
0.0
 10
307.1280243014214
 20
-187.6886131800152
 30
0.0
 10
307.1280243015009
 20
-188.572268779744
 30
0.0
 10
306.4116799012945
 20
-189.2886131800794
 30
0.0
 10
305.528024301565
 20
-189.2886131801593
 30
0.0
 10
304.6443687018361
 20
-189.2886131802379
 30
0.0
 10
303.9280243015008
 20
-188.5722687800315
 30
0.0
 10
303.9280243014212
 20
-187.688613180302
 30
0.0
 10
303.9280243014212
 20
-187.688613180302
 30
0.0
 10
303.9280243014212
 20
-187.688613180302
 30
0.0
 10
303.9280243014212
 20
-187.688613180302
 30
0.0
  0
SPLINE
  5
54
330
1F
100
AcDbEntity
  8
D_U+00E9coupe V5
 62
     3
370
     5
100
AcDbSpline
210
0.0
220
0.0
230
1.0
 70
    11
 71
     3
 72
   167
 73
   163
 74
     0
 42
0.0000000001
 43
0.0000000001
 12
1.0
 22
0.0
 32
0.0
 13
1.0
 23
0.0
 33
0.0
 40
0.0
 40
0.0
 40
0.0
 40
0.0
 40
1.0
 40
1.0
 40
1.0
 40
2.0
 40
2.0
 40
2.0
 40
3.0
 40
3.0
 40
3.0
 40
4.0
 40
4.0
 40
4.0
 40
5.0
 40
5.0
 40
5.0
 40
6.0
 40
6.0
 40
6.0
 40
7.0
 40
7.0
 40
7.0
 40
8.0
 40
8.0
 40
8.0
 40
9.0
 40
9.0
 40
9.0
 40
10.0
 40
10.0
 40
10.0
 40
11.0
 40
11.0
 40
11.0
 40
12.0
 40
12.0
 40
12.0
 40
13.0
 40
13.0
 40
13.0
 40
14.0
 40
14.0
 40
14.0
 40
15.0
 40
15.0
 40
15.0
 40
16.0
 40
16.0
 40
16.0
 40
17.0
 40
17.0
 40
17.0
 40
18.0
 40
18.0
 40
18.0
 40
19.0
 40
19.0
 40
19.0
 40
20.0
 40
20.0
 40
20.0
 40
21.0
 40
21.0
 40
21.0
 40
22.0
 40
22.0
 40
22.0
 40
23.0
 40
23.0
 40
23.0
 40
24.0
 40
24.0
 40
24.0
 40
25.0
 40
25.0
 40
25.0
 40
26.0
 40
26.0
 40
26.0
 40
27.0
 40
27.0
 40
27.0
 40
28.0
 40
28.0
 40
28.0
 40
29.0
 40
29.0
 40
29.0
 40
30.0
 40
30.0
 40
30.0
 40
31.0
 40
31.0
 40
31.0
 40
32.0
 40
32.0
 40
32.0
 40
33.0
 40
33.0
 40
33.0
 40
34.0
 40
34.0
 40
34.0
 40
35.0
 40
35.0
 40
35.0
 40
36.0
 40
36.0
 40
36.0
 40
37.0
 40
37.0
 40
37.0
 40
38.0
 40
38.0
 40
38.0
 40
39.0
 40
39.0
 40
39.0
 40
40.0
 40
40.0
 40
40.0
 40
41.0
 40
41.0
 40
41.0
 40
42.0
 40
42.0
 40
42.0
 40
43.0
 40
43.0
 40
43.0
 40
44.0
 40
44.0
 40
44.0
 40
45.0
 40
45.0
 40
45.0
 40
46.0
 40
46.0
 40
46.0
 40
47.0
 40
47.0
 40
47.0
 40
48.0
 40
48.0
 40
48.0
 40
49.0
 40
49.0
 40
49.0
 40
50.0
 40
50.0
 40
50.0
 40
51.0
 40
51.0
 40
51.0
 40
52.0
 40
52.0
 40
52.0
 40
53.0
 40
53.0
 40
53.0
 40
54.0
 40
54.0
 40
54.0
 40
54.0
 10
257.7619095000751
 20
-35.68861318445002
 30
0.0
 10
257.7619095000751
 20
-35.68861318445002
 30
0.0
 10
252.7619095000749
 20
-35.68861318489889
 30
0.0
 10
252.7619095000749
 20
-35.68861318489889
 30
0.0
 10
252.7619095000749
 20
-35.68861318489889
 30
0.0
 10
252.7619095020206
 20
-57.35527985156312
 30
0.0
 10
252.7619095020206
 20
-57.35527985156312
 30
0.0
 10
252.7619095020206
 20
-57.35527985156312
 30
0.0
 10
257.7619095020201
 20
-57.35527985111425
 30
0.0
 10
257.7619095020201
 20
-57.35527985111425
 30
0.0
 10
257.7619095020201
 20
-57.35527985111425
 30
0.0
 10
257.7619095045343
 20
-85.35527985112132
 30
0.0
 10
257.7619095045343
 20
-85.35527985112132
 30
0.0
 10
257.7619095045343
 20
-85.35527985112132
 30
0.0
 10
252.7619095045347
 20
-85.3552798515702
 30
0.0
 10
252.7619095045347
 20
-85.3552798515702
 30
0.0
 10
252.7619095045347
 20
-85.3552798515702
 30
0.0
 10
252.7619095064804
 20
-107.0219465182293
 30
0.0
 10
252.7619095064804
 20
-107.0219465182293
 30
0.0
 10
252.7619095064804
 20
-107.0219465182293
 30
0.0
 10
257.7619095064805
 20
-107.0219465177804
 30
0.0
 10
257.7619095064805
 20
-107.0219465177804
 30
0.0
 10
257.7619095064805
 20
-107.0219465177804
 30
0.0
 10
257.7619095085455
 20
-130.0219465177793
 30
0.0
 10
257.7619095085455
 20
-130.0219465177793
 30
0.0
 10
257.7619095085455
 20
-130.0219465177793
 30
0.0
 10
252.7619095085454
 20
-130.0219465182282
 30
0.0
 10
252.7619095085454
 20
-130.0219465182282
 30
0.0
 10
252.7619095085454
 20
-130.0219465182282
 30
0.0
 10
252.7619095109402
 20
-156.6886131848968
 30
0.0
 10
252.7619095109402
 20
-156.6886131848968
 30
0.0
 10
252.7619095109402
 20
-156.6886131848968
 30
0.0
 10
257.7619095109397
 20
-156.6886131844475
 30
0.0
 10
257.7619095109397
 20
-156.6886131844475
 30
0.0
 10
257.7619095109397
 20
-156.6886131844475
 30
0.0
 10
257.7619095134539
 20
-184.6886131844473
 30
0.0
 10
257.7619095134539
 20
-184.6886131844473
 30
0.0
 10
257.7619095134539
 20
-184.6886131844473
 30
0.0
 10
252.7619095134544
 20
-184.6886131848964
 30
0.0
 10
252.7619095134544
 20
-184.6886131848964
 30
0.0
 10
252.7619095134544
 20
-184.6886131848964
 30
0.0
 10
252.7619095155193
 20
-207.6886131848966
 30
0.0
 10
252.7619095155193
 20
-207.6886131848966
 30
0.0
 10
252.7619095155193
 20
-207.6886131848966
 30
0.0
 10
272.7619095155194
 20
-207.6886131831012
 30
0.0
 10
272.7619095155194
 20
-207.6886131831012
 30
0.0
 10
275.5233332646735
 20
-207.6886131828528
 30
0.0
 10
277.7619095153187
 20
-205.4500369318059
 30
0.0
 10
277.7619095150698
 20
-202.6886131826518
 30
0.0
 10
277.7619095150698
 20
-202.6886131826518
 30
0.0
 10
277.7619095146212
 20
-197.6886131826516
 30
0.0
 10
277.7619095146212
 20
-197.6886131826516
 30
0.0
 10
277.7619095146212
 20
-197.6886131826516
 30
0.0
 10
307.9194095146212
 20
-197.6886131799436
 30
0.0
 10
307.9194095146212
 20
-197.6886131799436
 30
0.0
 10
307.9194095146212
 20
-197.6886131799436
 30
0.0
 10
307.9194095150697
 20
-202.6886131799438
 30
0.0
 10
307.9194095150697
 20
-202.6886131799438
 30
0.0
 10
307.9194095150697
 20
-202.6886131799438
 30
0.0
 10
332.91940951507
 20
-202.6886131776992
 30
0.0
 10
332.91940951507
 20
-202.6886131776992
 30
0.0
 10
332.91940951507
 20
-202.6886131776992
 30
0.0
 10
332.9194095146214
 20
-197.688613177699
 30
0.0
 10
332.9194095146214
 20
-197.688613177699
 30
0.0
 10
332.9194095146214
 20
-197.688613177699
 30
0.0
 10
385.3406595146228
 20
-197.6886131729927
 30
0.0
 10
385.3406595146228
 20
-197.6886131729927
 30
0.0
 10
385.3406595146228
 20
-197.6886131729927
 30
0.0
 10
385.3406595150707
 20
-202.6886131729923
 30
0.0
 10
385.3406595150707
 20
-202.6886131729923
 30
0.0
 10
385.3406595150707
 20
-202.6886131729923
 30
0.0
 10
427.761909515068
 20
-202.6886131691832
 30
0.0
 10
427.761909515068
 20
-202.6886131691832
 30
0.0
 10
427.761909515068
 20
-202.6886131691832
 30
0.0
 10
427.7619095146201
 20
-197.688613169183
 30
0.0
 10
427.7619095146201
 20
-197.688613169183
 30
0.0
 10
427.7619095146201
 20
-197.688613169183
 30
0.0
 10
457.7619095146205
 20
-197.6886131664891
 30
0.0
 10
457.7619095146205
 20
-197.6886131664891
 30
0.0
 10
457.7619095146205
 20
-197.6886131664891
 30
0.0
 10
457.7619095150684
 20
-202.6886131664893
 30
0.0
 10
457.7619095150684
 20
-202.6886131664893
 30
0.0
 10
457.7619095150684
 20
-202.6886131664893
 30
0.0
 10
482.761909515068
 20
-202.6886131642453
 30
0.0
 10
482.761909515068
 20
-202.6886131642453
 30
0.0
 10
482.761909515068
 20
-202.6886131642453
 30
0.0
 10
482.7619095146201
 20
-197.6886131642451
 30
0.0
 10
482.7619095146201
 20
-197.6886131642451
 30
0.0
 10
482.7619095146201
 20
-197.6886131642451
 30
0.0
 10
512.7619095146205
 20
-197.6886131615506
 30
0.0
 10
512.7619095146205
 20
-197.6886131615506
 30
0.0
 10
512.7619095146205
 20
-197.6886131615506
 30
0.0
 10
512.7619095150684
 20
-202.6886131615501
 30
0.0
 10
512.7619095150684
 20
-202.6886131615501
 30
0.0
 10
512.7619095150684
 20
-202.6886131615501
 30
0.0
 10
537.761909515068
 20
-202.6886131593055
 30
0.0
 10
537.761909515068
 20
-202.6886131593055
 30
0.0
 10
537.761909515068
 20
-202.6886131593055
 30
0.0
 10
537.7619095146201
 20
-197.6886131593053
 30
0.0
 10
537.7619095146201
 20
-197.6886131593053
 30
0.0
 10
537.7619095146201
 20
-197.6886131593053
 30
0.0
 10
567.7619095146205
 20
-197.6886131566121
 30
0.0
 10
567.7619095146205
 20
-197.6886131566121
 30
0.0
 10
567.7619095146205
 20
-197.6886131566121
 30
0.0
 10
567.7619095150684
 20
-202.6886131566123
 30
0.0
 10
567.7619095150684
 20
-202.6886131566123
 30
0.0
 10
567.7619095153187
 20
-205.4500369057658
 30
0.0
 10
570.0004857663637
 20
-207.688613156411
 30
0.0
 10
572.7619095155197
 20
-207.6886131561626
 30
0.0
 10
572.7619095155197
 20
-207.6886131561626
 30
0.0
 10
592.7619095155197
 20
-207.6886131543671
 30
0.0
 10
592.7619095155197
 20
-207.6886131543671
 30
0.0
 10
592.7619095155197
 20
-207.6886131543671
 30
0.0
 10
592.7619095134522
 20
-184.6886131543657
 30
0.0
 10
592.7619095134522
 20
-184.6886131543657
 30
0.0
 10
592.7619095134522
 20
-184.6886131543657
 30
0.0
 10
587.7619095134527
 20
-184.6886131548149
 30
0.0
 10
587.7619095134527
 20
-184.6886131548149
 30
0.0
 10
587.7619095134527
 20
-184.6886131548149
 30
0.0
 10
587.7619095109411
 20
-156.6886131548152
 30
0.0
 10
587.7619095109411
 20
-156.6886131548152
 30
0.0
 10
587.7619095109411
 20
-156.6886131548152
 30
0.0
 10
592.7619095109407
 20
-156.688613154366
 30
0.0
 10
592.7619095109407
 20
-156.688613154366
 30
0.0
 10
592.7619095109407
 20
-156.688613154366
 30
0.0
 10
592.7619095089937
 20
-135.0219464876989
 30
0.0
 10
592.7619095089937
 20
-135.0219464876989
 30
0.0
 10
592.7619095089937
 20
-135.0219464876989
 30
0.0
 10
587.7619095089935
 20
-135.0219464881477
 30
0.0
 10
587.7619095089935
 20
-135.0219464881477
 30
0.0
 10
587.7619095089935
 20
-135.0219464881477
 30
0.0
 10
587.761909506482
 20
-107.0219464881442
 30
0.0
 10
587.761909506482
 20
-107.0219464881442
 30
0.0
 10
587.761909506482
 20
-107.0219464881442
 30
0.0
 10
592.7619095064814
 20
-107.0219464876953
 30
0.0
 10
592.7619095064814
 20
-107.0219464876953
 30
0.0
 10
592.7619095064814
 20
-107.0219464876953
 30
0.0
 10
592.7619095045345
 20
-85.35527982103945
 30
0.0
 10
592.7619095045345
 20
-85.35527982103945
 30
0.0
 10
592.7619095045345
 20
-85.35527982103945
 30
0.0
 10
587.7619095045344
 20
-85.35527982148831
 30
0.0
 10
587.7619095045344
 20
-85.35527982148831
 30
0.0
 10
587.7619095045344
 20
-85.35527982148831
 30
0.0
 10
587.7619095020189
 20
-57.35527982149021
 30
0.0
 10
587.7619095020189
 20
-57.35527982149021
 30
0.0
 10
587.7619095020189
 20
-57.35527982149021
 30
0.0
 10
592.7619095020223
 20
-57.35527982104134
 30
0.0
 10
592.7619095020223
 20
-57.35527982104134
 30
0.0
 10
592.7619095020223
 20
-57.35527982104134
 30
0.0
 10
592.7619095000754
 20
-35.6886131543707
 30
0.0
 10
592.7619095000754
 20
-35.6886131543707
 30
0.0
 10
592.7619095000754
 20
-35.6886131543707
 30
0.0
 10
587.7619095000751
 20
-35.68861315481957
 30
0.0
 10
587.7619095000751
 20
-35.68861315481957
 30
0.0
 10
587.7619095000751
 20
-35.68861315481957
 30
0.0
 10
587.7619094973801
 20
-5.688613154815944
 30
0.0
 10
587.7619094973801
 20
-5.688613154815944
 30
0.0
 10
587.7619094973801
 20
-5.688613154815944
 30
0.0
 10
257.7619094973812
 20
-5.688613184447681
 30
0.0
 10
257.7619094973812
 20
-5.688613184447681
 30
0.0
 10
257.7619094973812
 20
-5.688613184447681
 30
0.0
 10
257.7619095000751
 20
-35.68861318445002
 30
0.0
 10
257.7619095000751
 20
-35.68861318445002
 30
0.0
  0
SPLINE
  5
55
330
1F
100
AcDbEntity
  8
D_U+00E9coupe V5
 62
     3
370
     5
100
AcDbSpline
210
0.0
220
0.0
230
1.0
 70
     8
 71
     3
 72
     8
 73
     4
 74
     0
 42
0.0000000001
 43
0.0000000001
 12
1.0
 22
0.0
 32
0.0
 13
1.0
 23
0.0
 33
0.0
 40
0.0
 40
0.0
 40
0.0
 40
0.0
 40
1.0
 40
1.0
 40
1.0
 40
1.0
 10
567.8065238727489
 20
-167.6886131566072
 30
0.0
 10
567.8065238732469
 20
-173.2114606549155
 30
0.0
 10
563.3293713719534
 20
-177.6886131570093
 30
0.0
 10
557.8065238736489
 20
-177.6886131575053
 30
0.0
  0
SPLINE
  5
56
330
1F
100
AcDbEntity
  8
D_U+00E9coupe V5
 62
     3
370
     5
100
AcDbSpline
210
0.0
220
0.0
230
1.0
 70
    11
 71
     3
 72
    47
 73
    43
 74
     0
 42
0.0000000001
 43
0.0000000001
 12
1.0
 22
0.0
 32
0.0
 13
1.0
 23
0.0
 33
0.0
 40
0.0
 40
0.0
 40
0.0
 40
0.0
 40
1.0
 40
1.0
 40
1.0
 40
2.0
 40
2.0
 40
2.0
 40
3.0
 40
3.0
 40
3.0
 40
4.0
 40
4.0
 40
4.0
 40
5.0
 40
5.0
 40
5.0
 40
6.0
 40
6.0
 40
6.0
 40
7.0
 40
7.0
 40
7.0
 40
8.0
 40
8.0
 40
8.0
 40
9.0
 40
9.0
 40
9.0
 40
10.0
 40
10.0
 40
10.0
 40
11.0
 40
11.0
 40
11.0
 40
12.0
 40
12.0
 40
12.0
 40
13.0
 40
13.0
 40
13.0
 40
14.0
 40
14.0
 40
14.0
 40
14.0
 10
357.9194095033964
 20
-72.68861317545439
 30
0.0
 10
357.9194095033964
 20
-72.68861317545439
 30
0.0
 10
357.9194095038449
 20
-77.68861317545456
 30
0.0
 10
357.9194095038449
 20
-77.68861317545456
 30
0.0
 10
357.9194095038449
 20
-77.68861317545456
 30
0.0
 10
302.4236951430238
 20
-77.68861318043768
 30
0.0
 10
302.4236951430238
 20
-77.68861318043768
 30
0.0
 10
302.4236951430238
 20
-77.68861318043768
 30
0.0
 10
302.4236951421082
 20
-57.48854415634224
 30
0.0
 10
302.4236951421082
 20
-57.48854415634224
 30
0.0
 10
302.4236951416121
 20
-51.96569665803365
 30
0.0
 10
306.9008476429019
 20
-47.48854415593987
 30
0.0
 10
312.4236951412095
 20
-47.48854415544383
 30
0.0
 10
312.4236951412095
 20
-47.48854415544383
 30
0.0
 10
532.8226951412098
 20
-47.48854413565351
 30
0.0
 10
532.8226951412098
 20
-47.48854413565351
 30
0.0
 10
538.345542639518
 20
-47.4885441351578
 30
0.0
 10
542.8226951416119
 20
-51.96569663644754
 30
0.0
 10
542.8226951421092
 20
-57.48854413475613
 30
0.0
 10
542.8226951421092
 20
-57.48854413475613
 30
0.0
 10
542.822695143023
 20
-77.68861315885157
 30
0.0
 10
542.822695143023
 20
-77.68861315885157
 30
0.0
 10
542.822695143023
 20
-77.68861315885157
 30
0.0
 10
487.7619095038461
 20
-77.68861316379554
 30
0.0
 10
487.7619095038461
 20
-77.68861316379554
 30
0.0
 10
487.7619095038461
 20
-77.68861316379554
 30
0.0
 10
487.7619095033982
 20
-72.68861316379568
 30
0.0
 10
487.7619095033982
 20
-72.68861316379568
 30
0.0
 10
487.7619095033982
 20
-72.68861316379568
 30
0.0
 10
462.9194095033963
 20
-72.6886131660259
 30
0.0
 10
462.9194095033963
 20
-72.6886131660259
 30
0.0
 10
462.9194095033963
 20
-72.6886131660259
 30
0.0
 10
462.9194095038448
 20
-77.68861316602609
 30
0.0
 10
462.9194095038448
 20
-77.68861316602609
 30
0.0
 10
462.9194095038448
 20
-77.68861316602609
 30
0.0
 10
382.7619095038463
 20
-77.68861317322401
 30
0.0
 10
382.7619095038463
 20
-77.68861317322401
 30
0.0
 10
382.7619095038463
 20
-77.68861317322401
 30
0.0
 10
382.7619095033984
 20
-72.68861317322352
 30
0.0
 10
382.7619095033984
 20
-72.68861317322352
 30
0.0
 10
382.7619095033984
 20
-72.68861317322352
 30
0.0
 10
357.9194095033964
 20
-72.68861317545439
 30
0.0
 10
357.9194095033964
 20
-72.68861317545439
 30
0.0
  0
SPLINE
  5
57
330
1F
100
AcDbEntity
  8
D_U+00E9coupe V5
 62
     3
370
     5
100
AcDbSpline
210
0.0
220
0.0
230
1.0
 70
    11
 71
     3
 72
    29
 73
    25
 74
     0
 42
0.0000000001
 43
0.0000000001
 12
1.0
 22
0.0
 32
0.0
 13
1.0
 23
0.0
 33
0.0
 40
0.0
 40
0.0
 40
0.0
 40
0.0
 40
1.0
 40
1.0
 40
1.0
 40
2.0
 40
2.0
 40
2.0
 40
3.0
 40
3.0
 40
3.0
 40
4.0
 40
4.0
 40
4.0
 40
5.0
 40
5.0
 40
5.0
 40
6.0
 40
6.0
 40
6.0
 40
7.0
 40
7.0
 40
7.0
 40
8.0
 40
8.0
 40
8.0
 40
8.0
 10
558.930359829788
 20
-318.7518722362116
 30
0.0
 10
558.930359829788
 20
-318.7518722362116
 30
0.0
 10
558.930359829788
 20
-304.9291099374772
 30
0.0
 10
558.930359829788
 20
-304.9291099374772
 30
0.0
 10
558.9272780089651
 20
-304.8700708938993
 30
0.0
 10
558.9272780089651
 20
-304.810911279791
 30
0.0
 10
558.930359829788
 20
-304.7518722362157
 30
0.0
 10
558.9793026695359
 20
-303.8142646934853
 30
0.0
 10
559.7790597720665
 20
-303.093859612712
 30
0.0
 10
560.7166673147968
 20
-303.1428024524612
 30
0.0
 10
561.6542748575273
 20
-303.1917452922111
 30
0.0
 10
562.3746799383005
 20
-303.9915023947423
 30
0.0
 10
562.3257370985526
 20
-304.9291099374733
 30
0.0
 10
562.3257370985526
 20
-304.9291099374733
 30
0.0
 10
562.3257370985526
 20
-318.7518722362161
 30
0.0
 10
562.3257370985526
 20
-318.7518722362161
 30
0.0
 10
562.3288189193747
 20
-318.8109112797908
 30
0.0
 10
562.3288189193747
 20
-318.8700708939004
 30
0.0
 10
562.3257370985526
 20
-318.929109937477
 30
0.0
 10
562.2767942588008
 20
-319.8667174802074
 30
0.0
 10
561.4770371562664
 20
-320.5871225609793
 30
0.0
 10
560.539429613536
 20
-320.5381797212276
 30
0.0
 10
559.6018220708056
 20
-320.4892368814752
 30
0.0
 10
558.8814169900362
 20
-319.6894797789427
 30
0.0
 10
558.930359829788
 20
-318.7518722362116
 30
0.0
  0
SPLINE
  5
58
330
1F
100
AcDbEntity
  8
D_U+00E9coupe V5
 62
     3
370
     5
100
AcDbSpline
210
0.0
220
0.0
230
1.0
 70
    11
 71
     3
 72
    29
 73
    25
 74
     0
 42
0.0000000001
 43
0.0000000001
 12
1.0
 22
0.0
 32
0.0
 13
1.0
 23
0.0
 33
0.0
 40
0.0
 40
0.0
 40
0.0
 40
0.0
 40
1.0
 40
1.0
 40
1.0
 40
2.0
 40
2.0
 40
2.0
 40
3.0
 40
3.0
 40
3.0
 40
4.0
 40
4.0
 40
4.0
 40
5.0
 40
5.0
 40
5.0
 40
6.0
 40
6.0
 40
6.0
 40
7.0
 40
7.0
 40
7.0
 40
8.0
 40
8.0
 40
8.0
 40
8.0
 10
558.930359829788
 20
-345.0518722362154
 30
0.0
 10
558.8814169900362
 20
-345.9894797789458
 30
0.0
 10
559.6018220708056
 20
-346.789236881479
 30
0.0
 10
560.539429613536
 20
-346.8381797212307
 30
0.0
 10
561.4770371562664
 20
-346.8871225609825
 30
0.0
 10
562.2767942588008
 20
-346.1667174802112
 30
0.0
 10
562.3257370985526
 20
-345.2291099374808
 30
0.0
 10
562.3288189193747
 20
-345.1700708939042
 30
0.0
 10
562.3288189193747
 20
-345.1109112797946
 30
0.0
 10
562.3257370985526
 20
-345.0518722362181
 30
0.0
 10
562.3257370985526
 20
-345.0518722362181
 30
0.0
 10
562.3257370985526
 20
-331.2291099374765
 30
0.0
 10
562.3257370985526
 20
-331.2291099374765
 30
0.0
 10
562.3746799383005
 20
-330.2915023947454
 30
0.0
 10
561.6542748575273
 20
-329.4917452922149
 30
0.0
 10
560.7166673147968
 20
-329.4428024524651
 30
0.0
 10
559.7790597720665
 20
-329.3938596127152
 30
0.0
 10
558.9793026695359
 20
-330.1142646934885
 30
0.0
 10
558.930359829788
 20
-331.0518722362195
 30
0.0
 10
558.9272780089651
 20
-331.1109112797948
 30
0.0
 10
558.9272780089651
 20
-331.1700708939024
 30
0.0
 10
558.930359829788
 20
-331.2291099374777
 30
0.0
 10
558.930359829788
 20
-331.2291099374777
 30
0.0
 10
558.930359829788
 20
-345.0518722362154
 30
0.0
 10
558.930359829788
 20
-345.0518722362154
 30
0.0
  0
SPLINE
  5
59
330
1F
100
AcDbEntity
  8
D_U+00E9coupe V5
 62
     3
370
     5
100
AcDbSpline
210
0.0
220
0.0
230
1.0
 70
    11
 71
     3
 72
    20
 73
    16
 74
     0
 42
0.0000000001
 43
0.0000000001
 12
1.0
 22
0.0
 32
0.0
 13
1.0
 23
0.0
 33
0.0
 40
0.0
 40
0.0
 40
0.0
 40
0.0
 40
1.0
 40
1.0
 40
1.0
 40
2.0
 40
2.0
 40
2.0
 40
3.0
 40
3.0
 40
3.0
 40
4.0
 40
4.0
 40
4.0
 40
5.0
 40
5.0
 40
5.0
 40
5.0
 10
497.0056865946704
 20
-299.1418386987251
 30
0.0
 10
497.8893421944019
 20
-299.1418386987251
 30
0.0
 10
498.6056865946704
 20
-298.4254942984539
 30
0.0
 10
498.6056865946704
 20
-297.541838698725
 30
0.0
 10
498.6056865946704
 20
-296.6581830989955
 30
0.0
 10
497.8893421944019
 20
-295.941838698725
 30
0.0
 10
497.0056865946704
 20
-295.941838698725
 30
0.0
 10
496.1220309949428
 20
-295.941838698725
 30
0.0
 10
495.4056865946703
 20
-296.6581830989955
 30
0.0
 10
495.4056865946703
 20
-297.541838698725
 30
0.0
 10
495.4056865946703
 20
-298.4254942984539
 30
0.0
 10
496.1220309949428
 20
-299.1418386987251
 30
0.0
 10
497.0056865946704
 20
-299.1418386987251
 30
0.0
 10
497.0056865946704
 20
-299.1418386987251
 30
0.0
 10
497.0056865946704
 20
-299.1418386987251
 30
0.0
 10
497.0056865946704
 20
-299.1418386987251
 30
0.0
  0
SPLINE
  5
5A
330
1F
100
AcDbEntity
  8
D_U+00E9coupe V5
 62
     3
370
     5
100
AcDbSpline
210
0.0
220
0.0
230
1.0
 70
    11
 71
     3
 72
    20
 73
    16
 74
     0
 42
0.0000000001
 43
0.0000000001
 12
1.0
 22
0.0
 32
0.0
 13
1.0
 23
0.0
 33
0.0
 40
0.0
 40
0.0
 40
0.0
 40
0.0
 40
1.0
 40
1.0
 40
1.0
 40
2.0
 40
2.0
 40
2.0
 40
3.0
 40
3.0
 40
3.0
 40
4.0
 40
4.0
 40
4.0
 40
5.0
 40
5.0
 40
5.0
 40
5.0
 10
497.0056865946704
 20
-223.041686498724
 30
0.0
 10
497.8893421944019
 20
-223.041686498724
 30
0.0
 10
498.6056865946704
 20
-222.3253420984535
 30
0.0
 10
498.6056865946704
 20
-221.4416864987246
 30
0.0
 10
498.6056865946704
 20
-220.5580308989951
 30
0.0
 10
497.8893421944019
 20
-219.8416864987246
 30
0.0
 10
497.0056865946704
 20
-219.8416864987246
 30
0.0
 10
496.1220309949428
 20
-219.8416864987246
 30
0.0
 10
495.4056865946703
 20
-220.5580308989951
 30
0.0
 10
495.4056865946703
 20
-221.4416864987246
 30
0.0
 10
495.4056865946703
 20
-222.3253420984535
 30
0.0
 10
496.1220309949428
 20
-223.041686498724
 30
0.0
 10
497.0056865946704
 20
-223.041686498724
 30
0.0
 10
497.0056865946704
 20
-223.041686498724
 30
0.0
 10
497.0056865946704
 20
-223.041686498724
 30
0.0
 10
497.0056865946704
 20
-223.041686498724
 30
0.0
  0
SPLINE
  5
5B
330
1F
100
AcDbEntity
  8
D_U+00E9coupe V5
 62
     3
370
     5
100
AcDbSpline
210
0.0
220
0.0
230
1.0
 70
    11
 71
     3
 72
    20
 73
    16
 74
     0
 42
0.0000000001
 43
0.0000000001
 12
1.0
 22
0.0
 32
0.0
 13
1.0
 23
0.0
 33
0.0
 40
0.0
 40
0.0
 40
0.0
 40
0.0
 40
1.0
 40
1.0
 40
1.0
 40
2.0
 40
2.0
 40
2.0
 40
3.0
 40
3.0
 40
3.0
 40
4.0
 40
4.0
 40
4.0
 40
5.0
 40
5.0
 40
5.0
 40
5.0
 10
361.8054161946735
 20
-223.0416864987253
 30
0.0
 10
362.6890717944017
 20
-223.0416864987253
 30
0.0
 10
363.4054161946735
 20
-222.3253420984548
 30
0.0
 10
363.4054161946735
 20
-221.4416864987252
 30
0.0
 10
363.4054161946735
 20
-220.5580308989963
 30
0.0
 10
362.6890717944017
 20
-219.8416864987252
 30
0.0
 10
361.8054161946735
 20
-219.8416864987252
 30
0.0
 10
360.9217605949427
 20
-219.8416864987252
 30
0.0
 10
360.2054161946741
 20
-220.5580308989963
 30
0.0
 10
360.2054161946741
 20
-221.4416864987252
 30
0.0
 10
360.2054161946741
 20
-222.3253420984548
 30
0.0
 10
360.9217605949427
 20
-223.0416864987253
 30
0.0
 10
361.8054161946735
 20
-223.0416864987253
 30
0.0
 10
361.8054161946735
 20
-223.0416864987253
 30
0.0
 10
361.8054161946735
 20
-223.0416864987253
 30
0.0
 10
361.8054161946735
 20
-223.0416864987253
 30
0.0
  0
SPLINE
  5
5C
330
1F
100
AcDbEntity
  8
D_U+00E9coupe V5
 62
     3
370
     5
100
AcDbSpline
210
0.0
220
0.0
230
1.0
 70
    11
 71
     3
 72
    20
 73
    16
 74
     0
 42
0.0000000001
 43
0.0000000001
 12
1.0
 22
0.0
 32
0.0
 13
1.0
 23
0.0
 33
0.0
 40
0.0
 40
0.0
 40
0.0
 40
0.0
 40
1.0
 40
1.0
 40
1.0
 40
2.0
 40
2.0
 40
2.0
 40
3.0
 40
3.0
 40
3.0
 40
4.0
 40
4.0
 40
4.0
 40
5.0
 40
5.0
 40
5.0
 40
5.0
 10
361.8054161946735
 20
-299.1418386987257
 30
0.0
 10
362.6890717944017
 20
-299.1418386987257
 30
0.0
 10
363.4054161946735
 20
-298.4254942984552
 30
0.0
 10
363.4054161946735
 20
-297.5418386987257
 30
0.0
 10
363.4054161946735
 20
-296.6581830989961
 30
0.0
 10
362.6890717944017
 20
-295.9418386987256
 30
0.0
 10
361.8054161946735
 20
-295.9418386987256
 30
0.0
 10
360.9217605949427
 20
-295.9418386987256
 30
0.0
 10
360.2054161946741
 20
-296.6581830989961
 30
0.0
 10
360.2054161946741
 20
-297.5418386987257
 30
0.0
 10
360.2054161946741
 20
-298.4254942984552
 30
0.0
 10
360.9217605949427
 20
-299.1418386987257
 30
0.0
 10
361.8054161946735
 20
-299.1418386987257
 30
0.0
 10
361.8054161946735
 20
-299.1418386987257
 30
0.0
 10
361.8054161946735
 20
-299.1418386987257
 30
0.0
 10
361.8054161946735
 20
-299.1418386987257
 30
0.0
  0
POLYLINE
  5
5D
330
1F
100
AcDbEntity
  8
D_U+00E9coupe V5
 62
     3
370
     5
100
AcDb2dPolyline
 66
     1
 10
0.0
 20
0.0
 30
0.0
  0
VERTEX
  5
5E
330
5D
100
AcDbEntity
  8
D_U+00E9coupe V5
 62
     3
370
     5
100
AcDbVertex
100
AcDb2dVertex
 10
276.66944415901
 20
-211.6055553755046
 30
0.0
  0
VERTEX
  5
5F
330
5D
100
AcDbEntity
  8
D_U+00E9coupe V5
 62
     3
370
     5
100
AcDbVertex
100
AcDb2dVertex
 10
306.826944159009
 20
-211.6055553755046
 30
0.0
  0
VERTEX
  5
60
330
5D
100
AcDbEntity
  8
D_U+00E9coupe V5
 62
     3
370
     5
100
AcDbVertex
100
AcDb2dVertex
 10
306.826944159009
 20
-216.6055553755041
 30
0.0
  0
VERTEX
  5
61
330
5D
100
AcDbEntity
  8
D_U+00E9coupe V5
 62
     3
370
     5
100
AcDbVertex
100
AcDb2dVertex
 10
331.8269441590086
 20
-216.6055553755041
 30
0.0
  0
VERTEX
  5
62
330
5D
100
AcDbEntity
  8
D_U+00E9coupe V5
 62
     3
370
     5
100
AcDbVertex
100
AcDb2dVertex
 10
331.8269441590086
 20
-211.6055553755046
 30
0.0
  0
VERTEX
  5
63
330
5D
100
AcDbEntity
  8
D_U+00E9coupe V5
 62
     3
370
     5
100
AcDbVertex
100
AcDb2dVertex
 10
384.2481941590113
 20
-211.6055553755046
 30
0.0
  0
VERTEX
  5
64
330
5D
100
AcDbEntity
  8
D_U+00E9coupe V5
 62
     3
370
     5
100
AcDbVertex
100
AcDb2dVertex
 10
384.2481941590113
 20
-216.6055553755028
 30
0.0
  0
VERTEX
  5
65
330
5D
100
AcDbEntity
  8
D_U+00E9coupe V5
 62
     3
370
     5
100
AcDbVertex
100
AcDb2dVertex
 10
426.6694441590085
 20
-216.6055553755028
 30
0.0
  0
VERTEX
  5
66
330
5D
100
AcDbEntity
  8
D_U+00E9coupe V5
 62
     3
370
     5
100
AcDbVertex
100
AcDb2dVertex
 10
426.6694441590085
 20
-211.6055553755039
 30
0.0
  0
VERTEX
  5
67
330
5D
100
AcDbEntity
  8
D_U+00E9coupe V5
 62
     3
370
     5
100
AcDbVertex
100
AcDb2dVertex
 10
456.6694441590083
 20
-211.6055553755039
 30
0.0
  0
VERTEX
  5
68
330
5D
100
AcDbEntity
  8
D_U+00E9coupe V5
 62
     3
370
     5
100
AcDbVertex
100
AcDb2dVertex
 10
456.6694441590083
 20
-216.6055553755028
 30
0.0
  0
VERTEX
  5
69
330
5D
100
AcDbEntity
  8
D_U+00E9coupe V5
 62
     3
370
     5
100
AcDbVertex
100
AcDb2dVertex
 10
481.6694441590085
 20
-216.6055553755028
 30
0.0
  0
VERTEX
  5
6A
330
5D
100
AcDbEntity
  8
D_U+00E9coupe V5
 62
     3
370
     5
100
AcDbVertex
100
AcDb2dVertex
 10
481.6694441590085
 20
-211.6055553755046
 30
0.0
  0
VERTEX
  5
6B
330
5D
100
AcDbEntity
  8
D_U+00E9coupe V5
 62
     3
370
     5
100
AcDbVertex
100
AcDb2dVertex
 10
511.6694441590083
 20
-211.6055553755046
 30
0.0
  0
VERTEX
  5
6C
330
5D
100
AcDbEntity
  8
D_U+00E9coupe V5
 62
     3
370
     5
100
AcDbVertex
100
AcDb2dVertex
 10
511.6694441590083
 20
-216.6055553755041
 30
0.0
  0
VERTEX
  5
6D
330
5D
100
AcDbEntity
  8
D_U+00E9coupe V5
 62
     3
370
     5
100
AcDbVertex
100
AcDb2dVertex
 10
536.6694441590085
 20
-216.6055553755041
 30
0.0
  0
VERTEX
  5
6E
330
5D
100
AcDbEntity
  8
D_U+00E9coupe V5
 62
     3
370
     5
100
AcDbVertex
100
AcDb2dVertex
 10
536.6694441590085
 20
-211.6055553755046
 30
0.0
  0
VERTEX
  5
6F
330
5D
100
AcDbEntity
  8
D_U+00E9coupe V5
 62
     3
370
     5
100
AcDbVertex
100
AcDb2dVertex
 10
566.6694441590083
 20
-211.6055553755046
 30
0.0
  0
VERTEX
  5
70
330
5D
100
AcDbEntity
  8
D_U+00E9coupe V5
 62
     3
370
     5
100
AcDbVertex
100
AcDb2dVertex
 10
566.6694441590083
 20
-216.6055553755041
 30
0.0
  0
VERTEX
  5
71
330
5D
100
AcDbEntity
  8
D_U+00E9coupe V5
 62
     3
370
     5
100
AcDbVertex
100
AcDb2dVertex
 10
586.6694441590084
 20
-216.6055553755041
 30
0.0
  0
VERTEX
  5
72
330
5D
100
AcDbEntity
  8
D_U+00E9coupe V5
 62
     3
370
     5
100
AcDbVertex
100
AcDb2dVertex
 10
586.6694441590084
 20
-236.6055553755035
 30
0.0
  0
VERTEX
  5
73
330
5D
100
AcDbEntity
  8
D_U+00E9coupe V5
 62
     3
370
     5
100
AcDbVertex
100
AcDb2dVertex
 10
591.6694441590085
 20
-236.6055553755035
 30
0.0
  0
VERTEX
  5
74
330
5D
100
AcDbEntity
  8
D_U+00E9coupe V5
 62
     3
370
     5
100
AcDbVertex
100
AcDb2dVertex
 10
591.6694441590085
 20
-266.6055553755033
 30
0.0
  0
VERTEX
  5
75
330
5D
100
AcDbEntity
  8
D_U+00E9coupe V5
 62
     3
370
     5
100
AcDbVertex
100
AcDb2dVertex
 10
586.6694441590084
 20
-266.6055553755033
 30
0.0
  0
VERTEX
  5
76
330
5D
100
AcDbEntity
  8
D_U+00E9coupe V5
 62
     3
370
     5
100
AcDbVertex
100
AcDb2dVertex
 10
586.6694441590084
 20
-296.6055553755044
 30
0.0
  0
VERTEX
  5
77
330
5D
100
AcDbEntity
  8
D_U+00E9coupe V5
 62
     3
370
     5
100
AcDbVertex
100
AcDb2dVertex
 10
591.6694441590085
 20
-296.6055553755044
 30
0.0
  0
VERTEX
  5
78
330
5D
100
AcDbEntity
  8
D_U+00E9coupe V5
 62
     3
370
     5
100
AcDbVertex
100
AcDb2dVertex
 10
591.6694441590085
 20
-336.6055553730044
 30
0.0
  0
VERTEX
  5
79
330
5D
100
AcDbEntity
  8
D_U+00E9coupe V5
 62
     3
370
     5
100
AcDbVertex
100
AcDb2dVertex
 10
586.6694441590084
 20
-336.6055553730044
 30
0.0
  0
VERTEX
  5
7A
330
5D
100
AcDbEntity
  8
D_U+00E9coupe V5
 62
     3
370
     5
100
AcDbVertex
100
AcDb2dVertex
 10
586.6694441590084
 20
-356.6055553755045
 30
0.0
  0
VERTEX
  5
7B
330
5D
100
AcDbEntity
  8
D_U+00E9coupe V5
 62
     3
370
     5
100
AcDbVertex
100
AcDb2dVertex
 10
566.6694441590083
 20
-356.6055553755045
 30
0.0
  0
VERTEX
  5
7C
330
5D
100
AcDbEntity
  8
D_U+00E9coupe V5
 62
     3
370
     5
100
AcDbVertex
100
AcDb2dVertex
 10
566.6694441590083
 20
-361.6055553755015
 30
0.0
  0
VERTEX
  5
7D
330
5D
100
AcDbEntity
  8
D_U+00E9coupe V5
 62
     3
370
     5
100
AcDbVertex
100
AcDb2dVertex
 10
492.488484095679
 20
-361.6055553755015
 30
0.0
  0
VERTEX
  5
7E
330
5D
100
AcDbEntity
  8
D_U+00E9coupe V5
 62
     3
370
     5
100
AcDbVertex
100
AcDb2dVertex
 10
492.488484095679
 20
-356.6055553755045
 30
0.0
  0
VERTEX
  5
7F
330
5D
100
AcDbEntity
  8
D_U+00E9coupe V5
 62
     3
370
     5
100
AcDbVertex
100
AcDb2dVertex
 10
453.2915441590092
 20
-356.6055553755045
 30
0.0
  0
VERTEX
  5
80
330
5D
100
AcDbEntity
  8
D_U+00E9coupe V5
 62
     3
370
     5
100
AcDbVertex
100
AcDb2dVertex
 10
453.2915441590092
 20
-361.6055553755015
 30
0.0
  0
VERTEX
  5
81
330
5D
100
AcDbEntity
  8
D_U+00E9coupe V5
 62
     3
370
     5
100
AcDbVertex
100
AcDb2dVertex
 10
386.7481441083745
 20
-361.6055553755015
 30
0.0
  0
VERTEX
  5
82
330
5D
100
AcDbEntity
  8
D_U+00E9coupe V5
 62
     3
370
     5
100
AcDbVertex
100
AcDb2dVertex
 10
386.7481441083745
 20
-356.6055553755045
 30
0.0
  0
VERTEX
  5
83
330
5D
100
AcDbEntity
  8
D_U+00E9coupe V5
 62
     3
370
     5
100
AcDbVertex
100
AcDb2dVertex
 10
350.8504042223409
 20
-356.6055553755045
 30
0.0
  0
VERTEX
  5
84
330
5D
100
AcDbEntity
  8
D_U+00E9coupe V5
 62
     3
370
     5
100
AcDbVertex
100
AcDb2dVertex
 10
350.8504042223409
 20
-361.6055553755015
 30
0.0
  0
VERTEX
  5
85
330
5D
100
AcDbEntity
  8
D_U+00E9coupe V5
 62
     3
370
     5
100
AcDbVertex
100
AcDb2dVertex
 10
276.66944415901
 20
-361.6055553755015
 30
0.0
  0
VERTEX
  5
86
330
5D
100
AcDbEntity
  8
D_U+00E9coupe V5
 62
     3
370
     5
100
AcDbVertex
100
AcDb2dVertex
 10
276.66944415901
 20
-356.6055553755045
 30
0.0
  0
VERTEX
  5
87
330
5D
100
AcDbEntity
  8
D_U+00E9coupe V5
 62
     3
370
     5
100
AcDbVertex
100
AcDb2dVertex
 10
256.6694441590089
 20
-356.6055553755045
 30
0.0
  0
VERTEX
  5
88
330
5D
100
AcDbEntity
  8
D_U+00E9coupe V5
 62
     3
370
     5
100
AcDbVertex
100
AcDb2dVertex
 10
256.6694441590089
 20
-336.6055553730044
 30
0.0
  0
VERTEX
  5
89
330
5D
100
AcDbEntity
  8
D_U+00E9coupe V5
 62
     3
370
     5
100
AcDbVertex
100
AcDb2dVertex
 10
251.6694441590094
 20
-336.6055553730044
 30
0.0
  0
VERTEX
  5
8A
330
5D
100
AcDbEntity
  8
D_U+00E9coupe V5
 62
     3
370
     5
100
AcDbVertex
100
AcDb2dVertex
 10
251.6694441590094
 20
-296.6055553755044
 30
0.0
  0
VERTEX
  5
8B
330
5D
100
AcDbEntity
  8
D_U+00E9coupe V5
 62
     3
370
     5
100
AcDbVertex
100
AcDb2dVertex
 10
256.6694441590089
 20
-296.6055553755044
 30
0.0
  0
VERTEX
  5
8C
330
5D
100
AcDbEntity
  8
D_U+00E9coupe V5
 62
     3
370
     5
100
AcDbVertex
100
AcDb2dVertex
 10
256.6694441590089
 20
-266.6055553755033
 30
0.0
  0
VERTEX
  5
8D
330
5D
100
AcDbEntity
  8
D_U+00E9coupe V5
 62
     3
370
     5
100
AcDbVertex
100
AcDb2dVertex
 10
251.6694441590094
 20
-266.6055553755033
 30
0.0
  0
VERTEX
  5
8E
330
5D
100
AcDbEntity
  8
D_U+00E9coupe V5
 62
     3
370
     5
100
AcDbVertex
100
AcDb2dVertex
 10
251.6694441590094
 20
-236.6055553755035
 30
0.0
  0
VERTEX
  5
8F
330
5D
100
AcDbEntity
  8
D_U+00E9coupe V5
 62
     3
370
     5
100
AcDbVertex
100
AcDb2dVertex
 10
256.6694441590089
 20
-236.6055553755035
 30
0.0
  0
VERTEX
  5
90
330
5D
100
AcDbEntity
  8
D_U+00E9coupe V5
 62
     3
370
     5
100
AcDbVertex
100
AcDb2dVertex
 10
256.6694441590089
 20
-216.6055553755041
 30
0.0
  0
VERTEX
  5
91
330
5D
100
AcDbEntity
  8
D_U+00E9coupe V5
 62
     3
370
     5
100
AcDbVertex
100
AcDb2dVertex
 10
276.66944415901
 20
-216.6055553755041
 30
0.0
  0
VERTEX
  5
92
330
5D
100
AcDbEntity
  8
D_U+00E9coupe V5
 62
     3
370
     5
100
AcDbVertex
100
AcDb2dVertex
 10
276.66944415901
 20
-211.6055553755046
 30
0.0
  0
SEQEND
  5
93
330
5D
100
AcDbEntity
  8
D_U+00E9coupe V5
 62
     3
370
     5
  0
SPLINE
  5
94
330
1F
100
AcDbEntity
  8
D_U+00E9coupe V5
 62
     3
370
     5
100
AcDbSpline
210
0.0
220
0.0
230
1.0
 70
    11
 71
     3
 72
    20
 73
    16
 74
     0
 42
0.0000000001
 43
0.0000000001
 12
1.0
 22
0.0
 32
0.0
 13
1.0
 23
0.0
 33
0.0
 40
0.0
 40
0.0
 40
0.0
 40
0.0
 40
1.0
 40
1.0
 40
1.0
 40
2.0
 40
2.0
 40
2.0
 40
3.0
 40
3.0
 40
3.0
 40
4.0
 40
4.0
 40
4.0
 40
5.0
 40
5.0
 40
5.0
 40
5.0
 10
240.2882331102715
 20
-138.1513468579719
 30
0.0
 10
241.2271171849838
 20
-138.1513468579719
 30
0.0
 10
241.9882331102719
 20
-138.9124627832593
 30
0.0
 10
241.9882331102719
 20
-139.8513468579716
 30
0.0
 10
241.9882331102719
 20
-140.790230932684
 30
0.0
 10
241.2271171849838
 20
-141.5513468579723
 30
0.0
 10
240.2882331102715
 20
-141.5513468579723
 30
0.0
 10
239.3493490355592
 20
-141.5513468579723
 30
0.0
 10
238.5882331102711
 20
-140.790230932684
 30
0.0
 10
238.5882331102711
 20
-139.8513468579716
 30
0.0
 10
238.5882331102711
 20
-138.9124627832593
 30
0.0
 10
239.3493490355592
 20
-138.1513468579719
 30
0.0
 10
240.2882331102715
 20
-138.1513468579719
 30
0.0
 10
240.2882331102715
 20
-138.1513468579719
 30
0.0
 10
240.2882331102715
 20
-138.1513468579719
 30
0.0
 10
240.2882331102715
 20
-138.1513468579719
 30
0.0
  0
SPLINE
  5
95
330
1F
100
AcDbEntity
  8
D_U+00E9coupe V5
 62
     3
370
     5
100
AcDbSpline
210
0.0
220
0.0
230
1.0
 70
    11
 71
     3
 72
    20
 73
    16
 74
     0
 42
0.0000000001
 43
0.0000000001
 12
1.0
 22
0.0
 32
0.0
 13
1.0
 23
0.0
 33
0.0
 40
0.0
 40
0.0
 40
0.0
 40
0.0
 40
1.0
 40
1.0
 40
1.0
 40
2.0
 40
2.0
 40
2.0
 40
3.0
 40
3.0
 40
3.0
 40
4.0
 40
4.0
 40
4.0
 40
5.0
 40
5.0
 40
5.0
 40
5.0
 10
14.38814829369204
 20
-141.5513468579723
 30
0.0
 10
13.44926421897974
 20
-141.5513468579723
 30
0.0
 10
12.68814829369166
 20
-140.790230932684
 30
0.0
 10
12.68814829369166
 20
-139.8513468579716
 30
0.0
 10
12.68814829369166
 20
-138.9124627832593
 30
0.0
 10
13.44926421897974
 20
-138.1513468579719
 30
0.0
 10
14.38814829369204
 20
-138.1513468579719
 30
0.0
 10
15.32703236840435
 20
-138.1513468579719
 30
0.0
 10
16.08814829369178
 20
-138.9124627832593
 30
0.0
 10
16.08814829369178
 20
-139.8513468579716
 30
0.0
 10
16.08814829369178
 20
-140.790230932684
 30
0.0
 10
15.32703236840435
 20
-141.5513468579723
 30
0.0
 10
14.38814829369204
 20
-141.5513468579723
 30
0.0
 10
14.38814829369204
 20
-141.5513468579723
 30
0.0
 10
14.38814829369204
 20
-141.5513468579723
 30
0.0
 10
14.38814829369204
 20
-141.5513468579723
 30
0.0
  0
SPLINE
  5
96
330
1F
100
AcDbEntity
  8
D_U+00E9coupe V5
 62
     3
370
     5
100
AcDbSpline
210
0.0
220
0.0
230
1.0
 70
    11
 71
     3
 72
    35
 73
    31
 74
     0
 42
0.0000000001
 43
0.0000000001
 12
1.0
 22
0.0
 32
0.0
 13
1.0
 23
0.0
 33
0.0
 40
0.0
 40
0.0
 40
0.0
 40
0.0
 40
1.0
 40
1.0
 40
1.0
 40
2.0
 40
2.0
 40
2.0
 40
3.0
 40
3.0
 40
3.0
 40
4.0
 40
4.0
 40
4.0
 40
5.0
 40
5.0
 40
5.0
 40
6.0
 40
6.0
 40
6.0
 40
7.0
 40
7.0
 40
7.0
 40
8.0
 40
8.0
 40
8.0
 40
9.0
 40
9.0
 40
9.0
 40
10.0
 40
10.0
 40
10.0
 40
10.0
 10
21.83819070198351
 20
-50.55361974185035
 30
0.0
 10
21.83819070198351
 20
-50.55361974185035
 30
0.0
 10
232.8381907019813
 20
-50.55361974185324
 30
0.0
 10
232.8381907019813
 20
-50.55361974185324
 30
0.0
 10
232.8381907019813
 20
-50.55361974185324
 30
0.0
 10
232.8381907019813
 20
-82.29616520796435
 30
0.0
 10
232.8381907019813
 20
-82.29616520796435
 30
0.0
 10
232.8381907019813
 20
-82.29616520796435
 30
0.0
 10
89.7272042999831
 20
-82.29616520796435
 30
0.0
 10
89.7272042999831
 20
-82.29616520796435
 30
0.0
 10
89.7272042999831
 20
-82.29616520796435
 30
0.0
 10
89.72720429998246
 20
-112.8555811676816
 30
0.0
 10
89.72720429998246
 20
-112.8555811676816
 30
0.0
 10
89.72720429998246
 20
-113.4078659175126
 30
0.0
 10
89.27948904981274
 20
-113.8555811676817
 30
0.0
 10
88.72720429998242
 20
-113.8555811676817
 30
0.0
 10
88.72720429998242
 20
-113.8555811676817
 30
0.0
 10
84.7261922979822
 20
-113.8555811676817
 30
0.0
 10
84.7261922979822
 20
-113.8555811676817
 30
0.0
 10
84.17390754815156
 20
-113.8555811676817
 30
0.0
 10
83.72619229798248
 20
-113.407865917512
 30
0.0
 10
83.72619229798248
 20
-112.8555811676816
 30
0.0
 10
83.72619229798248
 20
-112.8555811676816
 30
0.0
 10
83.72619229798248
 20
-82.29616520796435
 30
0.0
 10
83.72619229798248
 20
-82.29616520796435
 30
0.0
 10
83.72619229798248
 20
-82.29616520796435
 30
0.0
 10
21.83819070198287
 20
-82.2961652079621
 30
0.0
 10
21.83819070198287
 20
-82.2961652079621
 30
0.0
 10
21.83819070198287
 20
-82.2961652079621
 30
0.0
 10
21.83819070198351
 20
-50.55361974185035
 30
0.0
 10
21.83819070198351
 20
-50.55361974185035
 30
0.0
  0
SPLINE
  5
97
330
1F
100
AcDbEntity
  8
D_U+00E9coupe V5
 62
     3
370
     5
100
AcDbSpline
210
0.0
220
0.0
230
1.0
 70
    11
 71
     3
 72
    26
 73
    22
 74
     0
 42
0.0000000001
 43
0.0000000001
 12
1.0
 22
0.0
 32
0.0
 13
1.0
 23
0.0
 33
0.0
 40
0.0
 40
0.0
 40
0.0
 40
0.0
 40
1.0
 40
1.0
 40
1.0
 40
2.0
 40
2.0
 40
2.0
 40
3.0
 40
3.0
 40
3.0
 40
4.0
 40
4.0
 40
4.0
 40
5.0
 40
5.0
 40
5.0
 40
6.0
 40
6.0
 40
6.0
 40
7.0
 40
7.0
 40
7.0
 40
7.0
 10
183.0287848035247
 20
-97.93347131181783
 30
0.0
 10
183.0287848035247
 20
-97.37736472036443
 30
0.0
 10
187.7297949303007
 20
-96.92655125540844
 30
0.0
 10
193.5287848035241
 20
-96.92655125540844
 30
0.0
 10
199.3277746767475
 20
-96.92655125540844
 30
0.0
 10
204.0287848035248
 20
-97.37736472036443
 30
0.0
 10
204.0287848035248
 20
-97.93347131181783
 30
0.0
 10
204.0287848035248
 20
-97.93347131181783
 30
0.0
 10
204.0287848035235
 20
-117.9334713118179
 30
0.0
 10
204.0287848035235
 20
-117.9334713118179
 30
0.0
 10
204.0287848035235
 20
-119.0380408114801
 30
0.0
 10
203.1333543031853
 20
-119.9334713118186
 30
0.0
 10
202.0287848035238
 20
-119.9334713118186
 30
0.0
 10
202.0287848035238
 20
-119.9334713118186
 30
0.0
 10
185.0287848035235
 20
-119.9334713118186
 30
0.0
 10
185.0287848035235
 20
-119.9334713118186
 30
0.0
 10
183.9242153038628
 20
-119.9334713118186
 30
0.0
 10
183.0287848035247
 20
-119.0380408114801
 30
0.0
 10
183.0287848035247
 20
-117.9334713118179
 30
0.0
 10
183.0287848035247
 20
-117.9334713118179
 30
0.0
 10
183.0287848035247
 20
-97.93347131181783
 30
0.0
 10
183.0287848035247
 20
-97.93347131181783
 30
0.0
  0
SPLINE
  5
98
330
1F
100
AcDbEntity
  8
D_U+00E9coupe V5
 62
     3
370
     5
100
AcDbSpline
210
0.0
220
0.0
230
1.0
 70
    11
 71
     3
 72
    26
 73
    22
 74
     0
 42
0.0000000001
 43
0.0000000001
 12
1.0
 22
0.0
 32
0.0
 13
1.0
 23
0.0
 33
0.0
 40
0.0
 40
0.0
 40
0.0
 40
0.0
 40
1.0
 40
1.0
 40
1.0
 40
2.0
 40
2.0
 40
2.0
 40
3.0
 40
3.0
 40
3.0
 40
4.0
 40
4.0
 40
4.0
 40
5.0
 40
5.0
 40
5.0
 40
6.0
 40
6.0
 40
6.0
 40
7.0
 40
7.0
 40
7.0
 40
7.0
 10
35.02878480352459
 20
-96.93347131181811
 30
0.0
 10
35.02878480352459
 20
-96.93347131181811
 30
0.0
 10
35.02878480352459
 20
-116.9334713118179
 30
0.0
 10
35.02878480352459
 20
-116.9334713118179
 30
0.0
 10
35.02878480352395
 20
-118.0380408114798
 30
0.0
 10
35.92421530386275
 20
-118.9334713118179
 30
0.0
 10
37.02878480352403
 20
-118.9334713118179
 30
0.0
 10
37.02878480352403
 20
-118.9334713118179
 30
0.0
 10
54.02878480352398
 20
-118.9334713118179
 30
0.0
 10
54.02878480352398
 20
-118.9334713118179
 30
0.0
 10
55.13335430318525
 20
-118.9334713118179
 30
0.0
 10
56.02878480352341
 20
-118.0380408114798
 30
0.0
 10
56.02878480352341
 20
-116.9334713118179
 30
0.0
 10
56.02878480352341
 20
-116.9334713118179
 30
0.0
 10
56.02878480352469
 20
-96.93347131181811
 30
0.0
 10
56.02878480352469
 20
-96.93347131181811
 30
0.0
 10
56.02878480352469
 20
-96.3773647203644
 30
0.0
 10
51.32777467674743
 20
-95.92655125540873
 30
0.0
 10
45.528784803524
 20
-95.92655125540873
 30
0.0
 10
39.72979493030122
 20
-95.92655125540873
 30
0.0
 10
35.02878480352459
 20
-96.3773647203644
 30
0.0
 10
35.02878480352459
 20
-96.93347131181811
 30
0.0
  0
SPLINE
  5
99
330
1F
100
AcDbEntity
  8
D_U+00E9coupe V5
 62
     3
370
     5
100
AcDbSpline
210
0.0
220
0.0
230
1.0
 70
    11
 71
     3
 72
    20
 73
    16
 74
     0
 42
0.0000000001
 43
0.0000000001
 12
1.0
 22
0.0
 32
0.0
 13
1.0
 23
0.0
 33
0.0
 40
0.0
 40
0.0
 40
0.0
 40
0.0
 40
1.0
 40
1.0
 40
1.0
 40
2.0
 40
2.0
 40
2.0
 40
3.0
 40
3.0
 40
3.0
 40
4.0
 40
4.0
 40
4.0
 40
5.0
 40
5.0
 40
5.0
 40
5.0
 10
14.38814829369204
 20
-80.15134685797179
 30
0.0
 10
15.32703236840435
 20
-80.15134685797179
 30
0.0
 10
16.08814829369178
 20
-80.91246278325922
 30
0.0
 10
16.08814829369178
 20
-81.85134685797152
 30
0.0
 10
16.08814829369178
 20
-82.79023093268383
 30
0.0
 10
15.32703236840435
 20
-83.55134685797191
 30
0.0
 10
14.38814829369204
 20
-83.55134685797191
 30
0.0
 10
13.44926421897974
 20
-83.55134685797191
 30
0.0
 10
12.68814829369166
 20
-82.79023093268383
 30
0.0
 10
12.68814829369166
 20
-81.85134685797152
 30
0.0
 10
12.68814829369166
 20
-80.91246278325922
 30
0.0
 10
13.44926421897974
 20
-80.15134685797179
 30
0.0
 10
14.38814829369204
 20
-80.15134685797179
 30
0.0
 10
14.38814829369204
 20
-80.15134685797179
 30
0.0
 10
14.38814829369204
 20
-80.15134685797179
 30
0.0
 10
14.38814829369204
 20
-80.15134685797179
 30
0.0
  0
SPLINE
  5
9A
330
1F
100
AcDbEntity
  8
D_U+00E9coupe V5
 62
     3
370
     5
100
AcDbSpline
210
0.0
220
0.0
230
1.0
 70
    11
 71
     3
 72
    20
 73
    16
 74
     0
 42
0.0000000001
 43
0.0000000001
 12
1.0
 22
0.0
 32
0.0
 13
1.0
 23
0.0
 33
0.0
 40
0.0
 40
0.0
 40
0.0
 40
0.0
 40
1.0
 40
1.0
 40
1.0
 40
2.0
 40
2.0
 40
2.0
 40
3.0
 40
3.0
 40
3.0
 40
4.0
 40
4.0
 40
4.0
 40
5.0
 40
5.0
 40
5.0
 40
5.0
 10
240.2845755927746
 20
-80.15134685797179
 30
0.0
 10
241.2234596674873
 20
-80.15134685797179
 30
0.0
 10
241.9845755927738
 20
-80.91246278325922
 30
0.0
 10
241.9845755927738
 20
-81.85134685797152
 30
0.0
 10
241.9845755927738
 20
-82.79023093268383
 30
0.0
 10
241.2234596674873
 20
-83.55134685797191
 30
0.0
 10
240.2845755927746
 20
-83.55134685797191
 30
0.0
 10
239.3456915180624
 20
-83.55134685797191
 30
0.0
 10
238.5845755927743
 20
-82.79023093268383
 30
0.0
 10
238.5845755927743
 20
-81.85134685797152
 30
0.0
 10
238.5845755927743
 20
-80.91246278325922
 30
0.0
 10
239.3456915180624
 20
-80.15134685797179
 30
0.0
 10
240.2845755927746
 20
-80.15134685797179
 30
0.0
 10
240.2845755927746
 20
-80.15134685797179
 30
0.0
 10
240.2845755927746
 20
-80.15134685797179
 30
0.0
 10
240.2845755927746
 20
-80.15134685797179
 30
0.0
  0
POLYLINE
  5
9B
330
1F
100
AcDbEntity
  8
D_U+00E9coupe V5
 62
     3
370
     5
100
AcDb2dPolyline
 66
     1
 10
0.0
 20
0.0
 30
0.0
  0
VERTEX
  5
9C
330
9B
100
AcDbEntity
  8
D_U+00E9coupe V5
 62
     3
370
     5
100
AcDbVertex
100
AcDb2dVertex
 10
7.141348219480633
 20
-155.68861974185
 30
0.0
  0
VERTEX
  5
9D
330
9B
100
AcDbEntity
  8
D_U+00E9coupe V5
 62
     3
370
     5
100
AcDbVertex
100
AcDb2dVertex
 10
7.141348219479991
 20
-5.688619741852413
 30
0.0
  0
VERTEX
  5
9E
330
9B
100
AcDbEntity
  8
D_U+00E9coupe V5
 62
     3
370
     5
100
AcDbVertex
100
AcDb2dVertex
 10
62.2021338586581
 20
-5.688619741852413
 30
0.0
  0
VERTEX
  5
9F
330
9B
100
AcDbEntity
  8
D_U+00E9coupe V5
 62
     3
370
     5
100
AcDbVertex
100
AcDb2dVertex
 10
62.2021338586581
 20
-10.68861974185227
 30
0.0
  0
VERTEX
  5
A0
330
9B
100
AcDbEntity
  8
D_U+00E9coupe V5
 62
     3
370
     5
100
AcDbVertex
100
AcDb2dVertex
 10
87.0446338586575
 20
-10.68861974185227
 30
0.0
  0
VERTEX
  5
A1
330
9B
100
AcDbEntity
  8
D_U+00E9coupe V5
 62
     3
370
     5
100
AcDbVertex
100
AcDb2dVertex
 10
87.0446338586575
 20
-5.688619741852413
 30
0.0
  0
VERTEX
  5
A2
330
9B
100
AcDbEntity
  8
D_U+00E9coupe V5
 62
     3
370
     5
100
AcDbVertex
100
AcDb2dVertex
 10
167.2021338586573
 20
-5.688619741852413
 30
0.0
  0
VERTEX
  5
A3
330
9B
100
AcDbEntity
  8
D_U+00E9coupe V5
 62
     3
370
     5
100
AcDbVertex
100
AcDb2dVertex
 10
167.2021338586573
 20
-10.68861974185227
 30
0.0
  0
VERTEX
  5
A4
330
9B
100
AcDbEntity
  8
D_U+00E9coupe V5
 62
     3
370
     5
100
AcDbVertex
100
AcDb2dVertex
 10
192.0446338586574
 20
-10.68861974185227
 30
0.0
  0
VERTEX
  5
A5
330
9B
100
AcDbEntity
  8
D_U+00E9coupe V5
 62
     3
370
     5
100
AcDbVertex
100
AcDb2dVertex
 10
192.0446338586574
 20
-5.688619741852413
 30
0.0
  0
VERTEX
  5
A6
330
9B
100
AcDbEntity
  8
D_U+00E9coupe V5
 62
     3
370
     5
100
AcDbVertex
100
AcDb2dVertex
 10
247.5313756669861
 20
-5.688619741852413
 30
0.0
  0
VERTEX
  5
A7
330
9B
100
AcDbEntity
  8
D_U+00E9coupe V5
 62
     3
370
     5
100
AcDbVertex
100
AcDb2dVertex
 10
247.5313756669861
 20
-155.6886197418507
 30
0.0
  0
VERTEX
  5
A8
330
9B
100
AcDbEntity
  8
D_U+00E9coupe V5
 62
     3
370
     5
100
AcDbVertex
100
AcDb2dVertex
 10
192.0446338586574
 20
-155.6886197418513
 30
0.0
  0
VERTEX
  5
A9
330
9B
100
AcDbEntity
  8
D_U+00E9coupe V5
 62
     3
370
     5
100
AcDbVertex
100
AcDb2dVertex
 10
192.0446338586574
 20
-150.6886197418524
 30
0.0
  0
VERTEX
  5
AA
330
9B
100
AcDbEntity
  8
D_U+00E9coupe V5
 62
     3
370
     5
100
AcDbVertex
100
AcDb2dVertex
 10
167.2021338586573
 20
-150.6886197418524
 30
0.0
  0
VERTEX
  5
AB
330
9B
100
AcDbEntity
  8
D_U+00E9coupe V5
 62
     3
370
     5
100
AcDbVertex
100
AcDb2dVertex
 10
167.2021338586573
 20
-155.6886197418513
 30
0.0
  0
VERTEX
  5
AC
330
9B
100
AcDbEntity
  8
D_U+00E9coupe V5
 62
     3
370
     5
100
AcDbVertex
100
AcDb2dVertex
 10
87.0446338586575
 20
-155.6886197418513
 30
0.0
  0
VERTEX
  5
AD
330
9B
100
AcDbEntity
  8
D_U+00E9coupe V5
 62
     3
370
     5
100
AcDbVertex
100
AcDb2dVertex
 10
87.0446338586575
 20
-150.688619741853
 30
0.0
  0
VERTEX
  5
AE
330
9B
100
AcDbEntity
  8
D_U+00E9coupe V5
 62
     3
370
     5
100
AcDbVertex
100
AcDb2dVertex
 10
62.2021338586581
 20
-150.688619741853
 30
0.0
  0
VERTEX
  5
AF
330
9B
100
AcDbEntity
  8
D_U+00E9coupe V5
 62
     3
370
     5
100
AcDbVertex
100
AcDb2dVertex
 10
62.2021338586581
 20
-155.6886197418507
 30
0.0
  0
VERTEX
  5
B0
330
9B
100
AcDbEntity
  8
D_U+00E9coupe V5
 62
     3
370
     5
100
AcDbVertex
100
AcDb2dVertex
 10
7.141348219480633
 20
-155.68861974185
 30
0.0
  0
SEQEND
  5
B1
330
9B
100
AcDbEntity
  8
D_U+00E9coupe V5
 62
     3
370
     5
  0
SPLINE
  5
B2
330
1F
100
AcDbEntity
  8
D_U+00E9coupe V5
 62
     3
370
     5
100
AcDbSpline
210
0.0
220
0.0
230
1.0
 70
    11
 71
     3
 72
    20
 73
    16
 74
     0
 42
0.0000000001
 43
0.0000000001
 12
1.0
 22
0.0
 32
0.0
 13
1.0
 23
0.0
 33
0.0
 40
0.0
 40
0.0
 40
0.0
 40
0.0
 40
1.0
 40
1.0
 40
1.0
 40
2.0
 40
2.0
 40
2.0
 40
3.0
 40
3.0
 40
3.0
 40
4.0
 40
4.0
 40
4.0
 40
5.0
 40
5.0
 40
5.0
 40
5.0
 10
240.2845755927734
 20
-33.55134685797206
 30
0.0
 10
239.3456915180614
 20
-33.55134685797206
 30
0.0
 10
238.584575592773
 20
-32.79023093268462
 30
0.0
 10
238.584575592773
 20
-31.851346857972
 30
0.0
 10
238.584575592773
 20
-30.9124627832597
 30
0.0
 10
239.3456915180614
 20
-30.15134685797194
 30
0.0
 10
240.2845755927734
 20
-30.15134685797194
 30
0.0
 10
241.2234596674857
 20
-30.15134685797194
 30
0.0
 10
241.9845755927738
 20
-30.9124627832597
 30
0.0
 10
241.9845755927738
 20
-31.851346857972
 30
0.0
 10
241.9845755927738
 20
-32.79023093268462
 30
0.0
 10
241.2234596674857
 20
-33.55134685797206
 30
0.0
 10
240.2845755927734
 20
-33.55134685797206
 30
0.0
 10
240.2845755927734
 20
-33.55134685797206
 30
0.0
 10
240.2845755927734
 20
-33.55134685797206
 30
0.0
 10
240.2845755927734
 20
-33.55134685797206
 30
0.0
  0
SPLINE
  5
B3
330
1F
100
AcDbEntity
  8
D_U+00E9coupe V5
 62
     3
370
     5
100
AcDbSpline
210
0.0
220
0.0
230
1.0
 70
    11
 71
     3
 72
    20
 73
    16
 74
     0
 42
0.0000000001
 43
0.0000000001
 12
1.0
 22
0.0
 32
0.0
 13
1.0
 23
0.0
 33
0.0
 40
0.0
 40
0.0
 40
0.0
 40
0.0
 40
1.0
 40
1.0
 40
1.0
 40
2.0
 40
2.0
 40
2.0
 40
3.0
 40
3.0
 40
3.0
 40
4.0
 40
4.0
 40
4.0
 40
5.0
 40
5.0
 40
5.0
 40
5.0
 10
14.38814829369333
 20
-33.55134685797206
 30
0.0
 10
13.44926421898102
 20
-33.55134685797206
 30
0.0
 10
12.68814829369295
 20
-32.79023093268462
 30
0.0
 10
12.68814829369295
 20
-31.851346857972
 30
0.0
 10
12.68814829369295
 20
-30.9124627832597
 30
0.0
 10
13.44926421898102
 20
-30.15134685797194
 30
0.0
 10
14.38814829369333
 20
-30.15134685797194
 30
0.0
 10
15.32703236840563
 20
-30.15134685797194
 30
0.0
 10
16.08814829369307
 20
-30.9124627832597
 30
0.0
 10
16.08814829369307
 20
-31.851346857972
 30
0.0
 10
16.08814829369307
 20
-32.79023093268462
 30
0.0
 10
15.32703236840563
 20
-33.55134685797206
 30
0.0
 10
14.38814829369333
 20
-33.55134685797206
 30
0.0
 10
14.38814829369333
 20
-33.55134685797206
 30
0.0
 10
14.38814829369333
 20
-33.55134685797206
 30
0.0
 10
14.38814829369333
 20
-33.55134685797206
 30
0.0
  0
ENDSEC
  0
SECTION
  2
OBJECTS
  0
DICTIONARY
  5
C
330
0
100
AcDbDictionary
281
     1
  3
ACAD_GROUP
350
D
  3
ACAD_LAYOUT
350
1A
  3
ACAD_MATERIAL
350
3B
  3
ACAD_MLEADERSTYLE
350
B5
  3
ACAD_MLINESTYLE
350
17
  3
ACAD_PLOTSETTINGS
350
19
  3
ACAD_PLOTSTYLENAME
350
E
  3
ACAD_TABLESTYLE
350
B4
  3
ACAD_VISUALSTYLE
350
2A
  0
SUN
  5
3F
330
29
100
AcDbSun
 90
        1
290
     0
 63
     7
421
 16777215
 40
1.0
291
     1
 91
  2455826
 92
 54000000
292
     0
 70
     2
 71
   256
280
     1
  0
DICTIONARY
  5
D
102
{ACAD_REACTORS
330
C
102
}
330
C
100
AcDbDictionary
281
     1
  0
DICTIONARY
  5
1A
102
{ACAD_REACTORS
330
C
102
}
330
C
100
AcDbDictionary
281
     1
  3
Layout1
350
1E
  3
Layout2
350
26
  3
Model
350
22
  0
DICTIONARY
  5
3B
102
{ACAD_REACTORS
330
C
102
}
330
C
100
AcDbDictionary
281
     1
  3
ByBlock
350
3D
  3
ByLayer
350
3C
  3
Global
350
3E
  0
DICTIONARY
  5
B5
102
{ACAD_REACTORS
330
C
102
}
330
C
100
AcDbDictionary
281
     1
  0
DICTIONARY
  5
17
102
{ACAD_REACTORS
330
C
102
}
330
C
100
AcDbDictionary
281
     1
  3
Standard
350
18
  0
DICTIONARY
  5
19
102
{ACAD_REACTORS
330
C
102
}
330
C
100
AcDbDictionary
281
     1
  0
ACDBDICTIONARYWDFLT
  5
E
102
{ACAD_REACTORS
330
C
102
}
330
C
100
AcDbDictionary
281
     1
  3
Normal
350
F
100
AcDbDictionaryWithDefault
340
F
  0
DICTIONARY
  5
B4
102
{ACAD_REACTORS
330
C
102
}
330
C
100
AcDbDictionary
281
     1
  0
DICTIONARY
  5
2A
102
{ACAD_REACTORS
330
C
102
}
330
C
100
AcDbDictionary
281
     1
  3
2dWireframe
350
2F
  3
3D Hidden
350
31
  3
3dWireframe
350
30
  3
Basic
350
32
  3
Brighten
350
36
  3
ColorChange
350
3A
  3
Conceptual
350
34
  3
Dim
350
35
  3
Facepattern
350
39
  3
Flat
350
2B
  3
FlatWithEdges
350
2C
  3
Gouraud
350
2D
  3
GouraudWithEdges
350
2E
  3
Linepattern
350
38
  3
Realistic
350
33
  3
Thicken
350
37
  0
LAYOUT
  5
1E
102
{ACAD_REACTORS
330
1A
102
}
330
1A
100
AcDbPlotSettings
  1

  2
none_device
  4

  6

 40
0.0
 41
0.0
 42
0.0
 43
0.0
 44
0.0
 45
0.0
 46
0.0
 47
0.0
 48
0.0
 49
0.0
140
0.0
141
0.0
142
1.0
143
1.0
 70
   688
 72
     0
 73
     0
 74
     5
  7

 75
    16
 76
     0
 77
     2
 78
   300
147
1.0
148
0.0
149
0.0
100
AcDbLayout
  1
Layout1
 70
     1
 71
     1
 10
0.0
 20
0.0
 11
12.0
 21
9.0
 12
0.0
 22
0.0
 32
0.0
 14
1.000000000000000E+20
 24
1.000000000000000E+20
 34
1.000000000000000E+20
 15
-1.000000000000000E+20
 25
-1.000000000000000E+20
 35
-1.000000000000000E+20
146
0.0
 13
0.0
 23
0.0
 33
0.0
 16
1.0
 26
0.0
 36
0.0
 17
0.0
 27
1.0
 37
0.0
 76
     0
330
1B
  0
LAYOUT
  5
26
102
{ACAD_REACTORS
330
1A
102
}
330
1A
100
AcDbPlotSettings
  1

  2
none_device
  4

  6

 40
0.0
 41
0.0
 42
0.0
 43
0.0
 44
0.0
 45
0.0
 46
0.0
 47
0.0
 48
0.0
 49
0.0
140
0.0
141
0.0
142
1.0
143
1.0
 70
   688
 72
     0
 73
     0
 74
     5
  7

 75
    16
 76
     0
 77
     2
 78
   300
147
1.0
148
0.0
149
0.0
100
AcDbLayout
  1
Layout2
 70
     1
 71
     2
 10
0.0
 20
0.0
 11
0.0
 21
0.0
 12
0.0
 22
0.0
 32
0.0
 14
0.0
 24
0.0
 34
0.0
 15
0.0
 25
0.0
 35
0.0
146
0.0
 13
0.0
 23
0.0
 33
0.0
 16
1.0
 26
0.0
 36
0.0
 17
0.0
 27
1.0
 37
0.0
 76
     0
330
23
  0
LAYOUT
  5
22
102
{ACAD_REACTORS
330
1A
102
}
330
1A
100
AcDbPlotSettings
  1

  2
none_device
  4

  6

 40
0.0
 41
0.0
 42
0.0
 43
0.0
 44
0.0
 45
0.0
 46
0.0
 47
0.0
 48
0.0
 49
0.0
140
0.0
141
0.0
142
1.0
143
1.0
 70
  1712
 72
     0
 73
     0
 74
     0
  7

 75
     0
 76
     0
 77
     2
 78
   300
147
1.0
148
0.0
149
0.0
100
AcDbLayout
  1
Model
 70
     1
 71
     0
 10
0.0
 20
0.0
 11
12.0
 21
9.0
 12
0.0
 22
0.0
 32
0.0
 14
1.000000000000000E+20
 24
1.000000000000000E+20
 34
1.000000000000000E+20
 15
-1.000000000000000E+20
 25
-1.000000000000000E+20
 35
-1.000000000000000E+20
146
0.0
 13
0.0
 23
0.0
 33
0.0
 16
1.0
 26
0.0
 36
0.0
 17
0.0
 27
1.0
 37
0.0
 76
     0
330
1F
331
29
  0
MATERIAL
  5
3D
102
{ACAD_REACTORS
330
3B
102
}
330
3B
100
AcDbMaterial
  1
ByBlock
 72
     1
 94
      127
  0
MATERIAL
  5
3C
102
{ACAD_REACTORS
330
3B
102
}
330
3B
100
AcDbMaterial
  1
ByLayer
 72
     1
 94
      127
  0
MATERIAL
  5
3E
102
{ACAD_REACTORS
330
3B
102
}
330
3B
100
AcDbMaterial
  1
Global
 72
     1
 94
      127
  0
MLINESTYLE
  5
18
102
{ACAD_REACTORS
330
17
102
}
330
17
100
AcDbMlineStyle
  2
Standard
 70
     0
  3

 62
   256
 51
90.0
 52
90.0
 71
     2
 49
0.5
 62
   256
  6
BYLAYER
 49
-0.5
 62
   256
  6
BYLAYER
  0
ACDBPLACEHOLDER
  5
F
102
{ACAD_REACTORS
330
E
102
}
330
E
  0
VISUALSTYLE
  5
2F
102
{ACAD_REACTORS
330
2A
102
}
330
2A
100
AcDbVisualStyle
  2
2dWireframe
 70
     4
177
     2
291
     0
 71
     0
176
     1
 72
     2
176
     1
 73
     0
176
     1
 90
        0
176
     1
 40
-0.6
176
     1
 41
-30.0
176
     1
 62
     5
 63
     7
421
 16777215
176
     1
 74
     1
176
     1
 91
        4
176
     1
 64
     7
176
     1
 65
   257
176
     1
 75
     1
176
     1
175
     1
176
     1
 42
1.0
176
     1
 92
        0
176
     1
 66
   257
176
     1
 43
1.0
176
     1
 76
     1
176
     1
 77
     6
176
     1
 78
     2
176
     1
 67
     7
176
     1
 79
     5
176
     1
170
     0
176
     1
171
     0
176
     1
290
     0
176
     1
 93
        1
176
     1
 44
0.0
176
     1
173
     0
176
     1
  0
VISUALSTYLE
  5
31
102
{ACAD_REACTORS
330
2A
102
}
330
2A
100
AcDbVisualStyle
  2
3D Hidden
 70
     6
177
     2
291
     0
 71
     1
176
     1
 72
     2
176
     1
 73
     2
176
     1
 90
        0
176
     1
 40
-0.6
176
     1
 41
-30.0
176
     1
 62
     5
 63
     7
421
 16777215
176
     1
 74
     2
176
     1
 91
        2
176
     1
 64
     7
176
     1
 65
   257
176
     1
 75
     2
176
     1
175
     1
176
     1
 42
40.0
176
     1
 92
        0
176
     1
 66
   257
176
     1
 43
1.0
176
     1
 76
     1
176
     1
 77
     6
176
     1
 78
     2
176
     1
 67
     7
176
     1
 79
     3
176
     1
170
     0
176
     1
171
     0
176
     1
290
     0
176
     1
 93
        1
176
     1
 44
0.0
176
     1
173
     0
176
     1
  0
VISUALSTYLE
  5
30
102
{ACAD_REACTORS
330
2A
102
}
330
2A
100
AcDbVisualStyle
  2
3dWireframe
 70
     5
177
     2
291
     0
 71
     0
176
     1
 72
     2
176
     1
 73
     0
176
     1
 90
        0
176
     1
 40
-0.6
176
     1
 41
-30.0
176
     1
 62
     5
 63
     7
421
 16777215
176
     1
 74
     1
176
     1
 91
        4
176
     1
 64
     7
176
     1
 65
   257
176
     1
 75
     1
176
     1
175
     1
176
     1
 42
1.0
176
     1
 92
        0
176
     1
 66
   257
176
     1
 43
1.0
176
     1
 76
     1
176
     1
 77
     6
176
     1
 78
     2
176
     1
 67
     7
176
     1
 79
     5
176
     1
170
     0
176
     1
171
     0
176
     1
290
     0
176
     1
 93
        1
176
     1
 44
0.0
176
     1
173
     0
176
     1
  0
VISUALSTYLE
  5
32
102
{ACAD_REACTORS
330
2A
102
}
330
2A
100
AcDbVisualStyle
  2
Basic
 70
     7
177
     2
291
     1
 71
     1
176
     1
 72
     0
176
     1
 73
     1
176
     1
 90
        0
176
     1
 40
-0.6
176
     1
 41
-30.0
176
     1
 62
     5
 63
     7
421
 16777215
176
     1
 74
     0
176
     1
 91
        4
176
     1
 64
     7
176
     1
 65
   257
176
     1
 75
     1
176
     1
175
     1
176
     1
 42
1.0
176
     1
 92
        8
176
     1
 66
     7
176
     1
 43
1.0
176
     1
 76
     1
176
     1
 77
     6
176
     1
 78
     2
176
     1
 67
     7
176
     1
 79
     5
176
     1
170
     0
176
     1
171
     0
176
     1
290
     0
176
     1
 93
        1
176
     1
 44
0.0
176
     1
173
     0
176
     1
  0
VISUALSTYLE
  5
36
102
{ACAD_REACTORS
330
2A
102
}
330
2A
100
AcDbVisualStyle
  2
Brighten
 70
    12
177
     2
291
     1
 71
     2
176
     1
 72
     2
176
     1
 73
     0
176
     1
 90
        0
176
     1
 40
-0.6
176
     1
 41
-30.0
176
     1
 62
     5
 63
     7
421
 16777215
176
     1
 74
     1
176
     1
 91
        4
176
     1
 64
     7
176
     1
 65
   257
176
     1
 75
     1
176
     1
175
     1
176
     1
 42
1.0
176
     1
 92
        8
176
     1
 66
     7
176
     1
 43
1.0
176
     1
 76
     1
176
     1
 77
     6
176
     1
 78
     2
176
     1
 67
     7
176
     1
 79
     5
176
     1
170
     0
176
     1
171
     0
176
     1
290
     0
176
     1
 93
        1
176
     1
 44
50.0
176
     1
173
     0
176
     1
  0
VISUALSTYLE
  5
3A
102
{ACAD_REACTORS
330
2A
102
}
330
2A
100
AcDbVisualStyle
  2
ColorChange
 70
    16
177
     2
291
     1
 71
     2
176
     1
 72
     2
176
     1
 73
     3
176
     1
 90
        0
176
     1
 40
-0.6
176
     1
 41
-30.0
176
     1
 62
     5
 63
     8
421
  8421504
176
     1
 74
     1
176
     1
 91
        4
176
     1
 64
     7
176
     1
 65
   257
176
     1
 75
     1
176
     1
175
     1
176
     1
 42
1.0
176
     1
 92
        8
176
     1
 66
     8
424
  8421504
176
     1
 43
1.0
176
     1
 76
     1
176
     1
 77
     6
176
     1
 78
     2
176
     1
 67
     7
176
     1
 79
     5
176
     1
170
     0
176
     1
171
     0
176
     1
290
     0
176
     1
 93
        1
176
     1
 44
0.0
176
     1
173
     0
176
     1
  0
VISUALSTYLE
  5
34
102
{ACAD_REACTORS
330
2A
102
}
330
2A
100
AcDbVisualStyle
  2
Conceptual
 70
     9
177
     2
291
     0
 71
     3
176
     1
 72
     2
176
     1
 73
     0
176
     1
 90
        0
176
     1
 40
-0.6
176
     1
 41
-30.0
176
     1
 62
     5
 63
     7
421
 16777215
176
     1
 74
     2
176
     1
 91
        2
176
     1
 64
     7
176
     1
 65
   257
176
     1
 75
     1
176
     1
175
     1
176
     1
 42
40.0
176
     1
 92
        8
176
     1
 66
     7
176
     1
 43
1.0
176
     1
 76
     1
176
     1
 77
     6
176
     1
 78
     2
176
     1
 67
     7
176
     1
 79
     3
176
     1
170
     0
176
     1
171
     0
176
     1
290
     0
176
     1
 93
        1
176
     1
 44
0.0
176
     1
173
     0
176
     1
  0
VISUALSTYLE
  5
35
102
{ACAD_REACTORS
330
2A
102
}
330
2A
100
AcDbVisualStyle
  2
Dim
 70
    11
177
     2
291
     1
 71
     2
176
     1
 72
     2
176
     1
 73
     0
176
     1
 90
        0
176
     1
 40
-0.6
176
     1
 41
-30.0
176
     1
 62
     5
 63
     7
421
 16777215
176
     1
 74
     1
176
     1
 91
        4
176
     1
 64
     7
176
     1
 65
   257
176
     1
 75
     1
176
     1
175
     1
176
     1
 42
1.0
176
     1
 92
        8
176
     1
 66
     7
176
     1
 43
1.0
176
     1
 76
     1
176
     1
 77
     6
176
     1
 78
     2
176
     1
 67
     7
176
     1
 79
     5
176
     1
170
     0
176
     1
171
     0
176
     1
290
     0
176
     1
 93
        1
176
     1
 44
-50.0
176
     1
173
     0
176
     1
  0
VISUALSTYLE
  5
39
102
{ACAD_REACTORS
330
2A
102
}
330
2A
100
AcDbVisualStyle
  2
Facepattern
 70
    15
177
     2
291
     1
 71
     2
176
     1
 72
     2
176
     1
 73
     0
176
     1
 90
        0
176
     1
 40
-0.6
176
     1
 41
-30.0
176
     1
 62
     5
 63
     7
421
 16777215
176
     1
 74
     1
176
     1
 91
        4
176
     1
 64
     7
176
     1
 65
   257
176
     1
 75
     1
176
     1
175
     1
176
     1
 42
1.0
176
     1
 92
        8
176
     1
 66
     7
176
     1
 43
1.0
176
     1
 76
     1
176
     1
 77
     6
176
     1
 78
     2
176
     1
 67
     7
176
     1
 79
     5
176
     1
170
     0
176
     1
171
     0
176
     1
290
     0
176
     1
 93
        1
176
     1
 44
0.0
176
     1
173
     0
176
     1
  0
VISUALSTYLE
  5
2B
102
{ACAD_REACTORS
330
2A
102
}
330
2A
100
AcDbVisualStyle
  2
Flat
 70
     0
177
     2
291
     1
 71
     2
176
     1
 72
     1
176
     1
 73
     1
176
     1
 90
        2
176
     1
 40
-0.6
176
     1
 41
30.0
176
     1
 62
     5
 63
     7
421
 16777215
176
     1
 74
     0
176
     1
 91
        4
176
     1
 64
     7
176
     1
 65
   257
176
     1
 75
     1
176
     1
175
     1
176
     1
 42
1.0
176
     1
 92
        8
176
     1
 66
     7
176
     1
 43
1.0
176
     1
 76
     1
176
     1
 77
     6
176
     1
 78
     2
176
     1
 67
     7
176
     1
 79
     5
176
     1
170
     0
176
     1
171
     0
176
     1
290
     0
176
     1
 93
       13
176
     1
 44
0.0
176
     1
173
     0
176
     1
  0
VISUALSTYLE
  5
2C
102
{ACAD_REACTORS
330
2A
102
}
330
2A
100
AcDbVisualStyle
  2
FlatWithEdges
 70
     1
177
     2
291
     1
 71
     2
176
     1
 72
     1
176
     1
 73
     1
176
     1
 90
        2
176
     1
 40
-0.6
176
     1
 41
30.0
176
     1
 62
     5
 63
     7
421
 16777215
176
     1
 74
     1
176
     1
 91
        4
176
     1
 64
     7
176
     1
 65
   257
176
     1
 75
     1
176
     1
175
     1
176
     1
 42
1.0
176
     1
 92
        0
176
     1
 66
   257
176
     1
 43
1.0
176
     1
 76
     1
176
     1
 77
     6
176
     1
 78
     2
176
     1
 67
     7
176
     1
 79
     5
176
     1
170
     0
176
     1
171
     0
176
     1
290
     0
176
     1
 93
       13
176
     1
 44
0.0
176
     1
173
     0
176
     1
  0
VISUALSTYLE
  5
2D
102
{ACAD_REACTORS
330
2A
102
}
330
2A
100
AcDbVisualStyle
  2
Gouraud
 70
     2
177
     2
291
     1
 71
     2
176
     1
 72
     2
176
     1
 73
     1
176
     1
 90
        2
176
     1
 40
-0.6
176
     1
 41
30.0
176
     1
 62
     5
 63
     7
421
 16777215
176
     1
 74
     0
176
     1
 91
        4
176
     1
 64
     7
176
     1
 65
   257
176
     1
 75
     1
176
     1
175
     1
176
     1
 42
1.0
176
     1
 92
        0
176
     1
 66
     7
176
     1
 43
1.0
176
     1
 76
     1
176
     1
 77
     6
176
     1
 78
     2
176
     1
 67
     7
176
     1
 79
     5
176
     1
170
     0
176
     1
171
     0
176
     1
290
     0
176
     1
 93
       13
176
     1
 44
0.0
176
     1
173
     0
176
     1
  0
VISUALSTYLE
  5
2E
102
{ACAD_REACTORS
330
2A
102
}
330
2A
100
AcDbVisualStyle
  2
GouraudWithEdges
 70
     3
177
     2
291
     1
 71
     2
176
     1
 72
     2
176
     1
 73
     1
176
     1
 90
        2
176
     1
 40
-0.6
176
     1
 41
30.0
176
     1
 62
     5
 63
     7
421
 16777215
176
     1
 74
     1
176
     1
 91
        4
176
     1
 64
     7
176
     1
 65
   257
176
     1
 75
     1
176
     1
175
     1
176
     1
 42
1.0
176
     1
 92
        0
176
     1
 66
   257
176
     1
 43
1.0
176
     1
 76
     1
176
     1
 77
     6
176
     1
 78
     2
176
     1
 67
     7
176
     1
 79
     5
176
     1
170
     0
176
     1
171
     0
176
     1
290
     0
176
     1
 93
       13
176
     1
 44
0.0
176
     1
173
     0
176
     1
  0
VISUALSTYLE
  5
38
102
{ACAD_REACTORS
330
2A
102
}
330
2A
100
AcDbVisualStyle
  2
Linepattern
 70
    14
177
     2
291
     1
 71
     2
176
     1
 72
     2
176
     1
 73
     0
176
     1
 90
        0
176
     1
 40
-0.6
176
     1
 41
-30.0
176
     1
 62
     5
 63
     7
421
 16777215
176
     1
 74
     1
176
     1
 91
        4
176
     1
 64
     7
176
     1
 65
   257
176
     1
 75
     7
176
     1
175
     7
176
     1
 42
1.0
176
     1
 92
        8
176
     1
 66
     7
176
     1
 43
1.0
176
     1
 76
     1
176
     1
 77
     6
176
     1
 78
     2
176
     1
 67
     7
176
     1
 79
     5
176
     1
170
     0
176
     1
171
     0
176
     1
290
     0
176
     1
 93
        1
176
     1
 44
0.0
176
     1
173
     0
176
     1
  0
VISUALSTYLE
  5
33
102
{ACAD_REACTORS
330
2A
102
}
330
2A
100
AcDbVisualStyle
  2
Realistic
 70
     8
177
     2
291
     0
 71
     2
176
     1
 72
     2
176
     1
 73
     0
176
     1
 90
        0
176
     1
 40
-0.6
176
     1
 41
-30.0
176
     1
 62
     5
 63
     7
421
 16777215
176
     1
 74
     1
176
     1
 91
        0
176
     1
 64
     7
176
     1
 65
   257
176
     1
 75
     1
176
     1
175
     1
176
     1
 42
1.0
176
     1
 92
        8
176
     1
 66
     8
424
  7895160
176
     1
 43
1.0
176
     1
 76
     1
176
     1
 77
     6
176
     1
 78
     2
176
     1
 67
     7
176
     1
 79
     5
176
     1
170
     0
176
     1
171
     0
176
     1
290
     0
176
     1
 93
       13
176
     1
 44
0.0
176
     1
173
     0
176
     1
  0
VISUALSTYLE
  5
37
102
{ACAD_REACTORS
330
2A
102
}
330
2A
100
AcDbVisualStyle
  2
Thicken
 70
    13
177
     2
291
     1
 71
     2
176
     1
 72
     2
176
     1
 73
     0
176
     1
 90
        0
176
     1
 40
-0.6
176
     1
 41
-30.0
176
     1
 62
     5
 63
     7
421
 16777215
176
     1
 74
     1
176
     1
 91
        4
176
     1
 64
     7
176
     1
 65
   257
176
     1
 75
     1
176
     1
175
     1
176
     1
 42
1.0
176
     1
 92
       12
176
     1
 66
     7
176
     1
 43
1.0
176
     1
 76
     1
176
     1
 77
     6
176
     1
 78
     2
176
     1
 67
     7
176
     1
 79
     5
176
     1
170
     0
176
     1
171
     0
176
     1
290
     0
176
     1
 93
        1
176
     1
 44
0.0
176
     1
173
     0
176
     1
  0
ENDSEC
  0
EOF
