  0
SECTION
  2
HEADER
  9
$ACADVER
  1
AC1014
  9
$HANDSEED
  5
FFFF
  9
$MEASUREMENT
 70
     1
  0
ENDSEC
  0
SECTION
  2
TABLES
  0
TABLE
  2
VPORT
  5
8
330
0
100
AcDbSymbolTable
 70
     4
  0
VPORT
  5
2E
330
8
100
AcDbSymbolTableRecord
100
AcDbViewportTableRecord
  2
*ACTIVE
 70
     0
 10
0.0
 20
0.0
 11
1.0
 21
1.0
 12
210.0
 22
148.5
 13
0.0
 23
0.0
 14
10.0
 24
10.0
 15
10.0
 25
10.0
 16
0.0
 26
0.0
 36
1.0
 17
0.0
 27
0.0
 37
0.0
 40
341.0
 41
1.24
 42
50.0
 43
0.0
 44
0.0
 50
0.0
 51
0.0
 71
     0
 72
   100
 73
     1
 74
     3
 75
     0
 76
     0
 77
     0
 78
     0
  0
ENDTAB
  0
TABLE
  2
LTYPE
  5
5
330
0
100
AcDbSymbolTable
 70
     1
  0
LTYPE
  5
14
330
5
100
AcDbSymbolTableRecord
100
AcDbLinetypeTableRecord
  2
BYBLOCK
 70
     0
  3

 72
    65
 73
     0
 40
0.0
  0
LTYPE
  5
15
330
5
100
AcDbSymbolTableRecord
100
AcDbLinetypeTableRecord
  2
BYLAYER
 70
     0
  3

 72
    65
 73
     0
 40
0.0
  0
LTYPE
  5
16
330
5
100
AcDbSymbolTableRecord
100
AcDbLinetypeTableRecord
  2
CONTINUOUS
 70
     0
  3
Solid line
 72
    65
 73
     0
 40
0.0
  0
ENDTAB
  0
TABLE
  2
LAYER
  5
2
100
AcDbSymbolTable
 70
2
  0
LAYER
  5
50
100
AcDbSymbolTableRecord
100
AcDbLayerTableRecord
  2
0
 70
0
  6
CONTINUOUS
  0
LAYER
  5
51
100
AcDbSymbolTableRecord
100
AcDbLayerTableRecord
  2
BrailleRAP_V5_600x400_planche2
 70
0
  6
CONTINUOUS
  0
ENDTAB
  0
TABLE
  2
STYLE
  5
3
330
0
100
AcDbSymbolTable
 70
     1
  0
STYLE
  5
11
330
3
100
AcDbSymbolTableRecord
100
AcDbTextStyleTableRecord
  2
STANDARD
 70
     0
 40
0.0
 41
1.0
 50
0.0
 71
     0
 42
2.5
  3
txt
  4

  0
ENDTAB
  0
TABLE
  2
VIEW
  5
6
330
0
100
AcDbSymbolTable
 70
     0
  0
ENDTAB
  0
TABLE
  2
UCS
  5
7
330
0
100
AcDbSymbolTable
 70
     0
  0
ENDTAB
  0
TABLE
  2
APPID
  5
9
330
0
100
AcDbSymbolTable
 70
     2
  0
APPID
  5
12
330
9
100
AcDbSymbolTableRecord
100
AcDbRegAppTableRecord
  2
ACAD
 70
     0
  0
ENDTAB
  0
TABLE
  2
DIMSTYLE
  5
A
330
0
100
AcDbSymbolTable
 70
     1
  0
DIMSTYLE
105
27
330
A
100
AcDbSymbolTableRecord
100
AcDbDimStyleTableRecord
  2
ISO-25
 70
     0
  3

  4

  5

  6

  7

 40
1.0
 41
2.5
 42
0.625
 43
3.75
 44
1.25
 45
0.0
 46
0.0
 47
0.0
 48
0.0
140
2.5
141
2.5
142
0.0
143
0.03937007874016
144
1.0
145
0.0
146
1.0
147
0.625
 71
     0
 72
     0
 73
     0
 74
     0
 75
     0
 76
     0
 77
     1
 78
     8
170
     0
171
     3
172
     1
173
     0
174
     0
175
     0
176
     0
177
     0
178
     0
270
     2
271
     2
272
     2
273
     2
274
     3
340
11
275
     0
280
     0
281
     0
282
     0
283
     0
284
     8
285
     0
286
     0
287
     3
288
     0
  0
ENDTAB
  0
TABLE
  2
BLOCK_RECORD
  5
1
330
0
100
AcDbSymbolTable
 70
     1
  0
BLOCK_RECORD
  5
1F
330
1
100
AcDbSymbolTableRecord
100
AcDbBlockTableRecord
  2
*MODEL_SPACE
  0
BLOCK_RECORD
  5
1B
330
1
100
AcDbSymbolTableRecord
100
AcDbBlockTableRecord
  2
*PAPER_SPACE
  0
ENDTAB
  0
ENDSEC
  0
SECTION
  2
BLOCKS
  0
BLOCK
  5
20
330
1F
100
AcDbEntity
  8
0
100
AcDbBlockBegin
  2
*MODEL_SPACE
 70
     0
 10
0.0
 20
0.0
 30
0.0
  3
*MODEL_SPACE
  1

  0
ENDBLK
  5
21
330
1F
100
AcDbEntity
  8
0
100
AcDbBlockEnd
  0
BLOCK
  5
1C
330
1B
100
AcDbEntity
 67
     1
  8
0
100
AcDbBlockBegin
  2
*PAPER_SPACE
  1

  0
ENDBLK
  5
1D
330
1B
100
AcDbEntity
 67
     1
  8
0
100
AcDbBlockEnd
  0
ENDSEC
  0
SECTION
  2
ENTITIES
  0
SPLINE
  5
100
100
AcDbEntity
  8
BrailleRAP_V5_600x400_planche2
 62
3
100
AcDbSpline
 70
8
 71
3
 72
8
 73
4
 74
0
 40
0
 40
0
 40
0
 40
0
 40
1
 40
1
 40
1
 40
1
 10
393.467968
 20
213.248226
 30
0.0
 10
394.020065
 20
213.248226
 30
0.0
 10
394.468093
 20
213.695901
 30
0.0
 10
394.468093
 20
214.248351
 30
0.0
  0
LWPOLYLINE
  5
101
100
AcDbEntity
  8
BrailleRAP_V5_600x400_planche2
 62
3
100
AcDbPolyline
 90
2
 70
0
 10
394.467952
 20
222.312039
 30
0.0
 10
394.467952
 20
214.248245
 30
0.0
  0
SPLINE
  5
102
100
AcDbEntity
  8
BrailleRAP_V5_600x400_planche2
 62
3
100
AcDbSpline
 70
8
 71
3
 72
8
 73
4
 74
0
 40
0
 40
0
 40
0
 40
0
 40
1
 40
1
 40
1
 40
1
 10
378.745176
 20
214.248210
 30
0.0
 10
378.745176
 20
213.696113
 30
0.0
 10
379.192851
 20
213.248085
 30
0.0
 10
379.745301
 20
213.248085
 30
0.0
  0
LWPOLYLINE
  5
103
100
AcDbEntity
  8
BrailleRAP_V5_600x400_planche2
 62
3
100
AcDbPolyline
 90
2
 70
0
 10
393.467968
 20
213.248226
 30
0.0
 10
379.745266
 20
213.248226
 30
0.0
  0
SPLINE
  5
104
100
AcDbEntity
  8
BrailleRAP_V5_600x400_planche2
 62
3
100
AcDbSpline
 70
8
 71
3
 72
8
 73
4
 74
0
 40
0
 40
0
 40
0
 40
0
 40
1
 40
1
 40
1
 40
1
 10
333.243264
 20
235.436007
 30
0.0
 10
333.243264
 20
236.540554
 30
0.0
 10
334.138614
 20
237.435904
 30
0.0
 10
335.243162
 20
237.435904
 30
0.0
  0
SPLINE
  5
105
100
AcDbEntity
  8
BrailleRAP_V5_600x400_planche2
 62
3
100
AcDbSpline
 70
8
 71
3
 72
8
 73
4
 74
0
 40
0
 40
0
 40
0
 40
0
 40
1
 40
1
 40
1
 40
1
 10
335.243162
 20
237.435904
 30
0.0
 10
336.347709
 20
237.435904
 30
0.0
 10
337.243412
 20
236.540554
 30
0.0
 10
337.243412
 20
235.436007
 30
0.0
  0
SPLINE
  5
106
100
AcDbEntity
  8
BrailleRAP_V5_600x400_planche2
 62
3
100
AcDbSpline
 70
8
 71
3
 72
8
 73
4
 74
0
 40
0
 40
0
 40
0
 40
0
 40
1
 40
1
 40
1
 40
1
 10
337.243412
 20
235.436007
 30
0.0
 10
337.243412
 20
234.331460
 30
0.0
 10
336.347709
 20
233.436110
 30
0.0
 10
335.243162
 20
233.436110
 30
0.0
  0
SPLINE
  5
107
100
AcDbEntity
  8
BrailleRAP_V5_600x400_planche2
 62
3
100
AcDbSpline
 70
8
 71
3
 72
8
 73
4
 74
0
 40
0
 40
0
 40
0
 40
0
 40
1
 40
1
 40
1
 40
1
 10
335.243162
 20
233.436110
 30
0.0
 10
334.138614
 20
233.436110
 30
0.0
 10
333.243264
 20
234.331460
 30
0.0
 10
333.243264
 20
235.436007
 30
0.0
  0
LWPOLYLINE
  5
108
100
AcDbEntity
  8
BrailleRAP_V5_600x400_planche2
 62
3
100
AcDbPolyline
 90
2
 70
0
 10
378.745176
 20
214.248210
 30
0.0
 10
378.745176
 20
222.312004
 30
0.0
  0
SPLINE
  5
109
100
AcDbEntity
  8
BrailleRAP_V5_600x400_planche2
 62
3
100
AcDbSpline
 70
8
 71
3
 72
8
 73
4
 74
0
 40
0
 40
0
 40
0
 40
0
 40
1
 40
1
 40
1
 40
1
 10
553.406473
 20
222.312004
 30
0.0
 10
563.329406
 20
222.312004
 30
0.0
 10
567.806508
 20
226.789107
 30
0.0
 10
567.806508
 20
232.311843
 30
0.0
  0
LWPOLYLINE
  5
10a
100
AcDbEntity
  8
BrailleRAP_V5_600x400_planche2
 62
3
100
AcDbPolyline
 90
1
 70
1
 10
333.243264
 20
235.436007
 30
0.0
  0
SPLINE
  5
10b
100
AcDbEntity
  8
BrailleRAP_V5_600x400_planche2
 62
3
100
AcDbSpline
 70
8
 71
3
 72
8
 73
4
 74
0
 40
0
 40
0
 40
0
 40
0
 40
1
 40
1
 40
1
 40
1
 10
567.806508
 20
297.311852
 30
0.0
 10
567.806508
 20
302.834941
 30
0.0
 10
563.329406
 20
307.312043
 30
0.0
 10
557.806670
 20
307.312043
 30
0.0
  0
LWPOLYLINE
  5
10c
100
AcDbEntity
  8
BrailleRAP_V5_600x400_planche2
 62
3
100
AcDbPolyline
 90
2
 70
0
 10
567.806508
 20
232.311843
 30
0.0
 10
567.806508
 20
297.311852
 30
0.0
  0
SPLINE
  5
10d
100
AcDbEntity
  8
BrailleRAP_V5_600x400_planche2
 62
3
100
AcDbSpline
 70
8
 71
3
 72
8
 73
4
 74
0
 40
0
 40
0
 40
0
 40
0
 40
1
 40
1
 40
1
 40
1
 10
289.112424
 20
307.312043
 30
0.0
 10
283.589335
 20
307.312043
 30
0.0
 10
279.112232
 20
302.834941
 30
0.0
 10
279.112232
 20
297.311852
 30
0.0
  0
LWPOLYLINE
  5
10e
100
AcDbEntity
  8
BrailleRAP_V5_600x400_planche2
 62
3
100
AcDbPolyline
 90
2
 70
0
 10
557.806670
 20
307.312043
 30
0.0
 10
289.112424
 20
307.312043
 30
0.0
  0
SPLINE
  5
10f
100
AcDbEntity
  8
BrailleRAP_V5_600x400_planche2
 62
3
100
AcDbSpline
 70
8
 71
3
 72
8
 73
4
 74
0
 40
0
 40
0
 40
0
 40
0
 40
1
 40
1
 40
1
 40
1
 10
279.112232
 20
232.311843
 30
0.0
 10
279.112232
 20
226.789107
 30
0.0
 10
283.589335
 20
222.312004
 30
0.0
 10
284.712226
 20
222.312004
 30
0.0
  0
LWPOLYLINE
  5
110
100
AcDbEntity
  8
BrailleRAP_V5_600x400_planche2
 62
3
100
AcDbPolyline
 90
2
 70
0
 10
279.112232
 20
297.311852
 30
0.0
 10
279.112232
 20
232.311843
 30
0.0
  0
SPLINE
  5
111
100
AcDbEntity
  8
BrailleRAP_V5_600x400_planche2
 62
3
100
AcDbSpline
 70
8
 71
3
 72
8
 73
4
 74
0
 40
0
 40
0
 40
0
 40
0
 40
1
 40
1
 40
1
 40
1
 10
313.928011
 20
212.312024
 30
0.0
 10
313.928011
 20
215.957277
 30
0.0
 10
316.882878
 20
218.912143
 30
0.0
 10
320.528131
 20
218.912143
 30
0.0
  0
SPLINE
  5
112
100
AcDbEntity
  8
BrailleRAP_V5_600x400_planche2
 62
3
100
AcDbSpline
 70
8
 71
3
 72
8
 73
4
 74
0
 40
0
 40
0
 40
0
 40
0
 40
1
 40
1
 40
1
 40
1
 10
320.528131
 20
218.912143
 30
0.0
 10
324.173031
 20
218.912143
 30
0.0
 10
327.127897
 20
215.957277
 30
0.0
 10
327.127897
 20
212.312024
 30
0.0
  0
SPLINE
  5
113
100
AcDbEntity
  8
BrailleRAP_V5_600x400_planche2
 62
3
100
AcDbSpline
 70
8
 71
3
 72
8
 73
4
 74
0
 40
0
 40
0
 40
0
 40
0
 40
1
 40
1
 40
1
 40
1
 10
327.127897
 20
212.312024
 30
0.0
 10
327.127897
 20
208.666772
 30
0.0
 10
324.173031
 20
205.711905
 30
0.0
 10
320.528131
 20
205.711905
 30
0.0
  0
SPLINE
  5
114
100
AcDbEntity
  8
BrailleRAP_V5_600x400_planche2
 62
3
100
AcDbSpline
 70
8
 71
3
 72
8
 73
4
 74
0
 40
0
 40
0
 40
0
 40
0
 40
1
 40
1
 40
1
 40
1
 10
320.528131
 20
205.711905
 30
0.0
 10
316.882878
 20
205.711905
 30
0.0
 10
313.928011
 20
208.666772
 30
0.0
 10
313.928011
 20
212.312024
 30
0.0
  0
LWPOLYLINE
  5
115
100
AcDbEntity
  8
BrailleRAP_V5_600x400_planche2
 62
3
100
AcDbPolyline
 90
2
 70
0
 10
284.712226
 20
222.312004
 30
0.0
 10
553.406473
 20
222.312004
 30
0.0
  0
SPLINE
  5
116
100
AcDbEntity
  8
BrailleRAP_V5_600x400_planche2
 62
3
100
AcDbSpline
 70
8
 71
3
 72
8
 73
4
 74
0
 40
0
 40
0
 40
0
 40
0
 40
1
 40
1
 40
1
 40
1
 10
337.128018
 20
212.312024
 30
0.0
 10
337.128018
 20
211.428316
 30
0.0
 10
336.411526
 20
210.712177
 30
0.0
 10
335.528171
 20
210.712177
 30
0.0
  0
SPLINE
  5
117
100
AcDbEntity
  8
BrailleRAP_V5_600x400_planche2
 62
3
100
AcDbSpline
 70
8
 71
3
 72
8
 73
4
 74
0
 40
0
 40
0
 40
0
 40
0
 40
1
 40
1
 40
1
 40
1
 10
335.528171
 20
210.712177
 30
0.0
 10
334.644462
 20
210.712177
 30
0.0
 10
333.927971
 20
211.428316
 30
0.0
 10
333.927971
 20
212.312024
 30
0.0
  0
SPLINE
  5
118
100
AcDbEntity
  8
BrailleRAP_V5_600x400_planche2
 62
3
100
AcDbSpline
 70
8
 71
3
 72
8
 73
4
 74
0
 40
0
 40
0
 40
0
 40
0
 40
1
 40
1
 40
1
 40
1
 10
333.927971
 20
212.312024
 30
0.0
 10
333.927971
 20
213.195733
 30
0.0
 10
334.644462
 20
213.911871
 30
0.0
 10
335.528171
 20
213.911871
 30
0.0
  0
SPLINE
  5
119
100
AcDbEntity
  8
BrailleRAP_V5_600x400_planche2
 62
3
100
AcDbSpline
 70
8
 71
3
 72
8
 73
4
 74
0
 40
0
 40
0
 40
0
 40
0
 40
1
 40
1
 40
1
 40
1
 10
335.528171
 20
213.911871
 30
0.0
 10
336.411526
 20
213.911871
 30
0.0
 10
337.128018
 20
213.195733
 30
0.0
 10
337.128018
 20
212.312024
 30
0.0
  0
LWPOLYLINE
  5
11a
100
AcDbEntity
  8
BrailleRAP_V5_600x400_planche2
 62
3
100
AcDbPolyline
 90
1
 70
1
 10
313.928011
 20
212.312024
 30
0.0
  0
SPLINE
  5
11b
100
AcDbEntity
  8
BrailleRAP_V5_600x400_planche2
 62
3
100
AcDbSpline
 70
8
 71
3
 72
8
 73
4
 74
0
 40
0
 40
0
 40
0
 40
0
 40
1
 40
1
 40
1
 40
1
 10
303.928032
 20
212.312024
 30
0.0
 10
303.928032
 20
213.195733
 30
0.0
 10
304.644523
 20
213.911871
 30
0.0
 10
305.527879
 20
213.911871
 30
0.0
  0
SPLINE
  5
11c
100
AcDbEntity
  8
BrailleRAP_V5_600x400_planche2
 62
3
100
AcDbSpline
 70
8
 71
3
 72
8
 73
4
 74
0
 40
0
 40
0
 40
0
 40
0
 40
1
 40
1
 40
1
 40
1
 10
305.527879
 20
213.911871
 30
0.0
 10
306.411587
 20
213.911871
 30
0.0
 10
307.128079
 20
213.195733
 30
0.0
 10
307.128079
 20
212.312024
 30
0.0
  0
SPLINE
  5
11d
100
AcDbEntity
  8
BrailleRAP_V5_600x400_planche2
 62
3
100
AcDbSpline
 70
8
 71
3
 72
8
 73
4
 74
0
 40
0
 40
0
 40
0
 40
0
 40
1
 40
1
 40
1
 40
1
 10
307.128079
 20
212.312024
 30
0.0
 10
307.128079
 20
211.428316
 30
0.0
 10
306.411587
 20
210.712177
 30
0.0
 10
305.527879
 20
210.712177
 30
0.0
  0
SPLINE
  5
11e
100
AcDbEntity
  8
BrailleRAP_V5_600x400_planche2
 62
3
100
AcDbSpline
 70
8
 71
3
 72
8
 73
4
 74
0
 40
0
 40
0
 40
0
 40
0
 40
1
 40
1
 40
1
 40
1
 10
305.527879
 20
210.712177
 30
0.0
 10
304.644523
 20
210.712177
 30
0.0
 10
303.928032
 20
211.428316
 30
0.0
 10
303.928032
 20
212.312024
 30
0.0
  0
LWPOLYLINE
  5
11f
100
AcDbEntity
  8
BrailleRAP_V5_600x400_planche2
 62
3
100
AcDbPolyline
 90
1
 70
1
 10
337.128018
 20
212.312024
 30
0.0
  0
LWPOLYLINE
  5
120
100
AcDbEntity
  8
BrailleRAP_V5_600x400_planche2
 62
3
100
AcDbPolyline
 90
1
 70
1
 10
303.928032
 20
212.312024
 30
0.0
  0
SPLINE
  5
121
100
AcDbEntity
  8
BrailleRAP_V5_600x400_planche2
 62
3
100
AcDbSpline
 70
8
 71
3
 72
8
 73
4
 74
0
 40
0
 40
0
 40
0
 40
0
 40
1
 40
1
 40
1
 40
1
 10
272.762021
 20
192.312029
 30
0.0
 10
275.523212
 20
192.312029
 30
0.0
 10
277.761940
 20
194.550404
 30
0.0
 10
277.761940
 20
197.311949
 30
0.0
  0
LWPOLYLINE
  5
122
100
AcDbEntity
  8
BrailleRAP_V5_600x400_planche2
 62
3
100
AcDbPolyline
 90
16
 70
0
 10
257.761910
 20
364.312006
 30
0.0
 10
252.761991
 20
364.312006
 30
0.0
 10
252.761991
 20
342.645453
 30
0.0
 10
257.761910
 20
342.645453
 30
0.0
 10
257.761910
 20
314.645482
 30
0.0
 10
252.761991
 20
314.645482
 30
0.0
 10
252.761991
 20
292.978577
 30
0.0
 10
257.761910
 20
292.978577
 30
0.0
 10
257.761910
 20
269.978525
 30
0.0
 10
252.761991
 20
269.978525
 30
0.0
 10
252.761991
 20
243.312053
 30
0.0
 10
257.761910
 20
243.312053
 30
0.0
 10
257.761910
 20
215.312082
 30
0.0
 10
252.761991
 20
215.312082
 30
0.0
 10
252.761991
 20
192.312029
 30
0.0
 10
272.762021
 20
192.312029
 30
0.0
  0
SPLINE
  5
123
100
AcDbEntity
  8
BrailleRAP_V5_600x400_planche2
 62
3
100
AcDbSpline
 70
8
 71
3
 72
8
 73
4
 74
0
 40
0
 40
0
 40
0
 40
0
 40
1
 40
1
 40
1
 40
1
 10
567.761847
 20
197.311949
 30
0.0
 10
567.761847
 20
194.550404
 30
0.0
 10
570.000574
 20
192.312029
 30
0.0
 10
572.761766
 20
192.312029
 30
0.0
  0
LWPOLYLINE
  5
124
100
AcDbEntity
  8
BrailleRAP_V5_600x400_planche2
 62
3
100
AcDbPolyline
 90
20
 70
0
 10
277.761940
 20
197.311949
 30
0.0
 10
277.761940
 20
202.311868
 30
0.0
 10
307.919500
 20
202.311868
 30
0.0
 10
307.919500
 20
197.311949
 30
0.0
 10
332.919450
 20
197.311949
 30
0.0
 10
332.919450
 20
202.311868
 30
0.0
 10
385.340815
 20
202.311868
 30
0.0
 10
385.340815
 20
197.311949
 30
0.0
 10
427.761989
 20
197.311949
 30
0.0
 10
427.761989
 20
202.311868
 30
0.0
 10
457.761858
 20
202.311868
 30
0.0
 10
457.761858
 20
197.311949
 30
0.0
 10
482.761807
 20
197.311949
 30
0.0
 10
482.761807
 20
202.311868
 30
0.0
 10
512.762029
 20
202.311868
 30
0.0
 10
512.762029
 20
197.311949
 30
0.0
 10
537.761978
 20
197.311949
 30
0.0
 10
537.761978
 20
202.311868
 30
0.0
 10
567.761847
 20
202.311868
 30
0.0
 10
567.761847
 20
197.311949
 30
0.0
  0
SPLINE
  5
125
100
AcDbEntity
  8
BrailleRAP_V5_600x400_planche2
 62
3
100
AcDbSpline
 70
8
 71
3
 72
8
 73
4
 74
0
 40
0
 40
0
 40
0
 40
0
 40
1
 40
1
 40
1
 40
1
 10
567.806508
 20
232.312019
 30
0.0
 10
567.806508
 20
226.789283
 30
0.0
 10
563.329406
 20
222.312180
 30
0.0
 10
557.806670
 20
222.312180
 30
0.0
  0
LWPOLYLINE
  5
126
100
AcDbEntity
  8
BrailleRAP_V5_600x400_planche2
 62
3
100
AcDbPolyline
 90
19
 70
0
 10
572.761766
 20
192.312029
 30
0.0
 10
592.761796
 20
192.312029
 30
0.0
 10
592.761796
 20
215.312082
 30
0.0
 10
587.761877
 20
215.312082
 30
0.0
 10
587.761877
 20
243.312053
 30
0.0
 10
592.761796
 20
243.312053
 30
0.0
 10
592.761796
 20
264.978605
 30
0.0
 10
587.761877
 20
264.978605
 30
0.0
 10
587.761877
 20
292.978577
 30
0.0
 10
592.761796
 20
292.978577
 30
0.0
 10
592.761796
 20
314.645482
 30
0.0
 10
587.761877
 20
314.645482
 30
0.0
 10
587.761877
 20
342.645453
 30
0.0
 10
592.761796
 20
342.645453
 30
0.0
 10
592.761796
 20
364.312006
 30
0.0
 10
587.761877
 20
364.312006
 30
0.0
 10
587.761877
 20
394.311874
 30
0.0
 10
257.761910
 20
394.311874
 30
0.0
 10
257.761910
 20
364.312006
 30
0.0
  0
SPLINE
  5
127
100
AcDbEntity
  8
BrailleRAP_V5_600x400_planche2
 62
3
100
AcDbSpline
 70
8
 71
3
 72
8
 73
4
 74
0
 40
0
 40
0
 40
0
 40
0
 40
1
 40
1
 40
1
 40
1
 10
302.423575
 20
342.512139
 30
0.0
 10
302.423575
 20
348.034875
 30
0.0
 10
306.900678
 20
352.511977
 30
0.0
 10
312.423767
 20
352.511977
 30
0.0
  0
LWPOLYLINE
  5
128
100
AcDbEntity
  8
BrailleRAP_V5_600x400_planche2
 62
3
100
AcDbPolyline
 90
4
 70
0
 10
357.919399
 20
327.312003
 30
0.0
 10
357.919399
 20
322.312084
 30
0.0
 10
302.423575
 20
322.312084
 30
0.0
 10
302.423575
 20
342.512139
 30
0.0
  0
SPLINE
  5
129
100
AcDbEntity
  8
BrailleRAP_V5_600x400_planche2
 62
3
100
AcDbSpline
 70
8
 71
3
 72
8
 73
4
 74
0
 40
0
 40
0
 40
0
 40
0
 40
1
 40
1
 40
1
 40
1
 10
532.822736
 20
352.511977
 30
0.0
 10
538.345472
 20
352.511977
 30
0.0
 10
542.822575
 20
348.034875
 30
0.0
 10
542.822575
 20
342.512139
 30
0.0
  0
LWPOLYLINE
  5
12a
100
AcDbEntity
  8
BrailleRAP_V5_600x400_planche2
 62
3
100
AcDbPolyline
 90
2
 70
0
 10
312.423767
 20
352.511977
 30
0.0
 10
532.822736
 20
352.511977
 30
0.0
  0
LWPOLYLINE
  5
12b
100
AcDbEntity
  8
BrailleRAP_V5_600x400_planche2
 62
3
100
AcDbPolyline
 90
9
 70
0
 10
542.822575
 20
342.512139
 30
0.0
 10
542.822575
 20
322.312084
 30
0.0
 10
487.761726
 20
322.312084
 30
0.0
 10
487.761726
 20
327.312003
 30
0.0
 10
462.919469
 20
327.312003
 30
0.0
 10
462.919469
 20
322.312084
 30
0.0
 10
382.762010
 20
322.312084
 30
0.0
 10
382.762010
 20
327.312003
 30
0.0
 10
357.919399
 20
327.312003
 30
0.0
  0
SPLINE
  5
12c
100
AcDbEntity
  8
BrailleRAP_V5_600x400_planche2
 62
3
100
AcDbSpline
 70
8
 71
3
 72
8
 73
4
 74
0
 40
0
 40
0
 40
0
 40
0
 40
1
 40
1
 40
1
 40
1
 10
558.930337
 20
95.071660
 30
0.0
 10
558.927162
 20
95.130574
 30
0.0
 10
558.927162
 20
95.189840
 30
0.0
 10
558.930337
 20
95.248754
 30
0.0
  0
SPLINE
  5
12d
100
AcDbEntity
  8
BrailleRAP_V5_600x400_planche2
 62
3
100
AcDbSpline
 70
8
 71
3
 72
8
 73
4
 74
0
 40
0
 40
0
 40
0
 40
0
 40
1
 40
1
 40
1
 40
1
 10
558.930337
 20
95.248754
 30
0.0
 10
558.979374
 20
96.186437
 30
0.0
 10
559.779121
 20
96.906810
 30
0.0
 10
560.716804
 20
96.857773
 30
0.0
  0
SPLINE
  5
12e
100
AcDbEntity
  8
BrailleRAP_V5_600x400_planche2
 62
3
100
AcDbSpline
 70
8
 71
3
 72
8
 73
4
 74
0
 40
0
 40
0
 40
0
 40
0
 40
1
 40
1
 40
1
 40
1
 10
560.716804
 20
96.857773
 30
0.0
 10
561.654135
 20
96.808737
 30
0.0
 10
562.374507
 20
96.008990
 30
0.0
 10
562.325823
 20
95.071660
 30
0.0
  0
LWPOLYLINE
  5
12f
100
AcDbEntity
  8
BrailleRAP_V5_600x400_planche2
 62
3
100
AcDbPolyline
 90
2
 70
0
 10
558.930337
 20
81.248768
 30
0.0
 10
558.930337
 20
95.071660
 30
0.0
  0
SPLINE
  5
130
100
AcDbEntity
  8
BrailleRAP_V5_600x400_planche2
 62
3
100
AcDbSpline
 70
8
 71
3
 72
8
 73
4
 74
0
 40
0
 40
0
 40
0
 40
0
 40
1
 40
1
 40
1
 40
1
 10
562.325823
 20
81.248768
 30
0.0
 10
562.328646
 20
81.189854
 30
0.0
 10
562.328646
 20
81.130588
 30
0.0
 10
562.325823
 20
81.071674
 30
0.0
  0
SPLINE
  5
131
100
AcDbEntity
  8
BrailleRAP_V5_600x400_planche2
 62
3
100
AcDbSpline
 70
8
 71
3
 72
8
 73
4
 74
0
 40
0
 40
0
 40
0
 40
0
 40
1
 40
1
 40
1
 40
1
 10
562.325823
 20
81.071674
 30
0.0
 10
562.276787
 20
80.133991
 30
0.0
 10
561.477040
 20
79.413618
 30
0.0
 10
560.539357
 20
79.462302
 30
0.0
  0
SPLINE
  5
132
100
AcDbEntity
  8
BrailleRAP_V5_600x400_planche2
 62
3
100
AcDbSpline
 70
8
 71
3
 72
8
 73
4
 74
0
 40
0
 40
0
 40
0
 40
0
 40
1
 40
1
 40
1
 40
1
 10
560.539357
 20
79.462302
 30
0.0
 10
559.601674
 20
79.511338
 30
0.0
 10
558.881301
 20
80.311085
 30
0.0
 10
558.930337
 20
81.248768
 30
0.0
  0
LWPOLYLINE
  5
133
100
AcDbEntity
  8
BrailleRAP_V5_600x400_planche2
 62
3
100
AcDbPolyline
 90
2
 70
0
 10
562.325823
 20
95.071660
 30
0.0
 10
562.325823
 20
81.248768
 30
0.0
  0
SPLINE
  5
134
100
AcDbEntity
  8
BrailleRAP_V5_600x400_planche2
 62
3
100
AcDbSpline
 70
8
 71
3
 72
8
 73
4
 74
0
 40
0
 40
0
 40
0
 40
0
 40
1
 40
1
 40
1
 40
1
 10
558.930337
 20
54.948762
 30
0.0
 10
558.881301
 20
54.011079
 30
0.0
 10
559.601674
 20
53.211332
 30
0.0
 10
560.539357
 20
53.162296
 30
0.0
  0
SPLINE
  5
135
100
AcDbEntity
  8
BrailleRAP_V5_600x400_planche2
 62
3
100
AcDbSpline
 70
8
 71
3
 72
8
 73
4
 74
0
 40
0
 40
0
 40
0
 40
0
 40
1
 40
1
 40
1
 40
1
 10
560.539357
 20
53.162296
 30
0.0
 10
561.477040
 20
53.113612
 30
0.0
 10
562.276787
 20
53.833985
 30
0.0
 10
562.325823
 20
54.771668
 30
0.0
  0
SPLINE
  5
136
100
AcDbEntity
  8
BrailleRAP_V5_600x400_planche2
 62
3
100
AcDbSpline
 70
8
 71
3
 72
8
 73
4
 74
0
 40
0
 40
0
 40
0
 40
0
 40
1
 40
1
 40
1
 40
1
 10
562.325823
 20
54.771668
 30
0.0
 10
562.328646
 20
54.830582
 30
0.0
 10
562.328646
 20
54.889848
 30
0.0
 10
562.325823
 20
54.948762
 30
0.0
  0
LWPOLYLINE
  5
137
100
AcDbEntity
  8
BrailleRAP_V5_600x400_planche2
 62
3
100
AcDbPolyline
 90
1
 70
1
 10
558.930337
 20
81.248768
 30
0.0
  0
SPLINE
  5
138
100
AcDbEntity
  8
BrailleRAP_V5_600x400_planche2
 62
3
100
AcDbSpline
 70
8
 71
3
 72
8
 73
4
 74
0
 40
0
 40
0
 40
0
 40
0
 40
1
 40
1
 40
1
 40
1
 10
562.325823
 20
68.771654
 30
0.0
 10
562.374507
 20
69.708984
 30
0.0
 10
561.654135
 20
70.508731
 30
0.0
 10
560.716804
 20
70.557767
 30
0.0
  0
SPLINE
  5
139
100
AcDbEntity
  8
BrailleRAP_V5_600x400_planche2
 62
3
100
AcDbSpline
 70
8
 71
3
 72
8
 73
4
 74
0
 40
0
 40
0
 40
0
 40
0
 40
1
 40
1
 40
1
 40
1
 10
560.716804
 20
70.557767
 30
0.0
 10
559.779121
 20
70.606804
 30
0.0
 10
558.979374
 20
69.886431
 30
0.0
 10
558.930337
 20
68.948748
 30
0.0
  0
SPLINE
  5
13a
100
AcDbEntity
  8
BrailleRAP_V5_600x400_planche2
 62
3
100
AcDbSpline
 70
8
 71
3
 72
8
 73
4
 74
0
 40
0
 40
0
 40
0
 40
0
 40
1
 40
1
 40
1
 40
1
 10
558.930337
 20
68.948748
 30
0.0
 10
558.927162
 20
68.889834
 30
0.0
 10
558.927162
 20
68.830568
 30
0.0
 10
558.930337
 20
68.771654
 30
0.0
  0
LWPOLYLINE
  5
13b
100
AcDbEntity
  8
BrailleRAP_V5_600x400_planche2
 62
3
100
AcDbPolyline
 90
2
 70
0
 10
562.325823
 20
54.948762
 30
0.0
 10
562.325823
 20
68.771654
 30
0.0
  0
SPLINE
  5
13c
100
AcDbEntity
  8
BrailleRAP_V5_600x400_planche2
 62
3
100
AcDbSpline
 70
8
 71
3
 72
8
 73
4
 74
0
 40
0
 40
0
 40
0
 40
0
 40
1
 40
1
 40
1
 40
1
 10
497.005668
 20
100.858803
 30
0.0
 10
497.889376
 20
100.858803
 30
0.0
 10
498.605868
 20
101.575294
 30
0.0
 10
498.605868
 20
102.458650
 30
0.0
  0
SPLINE
  5
13d
100
AcDbEntity
  8
BrailleRAP_V5_600x400_planche2
 62
3
100
AcDbSpline
 70
8
 71
3
 72
8
 73
4
 74
0
 40
0
 40
0
 40
0
 40
0
 40
1
 40
1
 40
1
 40
1
 10
498.605868
 20
102.458650
 30
0.0
 10
498.605868
 20
103.342358
 30
0.0
 10
497.889376
 20
104.058850
 30
0.0
 10
497.005668
 20
104.058850
 30
0.0
  0
SPLINE
  5
13e
100
AcDbEntity
  8
BrailleRAP_V5_600x400_planche2
 62
3
100
AcDbSpline
 70
8
 71
3
 72
8
 73
4
 74
0
 40
0
 40
0
 40
0
 40
0
 40
1
 40
1
 40
1
 40
1
 10
497.005668
 20
104.058850
 30
0.0
 10
496.121960
 20
104.058850
 30
0.0
 10
495.405821
 20
103.342358
 30
0.0
 10
495.405821
 20
102.458650
 30
0.0
  0
SPLINE
  5
13f
100
AcDbEntity
  8
BrailleRAP_V5_600x400_planche2
 62
3
100
AcDbSpline
 70
8
 71
3
 72
8
 73
4
 74
0
 40
0
 40
0
 40
0
 40
0
 40
1
 40
1
 40
1
 40
1
 10
495.405821
 20
102.458650
 30
0.0
 10
495.405821
 20
101.575294
 30
0.0
 10
496.121960
 20
100.858803
 30
0.0
 10
497.005668
 20
100.858803
 30
0.0
  0
LWPOLYLINE
  5
140
100
AcDbEntity
  8
BrailleRAP_V5_600x400_planche2
 62
3
100
AcDbPolyline
 90
2
 70
0
 10
558.930337
 20
68.771654
 30
0.0
 10
558.930337
 20
54.948762
 30
0.0
  0
SPLINE
  5
141
100
AcDbEntity
  8
BrailleRAP_V5_600x400_planche2
 62
3
100
AcDbSpline
 70
8
 71
3
 72
8
 73
4
 74
0
 40
0
 40
0
 40
0
 40
0
 40
1
 40
1
 40
1
 40
1
 10
497.005668
 20
176.958929
 30
0.0
 10
497.889376
 20
176.958929
 30
0.0
 10
498.605868
 20
177.675421
 30
0.0
 10
498.605868
 20
178.558776
 30
0.0
  0
SPLINE
  5
142
100
AcDbEntity
  8
BrailleRAP_V5_600x400_planche2
 62
3
100
AcDbSpline
 70
8
 71
3
 72
8
 73
4
 74
0
 40
0
 40
0
 40
0
 40
0
 40
1
 40
1
 40
1
 40
1
 10
498.605868
 20
178.558776
 30
0.0
 10
498.605868
 20
179.442485
 30
0.0
 10
497.889376
 20
180.158976
 30
0.0
 10
497.005668
 20
180.158976
 30
0.0
  0
SPLINE
  5
143
100
AcDbEntity
  8
BrailleRAP_V5_600x400_planche2
 62
3
100
AcDbSpline
 70
8
 71
3
 72
8
 73
4
 74
0
 40
0
 40
0
 40
0
 40
0
 40
1
 40
1
 40
1
 40
1
 10
497.005668
 20
180.158976
 30
0.0
 10
496.121960
 20
180.158976
 30
0.0
 10
495.405821
 20
179.442485
 30
0.0
 10
495.405821
 20
178.558776
 30
0.0
  0
SPLINE
  5
144
100
AcDbEntity
  8
BrailleRAP_V5_600x400_planche2
 62
3
100
AcDbSpline
 70
8
 71
3
 72
8
 73
4
 74
0
 40
0
 40
0
 40
0
 40
0
 40
1
 40
1
 40
1
 40
1
 10
495.405821
 20
178.558776
 30
0.0
 10
495.405821
 20
177.675421
 30
0.0
 10
496.121960
 20
176.958929
 30
0.0
 10
497.005668
 20
176.958929
 30
0.0
  0
LWPOLYLINE
  5
145
100
AcDbEntity
  8
BrailleRAP_V5_600x400_planche2
 62
3
100
AcDbPolyline
 90
1
 70
1
 10
497.005668
 20
100.858803
 30
0.0
  0
SPLINE
  5
146
100
AcDbEntity
  8
BrailleRAP_V5_600x400_planche2
 62
3
100
AcDbSpline
 70
8
 71
3
 72
8
 73
4
 74
0
 40
0
 40
0
 40
0
 40
0
 40
1
 40
1
 40
1
 40
1
 10
361.805423
 20
176.958929
 30
0.0
 10
362.689131
 20
176.958929
 30
0.0
 10
363.405270
 20
177.675421
 30
0.0
 10
363.405270
 20
178.558776
 30
0.0
  0
SPLINE
  5
147
100
AcDbEntity
  8
BrailleRAP_V5_600x400_planche2
 62
3
100
AcDbSpline
 70
8
 71
3
 72
8
 73
4
 74
0
 40
0
 40
0
 40
0
 40
0
 40
1
 40
1
 40
1
 40
1
 10
363.405270
 20
178.558776
 30
0.0
 10
363.405270
 20
179.442485
 30
0.0
 10
362.689131
 20
180.158976
 30
0.0
 10
361.805423
 20
180.158976
 30
0.0
  0
SPLINE
  5
148
100
AcDbEntity
  8
BrailleRAP_V5_600x400_planche2
 62
3
100
AcDbSpline
 70
8
 71
3
 72
8
 73
4
 74
0
 40
0
 40
0
 40
0
 40
0
 40
1
 40
1
 40
1
 40
1
 10
361.805423
 20
180.158976
 30
0.0
 10
360.921714
 20
180.158976
 30
0.0
 10
360.205575
 20
179.442485
 30
0.0
 10
360.205575
 20
178.558776
 30
0.0
  0
SPLINE
  5
149
100
AcDbEntity
  8
BrailleRAP_V5_600x400_planche2
 62
3
100
AcDbSpline
 70
8
 71
3
 72
8
 73
4
 74
0
 40
0
 40
0
 40
0
 40
0
 40
1
 40
1
 40
1
 40
1
 10
360.205575
 20
178.558776
 30
0.0
 10
360.205575
 20
177.675421
 30
0.0
 10
360.921714
 20
176.958929
 30
0.0
 10
361.805423
 20
176.958929
 30
0.0
  0
LWPOLYLINE
  5
14a
100
AcDbEntity
  8
BrailleRAP_V5_600x400_planche2
 62
3
100
AcDbPolyline
 90
1
 70
1
 10
497.005668
 20
176.958929
 30
0.0
  0
SPLINE
  5
14b
100
AcDbEntity
  8
BrailleRAP_V5_600x400_planche2
 62
3
100
AcDbSpline
 70
8
 71
3
 72
8
 73
4
 74
0
 40
0
 40
0
 40
0
 40
0
 40
1
 40
1
 40
1
 40
1
 10
361.805423
 20
100.858803
 30
0.0
 10
362.689131
 20
100.858803
 30
0.0
 10
363.405270
 20
101.575294
 30
0.0
 10
363.405270
 20
102.458650
 30
0.0
  0
SPLINE
  5
14c
100
AcDbEntity
  8
BrailleRAP_V5_600x400_planche2
 62
3
100
AcDbSpline
 70
8
 71
3
 72
8
 73
4
 74
0
 40
0
 40
0
 40
0
 40
0
 40
1
 40
1
 40
1
 40
1
 10
363.405270
 20
102.458650
 30
0.0
 10
363.405270
 20
103.342358
 30
0.0
 10
362.689131
 20
104.058850
 30
0.0
 10
361.805423
 20
104.058850
 30
0.0
  0
SPLINE
  5
14d
100
AcDbEntity
  8
BrailleRAP_V5_600x400_planche2
 62
3
100
AcDbSpline
 70
8
 71
3
 72
8
 73
4
 74
0
 40
0
 40
0
 40
0
 40
0
 40
1
 40
1
 40
1
 40
1
 10
361.805423
 20
104.058850
 30
0.0
 10
360.921714
 20
104.058850
 30
0.0
 10
360.205575
 20
103.342358
 30
0.0
 10
360.205575
 20
102.458650
 30
0.0
  0
SPLINE
  5
14e
100
AcDbEntity
  8
BrailleRAP_V5_600x400_planche2
 62
3
100
AcDbSpline
 70
8
 71
3
 72
8
 73
4
 74
0
 40
0
 40
0
 40
0
 40
0
 40
1
 40
1
 40
1
 40
1
 10
360.205575
 20
102.458650
 30
0.0
 10
360.205575
 20
101.575294
 30
0.0
 10
360.921714
 20
100.858803
 30
0.0
 10
361.805423
 20
100.858803
 30
0.0
  0
LWPOLYLINE
  5
14f
100
AcDbEntity
  8
BrailleRAP_V5_600x400_planche2
 62
3
100
AcDbPolyline
 90
1
 70
1
 10
361.805423
 20
176.958929
 30
0.0
  0
LWPOLYLINE
  5
150
100
AcDbEntity
  8
BrailleRAP_V5_600x400_planche2
 62
3
100
AcDbPolyline
 90
1
 70
1
 10
361.805423
 20
100.858803
 30
0.0
  0
SPLINE
  5
151
100
AcDbEntity
  8
BrailleRAP_V5_600x400_planche2
 62
3
100
AcDbSpline
 70
8
 71
3
 72
8
 73
4
 74
0
 40
0
 40
0
 40
0
 40
0
 40
1
 40
1
 40
1
 40
1
 10
240.288227
 20
261.849290
 30
0.0
 10
241.226969
 20
261.849290
 30
0.0
 10
241.988263
 20
261.088349
 30
0.0
 10
241.988263
 20
260.149254
 30
0.0
  0
SPLINE
  5
152
100
AcDbEntity
  8
BrailleRAP_V5_600x400_planche2
 62
3
100
AcDbSpline
 70
8
 71
3
 72
8
 73
4
 74
0
 40
0
 40
0
 40
0
 40
0
 40
1
 40
1
 40
1
 40
1
 10
241.988263
 20
260.149254
 30
0.0
 10
241.988263
 20
259.210512
 30
0.0
 10
241.226969
 20
258.449218
 30
0.0
 10
240.288227
 20
258.449218
 30
0.0
  0
SPLINE
  5
153
100
AcDbEntity
  8
BrailleRAP_V5_600x400_planche2
 62
3
100
AcDbSpline
 70
8
 71
3
 72
8
 73
4
 74
0
 40
0
 40
0
 40
0
 40
0
 40
1
 40
1
 40
1
 40
1
 10
240.288227
 20
258.449218
 30
0.0
 10
239.349486
 20
258.449218
 30
0.0
 10
238.588191
 20
259.210512
 30
0.0
 10
238.588191
 20
260.149254
 30
0.0
  0
SPLINE
  5
154
100
AcDbEntity
  8
BrailleRAP_V5_600x400_planche2
 62
3
100
AcDbSpline
 70
8
 71
3
 72
8
 73
4
 74
0
 40
0
 40
0
 40
0
 40
0
 40
1
 40
1
 40
1
 40
1
 10
238.588191
 20
260.149254
 30
0.0
 10
238.588191
 20
261.088349
 30
0.0
 10
239.349486
 20
261.849290
 30
0.0
 10
240.288227
 20
261.849290
 30
0.0
  0
LWPOLYLINE
  5
155
100
AcDbEntity
  8
BrailleRAP_V5_600x400_planche2
 62
3
100
AcDbPolyline
 90
52
 70
1
 10
276.669423
 20
188.395067
 30
0.0
 10
306.826983
 20
188.395067
 30
0.0
 10
306.826983
 20
183.395148
 30
0.0
 10
331.826932
 20
183.395148
 30
0.0
 10
331.826932
 20
188.395067
 30
0.0
 10
384.248298
 20
188.395067
 30
0.0
 10
384.248298
 20
183.395148
 30
0.0
 10
426.669472
 20
183.395148
 30
0.0
 10
426.669472
 20
188.395067
 30
0.0
 10
456.669340
 20
188.395067
 30
0.0
 10
456.669340
 20
183.395148
 30
0.0
 10
481.669290
 20
183.395148
 30
0.0
 10
481.669290
 20
188.395067
 30
0.0
 10
511.669511
 20
188.395067
 30
0.0
 10
511.669511
 20
183.395148
 30
0.0
 10
536.669460
 20
183.395148
 30
0.0
 10
536.669460
 20
188.395067
 30
0.0
 10
566.669329
 20
188.395067
 30
0.0
 10
566.669329
 20
183.395148
 30
0.0
 10
586.669359
 20
183.395148
 30
0.0
 10
586.669359
 20
163.395118
 30
0.0
 10
591.669279
 20
163.395118
 30
0.0
 10
591.669279
 20
133.395249
 30
0.0
 10
586.669359
 20
133.395249
 30
0.0
 10
586.669359
 20
103.395028
 30
0.0
 10
591.669279
 20
103.395028
 30
0.0
 10
591.669279
 20
63.394968
 30
0.0
 10
586.669359
 20
63.394968
 30
0.0
 10
586.669359
 20
43.394938
 30
0.0
 10
566.669329
 20
43.394938
 30
0.0
 10
566.669329
 20
38.395018
 30
0.0
 10
492.488631
 20
38.395018
 30
0.0
 10
492.488631
 20
43.394938
 30
0.0
 10
453.291493
 20
43.394938
 30
0.0
 10
453.291493
 20
38.395018
 30
0.0
 10
386.748081
 20
38.395018
 30
0.0
 10
386.748081
 20
43.394938
 30
0.0
 10
350.850473
 20
43.394938
 30
0.0
 10
350.850473
 20
38.395018
 30
0.0
 10
276.669423
 20
38.395018
 30
0.0
 10
276.669423
 20
43.394938
 30
0.0
 10
256.669392
 20
43.394938
 30
0.0
 10
256.669392
 20
63.394968
 30
0.0
 10
251.669473
 20
63.394968
 30
0.0
 10
251.669473
 20
103.395028
 30
0.0
 10
256.669392
 20
103.395028
 30
0.0
 10
256.669392
 20
133.395249
 30
0.0
 10
251.669473
 20
133.395249
 30
0.0
 10
251.669473
 20
163.395118
 30
0.0
 10
256.669392
 20
163.395118
 30
0.0
 10
256.669392
 20
183.395148
 30
0.0
 10
276.669423
 20
183.395148
 30
0.0
  0
SPLINE
  5
156
100
AcDbEntity
  8
BrailleRAP_V5_600x400_planche2
 62
3
100
AcDbSpline
 70
8
 71
3
 72
8
 73
4
 74
0
 40
0
 40
0
 40
0
 40
0
 40
1
 40
1
 40
1
 40
1
 10
14.388147
 20
258.449289
 30
0.0
 10
13.449405
 20
258.449289
 30
0.0
 10
12.688111
 20
259.210583
 30
0.0
 10
12.688111
 20
260.149325
 30
0.0
  0
SPLINE
  5
157
100
AcDbEntity
  8
BrailleRAP_V5_600x400_planche2
 62
3
100
AcDbSpline
 70
8
 71
3
 72
8
 73
4
 74
0
 40
0
 40
0
 40
0
 40
0
 40
1
 40
1
 40
1
 40
1
 10
12.688111
 20
260.149325
 30
0.0
 10
12.688111
 20
261.088066
 30
0.0
 10
13.449405
 20
261.849361
 30
0.0
 10
14.388147
 20
261.849361
 30
0.0
  0
SPLINE
  5
158
100
AcDbEntity
  8
BrailleRAP_V5_600x400_planche2
 62
3
100
AcDbSpline
 70
8
 71
3
 72
8
 73
4
 74
0
 40
0
 40
0
 40
0
 40
0
 40
1
 40
1
 40
1
 40
1
 10
14.388147
 20
261.849361
 30
0.0
 10
15.326889
 20
261.849361
 30
0.0
 10
16.088183
 20
261.088066
 30
0.0
 10
16.088183
 20
260.149325
 30
0.0
  0
SPLINE
  5
159
100
AcDbEntity
  8
BrailleRAP_V5_600x400_planche2
 62
3
100
AcDbSpline
 70
8
 71
3
 72
8
 73
4
 74
0
 40
0
 40
0
 40
0
 40
0
 40
1
 40
1
 40
1
 40
1
 10
16.088183
 20
260.149325
 30
0.0
 10
16.088183
 20
259.210583
 30
0.0
 10
15.326889
 20
258.449289
 30
0.0
 10
14.388147
 20
258.449289
 30
0.0
  0
LWPOLYLINE
  5
15a
100
AcDbEntity
  8
BrailleRAP_V5_600x400_planche2
 62
3
100
AcDbPolyline
 90
1
 70
1
 10
240.288227
 20
261.849290
 30
0.0
  0
LWPOLYLINE
  5
15b
100
AcDbEntity
  8
BrailleRAP_V5_600x400_planche2
 62
3
100
AcDbPolyline
 90
1
 70
1
 10
14.388147
 20
258.449289
 30
0.0
  0
SPLINE
  5
15c
100
AcDbEntity
  8
BrailleRAP_V5_600x400_planche2
 62
3
100
AcDbSpline
 70
8
 71
3
 72
8
 73
4
 74
0
 40
0
 40
0
 40
0
 40
0
 40
1
 40
1
 40
1
 40
1
 10
89.727085
 20
287.145044
 30
0.0
 10
89.727085
 20
286.592594
 30
0.0
 10
89.279410
 20
286.144919
 30
0.0
 10
88.727313
 20
286.144919
 30
0.0
  0
LWPOLYLINE
  5
15d
100
AcDbEntity
  8
BrailleRAP_V5_600x400_planche2
 62
3
100
AcDbPolyline
 90
5
 70
0
 10
21.838179
 20
349.447009
 30
0.0
 10
232.838090
 20
349.447009
 30
0.0
 10
232.838090
 20
317.704418
 30
0.0
 10
89.727085
 20
317.704418
 30
0.0
 10
89.727085
 20
287.145044
 30
0.0
  0
SPLINE
  5
15e
100
AcDbEntity
  8
BrailleRAP_V5_600x400_planche2
 62
3
100
AcDbSpline
 70
8
 71
3
 72
8
 73
4
 74
0
 40
0
 40
0
 40
0
 40
0
 40
1
 40
1
 40
1
 40
1
 10
84.726108
 20
286.144919
 30
0.0
 10
84.174010
 20
286.144919
 30
0.0
 10
83.726335
 20
286.592594
 30
0.0
 10
83.726335
 20
287.145044
 30
0.0
  0
LWPOLYLINE
  5
15f
100
AcDbEntity
  8
BrailleRAP_V5_600x400_planche2
 62
3
100
AcDbPolyline
 90
2
 70
0
 10
88.727313
 20
286.144919
 30
0.0
 10
84.726108
 20
286.144919
 30
0.0
  0
SPLINE
  5
160
100
AcDbEntity
  8
BrailleRAP_V5_600x400_planche2
 62
3
100
AcDbSpline
 70
8
 71
3
 72
8
 73
4
 74
0
 40
0
 40
0
 40
0
 40
0
 40
1
 40
1
 40
1
 40
1
 10
183.028797
 20
302.067155
 30
0.0
 10
183.028797
 20
302.623133
 30
0.0
 10
187.729914
 20
303.073983
 30
0.0
 10
193.528875
 20
303.073983
 30
0.0
  0
SPLINE
  5
161
100
AcDbEntity
  8
BrailleRAP_V5_600x400_planche2
 62
3
100
AcDbSpline
 70
8
 71
3
 72
8
 73
4
 74
0
 40
0
 40
0
 40
0
 40
0
 40
1
 40
1
 40
1
 40
1
 10
193.528875
 20
303.073983
 30
0.0
 10
199.327836
 20
303.073983
 30
0.0
 10
204.028952
 20
302.623133
 30
0.0
 10
204.028952
 20
302.067155
 30
0.0
  0
LWPOLYLINE
  5
162
100
AcDbEntity
  8
BrailleRAP_V5_600x400_planche2
 62
3
100
AcDbPolyline
 90
4
 70
0
 10
83.726335
 20
287.145044
 30
0.0
 10
83.726335
 20
317.704418
 30
0.0
 10
21.838179
 20
317.704418
 30
0.0
 10
21.838179
 20
349.447009
 30
0.0
  0
SPLINE
  5
163
100
AcDbEntity
  8
BrailleRAP_V5_600x400_planche2
 62
3
100
AcDbSpline
 70
8
 71
3
 72
8
 73
4
 74
0
 40
0
 40
0
 40
0
 40
0
 40
1
 40
1
 40
1
 40
1
 10
204.028952
 20
282.067125
 30
0.0
 10
204.028952
 20
280.962578
 30
0.0
 10
203.133249
 20
280.067228
 30
0.0
 10
202.028702
 20
280.067228
 30
0.0
  0
LWPOLYLINE
  5
164
100
AcDbEntity
  8
BrailleRAP_V5_600x400_planche2
 62
3
100
AcDbPolyline
 90
2
 70
0
 10
204.028952
 20
302.067155
 30
0.0
 10
204.028952
 20
282.067125
 30
0.0
  0
SPLINE
  5
165
100
AcDbEntity
  8
BrailleRAP_V5_600x400_planche2
 62
3
100
AcDbSpline
 70
8
 71
3
 72
8
 73
4
 74
0
 40
0
 40
0
 40
0
 40
0
 40
1
 40
1
 40
1
 40
1
 10
185.028694
 20
280.067228
 30
0.0
 10
183.924147
 20
280.067228
 30
0.0
 10
183.028797
 20
280.962578
 30
0.0
 10
183.028797
 20
282.067125
 30
0.0
  0
LWPOLYLINE
  5
166
100
AcDbEntity
  8
BrailleRAP_V5_600x400_planche2
 62
3
100
AcDbPolyline
 90
2
 70
0
 10
202.028702
 20
280.067228
 30
0.0
 10
185.028694
 20
280.067228
 30
0.0
  0
LWPOLYLINE
  5
167
100
AcDbEntity
  8
BrailleRAP_V5_600x400_planche2
 62
3
100
AcDbPolyline
 90
2
 70
0
 10
183.028797
 20
282.067125
 30
0.0
 10
183.028797
 20
302.067155
 30
0.0
  0
SPLINE
  5
168
100
AcDbEntity
  8
BrailleRAP_V5_600x400_planche2
 62
3
100
AcDbSpline
 70
8
 71
3
 72
8
 73
4
 74
0
 40
0
 40
0
 40
0
 40
0
 40
1
 40
1
 40
1
 40
1
 10
35.028786
 20
283.067144
 30
0.0
 10
35.028786
 20
281.962597
 30
0.0
 10
35.924136
 20
281.067247
 30
0.0
 10
37.028684
 20
281.067247
 30
0.0
  0
LWPOLYLINE
  5
169
100
AcDbEntity
  8
BrailleRAP_V5_600x400_planche2
 62
3
100
AcDbPolyline
 90
2
 70
0
 10
35.028786
 20
303.067174
 30
0.0
 10
35.028786
 20
283.067144
 30
0.0
  0
SPLINE
  5
16a
100
AcDbEntity
  8
BrailleRAP_V5_600x400_planche2
 62
3
100
AcDbSpline
 70
8
 71
3
 72
8
 73
4
 74
0
 40
0
 40
0
 40
0
 40
0
 40
1
 40
1
 40
1
 40
1
 10
54.028691
 20
281.067247
 30
0.0
 10
55.133239
 20
281.067247
 30
0.0
 10
56.028941
 20
281.962597
 30
0.0
 10
56.028941
 20
283.067144
 30
0.0
  0
LWPOLYLINE
  5
16b
100
AcDbEntity
  8
BrailleRAP_V5_600x400_planche2
 62
3
100
AcDbPolyline
 90
2
 70
0
 10
37.028684
 20
281.067247
 30
0.0
 10
54.028691
 20
281.067247
 30
0.0
  0
SPLINE
  5
16c
100
AcDbEntity
  8
BrailleRAP_V5_600x400_planche2
 62
3
100
AcDbSpline
 70
8
 71
3
 72
8
 73
4
 74
0
 40
0
 40
0
 40
0
 40
0
 40
1
 40
1
 40
1
 40
1
 10
56.028941
 20
303.067174
 30
0.0
 10
56.028941
 20
303.623152
 30
0.0
 10
51.327825
 20
304.074002
 30
0.0
 10
45.528864
 20
304.074002
 30
0.0
  0
SPLINE
  5
16d
100
AcDbEntity
  8
BrailleRAP_V5_600x400_planche2
 62
3
100
AcDbSpline
 70
8
 71
3
 72
8
 73
4
 74
0
 40
0
 40
0
 40
0
 40
0
 40
1
 40
1
 40
1
 40
1
 10
45.528864
 20
304.074002
 30
0.0
 10
39.729903
 20
304.074002
 30
0.0
 10
35.028786
 20
303.623152
 30
0.0
 10
35.028786
 20
303.067174
 30
0.0
  0
LWPOLYLINE
  5
16e
100
AcDbEntity
  8
BrailleRAP_V5_600x400_planche2
 62
3
100
AcDbPolyline
 90
2
 70
0
 10
56.028941
 20
283.067144
 30
0.0
 10
56.028941
 20
303.067174
 30
0.0
  0
SPLINE
  5
16f
100
AcDbEntity
  8
BrailleRAP_V5_600x400_planche2
 62
3
100
AcDbSpline
 70
8
 71
3
 72
8
 73
4
 74
0
 40
0
 40
0
 40
0
 40
0
 40
1
 40
1
 40
1
 40
1
 10
14.388147
 20
319.849272
 30
0.0
 10
15.326889
 20
319.849272
 30
0.0
 10
16.088183
 20
319.088330
 30
0.0
 10
16.088183
 20
318.149235
 30
0.0
  0
SPLINE
  5
170
100
AcDbEntity
  8
BrailleRAP_V5_600x400_planche2
 62
3
100
AcDbSpline
 70
8
 71
3
 72
8
 73
4
 74
0
 40
0
 40
0
 40
0
 40
0
 40
1
 40
1
 40
1
 40
1
 10
16.088183
 20
318.149235
 30
0.0
 10
16.088183
 20
317.210494
 30
0.0
 10
15.326889
 20
316.449199
 30
0.0
 10
14.388147
 20
316.449199
 30
0.0
  0
SPLINE
  5
171
100
AcDbEntity
  8
BrailleRAP_V5_600x400_planche2
 62
3
100
AcDbSpline
 70
8
 71
3
 72
8
 73
4
 74
0
 40
0
 40
0
 40
0
 40
0
 40
1
 40
1
 40
1
 40
1
 10
14.388147
 20
316.449199
 30
0.0
 10
13.449405
 20
316.449199
 30
0.0
 10
12.688111
 20
317.210494
 30
0.0
 10
12.688111
 20
318.149235
 30
0.0
  0
SPLINE
  5
172
100
AcDbEntity
  8
BrailleRAP_V5_600x400_planche2
 62
3
100
AcDbSpline
 70
8
 71
3
 72
8
 73
4
 74
0
 40
0
 40
0
 40
0
 40
0
 40
1
 40
1
 40
1
 40
1
 10
12.688111
 20
318.149235
 30
0.0
 10
12.688111
 20
319.088330
 30
0.0
 10
13.449405
 20
319.849272
 30
0.0
 10
14.388147
 20
319.849272
 30
0.0
  0
LWPOLYLINE
  5
173
100
AcDbEntity
  8
BrailleRAP_V5_600x400_planche2
 62
3
100
AcDbPolyline
 90
1
 70
1
 10
35.028786
 20
303.067174
 30
0.0
  0
SPLINE
  5
174
100
AcDbEntity
  8
BrailleRAP_V5_600x400_planche2
 62
3
100
AcDbSpline
 70
8
 71
3
 72
8
 73
4
 74
0
 40
0
 40
0
 40
0
 40
0
 40
1
 40
1
 40
1
 40
1
 10
240.284558
 20
319.849272
 30
0.0
 10
241.223300
 20
319.849272
 30
0.0
 10
241.984595
 20
319.088330
 30
0.0
 10
241.984595
 20
318.149235
 30
0.0
  0
SPLINE
  5
175
100
AcDbEntity
  8
BrailleRAP_V5_600x400_planche2
 62
3
100
AcDbSpline
 70
8
 71
3
 72
8
 73
4
 74
0
 40
0
 40
0
 40
0
 40
0
 40
1
 40
1
 40
1
 40
1
 10
241.984595
 20
318.149235
 30
0.0
 10
241.984595
 20
317.210494
 30
0.0
 10
241.223300
 20
316.449199
 30
0.0
 10
240.284558
 20
316.449199
 30
0.0
  0
SPLINE
  5
176
100
AcDbEntity
  8
BrailleRAP_V5_600x400_planche2
 62
3
100
AcDbSpline
 70
8
 71
3
 72
8
 73
4
 74
0
 40
0
 40
0
 40
0
 40
0
 40
1
 40
1
 40
1
 40
1
 10
240.284558
 20
316.449199
 30
0.0
 10
239.345817
 20
316.449199
 30
0.0
 10
238.584522
 20
317.210494
 30
0.0
 10
238.584522
 20
318.149235
 30
0.0
  0
SPLINE
  5
177
100
AcDbEntity
  8
BrailleRAP_V5_600x400_planche2
 62
3
100
AcDbSpline
 70
8
 71
3
 72
8
 73
4
 74
0
 40
0
 40
0
 40
0
 40
0
 40
1
 40
1
 40
1
 40
1
 10
238.584522
 20
318.149235
 30
0.0
 10
238.584522
 20
319.088330
 30
0.0
 10
239.345817
 20
319.849272
 30
0.0
 10
240.284558
 20
319.849272
 30
0.0
  0
LWPOLYLINE
  5
178
100
AcDbEntity
  8
BrailleRAP_V5_600x400_planche2
 62
3
100
AcDbPolyline
 90
1
 70
1
 10
14.388147
 20
319.849272
 30
0.0
  0
LWPOLYLINE
  5
179
100
AcDbEntity
  8
BrailleRAP_V5_600x400_planche2
 62
3
100
AcDbPolyline
 90
1
 70
1
 10
240.284558
 20
319.849272
 30
0.0
  0
SPLINE
  5
17a
100
AcDbEntity
  8
BrailleRAP_V5_600x400_planche2
 62
3
100
AcDbSpline
 70
8
 71
3
 72
8
 73
4
 74
0
 40
0
 40
0
 40
0
 40
0
 40
1
 40
1
 40
1
 40
1
 10
240.284558
 20
366.449275
 30
0.0
 10
239.345817
 20
366.449275
 30
0.0
 10
238.584522
 20
367.210216
 30
0.0
 10
238.584522
 20
368.149311
 30
0.0
  0
SPLINE
  5
17b
100
AcDbEntity
  8
BrailleRAP_V5_600x400_planche2
 62
3
100
AcDbSpline
 70
8
 71
3
 72
8
 73
4
 74
0
 40
0
 40
0
 40
0
 40
0
 40
1
 40
1
 40
1
 40
1
 10
238.584522
 20
368.149311
 30
0.0
 10
238.584522
 20
369.088052
 30
0.0
 10
239.345817
 20
369.849347
 30
0.0
 10
240.284558
 20
369.849347
 30
0.0
  0
SPLINE
  5
17c
100
AcDbEntity
  8
BrailleRAP_V5_600x400_planche2
 62
3
100
AcDbSpline
 70
8
 71
3
 72
8
 73
4
 74
0
 40
0
 40
0
 40
0
 40
0
 40
1
 40
1
 40
1
 40
1
 10
240.284558
 20
369.849347
 30
0.0
 10
241.223300
 20
369.849347
 30
0.0
 10
241.984595
 20
369.088052
 30
0.0
 10
241.984595
 20
368.149311
 30
0.0
  0
SPLINE
  5
17d
100
AcDbEntity
  8
BrailleRAP_V5_600x400_planche2
 62
3
100
AcDbSpline
 70
8
 71
3
 72
8
 73
4
 74
0
 40
0
 40
0
 40
0
 40
0
 40
1
 40
1
 40
1
 40
1
 10
241.984595
 20
368.149311
 30
0.0
 10
241.984595
 20
367.210216
 30
0.0
 10
241.223300
 20
366.449275
 30
0.0
 10
240.284558
 20
366.449275
 30
0.0
  0
LWPOLYLINE
  5
17e
100
AcDbEntity
  8
BrailleRAP_V5_600x400_planche2
 62
3
100
AcDbPolyline
 90
20
 70
1
 10
7.141351
 20
244.312002
 30
0.0
 10
7.141351
 20
394.312051
 30
0.0
 10
62.202200
 20
394.312051
 30
0.0
 10
62.202200
 20
389.312131
 30
0.0
 10
87.044457
 20
389.312131
 30
0.0
 10
87.044457
 20
394.312051
 30
0.0
 10
167.202269
 20
394.312051
 30
0.0
 10
167.202269
 20
389.312131
 30
0.0
 10
192.044527
 20
389.312131
 30
0.0
 10
192.044527
 20
394.312051
 30
0.0
 10
247.531531
 20
394.312051
 30
0.0
 10
247.531531
 20
244.312002
 30
0.0
 10
192.044527
 20
244.312002
 30
0.0
 10
192.044527
 20
249.311921
 30
0.0
 10
167.202269
 20
249.311921
 30
0.0
 10
167.202269
 20
244.312002
 30
0.0
 10
87.044457
 20
244.312002
 30
0.0
 10
87.044457
 20
249.311921
 30
0.0
 10
62.202200
 20
249.311921
 30
0.0
 10
62.202200
 20
244.312002
 30
0.0
  0
SPLINE
  5
17f
100
AcDbEntity
  8
BrailleRAP_V5_600x400_planche2
 62
3
100
AcDbSpline
 70
8
 71
3
 72
8
 73
4
 74
0
 40
0
 40
0
 40
0
 40
0
 40
1
 40
1
 40
1
 40
1
 10
14.388147
 20
366.449275
 30
0.0
 10
13.449405
 20
366.449275
 30
0.0
 10
12.688111
 20
367.210216
 30
0.0
 10
12.688111
 20
368.149311
 30
0.0
  0
SPLINE
  5
180
100
AcDbEntity
  8
BrailleRAP_V5_600x400_planche2
 62
3
100
AcDbSpline
 70
8
 71
3
 72
8
 73
4
 74
0
 40
0
 40
0
 40
0
 40
0
 40
1
 40
1
 40
1
 40
1
 10
12.688111
 20
368.149311
 30
0.0
 10
12.688111
 20
369.088052
 30
0.0
 10
13.449405
 20
369.849347
 30
0.0
 10
14.388147
 20
369.849347
 30
0.0
  0
SPLINE
  5
181
100
AcDbEntity
  8
BrailleRAP_V5_600x400_planche2
 62
3
100
AcDbSpline
 70
8
 71
3
 72
8
 73
4
 74
0
 40
0
 40
0
 40
0
 40
0
 40
1
 40
1
 40
1
 40
1
 10
14.388147
 20
369.849347
 30
0.0
 10
15.326889
 20
369.849347
 30
0.0
 10
16.088183
 20
369.088052
 30
0.0
 10
16.088183
 20
368.149311
 30
0.0
  0
SPLINE
  5
182
100
AcDbEntity
  8
BrailleRAP_V5_600x400_planche2
 62
3
100
AcDbSpline
 70
8
 71
3
 72
8
 73
4
 74
0
 40
0
 40
0
 40
0
 40
0
 40
1
 40
1
 40
1
 40
1
 10
16.088183
 20
368.149311
 30
0.0
 10
16.088183
 20
367.210216
 30
0.0
 10
15.326889
 20
366.449275
 30
0.0
 10
14.388147
 20
366.449275
 30
0.0
  0
LWPOLYLINE
  5
183
100
AcDbEntity
  8
BrailleRAP_V5_600x400_planche2
 62
3
100
AcDbPolyline
 90
1
 70
1
 10
240.284558
 20
366.449275
 30
0.0
  0
LWPOLYLINE
  5
184
100
AcDbEntity
  8
BrailleRAP_V5_600x400_planche2
 62
3
100
AcDbPolyline
 90
1
 70
1
 10
14.388147
 20
366.449275
 30
0.0
  0
ENDSEC
  0
SECTION
  2
OBJECTS
  0
DICTIONARY
  5
C
330
0
100
AcDbDictionary
  3
ACAD_GROUP
350
D
  3
ACAD_MLINESTYLE
350
17
  0
DICTIONARY
  5
D
330
C
100
AcDbDictionary
  0
DICTIONARY
  5
1A
330
C
100
AcDbDictionary
  0
DICTIONARY
  5
17
330
C
100
AcDbDictionary
  3
STANDARD
350
18
  0
DICTIONARY
  5
19
330
C
100
AcDbDictionary
  0
ENDSEC
  0
EOF
